<svg viewBox="0 0 2352 2042" xmlns="http://www.w3.org/2000/svg" xml:space="preserve" style="fill-rule:evenodd;clip-rule:evenodd;stroke-linejoin:round;stroke-miterlimit:2"><path d="M0 87.7h-52.891v-5.412c0-.369.123-.615.246-.861l29.152-33.703c8.241-9.47 12.792-15.989 12.792-25.461 0-10.085-6.027-15.375-15.99-15.375-8.61 0-14.268 3.198-21.034 9.84l-5.043-4.92C-45.019 3.813-37.146 0-26.568 0-12.3 0-3.198 8.61-3.198 22.387c0 11.808-5.781 18.941-15.006 29.643l-21.525 25.215-4.06 4.182 5.905-.369H0V87.7Z" style="fill:#231f20;fill-rule:nonzero" transform="translate(232.496 1.025) scale(4.16667)"/><path d="M0 0c0 20.049 15.252 37.515 36.654 37.515S73.309 20.049 73.309 0c0-21.648-15.253-37.516-36.655-37.516S0-21.648 0 0m76.261 0c0 22.017-16.237 40.59-39.607 40.59S-2.952 22.017-2.952 0c0-23.739 16.236-40.59 39.606-40.59S76.261-23.739 76.261 0M-4.551 0c0 22.755 16.974 42.189 41.205 42.189 24.231 0 41.205-19.434 41.205-42.189 0-24.6-16.974-42.189-41.205-42.189C12.423-42.189-4.551-24.6-4.551 0m85.855 0c0 24.6-17.59 44.649-44.65 44.649S-7.995 24.6-7.995 0c0-25.831 18.819-44.649 44.649-44.649 25.83 0 44.65 18.818 44.65 44.649" style="fill:#231f20;fill-rule:nonzero" transform="translate(292.454 187.067) scale(4.16667)"/><path d="m0-57.565-4.182 4.059-6.396 6.273-4.551-4.551L5.412-72.202l1.722.615v86.224h-7.38v-66.298L0-57.565Z" style="fill:#231f20;fill-rule:nonzero" transform="translate(718.85 305.455) scale(4.16667)"/><path d="M0 87.7h-52.891v-5.412c0-.369.123-.615.246-.861l29.151-33.703c8.241-9.47 12.793-15.989 12.793-25.461 0-10.085-6.028-15.375-15.99-15.375-8.611 0-14.269 3.198-21.034 9.84l-5.043-4.92C-45.019 3.813-37.146 0-26.568 0c14.267 0 23.37 8.61 23.37 22.387 0 11.808-5.781 18.941-15.007 29.643l-21.524 25.215-4.06 4.182 5.904-.369H0V87.7Z" style="fill:#231f20;fill-rule:nonzero" transform="translate(1039.163 1.025) scale(4.16667)"/><path d="M-29.36 47.299h93.797l-.144-7.39-93.797.001.144 7.389Z" style="fill:#231f20;fill-rule:nonzero" transform="scale(4.16667 -4.16667) rotate(72.682 206.529 173.099)"/><path d="M0 87.7h-52.891v-5.412c0-.369.123-.615.246-.861l29.151-33.703c8.241-9.47 12.793-15.989 12.793-25.461 0-10.085-6.028-15.375-15.99-15.375-8.611 0-14.269 3.198-21.034 9.84l-5.043-4.92C-45.019 3.813-37.146 0-26.568 0c14.267 0 23.37 8.61 23.37 22.387 0 11.808-5.781 18.941-15.007 29.643l-21.524 25.215-4.06 4.182 5.904-.369H0V87.7Z" style="fill:#231f20;fill-rule:nonzero" transform="translate(1469.655 1.025) scale(4.16667)"/><path d="M0 0c0 20.049 15.253 37.515 36.654 37.515 21.403 0 36.655-17.466 36.655-37.515 0-21.648-15.252-37.516-36.655-37.516C15.253-37.516 0-21.648 0 0m76.261 0c0 22.017-16.237 40.59-39.607 40.59S-2.952 22.017-2.952 0c0-23.739 16.236-40.59 39.606-40.59S76.261-23.739 76.261 0M-4.551 0c0 22.755 16.975 42.189 41.205 42.189C60.886 42.189 77.86 22.755 77.86 0c0-24.6-16.974-42.189-41.206-42.189C12.424-42.189-4.551-24.6-4.551 0m85.855 0c0 24.6-17.589 44.649-44.65 44.649C9.595 44.649-7.995 24.6-7.995 0c0-25.831 18.819-44.649 44.649-44.649 25.831 0 44.65 18.818 44.65 44.649" style="fill:#231f20;fill-rule:nonzero" transform="translate(1529.61 187.067) scale(4.16667)"/><path d="m0-57.565-4.183 4.059-6.395 6.273-4.552-4.551L5.412-72.202l1.722.615v86.224h-7.38v-66.298L0-57.565Z" style="fill:#231f20;fill-rule:nonzero" transform="translate(1956.01 305.455) scale(4.16667)"/><path d="M0-74.416h-30.627v-6.642h44.649v5.412c0 .369-.123.615-.246.861l-24.845 29.766c21.279-1.968 30.257 9.225 30.257 25.953 0 16.852-12.792 25.708-27.305 25.708-9.718 0-15.007-1.476-22.879-5.905l3.69-6.027C-21.278-1.846-16.728-.124-8.732-.124c11.438 0 20.295-6.272 20.295-19.188 0-13.407-5.536-22.263-29.89-19.065v-7.257L1.846-70.603l4.058-4.182L0-74.416Z" style="fill:#231f20;fill-rule:nonzero" transform="translate(2189.702 345.43) scale(4.16667)"/><path d="M0 44.526c0 3.321-2.46 6.273-6.149 6.273-3.691 0-6.274-2.952-6.274-6.273 0-3.198 2.583-6.15 6.274-6.15 3.689 0 6.149 2.952 6.149 6.15M0-.123C0 3.197-2.46 6.15-6.149 6.15c-3.691 0-6.274-2.953-6.274-6.273 0-3.199 2.583-6.15 6.274-6.15C-2.46-6.273 0-3.322 0-.123" style="fill:#231f20;fill-rule:nonzero" transform="translate(2351.131 99.942) scale(4.16667)"/><path d="M0 14.998c0-4.002-2.944-6.303-6.072-6.303h-9.477v12.422h8.557C-2.53 21.117 0 19.415 0 14.998M-1.104-.045c0-3.543-1.61-6.073-6.119-6.073h-8.326V6.211h7.866c3.543 0 6.579-2.714 6.579-6.256m2.853-.783c0 4.141-2.024 6.349-5.015 7.821 4.233 1.518 6.21 3.681 6.21 8.281 0 6.349-4.83 8.327-9.154 8.327h-12.1V-8.603h11.087c5.521 0 8.972 3.359 8.972 7.775" style="fill:#231f20;fill-rule:nonzero" transform="translate(1075.742 534.771) scale(4.16667)"/><path d="M0-27.88c-8.189 0-13.802 6.763-13.802 13.939 0 7.178 6.027 13.94 13.894 13.94 3.221 0 6.671-1.38 9.155-3.68l1.886 1.978C8.005 1.149 3.956 2.76-.185 2.76c-9.2 0-16.699-7.499-16.699-16.701 0-9.2 7.038-16.699 16.699-16.699 4.28 0 8.144 1.61 11.134 4.232l-2.07 2.255C6.486-26.454 3.267-27.88 0-27.88" style="fill:#231f20;fill-rule:nonzero" transform="translate(1177.71 624.1) scale(4.16667)"/><path d="M0-35.515c0-1.288 1.104-2.393 2.438-2.393 1.289 0 2.392 1.105 2.392 2.393 0 1.334-1.103 2.438-2.392 2.438A2.454 2.454 0 0 1 0-35.515m-9.063 0c0-1.288 1.104-2.393 2.438-2.393 1.288 0 2.393 1.105 2.393 2.393 0 1.334-1.105 2.438-2.393 2.438a2.454 2.454 0 0 1-2.438-2.438m.23 35.424H5.935v2.484h-17.529V-29.81H5.935v2.484H-8.833v11.731H1.519v2.484H-8.833v13.02Z" style="fill:#231f20;fill-rule:nonzero" transform="translate(1307.464 623.138) scale(4.16667)"/><path d="M0-56.334c-16.113 0-27.552 11.931-27.552 28.167C-27.552-13.038-16.113.001 0 .001c7.38 0 14.514-3.321 19.803-7.996L30.996 4.921C22.509 12.547 12.792 16.482 0 16.482c-27.061 0-44.649-20.048-44.649-44.649 0-25.83 18.818-44.649 44.649-44.649 11.931 0 22.263 4.059 30.135 10.824L18.942-49.2C14.268-53.628 7.626-56.334 0-56.334" style="fill:#231f20;fill-rule:nonzero" transform="translate(467.721 1047.763) scale(4.16667)"/><path d="m0 30.136 17.097-40.345 17.097 40.345H0Zm-11.562 27.306 11.07-26.076h35.179l11.069 26.076h1.476L17.097-13.406l-30.135 70.848h1.476Zm40.344-19.68H4.92l-9.84 22.14h-17.958l39.729-89.668L56.58 59.902H38.745l-9.963-22.14Z" style="fill:#231f20;fill-rule:nonzero" transform="translate(732.163 860.184) scale(4.16667)"/><path d="m0 86.839-4.674-51.906-22.879 33.456-22.878-33.456-4.673 51.906h-17.221L-64.944.615-63.469 0l36.531 52.891L7.995 0l1.476.615 7.749 86.224H0Z" style="fill:#231f20;fill-rule:nonzero" transform="translate(1302.068 747.947) scale(4.16667)"/><path d="M0 0c0 15.129 11.439 28.167 27.552 28.167S55.104 15.129 55.104 0c0-16.236-11.439-28.167-27.552-28.167S0-16.236 0 0m62.73 0c0 19.68-14.391 36.163-35.178 36.163S-7.626 19.68-7.626 0c0-21.033 14.391-36.163 35.178-36.163S62.73-21.033 62.73 0M-9.103 0c0 20.295 15.253 37.515 36.655 37.515S64.206 20.295 64.206 0c0-21.648-15.252-37.516-36.654-37.516S-9.103-21.648-9.103 0m81.304 0c0 24.6-17.589 44.649-44.649 44.649C.492 44.649-17.098 24.6-17.098 0c0-25.831 18.82-44.649 44.65-44.649 25.831 0 44.649 18.818 44.649 44.649" style="fill:#231f20;fill-rule:nonzero" transform="translate(1490.66 930.4) scale(4.16667)"/><path d="M0-68.389h35.793v-1.23H-1.23V1.23h36.532V-.001H0v-35.301h27.798v-1.23H0v-31.857ZM8.241-7.627h29.644V8.856H-8.979v-86.101h46.864v16.482H8.241v19.926H29.89v9.717H8.241v23.493Z" style="fill:#231f20;fill-rule:nonzero" transform="translate(1888.868 1072.88) scale(4.16667)"/><path d="M0-72.817V6.642h-7.38v-86.101h44.772v6.642H0Z" style="fill:#231f20;fill-rule:nonzero" transform="translate(172.013 1600.435) scale(4.16667)"/><path d="M0 85.732V6.273h-27.306c-1.845 37.023-3.321 77.491-24.108 79.828l-.246-6.765 1.107-1.353c12.3-3.69 14.268-33.948 16.359-78.352H7.38v86.101H0Z" style="fill:#231f20;fill-rule:nonzero" transform="translate(553.305 1270.893) scale(4.16667)"/><path d="M0 28.412h34.44L20.049-7.381l-2.091-5.412-2.337 5.412L0 28.412Zm-4.797 2.706 22.509-50.307 21.156 50.307H-4.797ZM-15.99 55.965l10.578-23.616H39.36l9.963 23.616H50.8L17.712-22.387l-35.178 78.352h1.476Zm53.136-20.91H-2.829l-10.332 23.37h-8.241l39.36-88.438 37.393 88.438h-8.857l-9.348-23.37Z" style="fill:#231f20;fill-rule:nonzero" transform="translate(711.15 1384.672) scale(4.16667)"/><path d="M0 40.099c0-10.701-7.872-16.852-16.236-16.852h-25.338v33.211h22.878C-6.765 56.458 0 51.907 0 40.099M-2.952-.123c0-9.47-4.305-16.236-16.36-16.236h-22.262v32.965h21.033c9.471 0 17.589-7.258 17.589-16.729m7.626-2.091c0 11.071-5.412 16.974-13.407 20.911C2.583 22.755 7.872 28.536 7.872 40.836 7.872 57.811-5.043 63.1-16.605 63.1h-32.349v-86.101h29.642c14.761 0 23.986 8.979 23.986 20.787" style="fill:#231f20;fill-rule:nonzero" transform="translate(1190.338 1365.193) scale(4.16667)"/><path d="M0 86.101h-7.38V45.756h-49.2v40.345h-7.38V0h7.38v39.115h49.2V0H0v86.101Z" style="fill:#231f20;fill-rule:nonzero" transform="translate(1548.06 1269.355) scale(4.16667)"/><path d="M0 0c0 20.05 15.253 37.516 36.654 37.516C58.057 37.516 73.309 20.05 73.309 0c0-21.647-15.252-37.515-36.655-37.515C15.253-37.515 0-21.647 0 0m76.261 0c0 22.018-16.237 40.591-39.607 40.591S-2.952 22.018-2.952 0c0-23.739 16.236-40.59 39.606-40.59S76.261-23.739 76.261 0M-4.551 0c0 22.756 16.975 42.189 41.205 42.189C60.886 42.189 77.86 22.756 77.86 0c0-24.6-16.974-42.189-41.206-42.189C12.424-42.189-4.551-24.6-4.551 0m85.855 0c0 24.601-17.589 44.649-44.65 44.649C9.595 44.649-7.995 24.601-7.995 0c0-25.83 18.819-44.649 44.649-44.649 25.831 0 44.65 18.819 44.65 44.649" style="fill:#231f20;fill-rule:nonzero" transform="translate(1631.072 1448.73) scale(4.16667)"/><path d="M0-78.229h40.098v-1.229H-1.23V1.476h40.836V.246H0v-40.467h28.29v-1.231H0v-36.777ZM2.706-2.706h39.483v6.642H-4.675v-86.101h46.864v6.642H2.706v31.365h27.675v6.643H2.706v34.809Z" style="fill:#231f20;fill-rule:nonzero" transform="translate(2046.197 1611.71) scale(4.16667)"/><path d="M0 53.203h-4.56v-24.93h-30.402v24.93h-4.56V0h4.56v24.17H-4.56V0H0v53.203Z" style="fill:#231f20;fill-rule:nonzero" transform="translate(177.896 1773.097) scale(4.16667)"/><path d="M0 17.557h21.281L12.389-4.56l-1.292-3.344L9.653-4.56 0 17.557Zm-2.964 1.672 13.909-31.086 13.073 31.086H-2.964ZM-9.88 34.581l6.536-14.592h27.665l6.157 14.592h.912L10.945-13.833l-21.737 48.414h.912Zm32.833-12.92H-1.748l-6.384 14.441h-5.093l24.322-54.647 23.105 54.647h-5.473l-5.776-14.441Z" style="fill:#231f20;fill-rule:nonzero" transform="translate(252.938 1844.352) scale(4.16667)"/><path d="M0-44.995V4.104h-4.56v-53.203h27.665v4.104H0Z" style="fill:#231f20;fill-rule:nonzero" transform="translate(584.796 1977.677) scale(4.16667)"/><path d="M0-.001c0 12.389 9.425 23.182 22.649 23.182 13.225 0 22.65-10.793 22.65-23.182 0-13.377-9.425-23.181-22.65-23.181C9.425-23.182 0-13.378 0-.001m47.122 0c0 13.604-10.032 25.081-24.473 25.081C8.208 25.08-1.824 13.603-1.824-.001c0-14.669 10.032-25.081 24.473-25.081 14.441 0 24.473 10.412 24.473 25.081m-49.934 0c0 14.061 10.489 26.069 25.461 26.069 14.973 0 25.461-12.008 25.461-26.069 0-15.2-10.488-26.069-25.461-26.069C7.677-26.07-2.812-15.201-2.812-.001m53.05 0c0 15.201-10.868 27.59-27.589 27.59C5.928 27.589-4.94 15.2-4.94-.001c0-15.961 11.628-27.589 27.589-27.589 15.961 0 27.589 11.628 27.589 27.589" style="fill:#231f20;fill-rule:nonzero" transform="translate(710.509 1883.94) scale(4.16667)"/><path d="M0 33.898h26.449v-44.994H7.372C6.384 7.145 5.472 25.841 0 33.898m36.71 15.201h-4.561V38.002H-5.093v11.097h-4.559V33.898h4.408C.76 28.882 1.824 11.021 3.04-15.201h27.97v49.099h5.7v15.201Z" style="fill:#231f20;fill-rule:nonzero" transform="translate(961.622 1836.43) scale(4.16667)"/><path d="M0 24.777c0-6.612-4.864-10.412-10.032-10.412h-15.657v20.52h14.136C-4.181 34.885 0 32.074 0 24.777M-1.824-.077c0-5.851-2.66-10.032-10.109-10.032h-13.756V10.26h12.997c5.851 0 10.868-4.484 10.868-10.337m4.712-1.292c0 6.841-3.344 10.49-8.284 12.921 6.992 2.508 10.26 6.08 10.26 13.681 0 10.488-7.98 13.757-15.125 13.757H-30.25v-53.203h18.317c9.12 0 14.821 5.549 14.821 12.844" style="fill:#231f20;fill-rule:nonzero" transform="translate(1414.776 1832.318) scale(4.16667)"/><path d="M0 53.203V4.104h-27.361v49.099h-4.561V0H4.561v53.203H0Z" style="fill:#231f20;fill-rule:nonzero" transform="translate(1604.776 1773.097) scale(4.16667)"/><path d="M0-48.338h24.777v-.76H-.76V.912h25.234v-.76H0v-25.005h17.481v-.76H0v-22.725ZM1.672-1.672h24.397v4.105H-2.888v-53.204h28.957v4.105H1.672v19.381h17.101v4.104H1.672v21.509Z" style="fill:#231f20;fill-rule:nonzero" transform="translate(1682.664 1984.64) scale(4.16667)"/><path d="M0-22.649c0-6.765-4.18-11.173-11.628-11.173h-12.997v22.65h13.757C-5.016-11.172 0-13.605 0-22.649m-24.625 37.926h-4.561v-53.203h17.558c9.12 0 16.341 5.016 16.341 15.505 0 9.424-6.461 15.353-16.646 15.353h-12.692v22.345Z" style="fill:#231f20;fill-rule:nonzero" transform="translate(1955.006 1931.122) scale(4.16667)"/><path d="M0-58.675c0-2.129 1.824-3.952 4.028-3.952 2.129 0 3.952 1.823 3.952 3.952 0 2.204-1.823 4.028-3.952 4.028C1.824-54.647 0-56.471 0-58.675m-14.973 0c0-2.129 1.825-3.952 4.029-3.952 2.128 0 3.952 1.823 3.952 3.952 0 2.204-1.824 4.028-3.952 4.028-2.204 0-4.029-1.824-4.029-4.028m.38 58.522H9.805v4.105h-28.957v-53.203H9.805v4.104h-24.398v19.381H2.509v4.105h-17.102V-.153Z" style="fill:#231f20;fill-rule:nonzero" transform="translate(2079.764 1978.31) scale(4.16667)"/><path d="M0 33.898h26.449v-44.994H7.372C6.384 7.145 5.472 25.841 0 33.898m36.71 15.201h-4.561V38.002H-5.093v11.097h-4.559V33.898h4.408C.76 28.882 1.824 11.021 3.04-15.201h27.97v49.099h5.7v15.201Z" style="fill:#231f20;fill-rule:nonzero" transform="translate(2177.614 1836.43) scale(4.16667)"/><path style="fill:#231f20" d="M429 446.62h219.893v2.4H429z" transform="matrix(-4.16667 0 0 4.16667 4114.47 -1302.043)"/><path style="fill:#231f20" d="M90.418 446.62H310.12v2.4H90.418z" transform="matrix(-4.16667 0 0 4.16667 1292.168 -1302.043)"/></svg>