<svg viewBox="0 0 331 259" xmlns="http://www.w3.org/2000/svg" xml:space="preserve" style="fill-rule:evenodd;clip-rule:evenodd;stroke-linejoin:round;stroke-miterlimit:2"><path d="m17.36 48.68-4.24-29.921-.4-4.4-.48 4.4L7.76 48.68h9.6Zm7.681 16.48c.399.16.48.24.48.48 0 .16 0 .24-.241.24-1.84-.16-3.52-.16-3.68-.16-4.16 0-5.36.16-5.76.16-.32 0-.32-.08-.32-.24 0-.32.16-.4.48-.48l3.28-.96c.32-.08.32-.32.32-.56l-2-13.52H7.52l-2 13.52c0 .24 0 .48.32.56l3.28.96c.32.08.48.24.48.4 0 .16 0 .32-.24.32-1.84-.16-3.2-.16-3.36-.16-4.08 0-5.28.16-5.68.16-.32 0-.32-.08-.32-.24 0-.24.16-.4.48-.48l2.88-.88c.24-.08.4-.24.48-.56l8-52.641-1.92-.8c-.48-.16-.48-.24-.48-.4 0-.16 0-.24.24-.24 1.04 0 1.28.08 2.96.08 1.44 0 2.08-.08 3.12-.08.24 0 .24.08.24.24 0 .16 0 .24-.48.4l-1.52.64 7.6 52.721c.08.4.24.56.4.56l3.041.96ZM38.959 64.28c6 0 9.12-3.92 9.12-13.92 0-9.04-2.56-13.041-8.32-13.041h-5.52V64.28h4.72Zm-4.72 1.44c-2.8 0-5.44.16-5.841.16-.319 0-.319-.08-.319-.32s.16-.32.48-.4l3.12-.96c.32-.08.32-.32.32-.56V11.799c0-.24 0-.48-.32-.56l-3.12-.96c-.32-.08-.48-.16-.48-.4 0-.16 0-.32.24-.32 1.36.08 3.599.16 4.64.16h14.56c.32 0 .56.24.56.56l.4 13.76c0 .32-.16.4-.4.4-.24 0-.4-.08-.48-.4l-1.84-12.08c-.16-.56-.32-.72-.56-.8h-10.96v24.72h5.52c6.08 0 10.64 4.241 10.64 14.721 0 10.72-4.72 15.12-11.44 15.12h-4.72ZM63.039 64.28c6.72 0 9.2-3.92 9.2-13.44s-2.48-13.521-8.4-13.521h-3.921V64.28h3.121Zm-.8-28.401c6.72 0 9.2-2.8 9.2-12.32s-3.28-12.4-8.4-12.4h-3.121v24.72h2.321ZM59.918 65.72c-1.52 0-4.56.08-5.919.16-.241 0-.241-.16-.241-.32 0-.24 0-.24.48-.4l3.12-.96c.321-.08.321-.32.321-.56V11.799c0-.24 0-.48-.321-.56l-3.12-.96c-.48-.16-.48-.16-.48-.4 0-.16 0-.32.241-.32 1.359.08 3.12.16 4.64.16h4.4c6.48 0 10.72 3.52 10.72 13.84 0 5.92-1.68 9.601-4.24 11.681-.88.719-2.32.96-3.2 1.199.88.16 2.48.56 3.36 1.12 3.12 2.081 4.88 6.48 4.88 13.281 0 10.32-4.8 14.88-11.52 14.88h-3.121ZM77.918 10.279c-.48-.16-.48-.16-.48-.4 0-.16 0-.32.239-.32 4.72.24 9.521.16 15.921.16.4 0 .64.16.64.56l.4 13.76c0 .56-.8.56-.88 0l-1.84-12.08c-.08-.48-.32-.8-.72-.8h-7.6V63.64c0 .24 0 .48.32.56l3.12.96c.48.16.48.16.48.4 0 .16 0 .32-.24.32-1.84-.16-3.04-.16-4.961-.16-1.52 0-3.279.08-4.64.16-.239 0-.239-.16-.239-.32 0-.24 0-.24.48-.4l3.12-.96c.319-.08.319-.32.319-.56V11.799c0-.24 0-.48-.319-.56l-3.12-.96ZM114.878 11.159h-9.36V37.72c0 16.72-1.44 23.36-3.681 26.56h13.041V11.159Zm3.04 55.361c-.16-.56-.16-.8-.56-.8H99.517c-.4 0-.4.24-.56.8l-1.84 12.08c-.08.32-.24.4-.48.4s-.4-.08-.4-.4l.4-13.76c0-.32.24-.56.56-.56h2.64c3.44-2.4 3.92-16.96 3.92-26.56V11.799c0-.24 0-.48-.319-.56l-3.121-.96c-.48-.16-.48-.16-.48-.4 0-.16 0-.32.241-.32 1.36.08 3.119.16 4.64.16h11.36c1.92 0 2.88 0 4.72-.16.24 0 .24.16.24.32 0 .24 0 .24-.48.4l-3.12.96c-.32.08-.32.32-.32.56V64.28h2.56c.32 0 .56.24.56.56l.4 13.76c0 .32-.16.4-.4.4-.24 0-.4-.08-.48-.4l-1.84-12.08ZM130.157 11.799c0-.24 0-.48-.321-.56l-3.12-.96c-.48-.16-.48-.16-.48-.4 0-.16 0-.32.241-.32 1.359.08 3.12.16 4.64.16h14.56c.32 0 .56.24.56.56l.4 13.76c0 .32-.16.4-.4.4-.24 0-.4-.08-.48-.4l-1.84-12.08c-.16-.56-.32-.72-.56-.8h-10.961V36.68h6.721l1.76-8.801c.08-.24.24-.24.32-.24.24 0 .56.08.56.24l-.32 9.52.32 9.521c0 .159-.32.24-.56.24-.08 0-.24 0-.32-.24l-1.76-8.8h-6.721v26.16h11.361c.24-.08.4-.24.56-.8l1.84-12.08c.08-.32.24-.4.48-.4s.4.08.4.4l-.4 13.76c0 .32-.24.56-.56.56h-14.96c-1.52 0-3.281.08-4.64.16-.241 0-.241-.16-.241-.32 0-.24 0-.24.48-.4l3.12-.96c.321-.08.321-.32.321-.56V11.799ZM166.476 4.359c0-.88.72-1.68 1.68-1.68.88 0 1.68.8 1.68 1.68 0 .96-.8 1.68-1.68 1.68-.96 0-1.68-.72-1.68-1.68Zm-8 0c0-.88.72-1.68 1.68-1.68.88 0 1.68.8 1.68 1.68 0 .96-.8 1.68-1.68 1.68-.96 0-1.68-.72-1.68-1.68Zm-2.8 7.44c0-.24 0-.48-.321-.56l-3.12-.96c-.48-.16-.48-.16-.48-.4 0-.16 0-.32.241-.32 1.359.08 3.12.16 4.64.16h14.56c.32 0 .56.24.56.56l.4 13.76c0 .32-.16.4-.4.4-.24 0-.4-.08-.48-.4l-1.84-12.08c-.16-.56-.32-.72-.56-.8h-10.96V36.68h6.72l1.76-8.801c.08-.24.24-.24.32-.24.24 0 .56.08.56.24l-.32 9.52.32 9.521c0 .159-.32.24-.56.24-.08 0-.24 0-.32-.24l-1.76-8.8h-6.72v26.16h11.36c.24-.08.4-.24.56-.8l1.84-12.08c.08-.32.24-.4.48-.4s.4.08.4.4l-.4 13.76c0 .32-.24.56-.56.56h-14.96c-1.52 0-3.281.08-4.64.16-.241 0-.241-.16-.241-.32 0-.24 0-.24.48-.4l3.12-.96c.321-.08.321-.32.321-.56V11.799ZM201.195 65.16c.321.08.481.16.481.4 0 .16 0 .32-.24.32-2.081-.16-3.84-.16-4-.16-4 0-5.681.16-6 .16-.321 0-.321-.08-.321-.24 0-.32.16-.4.481-.48l3.199-.96c.32-.08.32-.32.32-.56V37.16h-4c-8.24 0-3.36 28.72-13.84 28.72-.24 0-.24-.72-.24-.88 0-.96.24-.96.48-1.04 7.44-2.72 4.88-20.881 9.44-26.561.48-.56 1.12-.96 2.08-1.279-.96-.561-1.68-1.201-2.08-2.161-1.04-2.4-1.2-6-1.2-9.76v-5.04c0-5.04-.32-9.28-3.04-9.28-2.56 0-2.64 3.84-2.64 12.56v1.52c0 .48-.08.56-.4.56-.72 0-.96-.24-.96-.56 0-10.4.24-15.04 4.08-15.04 9.2 0 .64 26.241 8.4 26.801h3.92V11.799c0-.24 0-.48-.32-.56l-3.199-.96c-.321-.08-.481-.16-.481-.4 0-.16 0-.32.24-.32 1.6.08 3.92.16 4.88.16.88 0 5.201-.08 5.361-.08.08 0 .08 0 .08.16 0 .32-.16.4-.481.48l-3.519.96c-.321.08-.321.32-.321.56V35.72h3.92c3.28-.241 3.6-5.121 3.6-10.721v-4.16c0-6.16.4-11.92 4.721-11.92 4.08 0 4.16 4.16 4.16 15.04 0 .32-.24.56-.721.56-.639 0-.639-.32-.639-.56 0-10.64-.081-14.08-2.56-14.08-2.801 0-3.201 4.32-3.201 9.2 0 2.24.08 3.2.08 5.6 0 3.68-.239 7.6-1.52 9.92-.32.641-1.04 1.121-1.92 1.521.88.16 1.44.479 1.76.799 5.2 5.04 2.881 24.641 9.92 27.041.24.08.481.08.481 1.04 0 .16 0 .88-.241.88-10.48 0-5.599-28.72-13.84-28.72h-4v26.48c0 .24 0 .48.321.56l3.519.96ZM224.715 36.599l-.32-8.64c0-.16.08-.24.32-.24.16 0 .32.08.32.24l1.52 7.92h.48c5.68 0 7.68-3.68 7.68-14.48 0-6.56-1.44-11.68-6.481-11.68-5.359 0-7.759 5.28-7.759 16.08 0 0-.161.16-.561.16-.319 0-.319-.16-.319-.16V9.239c0-.16.08-.16.399-.16.32 0 .401 0 .481.24l.4 4.8c1.039-3.36 3.68-5.68 7.52-5.68 5.919 0 8.56 5.2 8.56 14.96 0 8.8-2.48 11.6-6.641 13.04 4.561 1.04 7.361 3.6 7.361 13.361 0 12.72-3.92 17.04-10.08 17.04-6.48 0-8.72-6.48-8.72-14.96 0-2.24.08-2.48.879-2.48.721 0 .801.24.801 2 .32 8.88 1.599 14.32 7.2 14.32 5.6 0 7.44-5.52 7.44-14.96 0-10.64-2.4-13.441-8.16-13.441h-.48l-1.52 8.081c0 .159-.16.24-.32.24-.24 0-.32-.081-.32-.24l.32-8.801ZM267.754 65.16c.32.08.48.16.48.4 0 .16 0 .32-.24.32-1.84-.16-3.68-.16-5.599-.16-1.521 0-3.282.08-4.641.16-.24 0-.24-.16-.24-.32s.08-.32.479-.4l3.12-.96c.32-.08.32-.32.32-.56V20.999l.56-5.76-.079-.08-1.439 5.84-13.282 44.721c-1.519 0-4.24.08-5.599.16-.24 0-.24-.16-.24-.32 0-.24 0-.24.48-.4l3.279-.96c.321-.08.321-.32.321-.56V11.799c0-.24 0-.48-.321-.56l-3.279-.96c-.48-.16-.48-.16-.48-.4 0-.16 0-.32.24-.32 1.359.08 3.279.16 4.8.16 1.919 0 3.12 0 4.96-.16.24 0 .24.16.24.32 0 .24 0 .32-.481.4l-3.119.96c-.32.08-.32.32-.32.56V53.16l-.481 6.64.08.08 1.84-6.64 13.121-43.521c1.92 0 3.92.08 5.76-.08.24 0 .24.16.24.32 0 .24 0 .24-.48.4l-3.76.88c-.32.08-.32.32-.32.56V63.64c0 .24 0 .48.32.56l3.76.96ZM292.554 1.799c0-.24 0-.48-.321-.56-1.92-.48-2.719-.721-2.719-.88 0-.16 0-.321.24-.321h5.199c.24 0 .24.161.24.321 0 .159-.24.24-1.199.72-.32.16-.32.56-.32.8 0 4.08-1.84 4.8-7.041 4.88-5.199-.08-7.039-.8-7.039-4.88 0-.24 0-.64-.321-.8-1.04-.561-1.2-.561-1.2-.72 0-.16 0-.321.24-.321h5.201c.24 0 .24.161.24.321 0 .159-.801.4-2.721.88-.32.08-.32.32-.32.56v1.28c0 1.84 2.24 2.32 5.92 2.4 3.68-.08 5.921-.56 5.921-2.4v-1.28Zm6.239 63.361c.32.08.48.16.48.4 0 .16 0 .32-.24.32-1.84-.16-3.679-.16-5.599-.16-1.52 0-3.281.08-4.641.16-.24 0-.24-.16-.24-.32s.08-.32.48-.4l3.12-.96c.321-.08.321-.32.321-.56V20.999l.559-5.76-.08-.08-1.439 5.84-13.281 44.721c-1.52 0-4.24.08-5.6.16-.24 0-.24-.16-.24-.32 0-.24 0-.24.48-.4l3.28-.96c.32-.08.32-.32.32-.56V11.799c0-.24 0-.48-.32-.56l-3.28-.96c-.48-.16-.48-.16-.48-.4 0-.16 0-.32.24-.32 1.36.08 3.28.16 4.801.16 1.92 0 3.119 0 4.959-.16.24 0 .24.16.24.32 0 .24 0 .32-.48.4l-3.12.96c-.32.08-.32.32-.32.56V53.16l-.48 6.64.08.08 1.84-6.64 13.12-43.521c1.92 0 3.92.08 5.76-.08.24 0 .24.16.24.32 0 .24 0 .24-.48.4l-3.76.88c-.32.08-.32.32-.32.56V63.64c0 .24 0 .48.32.56l3.76.96ZM314.633 65.16c.32.08.48.16.48.4 0 .16 0 .32-.24.32-2.24-.08-1.12-.16-3.84-.16-3.76 0-5.52.16-5.761.16-.239 0-.239-.08-.239-.32s.16-.32.48-.4l2.719-.96c.321-.08.321-.32.321-.56V11.799c0-.24 0-.48-.321-.56l-2.719-.96c-.32-.08-.48-.16-.48-.4 0-.16 0-.32.239-.32 1.361.08 4.72.16 5.281.16.48 0 4.16-.08 4.48-.08.08 0 .08 0 .08.16 0 .32-.16.4-.48.48l-3.52.96c-.32.08-.32.32-.32.56V35.72h5.12c7.601-.56-.8-26.801 8.4-26.801 3.92 0 4.08 3.76 4.08 11.12 0 .32-.32.56-.639.56-.4 0-.721-.24-.721-.56 0-8.08-.8-10.16-2.72-10.16-2.719 0-3.04 4-3.04 8.96v5.44c0 7.12-.64 10.32-3.44 11.841 6.24 2.08 5.04 19.2 8.88 25.84.721 1.28 1.84 2.48 3.041 2.48.319 0 .479.08.479 1.04 0 .16 0 .88-.24.88-10.479 0-6.16-29.2-14-29.2h-5.2v26.48c0 .24 0 .48.32.56l3.52.96ZM26.8 155.159c.48.08.48.16.48.4 0 .161 0 .321-.239.321-1.841-.16-3.52-.16-3.681-.16-4.16 0-5.44.16-5.84.16-.32 0-.32-.08-.32-.321 0-.24.16-.32.48-.4l3.12-.959c.32-.08.32-.32.32-.56v-52.481H12.4v22.56c0 18.161-2.08 32.961-7.12 32.961-2.88 0-3.44-3.761-3.44-9.841 0-.4.24-.719.8-.719.8 0 .96.48.96.719 0 5.761.32 8.881 1.84 8.881 3.36 0 5.2-15.361 5.2-32.001v-21.921c0-.239 0-.48-.32-.56l-3.12-.96c-.32-.08-.48-.159-.48-.399 0-.16 0-.32.24-.32 1.36.08 3.36.16 4.64.16h10.72c.48 0 2.88 0 4.721-.08.159 0 .239-.08.239.16 0 .32-.159.479-.48.559l-3.12.88c-.32.08-.32.321-.32.56v51.842c0 .24 0 .48.32.56l3.12.959ZM60.32 155.159c.48.16.48.16.48.4 0 .161 0 .321-.24.321-1.84-.16-3.04-.16-4.96-.16-1.52 0-3.28.08-4.64.16-.24 0-.24-.16-.24-.321 0-.24 0-.24.48-.4l3.12-.959c.32-.08.32-.32.32-.56v-45.441l.32-6.08h-.08l-.88 6.08-7.04 47.521h-.72l-8-47.521-.56-6.08h-.08l.16 6.08v45.441c0 .24 0 .48.32.56l3.12.959c.48.16.48.16.48.4 0 .161 0 .321-.241.321-1.839-.16-2.879-.16-4.799-.16-1.52 0-2.881.08-4.241.16-.239 0-.239-.16-.239-.321 0-.24 0-.24.48-.4l3.119-.959c.321-.08.321-.32.321-.56v-51.842c0-.239 0-.48-.321-.56l-3.119-.96c-.48-.159-.48-.159-.48-.399 0-.16 0-.32.239-.32 1.36.08 4.081.16 5.601.16h1.04l6.96 42.64.64 6.64h.08l.64-6.16 6.32-43.12c2.4 0 4.72 0 6.88-.08.24 0 .24.16.24.32 0 .239 0 .239-.48.399l-3.12.88c-.32.08-.32.321-.32.56v51.842c0 .24 0 .48.32.56l3.12.959ZM90.799 155.159c.48.08.48.16.48.4 0 .161 0 .321-.239.321-1.841-.16-2.801-.16-4.721-.16-1.52 0-3.52.08-4.88.16-.24 0-.24-.16-.24-.321 0-.24 0-.24.48-.4l3.12-.959c.32-.08.32-.32.32-.56v-26.881h-13.76v26.881c0 .24 0 .48.32.56l3.12.959c.48.16.48.16.48.4 0 .161 0 .321-.24.321-1.84-.16-3.04-.16-4.96-.16-1.52 0-3.28.08-4.64.16-.24 0-.24-.16-.24-.321 0-.24 0-.24.48-.4l3.12-.959c.32-.08.32-.32.32-.56v-51.842c0-.239 0-.48-.32-.56l-3.12-.96c-.48-.159-.48-.159-.48-.399 0-.16 0-.32.24-.32 1.36.08 3.12.16 4.64.16 1.92 0 3.12 0 4.96-.16.24 0 .24.16.24.32 0 .24 0 .24-.48.399l-3.12.96c-.32.08-.32.321-.32.56v23.521h13.76v-23.521c0-.239 0-.48-.32-.56l-3.12-.96c-.48-.159-.48-.159-.48-.399 0-.16 0-.32.24-.32 1.36.08 3.36.16 4.88.16 1.92 0 2.88 0 4.721-.16.239 0 .239.16.239.32 0 .24 0 .24-.48.399l-3.12.96c-.32.08-.32.321-.32.56v51.842c0 .24 0 .48.32.56l3.12.959ZM105.039 99.719c-6.241 0-7.361 8.719-7.361 28 0 19.28 1.92 28.001 7.361 28.001 6.08 0 7.36-8.721 7.36-28.001 0-19.281-1.12-28-7.36-28Zm9.68 28c0 16.8-1.04 29.281-9.68 29.281-8.641 0-9.681-12.481-9.681-29.281 0-16.8 1.04-29.28 9.681-29.28 8.64 0 9.68 12.48 9.68 29.28ZM145.198 155.159c.48.08.48.16.48.4 0 .161 0 .321-.24.321-1.84-.16-2.8-.16-4.72-.16-1.52 0-3.52.08-4.881.16-.239 0-.239-.16-.239-.321 0-.24 0-.24.48-.4l3.12-.959c.32-.08.32-.32.32-.56v-52.481h-13.761v52.481c0 .24 0 .48.32.56l3.12.959c.48.16.48.16.48.4 0 .161 0 .321-.239.321-1.841-.16-3.041-.16-4.961-.16-1.52 0-3.28.08-4.64.16-.24 0-.24-.16-.24-.321 0-.24 0-.24.48-.4l3.12-.959c.32-.08.32-.32.32-.56v-51.842c0-.239 0-.48-.32-.56l-3.12-.96c-.48-.159-.48-.159-.48-.399 0-.16 0-.32.24-.32 1.36.08 3.12.16 4.64.16 18.161 0 19.121 0 20.961-.16.24 0 .24.16.24.32 0 .24 0 .24-.48.399l-3.12.96c-.32.08-.32.321-.32.56v51.842c0 .24 0 .48.32.56l3.12.959ZM160.957 128.119c6 0 8.399-4 8.399-13.76 0-10.001-2.56-13.2-9.2-13.2h-3.12v26.96h3.921Zm1.119 27.04c.32.08.481.16.481.4 0 .161 0 .321-.241.321-1.839-.16-5.6-.16-5.76-.16-3.52 0-5.04.16-5.44.16-.24 0-.24-.08-.24-.321 0-.24.16-.32.48-.4l3.12-.959c.32-.08.32-.32.32-.56v-51.842c0-.239 0-.48-.32-.56l-3.12-.96c-.32-.08-.48-.159-.48-.399 0-.16 0-.32.24-.32 1.36.08 4.88.16 5.92.16h3.12c7.761 0 11.441 4.159 11.441 14.24 0 11.36-4.721 15.6-10.64 15.6h-3.921v24.081c0 .24 0 .48.32.56l4.72.959ZM194.156 115.559c0 .24-.24.32-.881.32-.32 0-.639-.08-.639-.4 0-9.76-.96-15.76-5.921-15.76-6.319 0-7.44 10.239-7.44 27.12 0 17.841 1.52 28.881 7.281 28.881 5.2 0 6.559-5.84 6.559-15.601 0-.239.16-.399.961-.399.56 0 .799.08.799.479 0 10.561-1.68 16.801-8.319 16.801-8.481 0-9.601-13.601-9.601-29.041 0-16.001 1.12-29.52 9.601-29.52 3.6 0 5.52 1.839 6.399 4.24l.16-2.96c0-.16.08-.24.481-.24.32 0 .4 0 .4.16l.16 15.92ZM214.635 155.159c.48.16.48.16.48.4 0 .161 0 .321-.24.321-1.84-.16-3.039-.16-5.76-.16-2.32 0-4.08.08-5.439.16-.24 0-.24-.16-.24-.321 0-.24 0-.24.479-.4l3.921-.959c.319-.08.319-.32.319-.56v-52.481h-6.8c-.24.079-.4.239-.56.799l-1.84 12.08c-.08.321-.24.401-.48.401-.241 0-.4-.08-.4-.401l.4-13.76c0-.319.24-.559.56-.559h20.24c.321 0 .561.24.561.559l.399 13.76c0 .321-.159.401-.399.401-.24 0-.4-.08-.481-.401l-1.839-12.08c-.161-.56-.321-.72-.561-.799h-6.559v52.481c0 .24 0 .48.319.56l3.92.959ZM227.435 101.718c-.081-.24-.241-.4-.64-.559l-2.801-.881c-.32-.08-.479-.159-.479-.399 0-.16 0-.32.239-.32 2.32.16 4.4.16 4.56.16 3.84 0 5.441-.16 5.68-.16.16 0 .24 0 .24.32 0 .24-.08.319-.479.399l-3.601.881c-.32.079-.32.159-.32.559l5.361 28.962 1.2 9.599h.16l1.2-9.52 4.8-29.12c0-.401 0-.48-.321-.56l-3.439-.801c-.32-.08-.481-.159-.481-.399 0-.16 0-.32.241-.32 1.36.08 4.64.16 6.24.16 1.92 0 2-.08 2.48-.08s.48.08.48.24c0 .319-.08.319-.48.479l-2.48.721c-.481.159-.561.319-.641.56l-7.92 47.121c-.879 5.2-2.479 8.08-5.039 8.08-3.041 0-4.001-3.281-4.001-10.96 0-.401.16-.641.8-.641.641 0 .721.32.721.481 0 7.04.48 10.08 2.639 10.08 1.681 0 2.96-2.241 4.161-11.441l-8.08-42.641ZM263.436 148.04c7.759 0 9.679-6.16 9.679-21.281 0-15.12-1.92-21.12-9.679-21.12v42.401Zm-2.241-42.401c-7.76 0-9.921 6-9.921 21.12 0 15.121 2.161 21.281 9.921 21.281v-42.401Zm5.68 51.121c.48.16.48.24.48.399 0 .16 0 .32-.24.32-2.08-.16-3.679-.16-4.801-.16-2.64 0-4.24.16-4.799.16-.24 0-.24-.08-.24-.24 0-.319.079-.399.48-.479l3.12-.96c.32-.08.32-.321.32-.561v-6.08c-9.76 0-12.16-6.48-12.16-22.4 0-15.92 2.4-22.241 12.16-22.241v-4.559c0-.24 0-.48-.32-.56l-3.12-.96c-.32-.08-.48-.16-.48-.4 0-.16 0-.32.24-.32 1.36.08 4.24.16 5.12.16.801 0 4-.08 4.32-.08.32 0 .4.08.4.24 0 .16-.16.32-.48.4l-3.12.96c-.319.08-.319.32-.319.56v4.559c9.759 0 11.919 6.321 11.919 22.241s-2.16 22.4-11.919 22.4v6.08c0 .24 0 .481.319.561l3.12.96ZM299.994 155.159c.401.16.481.24.481.4 0 .161 0 .321-.241.321-1.359-.08-2.72-.16-4.24-.16-1.92 0-3.359 0-5.199.16-.24 0-.24-.16-.24-.321 0-.24 0-.4.479-.48l3.521-.879c.479-.08.399-.32.32-.56l-5.121-19.441-.96-4.239h-.079l-.961 4.239-5.44 19.521c-.08.24-.08.48.32.56l3.44.799c.401.08.481.24.481.48 0 .161 0 .321-.241.321-1.839-.16-2.4-.16-4.32-.16-1.519 0-3.36.08-4.721.16-.24 0-.24-.16-.24-.321 0-.24.16-.24.481-.4l2.4-.879c.481-.16.641-.4.72-.64l7.36-26.161-6.721-25.761c-.08-.24-.319-.4-.639-.559l-2-.801c-.48-.16-.48-.239-.48-.399 0-.16 0-.32.241-.32 1.839.16 2.878.08 4.798.08 1.521 0 3.282-.08 4.641-.16.24 0 .24.16.24.32 0 .24-.08.319-.48.399l-3.92.96c-.32.08-.401.24-.32.56l5.201 19.841.479 2.72h.08l.56-2.72 5.6-19.841c.08-.239 0-.48-.32-.56l-3.92-.96c-.399-.08-.479-.159-.479-.399 0-.16 0-.32.24-.32 1.359.08 3.119.16 4.64.16 1.919 0 2.639 0 4.399-.08.24 0 .24.16.24.32s-.08.239-.48.399l-2 .801c-.4.159-.56.319-.639.559l-7.041 25.041 7.041 26.881c.079.24.239.48.719.64l2.32.879ZM325.514 156.519c-.16-.559-.16-.799-.561-.799h-16.721c-1.519 0-3.279.08-4.639.16-.239 0-.239-.16-.239-.321 0-.24 0-.24.479-.4l3.12-.959c.32-.08.32-.32.32-.56v-51.842c0-.239 0-.48-.32-.56l-3.12-.96c-.479-.159-.479-.159-.479-.399 0-.16 0-.32.239-.32 1.36.08 3.12.16 4.639.16 1.921 0 3.362 0 5.202-.16.24 0 .24.16.24.32 0 .24 0 .24-.481.399l-3.36.96c-.319.08-.319.321-.319.56v52.482h13.279v-52.482c0-.239 0-.48-.319-.56l-3.12-.96c-.481-.159-.481-.159-.481-.399 0-.16 0-.32.24-.32 1.361.08 3.361.16 4.881.16 1.92 0 2.879 0 4.719-.16.24 0 .24.16.24.32 0 .24 0 .319-.479.399l-3.12.96c-.321.08-.321.321-.321.56v52.482h2.24c.321 0 .561.239.561.56l.399 13.761c0 .319-.159.399-.399.399-.24 0-.4-.08-.48-.399l-1.84-12.082ZM45.36 245.16c.48.079.48.159.48.399 0 .161 0 .321-.24.321-1.84-.16-2.64-.16-4.56-.16-1.52 0-4.08.08-5.44.16-.24 0-.24-.16-.24-.321 0-.24 0-.24.48-.399l3.92-.721c.32-.08.32-.319.32-.559v-23.521c-3.12 1.04-5.68 1.36-7.76 1.36-4.48 0-6.72-2.64-6.72-9.281v-20.879c0-.241 0-.481-.32-.561l-2.32-.72c-.4-.08-.48-.24-.48-.399 0-.16 0-.32.24-.32 1.36.08 2.56.16 4.08.16 1.92 0 2.88 0 4.72-.16.24 0 .24.16.24.32 0 .159-.08.319-.48.399l-3.12.72c-.32.08-.32.32-.32.561v20.8c0 5.84 1.68 7.84 5.12 7.84 1.84 0 4.24-.4 7.12-1.28v-27.36c0-.241 0-.481-.32-.561l-3.12-.72c-.4-.08-.48-.24-.48-.399 0-.16 0-.32.24-.32 1.36.08 3.36.16 4.88.16 1.92 0 2.08 0 3.92-.16.24 0 .24.16.24.32 0 .159-.08.239-.48.399l-2.32.72c-.32.08-.32.32-.32.561v52.321c0 .24 0 .479.32.559l2.72.721ZM56.719 245.72c-1.52 0-3.52.08-4.88.16-.24 0-.24-.16-.24-.321 0-.24 0-.24.48-.399l3.36-.961c.32-.079.32-.319.32-.559v-51.841c0-.24 0-.401-.32-.561l-3.12-.96c-.4-.16-.48-.24-.48-.399 0-.16 0-.24.24-.24 1.36.08 3.12.08 4.64.08 1.92 0 3.36 0 5.2-.16.24 0 .24.16.24.32 0 .239 0 .239-.48.399l-3.36.96c-.32.08-.32.321-.32.561v52.48h9.84v-52.48c0-.24 0-.481-.319-.561l-2.321-.96c-.48-.16-.48-.16-.48-.399 0-.16 0-.32.241-.32 1.359.08 2.319.16 3.839.16 1.921 0 2.56 0 4.401-.16.239 0 .239.16.239.32 0 .239 0 .239-.479.399l-2.561.96c-.319.08-.319.321-.319.561v52.48h9.84v-52.48c0-.321-.08-.481-.32-.561l-3.12-.96c-.48-.16-.48-.16-.48-.399 0-.16 0-.32.24-.32 1.36.08 3.36.16 4.88.16 1.92 0 3.2 0 4.72-.08.24 0 .24.08.24.24 0 .159-.16.239-.48.399l-3.12.96c-.32.16-.32.321-.32.561v51.841c0 .24 0 .48.32.559l3.44.961c.48.159.48.159.48.399 0 .161 0 .321-.24.321-1.36-.08-3.44-.16-4.96-.16H56.719ZM123.28 246.519c-.16-.559-.16-.799-.56-.799H97.359c-1.52 0-3.52.08-4.88.16-.24 0-.24-.16-.24-.321 0-.24 0-.24.48-.399l3.36-.961c.32-.079.32-.319.32-.559v-51.841c0-.24 0-.401-.32-.561l-3.12-.96c-.4-.16-.48-.24-.48-.399 0-.16 0-.24.24-.24 1.36.08 3.12.08 4.64.08 1.92 0 3.36 0 5.201-.16.239 0 .239.16.239.32 0 .239 0 .239-.48.399l-3.36.96c-.32.08-.32.321-.32.561v52.48h9.84v-52.48c0-.24 0-.481-.319-.561l-2.321-.96c-.48-.16-.48-.16-.48-.399 0-.16 0-.32.241-.32 1.359.08 2.319.16 3.839.16 1.921 0 2.561 0 4.401-.16.24 0 .24.16.24.32 0 .239 0 .239-.48.399l-2.56.96c-.32.08-.32.321-.32.561v52.48h9.84v-52.48c0-.321-.08-.481-.32-.561l-3.12-.96c-.48-.16-.48-.16-.48-.399 0-.16 0-.32.24-.32 1.36.08 3.36.16 4.88.16 1.92 0 3.2 0 4.72-.08.24 0 .24.08.24.24 0 .159-.16.239-.48.399l-3.12.96c-.32.16-.32.321-.32.561v52.48h2.24c.32 0 .56.24.56.561l.4 13.761c0 .319-.16.399-.4.399-.24 0-.4-.08-.48-.399l-1.84-12.082ZM146.079 244.279c6.72 0 9.2-3.92 9.2-13.439 0-9.521-2.48-13.521-8.4-13.521h-3.921v26.96h3.121Zm-3.121 1.441c-2.799 0-6.24.16-6.64.16-.319 0-.319-.08-.319-.321 0-.24.16-.32.48-.399l3.919-.961c.321-.079.321-.319.321-.559v-52.482h-6.961c-.239.08-.4.24-.56.8l-1.84 12.081c-.08.319-.24.399-.48.399s-.399-.08-.399-.399l.399-13.761c0-.32.24-.559.56-.559h10.561c2.32 0 4.16-.16 4.56-.16.32 0 .32.08.32.32 0 .239-.16.319-.48.399l-3.12.96c-.321.08-.321.321-.321.561v24.08h3.921c6.72 0 10.72 4.8 10.72 14.64 0 10.8-4.8 15.201-11.52 15.201h-3.121ZM191.519 245.16c.479.079.479.159.479.399 0 .161 0 .321-.239.321-1.841-.16-3.841-.16-4-.16-3.441 0-5.28.16-5.601.16-.24 0-.24-.08-.24-.321 0-.24.161-.32.48-.399l3.121-.961c.319-.079.319-.319.319-.559v-51.841c0-.24 0-.481-.319-.561l-3.121-.96c-.319-.08-.48-.16-.48-.399 0-.16 0-.32.24-.32 1.361.08 4.16.16 4.8.16.641 0 4.48-.08 4.96-.08.16 0 .08 0 .08.16 0 .319-.159.399-.479.479l-3.121.96c-.319.08-.319.321-.319.561v51.841c0 .24 0 .48.319.559l3.121.961Zm-21.441-.881c6.72 0 9.2-3.92 9.2-13.439 0-9.521-2.48-13.521-8.4-13.521h-3.92v26.96h3.12Zm-3.12 1.441c-2.8 0-5.84.16-6.24.16-.32 0-.32-.08-.32-.321 0-.24.16-.32.48-.399l3.52-.961c.32-.079.32-.319.32-.559v-51.841c0-.24 0-.481-.32-.561l-3.52-.96c-.32-.08-.48-.16-.48-.399 0-.16 0-.32.24-.32 1.36.08 4.56.16 5.28.16.64 0 5.12-.08 5.52-.08h.16c.08 0 .08 0 .08.16 0 .319-.16.399-.48.479l-3.92.96c-.32.08-.32.321-.32.561v24.08h3.92c6.72 0 10.721 4.8 10.721 14.64 0 10.8-4.801 15.201-11.521 15.201h-3.12ZM207.438 244.279c6.72 0 9.2-3.92 9.2-13.439 0-9.521-2.48-13.521-8.401-13.521h-3.92v26.96h3.121Zm-3.121 1.441c-2.799 0-5.839.16-6.24.16-.319 0-.319-.08-.319-.321 0-.24.16-.32.479-.399l3.521-.961c.32-.079.32-.319.32-.559v-51.841c0-.24 0-.481-.32-.561l-3.521-.96c-.319-.08-.479-.16-.479-.399 0-.16 0-.32.239-.32 1.36.08 4.561.16 5.28.16.641 0 5.12-.08 5.52-.08h.16c.08 0 .08 0 .08.16 0 .319-.16.399-.479.479l-3.92.96c-.321.08-.321.321-.321.561v24.08h3.92c6.72 0 10.641 4.8 10.641 14.64 0 10.8-4.72 15.201-11.44 15.201h-3.121ZM233.037 218.119l-1.519 8.481c0 .16-.161.239-.321.239-.24 0-.32-.079-.32-.239l.32-9.201-.32-9.2c0-.16.08-.24.32-.24.16 0 .321.08.321.24l1.519 8.48h6.96c0-15.76-.479-26.96-6.96-26.96-5.52 0-6.801 5.84-6.801 15.759 0 0-.24.161-.719.161-.4 0-.56-.161-.56-.161v-16.719c0-.16.08-.16.4-.16s.4 0 .48.24l.88 3.359c1.76-2.479 3.92-3.76 6.56-3.76 8.401 0 9.04 13.121 9.04 29.281 0 14.56-.08 29.281-9.44 29.281-6.561 0-8.801-7.441-8.801-14.481 0-.48.24-.639.801-.639.56 0 .72.079.72.479 0 6.321 2.719 13.361 7.12 13.361 7.28 0 7.28-13.521 7.28-27.601h-6.96ZM275.117 209.959c0-9.84-.56-20.24-6.56-20.24-6.08 0-6.561 10.4-6.561 20.24v15.6c0 8.96.481 20.161 6.561 20.161 6 0 6.56-10.401 6.56-20.161v-15.6Zm-19.201 35.201c.32.079.48.159.48.399 0 .161 0 .321-.24.321-1.84-.16-3.679-.16-3.84-.16-4.16 0-5.279.16-5.679.16-.321 0-.321-.08-.321-.321 0-.24.161-.32.481-.399l3.119-.961c.32-.079.32-.319.32-.559v-51.841c0-.24 0-.481-.32-.561l-3.119-.96c-.32-.08-.481-.16-.481-.399 0-.16 0-.32.241-.32 1.359.08 3.599.16 4.4.16.799 0 4.879-.08 5.199-.08.16 0 .24-.08.24.16 0 .319-.16.399-.48.479l-3.119.96c-.32.08-.32.321-.32.561v23.52h7.04c0-14.001.479-26.881 9.04-26.881 8.961 0 8.961 14.161 8.961 29.281 0 15.121 0 29.281-8.961 29.281s-9.04-14.16-9.04-30.241h-7.04v26.881c0 .24 0 .48.32.559l3.119.961ZM300.156 191.158h-3.92c-5.28 0-8.4 3.92-8.4 13.521 0 8.32 2.32 11.84 6.801 11.84h5.519v-25.361Zm5.68 54.002c.32.079.48.159.48.399 0 .161 0 .321-.24.321-1.359-.08-3.84-.16-4.559-.16-.8 0-5.841.08-6.081.08 0-.481.16-.561.48-.64l3.92-.961c.32-.079.32-.319.32-.559v-25.681h-6.56c-8.16 6.641-1.84 26.24-12.401 28.4-.239 0-.239-.08-.239-.319 0-.88 0-1.12.319-1.2 1.121-.24 2.08-1.2 2.481-1.681 5.12-6.239 1.28-21.28 8.08-25.6-4.16-1.04-6.32-5.2-6.32-12.56 0-10.641 4.32-15.28 10.72-15.28h3.92c2.801 0 5.441-.16 5.84-.16.32 0 .32.08.32.32 0 .239-.16.319-.48.399l-3.119.96c-.321.08-.321.321-.321.561v51.841c0 .24 0 .48.321.559l3.119.961Z" style="fill:#231f20;fill-rule:nonzero" transform="translate(0 -.038)"/></svg>