<svg viewBox="0 0 2915 1868" xmlns="http://www.w3.org/2000/svg" xml:space="preserve" style="fill-rule:evenodd;clip-rule:evenodd;stroke-linecap:round;stroke-linejoin:round;stroke-miterlimit:1.5"><path d="M.69 0H.522L.471-.11H.209L.158 0H-.01l.35-.718L.69 0ZM.34-.388.273-.24h.134L.34-.388Z" style="fill-rule:nonzero" transform="matrix(291.66723 0 0 291.66723 2.92 252.061)"/><path d="M.535 0v-.5H.384v.03a.175.175 0 0 0-.11-.038c-.148 0-.242.121-.242.258s.094.258.242.258a.175.175 0 0 0 .11-.038V0h.151ZM.384-.172a.1.1 0 0 1-.085.042C.227-.13.184-.184.184-.25s.043-.12.115-.12a.1.1 0 0 1 .085.042v.156Z" style="fill-rule:nonzero" transform="matrix(291.66723 0 0 291.66723 201.253 252.061)"/><path d="M.225-.423v-.141h.299V-.71H.065V0H.38a.211.211 0 0 0 .215-.223c0-.11-.062-.2-.218-.2H.225Zm0 .276v-.141h.14c.043 0 .074.022.074.071 0 .049-.031.07-.074.07h-.14Z" style="fill-rule:nonzero" transform="matrix(291.66723 0 0 291.66723 377.42 252.061)"/><path d="M.496-.578.528-.71h-.21c-.16 0-.278.117-.278.365 0 .231.097.353.262.353A.26.26 0 0 0 .561-.25c0-.137-.094-.258-.242-.258a.174.174 0 0 0-.122.048c.009-.081.061-.118.141-.118h.158Zm-.302.269a.11.11 0 0 1 .1-.061c.072 0 .115.054.115.12 0 .069-.046.117-.108.117-.068 0-.107-.047-.107-.136v-.04Z" style="fill-rule:nonzero" transform="matrix(291.66723 0 0 291.66723 561.462 252.061)"/><path d="M.067-.71V0H.38C.5 0 .595-.094.595-.211a.183.183 0 0 0-.1-.166.168.168 0 0 0 .05-.122.212.212 0 0 0-.211-.211H.067Zm.158.287v-.141h.091c.043 0 .074.032.074.071 0 .039-.031.07-.074.07H.225Zm0 .276v-.141h.14c.043 0 .074.032.074.071 0 .039-.031.07-.074.07h-.14Z" style="fill-rule:nonzero" transform="matrix(291.66723 0 0 291.66723 736.754 252.061)"/><path d="M.059-.5V0h.275c.135 0 .184-.081.184-.154a.145.145 0 0 0-.06-.112.134.134 0 0 0 .028-.08C.486-.419.437-.5.302-.5H.059Zm.151.2v-.08h.087c.02 0 .037.01.037.04 0 .028-.017.038-.033.04H.21Zm0 .168v-.08h.119c.021 0 .037.012.037.041 0 .027-.017.037-.033.039H.21Z" style="fill-rule:nonzero" transform="matrix(291.66723 0 0 291.66723 920.797 252.061)"/><path d="M.227-.552V0h-.16v-.71h.4v.158h-.24Z" style="fill-rule:nonzero" transform="matrix(291.66723 0 0 291.66723 1084.717 252.061)"/><path d="M.396-.368V-.5H.059V0H.21v-.368h.186Z" style="fill-rule:nonzero" transform="matrix(291.66723 0 0 291.66723 1209.257 252.061)"/><path d="M.718-.154H.624V-.71h-.48v.418c0 .088-.017.138-.073.138H.03v.302h.154V0h.38v.148h.154v-.302Zm-.254 0H.253C.29-.188.298-.252.298-.343v-.213h.166v.402Z" style="fill-rule:nonzero" transform="matrix(291.66723 0 0 291.66723 133.586 543.728)"/><path d="M.61-.132H.538V-.5h-.4v.259c0 .07-.025.109-.069.109H.035v.25h.133V0h.309v.118H.61v-.25Zm-.223 0H.239a.223.223 0 0 0 .037-.137v-.099h.111v.236Z" style="fill-rule:nonzero" transform="matrix(291.66723 0 0 291.66723 358.461 543.728)"/><path d="M.507-.71v.158h-.28v.12h.22v.154h-.22v.12h.28V0h-.44v-.71h.44Z" style="fill-rule:nonzero" transform="matrix(291.66723 0 0 291.66723 549.504 543.728)"/><path d="M.526-.223a.337.337 0 0 0 .003-.044c0-.158-.114-.241-.241-.241A.248.248 0 0 0 .03-.25c0 .154.123.258.255.258.099 0 .18-.048.226-.12l-.12-.081a.115.115 0 0 1-.107.063C.239-.13.182-.156.175-.223h.351ZM.177-.311c.014-.06.066-.076.102-.076.049 0 .093.023.101.076H.177Z" style="fill-rule:nonzero" transform="matrix(291.66723 0 0 291.66723 711.962 543.728)"/><path d="M.243-.772a.086.086 0 0 0 .02-.057.09.09 0 0 0-.09-.09.09.09 0 0 0-.09.09c0 .022.007.042.02.057h.14Zm.239 0a.086.086 0 0 0 .02-.057.09.09 0 0 0-.09-.09.09.09 0 0 0-.09.09c0 .022.007.042.02.057h.14ZM.067-.71V0h.44v-.158h-.28v-.12h.22v-.154h-.22v-.12h.28V-.71h-.44Z" style="fill-rule:nonzero" transform="matrix(291.66723 0 0 291.66723 877.629 543.728)"/><path d="M.16-.707a.08.08 0 0 0-.08.08c0 .044.036.08.08.08a.08.08 0 0 0 .08-.08.08.08 0 0 0-.08-.08Zm.238 0a.08.08 0 0 0-.08.08c0 .044.036.08.08.08a.08.08 0 0 0 .08-.08.08.08 0 0 0-.08-.08Zm.128.484a.337.337 0 0 0 .003-.044c0-.158-.114-.241-.241-.241A.248.248 0 0 0 .03-.25c0 .154.123.258.255.258.099 0 .18-.048.226-.12l-.12-.081a.115.115 0 0 1-.107.063C.239-.13.182-.156.175-.223h.351ZM.177-.311c.014-.06.066-.076.102-.076.049 0 .093.023.101.076H.177Z" style="fill-rule:nonzero" transform="matrix(291.66723 0 0 291.66723 1040.087 543.728)"/><path d="M.604-.333.87 0h.198L.787-.352l.249-.358H.852l-.248.356V-.71h-.16v.356L.196-.71H.012l.249.358L-.02 0h.198l.266-.333V0h.16v-.333Z" style="fill-rule:nonzero" transform="matrix(291.66723 0 0 291.66723 33.69 835.395)"/><path d="M.501-.249.686 0h.178L.669-.263.838-.5H.664l-.163.228V-.5H.35v.228L.187-.5H.013l.169.237L-.013 0h.178L.35-.249V0h.151v-.249Z" style="fill-rule:nonzero" transform="matrix(291.66723 0 0 291.66723 353.94 835.395)"/><path d="M.149-.518a.143.143 0 0 1 .113-.05c.045 0 .083.022.083.068 0 .056-.037.077-.111.077H.187v.134h.067c.072 0 .106.022.106.075 0 .042-.041.066-.091.066A.155.155 0 0 1 .137-.21l-.119.092a.297.297 0 0 0 .254.126C.399.007.515-.066.515-.21a.16.16 0 0 0-.112-.161.165.165 0 0 0 .092-.155c0-.128-.099-.192-.212-.192a.304.304 0 0 0-.237.108l.103.092Z" style="fill-rule:nonzero" transform="matrix(291.66723 0 0 291.66723 605.65 835.395)"/><path d="M.136-.332C.165-.361.19-.371.221-.371c.035 0 .056.013.056.041 0 .022-.014.031-.058.031H.153v.097h.08c.04 0 .059.009.059.035 0 .029-.025.04-.068.04-.044 0-.067-.012-.099-.055l-.112.079c.04.078.132.111.222.111.108 0 .208-.047.208-.155a.137.137 0 0 0-.065-.119.098.098 0 0 0 .045-.088c0-.1-.084-.154-.191-.154a.264.264 0 0 0-.193.079l.097.097Z" style="fill-rule:nonzero" transform="matrix(291.66723 0 0 291.66723 767.525 835.395)"/><path d="M.457-.914c-.001.044-.018.072-.06.072-.042 0-.059-.028-.06-.072H.214c.004.12.08.176.183.176S.576-.794.58-.914H.457Zm.218.196-.448.379V-.71h-.16v.718l.448-.379V0h.16v-.718Z" style="fill-rule:nonzero" transform="matrix(291.66723 0 0 291.66723 908.4 835.395)"/><path d="M.398-.71c-.001.056-.028.085-.07.085-.042 0-.069-.029-.07-.085H.145c.004.12.08.176.183.176S.507-.59.511-.71H.398Zm.145.21L.21-.26V-.5H.059V0l.333-.238V0h.151v-.5Z" style="fill-rule:nonzero" transform="matrix(291.66723 0 0 291.66723 1127.737 835.395)"/><path d="M.227-.333.493 0h.198L.41-.352.659-.71H.475l-.248.356V-.71h-.16V0h.16v-.333Z" style="fill-rule:nonzero" transform="matrix(291.66723 0 0 291.66723 69.274 1127.058)"/><path d="M.059-.5V0H.21v-.249L.395 0h.178L.378-.263.547-.5H.373L.21-.272V-.5H.059Z" style="fill-rule:nonzero" transform="matrix(291.66723 0 0 291.66723 267.9 1127.058)"/><path d="M.451 0h.16v-.71H.13v.494C.13-.158.1-.14.055-.14H.037V0c.172.023.247-.053.247-.179v-.377h.167V0Z" style="fill-rule:nonzero" transform="matrix(291.66723 0 0 291.66723 434.44 1127.058)"/><path d="M.359 0H.51v-.5h-.4v.287c0 .072-.017.095-.08.089V0c.163.03.218-.078.218-.201v-.167h.111V0Z" style="fill-rule:nonzero" transform="matrix(291.66723 0 0 291.66723 635.108 1127.058)"/><path d="M.067 0v-.718l.354.355.354-.355V0h-.16v-.348l-.194.194-.194-.194V0h-.16Z" style="fill-rule:nonzero" transform="matrix(291.66723 0 0 291.66723 806.316 1127.058)"/><path d="M.554 0h.149L.614-.5H.499l-.14.326L.219-.5H.104L.015 0h.146L.2-.232.31 0h.098l.11-.231L.554 0Z" style="fill-rule:nonzero" transform="matrix(291.66723 0 0 291.66723 1054.817 1127.058)"/><path d="M.227-.71v.278h.284V-.71h.16V0h-.16v-.278H.227V0h-.16v-.71h.16Z" style="fill-rule:nonzero" transform="matrix(291.66723 0 0 291.66723 75.545 1418.728)"/><path d="M.21-.5H.059V0H.21v-.184h.182V0h.151v-.5H.392v.184H.21V-.5Z" style="fill-rule:nonzero" transform="matrix(291.66723 0 0 291.66723 293.711 1418.728)"/><path d="M.397.008a.364.364 0 1 1 .001-.727.364.364 0 0 1-.001.727Zm0-.572a.204.204 0 0 0-.202.209c0 .114.087.209.202.209a.204.204 0 0 0 .202-.209.204.204 0 0 0-.202-.209Z" style="fill-rule:nonzero" transform="matrix(291.66723 0 0 291.66723 472.212 1418.728)"/><path d="M.29-.508a.26.26 0 0 1 .26.258.26.26 0 0 1-.26.258.26.26 0 0 1-.26-.258.26.26 0 0 1 .26-.258Zm0 .375c.062 0 .108-.048.108-.117S.352-.367.29-.367.182-.319.182-.25s.046.117.108.117Z" style="fill-rule:nonzero" transform="matrix(291.66723 0 0 291.66723 706.712 1418.728)"/><path d="M.491 0h.16v-.71H.067V0h.16v-.556h.264V0Z" style="fill-rule:nonzero" transform="matrix(291.66723 0 0 291.66723 878.796 1418.728)"/><path d="M.523-.5H.059V0H.21v-.368h.162V0h.151v-.5Z" style="fill-rule:nonzero" transform="matrix(291.66723 0 0 291.66723 1091.127 1418.728)"/><path d="M.227-.228V0h-.16v-.71h.234a.24.24 0 0 1 .243.241.24.24 0 0 1-.243.241H.227Zm0-.332v.183h.072c.052 0 .09-.044.09-.092a.09.09 0 0 0-.09-.091H.227Z" style="fill-rule:nonzero" transform="matrix(291.66723 0 0 291.66723 316.461 1710.398)"/><path d="M.21-.5H.059v.684H.21V-.03a.175.175 0 0 0 .11.038c.148 0 .242-.121.242-.258S.468-.508.32-.508a.175.175 0 0 0-.11.038V-.5Zm0 .172A.1.1 0 0 1 .295-.37c.072 0 .115.054.115.12s-.043.12-.115.12A.1.1 0 0 1 .21-.172v-.156Z" style="fill-rule:nonzero" transform="matrix(291.66723 0 0 291.66723 481.837 1710.398)"/><path d="M.694-.146a.364.364 0 1 1 0-.418l-.121.099a.207.207 0 0 0-.176-.099.204.204 0 0 0-.202.209c0 .114.087.209.202.209.076 0 .14-.041.176-.099l.121.099Z" style="fill-rule:nonzero" transform="matrix(291.66723 0 0 291.66723 658.004 1710.398)"/><path d="M.389-.305A.111.111 0 0 0 .29-.367c-.062 0-.108.048-.108.117s.046.117.108.117a.111.111 0 0 0 .099-.062l.12.085A.26.26 0 0 1 .03-.25a.26.26 0 0 1 .479-.14l-.12.085Z" style="fill-rule:nonzero" transform="matrix(291.66723 0 0 291.66723 867.712 1710.398)"/><path d="M.019-.71H.52v.158H.351V0H.188v-.552H.019V-.71Z" style="fill-rule:nonzero" transform="matrix(291.66723 0 0 291.66723 1589.42 252.061)"/><path d="M.015-.5v.132h.13V0h.151v-.368h.14V-.5H.015Z" style="fill-rule:nonzero" transform="matrix(291.66723 0 0 291.66723 1749.546 252.061)"/><path d="M.643-.71H.467l-.143.328L.17-.71h-.18l.255.509L.158 0h.171l.314-.71Z" style="fill-rule:nonzero" transform="matrix(291.66723 0 0 291.66723 1884.004 252.061)"/><path d="m.179 0-.184-.5h.16l.104.316L.363-.5h.16L.271.184h-.16L.179 0Z" style="fill-rule:nonzero" transform="matrix(291.66723 0 0 291.66723 2070.379 252.061)"/><path d="M.548-.74H.387v.081c-.19 0-.353.103-.353.293s.163.293.353.293V0h.161v-.073c.19 0 .353-.103.353-.293S.738-.659.548-.659V-.74Zm-.161.513c-.105 0-.192-.035-.192-.139 0-.104.087-.139.192-.139v.278Zm.161-.278c.105 0 .192.035.192.139 0 .104-.087.139-.192.139v-.278Z" style="fill-rule:nonzero" transform="matrix(291.66723 0 0 291.66723 2224.379 252.061)"/><path d="M.015-.71H.2l.137.236.137-.236h.185L.45-.356.674 0H.488L.337-.244.186 0H0l.224-.356L.015-.71Z" style="fill-rule:nonzero" transform="matrix(291.66723 0 0 291.66723 2500.008 252.061)"/><path d="M.373-.252.553 0H.378L.275-.15.172 0h-.175l.18-.252L.006-.5h.175l.094.143L.369-.5h.175l-.171.248Z" style="fill-rule:nonzero" transform="matrix(291.66723 0 0 291.66723 2699.508 252.061)"/><path d="M.725.148v-.302H.631V-.71h-.16v.556H.227V-.71h-.16V0h.504v.148h.154Z" style="fill-rule:nonzero" transform="matrix(291.66723 0 0 291.66723 1591.024 543.728)"/><path d="M.601-.132H.533V-.5H.382v.368H.22V-.5H.069V0h.4v.122h.132v-.254Z" style="fill-rule:nonzero" transform="matrix(291.66723 0 0 291.66723 1815.608 543.728)"/><path d="M.412 0h.16v-.71h-.16v.323a.18.18 0 0 1-.092.022C.242-.365.195-.4.195-.473V-.71h-.16v.269c0 .135.112.219.25.219.05 0 .091-.011.127-.027V0Z" style="fill-rule:nonzero" transform="matrix(291.66723 0 0 291.66723 2003.733 543.728)"/><path d="M.498-.5H.347v.212a.198.198 0 0 1-.068.011c-.066 0-.092-.041-.092-.099V-.5H.036v.151c0 .125.077.208.218.208a.427.427 0 0 0 .093-.01V0h.151v-.5Z" style="fill-rule:nonzero" transform="matrix(291.66723 0 0 291.66723 2193.025 543.728)"/><path d="M.068-.71V0h.774v-.71H.68v.556H.535V-.71H.374v.556H.228V-.71h-.16Z" style="fill-rule:nonzero" transform="matrix(291.66723 0 0 291.66723 2358.4 543.728)"/><path d="M.059 0h.677v-.5H.585v.368H.473V-.5H.322v.368H.21V-.5H.059V0Z" style="fill-rule:nonzero" transform="matrix(291.66723 0 0 291.66723 2626.438 543.728)"/><path d="M.934.148v-.302H.841V-.71H.68v.556H.535V-.71H.374v.556H.228V-.71H.067V0H.78v.148h.154Z" style="fill-rule:nonzero" transform="matrix(291.66723 0 0 291.66723 1517.962 835.395)"/><path d="M.807-.132H.736V-.5H.585v.368H.473V-.5H.322v.368H.21V-.5H.059V0h.616v.122h.132v-.254Z" style="fill-rule:nonzero" transform="matrix(291.66723 0 0 291.66723 1803.504 835.395)"/><path d="M.348-.433V-.71H.019v.158h.169V0h.315c.113 0 .215-.086.215-.228 0-.11-.062-.205-.218-.205H.348Zm0 .286v-.151h.14c.043 0 .074.027.074.076s-.031.075-.074.075h-.14Z" style="fill-rule:nonzero" transform="matrix(291.66723 0 0 291.66723 2052.004 835.395)"/><path d="M.294-.359V-.5H.015v.132h.128V0h.233C.511 0 .56-.111.56-.184a.173.173 0 0 0-.184-.175H.294Zm0 .228V-.24h.074c.032.002.051.022.051.055 0 .034-.021.054-.057.054H.294Z" style="fill-rule:nonzero" transform="matrix(291.66723 0 0 291.66723 2274.546 835.395)"/><path d="M.225-.433V-.71h-.16V0H.38c.113 0 .215-.086.215-.228 0-.11-.062-.205-.218-.205H.225ZM.662-.71V0h.161v-.71H.662Zm-.437.563v-.151h.14c.043 0 .074.027.074.076s-.031.075-.074.075h-.14Z" style="fill-rule:nonzero" transform="matrix(291.66723 0 0 291.66723 2449.548 835.395)"/><path d="M.21-.359V-.5H.059V0h.233c.135 0 .184-.111.184-.184a.173.173 0 0 0-.184-.175H.21ZM.693-.5H.541V0h.152v-.5ZM.21-.131V-.24h.074c.032.002.051.022.051.055 0 .034-.021.054-.057.054H.21Z" style="fill-rule:nonzero" transform="matrix(291.66723 0 0 291.66723 2712.048 835.395)"/><path d="M.225-.433V-.71h-.16V0H.38c.113 0 .215-.086.215-.228 0-.11-.062-.205-.218-.205H.225Zm0 .286v-.151h.14c.043 0 .074.027.074.076s-.031.075-.074.075h-.14Z" style="fill-rule:nonzero" transform="matrix(291.66723 0 0 291.66723 1586.503 1185.398)"/><path d="M.21-.5H.059V0h.233c.135 0 .184-.111.184-.184a.173.173 0 0 0-.184-.175H.21V-.5Zm0 .369V-.24h.074c.032.002.051.022.051.055 0 .034-.021.054-.057.054H.21Z" style="fill-rule:nonzero" transform="matrix(291.66723 0 0 291.66723 1773.17 1185.398)"/><path d="M.136-.465a.207.207 0 0 1 .176-.099c.09 0 .162.058.19.137H.225v.144h.277a.201.201 0 0 1-.19.137.207.207 0 0 1-.176-.099l-.121.099a.364.364 0 1 0 0-.418l.121.099Z" style="fill-rule:nonzero" transform="matrix(291.66723 0 0 291.66723 1923.67 1185.398)"/><path d="M.137-.31a.13.13 0 0 1 .108-.067c.049 0 .086.027.104.066H.19v.11h.164a.113.113 0 0 1-.109.078.13.13 0 0 1-.108-.067l-.12.08a.277.277 0 0 0 .228.118.263.263 0 0 0 .264-.258.263.263 0 0 0-.264-.258.277.277 0 0 0-.228.118l.12.08Z" style="fill-rule:nonzero" transform="matrix(291.66723 0 0 291.66723 2133.379 1185.398)"/><path d="M.227-.432V-.71h-.16V0h.16v-.278H.36a.364.364 0 1 0 0-.154H.227Zm.488.286a.204.204 0 0 1-.202-.209c0-.114.087-.209.202-.209.115 0 .202.095.202.209a.204.204 0 0 1-.202.209Z" style="fill-rule:nonzero" transform="matrix(291.66723 0 0 291.66723 2293.504 1185.398)"/><path d="M.21-.331V-.5H.059V0H.21v-.181h.079A.26.26 0 0 0 .8-.25a.26.26 0 0 0-.26-.258.26.26 0 0 0-.247.177H.21Zm.33.198C.478-.133.432-.181.432-.25S.478-.367.54-.367s.108.048.108.117-.046.117-.108.117Z" style="fill-rule:nonzero" transform="matrix(291.66723 0 0 291.66723 2620.758 1185.398)"/><path d="M.558-.71H.324c-.139 0-.243.098-.243.231 0 .088.046.158.117.196L.015 0h.181l.161-.254h.041V0h.16v-.71Zm-.16.146v.157H.327c-.062 0-.09-.028-.09-.076s.038-.081.09-.081h.071Z" style="fill-rule:nonzero" transform="matrix(291.66723 0 0 291.66723 2053.463 1477.058)"/><path d="M.474-.5H.241c-.118 0-.184.072-.184.171 0 .06.028.123.089.156L.02 0h.171l.108-.151h.024V0h.151v-.5Zm-.151.12v.109H.255C.221-.271.198-.29.198-.322c0-.036.023-.058.057-.058h.068Z" style="fill-rule:nonzero" transform="matrix(291.66723 0 0 291.66723 2240.42 1477.058)"/><path d="M1765.57 1660.981h948v48h-948z"/><path style="stroke:#fff;stroke-width:1.93px" d="M21733 1744h948v74h-948z" transform="matrix(0 1.9673 -.25676 0 1895.57 -42753.975)"/></svg>