<svg viewBox="0 0 1692 183" xmlns="http://www.w3.org/2000/svg" xml:space="preserve" style="fill-rule:evenodd;clip-rule:evenodd;stroke-linejoin:round;stroke-miterlimit:2"><path d="m82.433 471.311 5.942 28.693h3.122l-6.363-30.253c2.941-2.281 4.802-6.123 5.402-11.765h-2.881c-.66 8.763-4.082 12.425-10.505 12.485v-12.485h-3.001v42.018h3.001v-27.732c1.921 0 3.722-.3 5.283-.961ZM101.281 477.194h8.884l3.241 22.81h3.001l-6.002-42.018h-8.764l-6.003 42.018h2.401l3.242-22.81Zm.24-1.801 2.221-15.606h3.961l2.221 15.606h-8.403ZM126.011 471.672v-11.885h12.245v-1.801H123.01v42.018h4.802c8.344 0 11.705-3.542 11.705-10.265 0-7.143-3.782-13.205-13.506-18.067Zm0 26.531v-24.791c8.044 4.442 10.505 9.844 10.505 15.667 0 5.822-2.521 9.124-8.704 9.124h-1.801ZM149.841 469.511v-9.724h15.007v-1.801H146.84v42.018h18.008v-1.801h-15.007v-26.892h9.004v-1.8h-9.004ZM189.758 468.25c0-6.723-3.361-10.264-11.705-10.264h-4.802v42.018h3.002v-13.686c9.724-4.862 13.505-10.925 13.505-18.068Zm-13.505 16.327v-24.79h1.8c6.183 0 8.704 3.301 8.704 9.123 0 5.823-2.461 11.225-10.504 15.667ZM216.89 500.004v-42.018h-3.001v26.531h-13.806v-26.531h-3.001v42.018h3.001v-13.686h13.806v13.686h3.001ZM230.696 469.511v-9.724h15.006v-1.801h-18.007v42.018h18.007v-1.801h-15.006v-26.892h9.004v-1.8h-9.004Z" style="fill:#080605;fill-rule:nonzero" transform="translate(-308.955 -1904.525) scale(4.16667)"/><path d="M283.278 463.269h.12v-3.782c-2.281-1.26-4.742-2.161-7.383-2.161-7.623 0-12.905 5.523-12.905 17.948 0 11.945 5.762 25.631 18.848 25.631v-1.801c-10.505 0-15.727-12.365-15.727-24.19 0-10.805 4.982-15.787 9.724-15.787 2.821 0 5.642 1.741 7.323 4.142Z" style="fill:#080605;fill-rule:nonzero" transform="translate(-308.955 -1905.529) scale(4.16667)"/><path d="M299.605 457.086c-7.863 0-12.905 6.963-12.905 17.888 0 15.847 5.042 25.931 12.905 25.931 7.864 0 12.906-10.084 12.906-25.931 0-10.925-5.042-17.888-12.906-17.888Zm-9.724 18.968c0-10.444 3.782-17.167 9.724-17.167 5.943 0 9.724 6.723 9.724 17.167 0 14.046-3.781 23.05-9.724 23.05-5.942 0-9.724-9.004-9.724-23.05Z" style="fill:#080605;fill-rule:nonzero" transform="translate(-308.955 -1904.529) scale(4.16667)"/><path d="M329.318 475.393c3.661-3.361 5.522-7.323 5.522-10.684 0-3.782-2.461-6.723-7.983-6.723h-6.543v42.018h4.802c8.344 0 11.705-3.542 11.705-10.265 0-5.402-2.221-10.204-7.503-14.346Zm-6.003 22.81v-24.791c8.044 4.442 10.505 9.844 10.505 15.667 0 5.822-2.521 9.124-8.704 9.124h-1.801Zm0-26.531v-11.885h2.461c5.162 0 6.303 2.641 6.303 5.882 0 2.821-1.501 6.123-4.082 8.764a34.256 34.256 0 0 0-4.682-2.761ZM365.753 500.004v-42.018h-3.001v7.623l-15.006 21.249v-28.872h-3.002v42.018h3.002v-9.785l15.006-21.189v30.974h3.001ZM396.366 500.004v-42.018h-3.001v26.531h-13.806v-26.531h-3.001v42.018h3.001v-13.686h13.806v13.686h3.001ZM410.172 471.672v-13.686h-3.001v42.018h4.802c8.344 0 11.705-3.542 11.705-10.265 0-7.143-3.782-13.205-13.506-18.067Zm0 26.531v-24.791c8.044 4.442 10.505 9.844 10.505 15.667 0 5.822-2.521 9.124-8.704 9.124h-1.801Z" style="fill:#080605;fill-rule:nonzero" transform="translate(-308.955 -1904.525) scale(4.16667)"/><path d="M439.705 457.086c-7.864 0-12.906 6.963-12.906 17.888 0 15.847 5.042 25.931 12.906 25.931 7.863 0 12.905-10.084 12.905-25.931 0-10.925-5.042-17.888-12.905-17.888Zm-9.724 18.968c0-10.444 3.781-17.167 9.724-17.167 5.942 0 9.724 6.723 9.724 17.167 0 14.046-3.782 23.05-9.724 23.05-5.943 0-9.724-9.004-9.724-23.05Z" style="fill:#080605;fill-rule:nonzero" transform="translate(-308.955 -1904.529) scale(4.16667)"/><path d="M480.222 500.004v-42.018h-3.001v26.531h-13.806v-26.531h-3.001v42.018h3.001v-13.686h13.806v13.686h3.001Z" style="fill:#080605;fill-rule:nonzero" transform="translate(-308.955 -1904.525) scale(4.16667)"/></svg>