<svg viewBox="0 0 2387 3380" xmlns="http://www.w3.org/2000/svg" xml:space="preserve" style="fill-rule:evenodd;clip-rule:evenodd;stroke-miterlimit:10"><path d="M41.087 50.666v39.76h8.96V74.858h15.904v15.568h8.96v-39.76h-8.96v15.568H50.047V50.666h-8.96ZM106.19 90.874c11.2 0 20.328-9.128 20.328-20.328s-9.128-20.328-20.328-20.328-20.328 9.128-20.328 20.328 9.128 20.328 20.328 20.328Zm0-32.032c6.44 0 11.312 5.32 11.312 11.704S112.63 82.25 106.19 82.25c-6.44 0-11.312-5.32-11.312-11.704s4.872-11.704 11.312-11.704ZM152.42 50.666h-14.952v39.76h17.528c6.72 0 12.04-5.264 12.04-11.816 0-4.256-2.24-7.504-5.6-9.296 1.736-1.736 2.8-4.032 2.8-6.832 0-6.496-5.32-11.816-11.816-11.816Zm-1.008 16.072h-5.096v-7.896h5.096c2.408 0 4.144 1.792 4.144 3.976s-1.736 3.92-4.144 3.92Zm2.744 15.456h-7.84v-7.896h7.84c2.408 0 4.144 1.792 4.144 3.976s-1.736 3.92-4.144 3.92ZM186.499 71.442V50.666h-8.96v40.208l25.088-21.224v20.776h8.96V50.218l-25.088 21.224ZM224.385 50.666v39.76h8.96V74.858h15.904v15.568h8.96v-39.76h-8.96v15.568h-15.904V50.666h-8.96ZM279.968 71.778l14.896 18.648h11.088l-15.736-19.712 13.944-20.048h-10.304l-13.888 19.936V50.666h-8.96v39.76h8.96V71.778ZM329.166 50.218l-19.6 40.208h9.408l2.856-6.16h14.672l2.856 6.16h9.408l-19.6-40.208Zm3.752 26.768h-7.504l3.752-8.288 3.752 8.288ZM366.325 50.666h-8.512v15.176l1.68 10.304h5.152l1.68-10.304V50.666Zm-.448 29.456h-7.616c-1.344 1.12-2.24 2.8-2.24 4.704a6.023 6.023 0 0 0 6.048 6.048 6.023 6.023 0 0 0 6.048-6.048c0-1.904-.896-3.584-2.24-4.704ZM418.92 70.49l-12.544 19.936h10.416l8.456-13.664 8.456 13.664h10.416L431.576 70.49l11.704-19.824h-10.36l-7.672 13.216-7.672-13.216h-10.36L418.92 70.49ZM462.126 71.442V50.666h-8.96v40.208l25.088-21.224v20.776h8.96V50.218l-25.088 21.224ZM497.325 59.514h9.464v30.912h9.128V59.514h9.464v-8.848h-28.056v8.848ZM544.563 50.666h-8.512v15.176l1.68 10.304h5.152l1.68-10.304V50.666Zm-.448 29.456h-7.616c-1.344 1.12-2.24 2.8-2.24 4.704a6.023 6.023 0 0 0 6.048 6.048 6.023 6.023 0 0 0 6.048-6.048c0-1.904-.896-3.584-2.24-4.704ZM59.984 144.426h6.4v-28.4h-23.36v28.4h6.4v-22.24h10.56v22.24ZM86.049 144.746c8 0 14.52-6.52 14.52-14.52s-6.52-14.52-14.52-14.52-14.52 6.52-14.52 14.52 6.52 14.52 14.52 14.52Zm0-22.88c4.6 0 8.08 3.8 8.08 8.36s-3.48 8.36-8.08 8.36-8.08-3.8-8.08-8.36 3.48-8.36 8.08-8.36ZM122.674 144.426h6.4v-28.4h-23.36v28.4h6.4v-22.24h10.56v22.24ZM144.899 135.306c5.56 0 9.72-4.32 9.72-9.64s-4.16-9.64-9.72-9.64h-9.36v28.4h6.4v-9.12h2.96Zm-.08-13.28c2.08 0 3.6 1.72 3.6 3.64 0 1.92-1.52 3.68-3.6 3.68h-2.88v-7.32h2.88ZM172.124 144.746c8 0 14.52-6.52 14.52-14.52s-6.52-14.52-14.52-14.52-14.52 6.52-14.52 14.52 6.52 14.52 14.52 14.52Zm0-22.88c4.6 0 8.08 3.8 8.08 8.36s-3.48 8.36-8.08 8.36-8.08-3.8-8.08-8.36 3.48-8.36 8.08-8.36ZM198.109 127.506v-5.64h11.96v-5.84h-18.36v28.4h12.6c4.52 0 8.6-3.24 8.6-8.92 0-4.4-2.48-8-8.72-8h-6.08Zm5.6 11.04h-5.6v-5.64h5.6c1.72 0 2.96.88 2.96 2.84s-1.24 2.8-2.96 2.8ZM240.774 116.026h-7.04l-5.72 13.12-6.16-13.12h-7.2l10.2 20.36-3.48 8.04h6.84l12.56-28.4ZM264.519 107.866h-4.92c-.04 1.76-.72 2.88-2.4 2.88s-2.36-1.12-2.4-2.88h-4.92c.16 4.8 3.2 7.04 7.32 7.04s7.16-2.24 7.32-7.04Zm3.8 7.84-17.92 15.16v-14.84h-6.4v28.72l17.92-15.16v14.84h6.4v-28.72ZM303.824 117.706v-2.88h-6.44v2.88c-7.84 0-14.12 4.36-14.12 12.12 0 7.76 6.28 12.12 14.12 12.12v2.48h6.44v-2.48c7.84 0 14.12-4.36 14.12-12.12 0-7.76-6.28-12.12-14.12-12.12Zm-6.44 5.76v12.72c-4.44 0-7.88-1.84-7.88-6.36 0-4.52 3.44-6.36 7.88-6.36Zm6.44 12.72v-12.72c4.44 0 7.88 1.84 7.88 6.36 0 4.52-3.44 6.36-7.88 6.36ZM332.449 135.306c5.56 0 9.72-4.32 9.72-9.64s-4.16-9.64-9.72-9.64h-9.36v28.4h6.4v-9.12h2.96Zm-.08-13.28c2.08 0 3.6 1.72 3.6 3.64 0 1.92-1.52 3.68-3.6 3.68h-2.88v-7.32h2.88ZM369.114 116.026h-7.04l-5.72 13.12-6.16-13.12h-7.2l10.2 20.36-3.48 8.04h6.84l12.56-28.4ZM378.739 131.106l10.64 13.32h7.92l-11.24-14.08 9.96-14.32h-7.36l-9.92 14.24v-14.24h-6.4v28.4h6.4v-13.32ZM398.364 122.346h6.76v22.08h6.52v-22.08h6.76v-6.32h-20.04v6.32ZM436.149 144.746c8 0 14.52-6.52 14.52-14.52s-6.52-14.52-14.52-14.52-14.52 6.52-14.52 14.52 6.52 14.52 14.52 14.52Zm0-22.88c4.6 0 8.08 3.8 8.08 8.36s-3.48 8.36-8.08 8.36-8.08-3.8-8.08-8.36 3.48-8.36 8.08-8.36ZM466.494 116.026h-10.68v28.4h12.52c4.8 0 8.6-3.76 8.6-8.44 0-3.04-1.6-5.36-4-6.64 1.24-1.24 2-2.88 2-4.88 0-4.64-3.8-8.44-8.44-8.44Zm-.72 11.48h-3.64v-5.64h3.64c1.72 0 2.96 1.28 2.96 2.84 0 1.56-1.24 2.8-2.96 2.8Zm1.96 11.04h-5.6v-5.64h5.6c1.72 0 2.96 1.28 2.96 2.84 0 1.56-1.24 2.8-2.96 2.8ZM494.159 127.106h-6.08v-11.08h-6.4v28.4h12.6c4.52 0 8.6-3.44 8.6-9.12 0-4.4-2.48-8.2-8.72-8.2Zm11.4-11.08v28.4h6.44v-28.4h-6.44Zm-11.88 22.52h-5.6v-6.04h5.6c1.72 0 2.96 1.08 2.96 3.04s-1.24 3-2.96 3ZM538.984 107.866h-4.92c-.04 1.76-.72 2.88-2.4 2.88s-2.36-1.12-2.4-2.88h-4.92c.16 4.8 3.2 7.04 7.32 7.04s7.16-2.24 7.32-7.04Zm3.8 7.84-17.92 15.16v-14.84h-6.4v28.72l17.92-15.16v14.84h6.4v-28.72ZM54.882 224.426v-27.84l15.52 15.52 15.52-15.52v27.84h12.8v-57.44l-28.32 28.4-28.32-28.4v57.44h12.8ZM139.156 225.066c16 0 29.04-13.04 29.04-29.04s-13.04-29.04-29.04-29.04-29.04 13.04-29.04 29.04 13.04 29.04 29.04 29.04Zm0-45.76c9.2 0 16.16 7.6 16.16 16.72s-6.96 16.72-16.16 16.72-16.16-7.6-16.16-16.72 6.96-16.72 16.16-16.72ZM210.311 224.426h12.8v-56.8h-36.64l-.32 11.92c-.64 24.64-2.32 34.16-12.4 34.32l-.24 11.2c12.64 0 22.8-3.12 24-33.36l.48-11.76h12.32v44.48ZM263.545 225.066c16 0 29.04-13.04 29.04-29.04s-13.04-29.04-29.04-29.04-29.04 13.04-29.04 29.04 13.04 29.04 29.04 29.04Zm0-45.76c9.2 0 16.16 7.6 16.16 16.72s-6.96 16.72-16.16 16.72-16.16-7.6-16.16-16.72 6.96-16.72 16.16-16.72ZM331.579 224.426h12.8v-56.8h-12.8v25.84c-2.32 1.44-5.28 1.76-7.36 1.76-6.24 0-10-2.8-10-8.64v-18.96h-12.8v21.52c0 10.8 8.96 17.52 20 17.52 4 0 7.28-.88 10.16-2.16v19.92ZM358.414 167.626v56.8h12.8v-22.24h22.72v22.24h12.8v-56.8h-12.8v22.24h-22.72v-22.24h-12.8ZM445.568 189.786h-12.16v-22.16h-12.8v56.8h25.2c9.04 0 17.2-6.88 17.2-18.24 0-8.8-4.96-16.4-17.44-16.4Zm22.8-22.16v56.8h12.88v-56.8h-12.88Zm-23.76 45.04h-11.2v-12.08h11.2c3.44 0 5.92 2.16 5.92 6.08s-2.48 6-5.92 6ZM536.322 151.306h-9.84c-.08 3.52-1.44 5.76-4.8 5.76s-4.72-2.24-4.8-5.76h-9.84c.32 9.6 6.4 14.08 14.64 14.08s14.32-4.48 14.64-14.08Zm7.6 15.68-35.84 30.32v-29.68h-12.8v57.44l35.84-30.32v29.68h12.8v-57.44ZM118.882 284.106l-84 172.32h40.32l12.24-26.4h62.88l12.24 26.4h40.32l-84-172.32Zm16.08 114.72h-32.16l16.08-35.52 16.08 35.52ZM339.682 237.066h-29.52c-.24 10.56-4.32 17.28-14.4 17.28s-14.16-6.72-14.4-17.28h-29.52c.96 28.8 19.2 42.24 43.92 42.24 24.72 0 42.96-13.44 43.92-42.24Zm22.8 47.04-107.52 90.96v-89.04h-38.4v172.32l107.52-90.96v89.04h38.4v-172.32ZM516.082 397.626c-8.64 13.92-24 23.76-42.24 23.76-27.6 0-48.48-22.8-48.48-50.16 0-27.36 20.88-50.16 48.48-50.16 18.24 0 33.6 9.84 42.24 23.76l29.04-23.76c-15.84-22.32-42-36.96-71.28-36.96-48 0-87.12 39.12-87.12 87.12 0 48 39.12 87.12 87.12 87.12 29.28 0 55.44-14.64 71.28-36.96l-29.04-23.76ZM52.235 514.85l19.152 23.976h14.256l-20.232-25.344 17.928-25.776H70.091l-17.856 25.632v-25.632h-11.52v51.12h11.52V514.85ZM129.038 539.402c14.4 0 26.136-11.736 26.136-26.136 0-14.4-11.736-26.136-26.136-26.136-14.4 0-26.136 11.736-26.136 26.136 0 14.4 11.736 26.136 26.136 26.136Zm0-41.184c8.28 0 14.544 6.84 14.544 15.048s-6.264 15.048-14.544 15.048c-8.28 0-14.544-6.84-14.544-15.048s6.264-15.048 14.544-15.048ZM193.097 514.85l19.152 23.976h14.256l-20.232-25.344 17.928-25.776h-13.248l-17.856 25.632v-25.632h-11.52v51.12h11.52V514.85ZM245.565 499.082h12.168v39.744h11.736v-39.744h12.168v-11.376h-36.072v11.376ZM306.96 487.706v51.12h31.68V527.45h-20.16v-8.64h15.84v-11.088h-15.84v-8.64h20.16v-11.376h-31.68ZM402.412 473.018h-8.856c-.072 3.168-1.296 5.184-4.32 5.184s-4.248-2.016-4.32-5.184h-8.856c.288 8.64 5.76 12.672 13.176 12.672s12.888-4.032 13.176-12.672Zm6.84 14.112-32.256 27.288v-26.712h-11.52v51.696l32.256-27.288v26.712h11.52V487.13ZM469.279 538.826h11.52v-51.12h-32.976l-.288 10.728c-.576 22.176-2.088 30.744-11.16 30.888l-.216 10.08c11.376 0 20.52-2.808 21.6-30.024l.432-10.584h11.088v40.032ZM531.899 507.65h-10.944v-19.944h-11.52v51.12h22.68c8.136 0 15.48-6.192 15.48-16.416 0-7.92-4.464-14.76-15.696-14.76Zm-.864 20.592h-10.08V517.37h10.08c3.096 0 5.328 1.944 5.328 5.472 0 3.528-2.232 5.4-5.328 5.4ZM45.235 573.771c-.54.87-1.5 1.485-2.64 1.485-1.725 0-3.03-1.425-3.03-3.135 0-1.71 1.305-3.135 3.03-3.135 1.14 0 2.1.615 2.64 1.485l1.815-1.485a5.47 5.47 0 0 0-4.455-2.31c-3 0-5.445 2.445-5.445 5.445 0 3 2.445 5.445 5.445 5.445a5.47 5.47 0 0 0 4.455-2.31l-1.815-1.485ZM56.735 577.446h2.4v-10.65h-8.76v10.65h2.4v-8.34h3.96v8.34ZM68.191 577.566c3 0 5.445-2.445 5.445-5.445 0-3-2.445-5.445-5.445-5.445-3 0-5.445 2.445-5.445 5.445 0 3 2.445 5.445 5.445 5.445Zm0-8.58c1.725 0 3.03 1.425 3.03 3.135 0 1.71-1.305 3.135-3.03 3.135-1.725 0-3.03-1.425-3.03-3.135 0-1.71 1.305-3.135 3.03-3.135ZM84.836 573.771c-.54.87-1.5 1.485-2.64 1.485-1.725 0-3.03-1.425-3.03-3.135 0-1.71 1.305-3.135 3.03-3.135 1.14 0 2.1.615 2.64 1.485l1.815-1.485a5.47 5.47 0 0 0-4.455-2.31c-3 0-5.445 2.445-5.445 5.445 0 3 2.445 5.445 5.445 5.445a5.47 5.47 0 0 0 4.455-2.31l-1.815-1.485ZM94.926 577.566c3 0 5.445-2.445 5.445-5.445 0-3-2.445-5.445-5.445-5.445-3 0-5.445 2.445-5.445 5.445 0 3 2.445 5.445 5.445 5.445Zm0-8.58c1.725 0 3.03 1.425 3.03 3.135 0 1.71-1.305 3.135-3.03 3.135-1.725 0-3.03-1.425-3.03-3.135 0-1.71 1.305-3.135 3.03-3.135ZM106.351 571.101v-2.115h4.485v-2.19h-6.885v10.65h4.725c1.695 0 3.225-1.215 3.225-3.345 0-1.65-.93-3-3.27-3h-2.28Zm2.1 4.14h-2.1v-2.115h2.1c.645 0 1.11.33 1.11 1.065 0 .735-.465 1.05-1.11 1.05ZM127.181 577.446h2.4v-10.65h-8.76v10.65h2.4v-8.34h3.96v8.34ZM137.196 574.026c2.085 0 3.645-1.62 3.645-3.615s-1.56-3.615-3.645-3.615h-3.51v10.65h2.4v-3.42h1.11Zm-.03-4.98c.78 0 1.35.645 1.35 1.365s-.57 1.38-1.35 1.38h-1.08v-2.745h1.08ZM146.536 572.361v-5.565h-2.4v10.77l6.72-5.685v5.565h2.4v-10.77l-6.72 5.685ZM163.361 566.796h-6v10.65h2.4v-8.28h3.6v-2.37ZM171.712 577.566c3 0 5.445-2.445 5.445-5.445 0-3-2.445-5.445-5.445-5.445-3 0-5.445 2.445-5.445 5.445 0 3 2.445 5.445 5.445 5.445Zm0-8.58c1.725 0 3.03 1.425 3.03 3.135 0 1.71-1.305 3.135-3.03 3.135-1.725 0-3.03-1.425-3.03-3.135 0-1.71 1.305-3.135 3.03-3.135ZM180.047 569.166h2.535v8.28h2.445v-8.28h2.535v-2.37h-7.515v2.37ZM195.897 577.566c3 0 5.445-2.445 5.445-5.445 0-3-2.445-5.445-5.445-5.445-3 0-5.445 2.445-5.445 5.445 0 3 2.445 5.445 5.445 5.445Zm0-8.58c1.725 0 3.03 1.425 3.03 3.135 0 1.71-1.305 3.135-3.03 3.135-1.725 0-3.03-1.425-3.03-3.135 0-1.71 1.305-3.135 3.03-3.135ZM208.957 566.796h-4.005v10.65h4.695c1.8 0 3.225-1.41 3.225-3.165 0-1.14-.6-2.01-1.5-2.49a2.52 2.52 0 0 0 .75-1.83 3.175 3.175 0 0 0-3.165-3.165Zm-.27 4.305h-1.365v-2.115h1.365c.645 0 1.11.48 1.11 1.065s-.465 1.05-1.11 1.05Zm.735 4.14h-2.1v-2.115h2.1c.645 0 1.11.48 1.11 1.065s-.465 1.05-1.11 1.05ZM222.873 577.446h2.4v-10.65h-6.87l-.06 2.235c-.12 4.62-.435 6.405-2.325 6.435l-.045 2.1c2.37 0 4.275-.585 4.5-6.255l.09-2.205h2.31v8.34ZM229.378 566.796v10.65h6.6v-2.37h-4.2v-1.8h3.3v-2.31h-3.3v-1.8h4.2v-2.37h-6.6ZM239.678 566.796v10.65h2.4v-4.17h4.26v4.17h2.4v-10.65h-2.4v4.17h-4.26v-4.17h-2.4ZM255.243 572.361v-5.565h-2.4v10.77l6.72-5.685v5.565h2.4v-10.77l-6.72 5.685ZM273.434 566.796h-3.51c-2.085 0-3.645 1.47-3.645 3.465 0 1.305.675 2.4 1.725 2.985l-2.715 4.2h2.715l2.355-3.72h.675v3.72h2.4v-10.65Zm-2.4 2.25v2.445h-1.08c-.78 0-1.35-.51-1.35-1.23s.57-1.215 1.35-1.215h1.08ZM279.099 569.826c-.9 0-1.62.72-1.62 1.62 0 .9.72 1.62 1.62 1.62.9 0 1.62-.72 1.62-1.62 0-.9-.72-1.62-1.62-1.62Zm0 4.5c-.9 0-1.62.72-1.62 1.62 0 .9.72 1.62 1.62 1.62.9 0 1.62-.72 1.62-1.62 0-.9-.72-1.62-1.62-1.62ZM36.983 589.11h3.042v9.936h2.934v-9.936h3.042v-2.844h-9.018v2.844ZM59.461 599.046h3.204l-3.51-4.734 3.042-4.266h-3.132l-2.934 4.104v-4.104h-2.718v.54c-.522-.432-1.242-.684-1.98-.684-2.664 0-4.356 2.178-4.356 4.644s1.692 4.644 4.356 4.644c.738 0 1.458-.252 1.98-.684v.54h2.718v-4.482l3.33 4.482Zm-6.048-5.904v2.808c-.36.486-.864.756-1.53.756-1.296 0-2.07-.972-2.07-2.16 0-1.188.774-2.16 2.07-2.16.666 0 1.17.27 1.53.756ZM66.387 594.366v-4.32h-2.718v9l5.994-4.284v4.284h2.718v-9l-5.994 4.32ZM76.391 595.032h6.318c.036-.27.054-.54.054-.792 0-2.844-2.052-4.338-4.338-4.338-2.772 0-4.644 1.998-4.644 4.644 0 2.772 2.214 4.644 4.59 4.644 1.782 0 3.24-.864 4.068-2.16l-2.16-1.458c-.36.666-.972 1.134-1.926 1.134-.81 0-1.836-.468-1.962-1.674Zm3.69-1.584h-3.654c.252-1.08 1.188-1.368 1.836-1.368.882 0 1.674.414 1.818 1.368ZM91.341 594.366v-4.32h-2.718v9l5.994-4.284v4.284h2.718v-9l-5.994 4.32ZM101.975 590.046h-2.718v9h2.718v-3.312h3.276v3.312h2.718v-9h-2.718v3.312h-3.276v-3.312ZM116.317 592.422v-2.376h-6.066v9h2.718v-6.624h3.348ZM120.741 590.586v-.54h-2.718v12.312h2.718v-3.852c.522.432 1.242.684 1.98.684 1.26 0 2.286-.486 3.042-1.26a4.689 4.689 0 0 0 3.168 1.26c1.782 0 3.24-.864 4.068-2.16l-2.16-1.458c-.36.666-.972 1.134-1.926 1.134-.81 0-1.836-.468-1.962-1.674h6.318c.036-.27.054-.54.054-.792 0-2.844-2.052-4.338-4.338-4.338-1.332 0-2.448.45-3.258 1.224-.738-.756-1.764-1.224-3.006-1.224-.738 0-1.458.252-1.98.684Zm9.9 2.862h-3.654c.252-1.08 1.188-1.368 1.836-1.368.882 0 1.674.414 1.818 1.368Zm-9.9 2.502v-2.808c.36-.486.864-.756 1.53-.756 1.296 0 2.07.972 2.07 2.16 0 1.188-.774 2.16-2.07 2.16-.666 0-1.17-.27-1.53-.756ZM144.767 601.17v-4.5h-1.296v-6.624h-6.804l-.036 1.908c-.036 2.232-.324 3.6-.936 4.716h-.972v4.5h2.394v-2.124h5.256v2.124h2.394Zm-5.832-8.748h1.818v4.248h-2.646c.378-.864.612-1.962.702-2.916l.126-1.332ZM149.335 594.366v-4.32h-2.718v9l5.994-4.284v4.284h2.718v-9l-5.994 4.32ZM159.339 595.032h6.318c.036-.27.054-.54.054-.792 0-2.844-2.052-4.338-4.338-4.338-2.772 0-4.644 1.998-4.644 4.644 0 2.772 2.214 4.644 4.59 4.644 1.782 0 3.24-.864 4.068-2.16l-2.16-1.458c-.36.666-.972 1.134-1.926 1.134-.81 0-1.836-.468-1.962-1.674Zm3.69-1.584h-3.654c.252-1.08 1.188-1.368 1.836-1.368.882 0 1.674.414 1.818 1.368ZM170.171 590.046h-2.718v9h2.718v-3.312h3.276v3.312h2.718v-9h-2.718v3.312h-3.276v-3.312ZM177.655 590.046v2.376h2.34v6.624h2.718v-6.624h2.52v-2.376h-7.578ZM189.441 592.404v-2.358h-2.718v9h4.194c2.43 0 3.312-1.998 3.312-3.312 0-1.314-.882-3.33-3.312-3.33h-1.476Zm8.694-2.358h-2.736v9h2.736v-9Zm-7.668 6.66h-1.026v-1.962h1.134c.576.036.918.396.918.99 0 .612-.378.972-1.026.972ZM203.635 590.046v9h2.718v-4.482l3.33 4.482h3.204l-3.51-4.734 3.042-4.266h-3.132l-2.934 4.104v-4.104h-2.718ZM226.491 599.046h3.204l-3.51-4.734 3.042-4.266h-3.132l-2.934 4.104v-4.104h-2.718v.54c-.522-.432-1.242-.684-1.98-.684-2.664 0-4.356 2.178-4.356 4.644s1.692 4.644 4.356 4.644c.738 0 1.458-.252 1.98-.684v.54h2.718v-4.482l3.33 4.482Zm-6.048-5.904v2.808c-.36.486-.864.756-1.53.756-1.296 0-2.07-.972-2.07-2.16 0-1.188.774-2.16 2.07-2.16.666 0 1.17.27 1.53.756ZM44.795 611.574v-3.708h-2.736v3.708a4.566 4.566 0 0 0-4.878 4.572c0 2.628 2.178 4.68 4.878 4.554v3.258h2.736V620.7c2.7.126 4.878-1.926 4.878-4.554a4.566 4.566 0 0 0-4.878-4.572Zm-2.736 2.484v4.176c-1.224 0-2.142-.774-2.142-2.088s.918-2.088 2.142-2.088Zm2.736 4.176v-4.176c1.224 0 2.142.774 2.142 2.088s-.918 2.088-2.142 2.088ZM60.148 614.724c-.594-1.8-2.034-3.222-4.158-3.222-.738 0-1.458.252-1.98.684v-.54h-2.718v12.312h2.718v-3.834c.522.432 1.242.666 1.98.666 1.314 0 2.376-.522 3.132-1.35l.45 1.206-1.224 3.312h2.88l4.536-12.312h-2.88l-1.872 5.688-.864-2.61Zm-6.138.018c.36-.486.864-.756 1.53-.756 1.296 0 2.07.972 2.07 2.16 0 1.188-.774 2.16-2.07 2.16-.666 0-1.17-.252-1.53-.738v-2.826ZM66.753 611.646v9h2.718v-4.482l3.33 4.482h3.204l-3.51-4.734 3.042-4.266h-3.132l-2.934 4.104v-4.104h-2.718ZM76.778 611.646v2.376h2.34v6.624h2.718v-6.624h2.52v-2.376h-7.578ZM89.863 611.502c-2.592 0-4.68 2.088-4.68 4.644s2.088 4.644 4.68 4.644c2.592 0 4.68-2.088 4.68-4.644s-2.088-4.644-4.68-4.644Zm0 6.75c-1.116 0-1.944-.864-1.944-2.106s.828-2.106 1.944-2.106 1.944.864 1.944 2.106-.828 2.106-1.944 2.106ZM100.536 611.646h-4.374v9h4.95c2.43 0 3.312-1.458 3.312-2.772 0-.666-.342-1.458-1.08-2.016.342-.45.504-.972.504-1.44 0-1.314-.882-2.772-3.312-2.772Zm-.018 3.636H98.88v-1.422h1.566c.288 0 .666.18.666.702 0 .504-.306.684-.594.72Zm.576 3.006H98.88v-1.422h2.142c.288 0 .666.18.666.72 0 .486-.306.666-.594.702ZM108.833 614.004v-2.358h-2.718v9h4.194c2.43 0 3.312-1.998 3.312-3.312 0-1.314-.882-3.33-3.312-3.33h-1.476Zm8.694-2.358h-2.736v9h2.736v-9Zm-7.668 6.66h-1.026v-1.962h1.134c.576.036.918.396.918.99 0 .612-.378.972-1.026.972ZM127.804 607.866h-2.034c-.018 1.008-.504 1.53-1.26 1.53s-1.242-.522-1.26-1.53h-2.034c.072 2.16 1.44 3.168 3.294 3.168s3.222-1.008 3.294-3.168Zm.576 3.78-5.994 4.32v-4.32h-2.718v9l5.994-4.284v4.284h2.718v-9ZM142.562 613.626a4.686 4.686 0 0 0-3.942-2.124c-2.592 0-4.68 2.088-4.68 4.644s2.088 4.644 4.68 4.644a4.686 4.686 0 0 0 3.942-2.124l-2.16-1.53c-.36.666-.99 1.116-1.782 1.116-1.116 0-1.944-.864-1.944-2.106s.828-2.106 1.944-2.106c.792 0 1.422.45 1.782 1.116l2.16-1.53ZM148.033 611.502c-2.592 0-4.68 2.088-4.68 4.644s2.088 4.644 4.68 4.644c2.592 0 4.68-2.088 4.68-4.644s-2.088-4.644-4.68-4.644Zm0 6.75c-1.116 0-1.944-.864-1.944-2.106s.828-2.106 1.944-2.106 1.944.864 1.944 2.106-.828 2.106-1.944 2.106ZM154.332 611.646v9h2.718v-4.482l3.33 4.482h3.204l-3.51-4.734 3.042-4.266h-3.132l-2.934 4.104v-4.104h-2.718ZM168.425 617.514h-3.132v3.132h1.206l-.792 2.772h1.566l1.152-2.772v-3.132ZM182.787 613.626a4.686 4.686 0 0 0-3.942-2.124c-2.592 0-4.68 2.088-4.68 4.644s2.088 4.644 4.68 4.644a4.686 4.686 0 0 0 3.942-2.124l-2.16-1.53c-.36.666-.99 1.116-1.782 1.116-1.116 0-1.944-.864-1.944-2.106s.828-2.106 1.944-2.106c.792 0 1.422.45 1.782 1.116l2.16-1.53ZM189.734 620.646h2.718v-9h-6.804l-.09 1.926c-.162 3.312-.144 4.752-1.926 4.752v2.574c3.348.108 3.906-2.106 4.14-5.04l.144-1.836h1.818v6.624ZM197.311 615.966v-4.32h-2.718v9l5.994-4.284v4.284h2.718v-9l-5.994 4.32ZM209.46 611.646h-4.374v9h4.95c2.43 0 3.312-1.458 3.312-2.772 0-.666-.342-1.458-1.08-2.016.342-.45.504-.972.504-1.44 0-1.314-.882-2.772-3.312-2.772Zm-.018 3.636h-1.638v-1.422h1.566c.288 0 .666.18.666.702 0 .504-.306.684-.594.72Zm.576 3.006h-2.214v-1.422h2.142c.288 0 .666.18.666.72 0 .486-.306.666-.594.702ZM215.04 611.646v9h2.718v-4.482l3.33 4.482h3.204l-3.51-4.734 3.042-4.266h-3.132l-2.934 4.104v-4.104h-2.718ZM228.575 615.966v-4.32h-2.718v9l5.994-4.284v4.284h2.718v-9l-5.994 4.32ZM239.626 617.514h-3.132v3.132h1.206l-.792 2.772h1.566l1.152-2.772v-3.132ZM45.227 633.246h-4.194c-2.43 0-3.312 1.818-3.312 3.312 0 .972.414 2.124 1.458 2.772l-1.818 2.916h2.934l1.44-2.448h.774v2.448h2.718v-9Zm-2.718 2.34v1.872h-1.134c-.576-.036-.918-.396-.918-.9 0-.612.378-.972 1.026-.972h1.026ZM55.554 629.466H53.52c-.018 1.008-.504 1.53-1.26 1.53s-1.242-.522-1.26-1.53h-2.034c.072 2.16 1.44 3.168 3.294 3.168s3.222-1.008 3.294-3.168Zm.576 3.78-5.994 4.32v-4.32h-2.718v9l5.994-4.284v4.284h2.718v-9ZM68.042 644.37v-4.5h-1.296v-6.624h-2.718v6.624h-3.006v-6.624h-2.718v9h7.344v2.124h2.394ZM77.847 642.246v-9h-2.718v.54c-.522-.432-1.242-.684-1.98-.684-2.664 0-4.356 2.178-4.356 4.644s1.692 4.644 4.356 4.644c.738 0 1.458-.252 1.98-.684v.54h2.718Zm-2.718-5.904v2.808c-.36.486-.864.756-1.53.756-1.296 0-2.07-.972-2.07-2.16 0-1.188.774-2.16 2.07-2.16.666 0 1.17.27 1.53.756ZM86.82 637.566v-4.32h-2.718v9l5.994-4.284v4.284h2.718v-9l-5.994 4.32ZM106.809 635.226a4.686 4.686 0 0 0-3.942-2.124c-2.592 0-4.68 2.088-4.68 4.644s2.088 4.644 4.68 4.644a4.686 4.686 0 0 0 3.942-2.124l-2.16-1.53c-.36.666-.99 1.116-1.782 1.116-1.116 0-1.944-.864-1.944-2.106s.828-2.106 1.944-2.106c.792 0 1.422.45 1.782 1.116l2.16-1.53ZM110.909 637.566v-4.32h-2.718v9l5.994-4.284v4.284h2.718v-9l-5.994 4.32ZM121.47 633.786v-.54h-2.718v12.312h2.718v-3.852c.522.432 1.242.684 1.98.684 2.664 0 4.356-2.178 4.356-4.644s-1.692-4.644-4.356-4.644c-.738 0-1.458.252-1.98.684Zm0 5.364v-2.808c.36-.486.864-.756 1.53-.756 1.296 0 2.07.972 2.07 2.16 0 1.188-.774 2.16-2.07 2.16-.666 0-1.17-.27-1.53-.756ZM133.688 633.102c-2.592 0-4.68 2.088-4.68 4.644s2.088 4.644 4.68 4.644c2.592 0 4.68-2.088 4.68-4.644s-2.088-4.644-4.68-4.644Zm0 6.75c-1.116 0-1.944-.864-1.944-2.106s.828-2.106 1.944-2.106 1.944.864 1.944 2.106-.828 2.106-1.944 2.106ZM148.587 633.246h-8.532v9h2.718v-6.624h3.096v6.624h2.718v-9ZM153.515 635.604v-2.358h-2.718v9h4.194c2.43 0 3.312-1.998 3.312-3.312 0-1.314-.882-3.33-3.312-3.33h-1.476Zm8.694-2.358h-2.736v9h2.736v-9Zm-7.668 6.66h-1.026v-1.962h1.134c.576.036.918.396.918.99 0 .612-.378.972-1.026.972ZM170.417 633.246h-2.718v9h2.718v-3.312h3.276v3.312h2.718v-9h-2.718v3.312h-3.276v-3.312ZM180.708 638.232h6.318c.036-.27.054-.54.054-.792 0-2.844-2.052-4.338-4.338-4.338-2.772 0-4.644 1.998-4.644 4.644 0 2.772 2.214 4.644 4.59 4.644 1.782 0 3.24-.864 4.068-2.16l-2.16-1.458c-.36.666-.972 1.134-1.926 1.134-.81 0-1.836-.468-1.962-1.674Zm3.69-1.584h-3.654c.252-1.08 1.188-1.368 1.836-1.368.882 0 1.674.414 1.818 1.368ZM192.908 633.102c-2.592 0-4.68 2.088-4.68 4.644s2.088 4.644 4.68 4.644c2.592 0 4.68-2.088 4.68-4.644s-2.088-4.644-4.68-4.644Zm0 6.75c-1.116 0-1.944-.864-1.944-2.106s.828-2.106 1.944-2.106 1.944.864 1.944 2.106-.828 2.106-1.944 2.106ZM206.637 632.076l.9-.072-.198-2.7-.882.072c-4.554.288-7.614 2.088-7.614 7.182 0 3.762 1.674 5.832 4.644 5.832 2.682 0 4.77-1.692 4.77-4.644 0-2.502-1.494-4.32-4.032-4.32-1.008 0-2.16.288-2.952 1.152.846-1.764 1.764-2.214 5.364-2.502Zm-3.024 7.776c-1.116 0-1.944-.846-1.944-2.124 0-1.26.828-2.088 1.944-2.088s1.944.828 1.944 2.088c0 1.278-.828 2.124-1.944 2.124Z" style="fill:#231f20;fill-rule:nonzero" transform="translate(-28.76 -54.57) scale(4.16667)"/><path d="M218.045 633.246h-3.15l-1.692 2.574-1.692-2.574h-3.15l3.078 4.464-3.24 4.536h3.15l1.854-2.7 1.854 2.7h3.15l-3.24-4.536 3.078-4.464ZM222.918 633.102c-2.592 0-4.68 2.088-4.68 4.644s2.088 4.644 4.68 4.644c2.592 0 4.68-2.088 4.68-4.644s-2.088-4.644-4.68-4.644Zm0 6.75c-1.116 0-1.944-.864-1.944-2.106s.828-2.106 1.944-2.106 1.944.864 1.944 2.106-.828 2.106-1.944 2.106ZM238.268 644.37v-4.5h-1.296v-6.624h-6.804l-.036 1.908c-.036 2.232-.324 3.6-.936 4.716h-.972v4.5h2.394v-2.124h5.256v2.124h2.394Zm-5.832-8.748h1.818v4.248h-2.646c.378-.864.612-1.962.702-2.916l.126-1.332ZM242.763 637.566v-4.32h-2.718v9l5.994-4.284v4.284h2.718v-9l-5.994 4.32ZM259.193 642.246h2.682l-1.602-9h-2.07l-2.52 5.868-2.52-5.868h-2.07l-1.602 9h2.628l.702-4.176 1.98 4.176h1.764l1.98-4.158.648 4.158ZM267.378 633.102c-2.592 0-4.68 2.088-4.68 4.644s2.088 4.644 4.68 4.644c2.592 0 4.68-2.088 4.68-4.644s-2.088-4.644-4.68-4.644Zm0 6.75c-1.116 0-1.944-.864-1.944-2.106s.828-2.106 1.944-2.106 1.944.864 1.944 2.106-.828 2.106-1.944 2.106ZM42.077 654.846h-4.374v9h4.95c2.43 0 3.312-1.458 3.312-2.772 0-.666-.342-1.458-1.08-2.016.342-.45.504-.972.504-1.44 0-1.314-.882-2.772-3.312-2.772Zm-.018 3.636h-1.638v-1.422h1.566c.288 0 .666.18.666.702 0 .504-.306.684-.594.72Zm.576 3.006h-2.214v-1.422h2.142c.288 0 .666.18.666.72 0 .486-.306.666-.594.702ZM46.637 656.466l1.8 1.404c.468-.522.936-.756 1.764-.756.954 0 1.332.27 1.332.81 0 .432-.252.63-.882.63h-1.746v1.584h1.98c.702 0 .99.144.99.594 0 .612-.54.864-1.548.864-.9 0-1.476-.216-2.142-.9l-1.62 1.746c1.26 1.242 2.322 1.548 3.762 1.548 2.952 0 4.122-1.278 4.122-2.862 0-1.044-.486-1.62-1.26-2.07.684-.45.918-.972.918-1.584 0-1.386-1.224-2.772-3.69-2.772-1.548 0-2.808.54-3.78 1.764ZM63.276 653.676l.9-.072-.198-2.7-.882.072c-4.554.288-7.614 2.088-7.614 7.182 0 3.762 1.674 5.832 4.644 5.832 2.682 0 4.77-1.692 4.77-4.644 0-2.502-1.494-4.32-4.032-4.32-1.008 0-2.16.288-2.952 1.152.846-1.764 1.764-2.214 5.364-2.502Zm-3.024 7.776c-1.116 0-1.944-.846-1.944-2.124 0-1.26.828-2.088 1.944-2.088s1.944.828 1.944 2.088c0 1.278-.828 2.124-1.944 2.124ZM75.054 663.846v-9h-2.718v.54c-.522-.432-1.242-.684-1.98-.684-2.664 0-4.356 2.178-4.356 4.644s1.692 4.644 4.356 4.644c.738 0 1.458-.252 1.98-.684v.54h2.718Zm-2.718-5.904v2.808c-.36.486-.864.756-1.53.756-1.296 0-2.07-.972-2.07-2.16 0-1.188.774-2.16 2.07-2.16.666 0 1.17.27 1.53.756ZM82.891 663.846h2.718v-9h-6.804l-.09 1.926c-.162 3.312-.144 4.752-1.926 4.752v2.574c3.348.108 3.906-2.106 4.14-5.04l.144-1.836h1.818v6.624ZM87.019 654.846v2.376h2.34v6.624h2.718v-6.624h2.52v-2.376h-7.578ZM98.726 657.204v-2.358h-2.718v9h4.194c2.43 0 3.312-1.998 3.312-3.312 0-1.314-.882-3.33-3.312-3.33h-1.476Zm8.694-2.358h-2.736v9h2.736v-9Zm-7.668 6.66h-1.026v-1.962h1.134c.576.036.918.396.918.99 0 .612-.378.972-1.026.972ZM113.996 654.846h-4.374v9h4.95c2.43 0 3.312-1.458 3.312-2.772 0-.666-.342-1.458-1.08-2.016.342-.45.504-.972.504-1.44 0-1.314-.882-2.772-3.312-2.772Zm-.018 3.636h-1.638v-1.422h1.566c.288 0 .666.18.666.702 0 .504-.306.684-.594.72Zm.576 3.006h-2.214v-1.422h2.142c.288 0 .666.18.666.72 0 .486-.306.666-.594.702ZM128.205 663.846v-9h-2.718v.54c-.522-.432-1.242-.684-1.98-.684-2.664 0-4.356 2.178-4.356 4.644s1.692 4.644 4.356 4.644c.738 0 1.458-.252 1.98-.684v.54h2.718Zm-2.718-5.904v2.808c-.36.486-.864.756-1.53.756-1.296 0-2.07-.972-2.07-2.16 0-1.188.774-2.16 2.07-2.16.666 0 1.17.27 1.53.756ZM129.616 654.846v2.376h2.34v6.624h2.718v-6.624h2.52v-2.376h-7.578ZM141.322 654.846h-2.718v9h4.194c2.43 0 3.312-1.998 3.312-3.312 0-1.314-.882-3.33-3.312-3.33h-1.476v-2.358Zm0 6.66v-1.962h1.134c.576.036.918.396.918.99 0 .612-.378.972-1.026.972h-1.026ZM149.699 660.102c-1.08 0-1.944.864-1.944 1.944s.864 1.944 1.944 1.944 1.944-.864 1.944-1.944-.864-1.944-1.944-1.944ZM170.502 666.51v-5.436h-1.746v-10.008h-8.388v2.448c-.036 3.15-.378 5.472-1.404 7.56h-1.62v5.436h2.772v-2.664h7.614v2.664h2.772Zm-4.626-12.672v7.236h-4.122c.774-1.422 1.224-3.546 1.278-5.796l.036-1.44h2.808ZM177.996 663.846h2.718v-9h-6.804l-.09 1.926c-.162 3.312-.144 4.752-1.926 4.752v2.574c3.348.108 3.906-2.106 4.14-5.04l.144-1.836h1.818v6.624ZM190.441 654.846h-4.194c-2.43 0-3.312 1.818-3.312 3.312 0 .972.414 2.124 1.458 2.772l-1.818 2.916h2.934l1.44-2.448h.774v2.448h2.718v-9Zm-2.718 2.34v1.872h-1.134c-.576-.036-.918-.396-.918-.9 0-.612.378-.972 1.026-.972h1.026ZM195.908 656.826l2.16 1.44c.36-.666 1.152-1.206 1.944-1.206.882 0 1.548.486 1.872 1.188h-2.862v1.98h2.952c-.288.81-.99 1.404-1.962 1.404-.792 0-1.584-.54-1.944-1.206l-2.16 1.44c.828 1.278 2.448 2.124 4.104 2.124 2.592 0 4.752-2.088 4.752-4.644s-2.16-4.644-4.752-4.644c-1.656 0-3.276.846-4.104 2.124ZM205.652 654.846v2.376h2.34v6.624h2.718v-6.624h2.52v-2.376h-7.578ZM218.799 654.702c-2.592 0-4.68 2.088-4.68 4.644s2.088 4.644 4.68 4.644c2.592 0 4.68-2.088 4.68-4.644s-2.088-4.644-4.68-4.644Zm0 6.75c-1.116 0-1.944-.864-1.944-2.106s.828-2.106 1.944-2.106 1.944.864 1.944 2.106-.828 2.106-1.944 2.106ZM231.226 657.222v-2.376h-6.066v9h2.718v-6.624h3.348ZM236.65 654.702c-2.592 0-4.68 2.088-4.68 4.644s2.088 4.644 4.68 4.644c2.592 0 4.68-2.088 4.68-4.644s-2.088-4.644-4.68-4.644Zm0 6.75c-1.116 0-1.944-.864-1.944-2.106s.828-2.106 1.944-2.106 1.944.864 1.944 2.106-.828 2.106-1.944 2.106ZM249.767 659.166v-4.32h-2.718v9l5.994-4.284v4.284h2.718v-9l-5.994 4.32ZM265.704 656.826a4.686 4.686 0 0 0-3.942-2.124c-2.592 0-4.68 2.088-4.68 4.644s2.088 4.644 4.68 4.644a4.686 4.686 0 0 0 3.942-2.124l-2.16-1.53c-.36.666-.99 1.116-1.782 1.116-1.116 0-1.944-.864-1.944-2.106s.828-2.106 1.944-2.106c.792 0 1.422.45 1.782 1.116l2.16-1.53ZM266.79 657.474h5.112v2.592h-5.112zM46.235 676.446h-8.532v9h2.718v-6.624h3.096v6.624h2.718v-9ZM52.594 676.302c-2.592 0-4.68 2.088-4.68 4.644s2.088 4.644 4.68 4.644c2.592 0 4.68-2.088 4.68-4.644s-2.088-4.644-4.68-4.644Zm0 6.75c-1.116 0-1.944-.864-1.944-2.106s.828-2.106 1.944-2.106 1.944.864 1.944 2.106-.828 2.106-1.944 2.106ZM64.228 685.446h2.718v-9h-6.804l-.09 1.926c-.162 3.312-.144 4.752-1.926 4.752v2.574c3.348.108 3.906-2.106 4.14-5.04l.144-1.836h1.818v6.624ZM71.866 676.446h-2.718v9h4.194c2.43 0 3.312-1.998 3.312-3.312 0-1.314-.882-3.33-3.312-3.33h-1.476v-2.358Zm0 6.66v-1.962H73c.576.036.918.396.918.99 0 .612-.378.972-1.026.972h-1.026ZM77.614 678.066l1.8 1.404c.468-.522.936-.756 1.764-.756.954 0 1.332.27 1.332.81 0 .432-.252.63-.882.63h-1.746v1.584h1.98c.702 0 .99.144.99.594 0 .612-.54.864-1.548.864-.9 0-1.476-.216-2.142-.9l-1.62 1.746c1.26 1.242 2.322 1.548 3.762 1.548 2.952 0 4.122-1.278 4.122-2.862 0-1.044-.486-1.62-1.26-2.07.684-.45.918-.972.918-1.584 0-1.386-1.224-2.772-3.69-2.772-1.548 0-2.808.54-3.78 1.764ZM88.005 688.758h2.88l4.536-12.312h-2.88l-1.872 5.688-1.872-5.688h-2.88l3.312 9-1.224 3.312ZM100.683 679.488h-1.494v-3.042h-2.718v9h2.718v-3.258h1.422a4.687 4.687 0 0 0 4.518 3.402c2.592 0 4.68-2.088 4.68-4.644s-2.088-4.644-4.68-4.644a4.673 4.673 0 0 0-4.446 3.186Zm4.446 3.564c-1.116 0-1.944-.864-1.944-2.106s.828-2.106 1.944-2.106 1.944.864 1.944 2.106-.828 2.106-1.944 2.106ZM110.697 676.446v2.376h2.34v6.624h2.718v-6.624h2.52v-2.376h-7.578ZM124.373 685.446h12.186v-9h-2.718v6.624h-2.016v-6.624h-2.718v6.624h-2.016v-6.624h-2.718v9ZM140.848 681.432h6.318c.036-.27.054-.54.054-.792 0-2.844-2.052-4.338-4.338-4.338-2.772 0-4.644 1.998-4.644 4.644 0 2.772 2.214 4.644 4.59 4.644 1.782 0 3.24-.864 4.068-2.16l-2.16-1.458c-.36.666-.972 1.134-1.926 1.134-.81 0-1.836-.468-1.962-1.674Zm3.69-1.584h-3.654c.252-1.08 1.188-1.368 1.836-1.368.882 0 1.674.414 1.818 1.368ZM157.018 672.666h-2.034c-.018 1.008-.504 1.53-1.26 1.53s-1.242-.522-1.26-1.53h-2.034c.072 2.16 1.44 3.168 3.294 3.168s3.222-1.008 3.294-3.168Zm.576 3.78-5.994 4.32v-4.32h-2.718v9l5.994-4.284v4.284h2.718v-9ZM159.76 676.446v9h2.718v-4.482l3.33 4.482h3.204l-3.51-4.734 3.042-4.266h-3.132l-2.934 4.104v-4.104h-2.718ZM172.726 681.432h6.318c.036-.27.054-.54.054-.792 0-2.844-2.052-4.338-4.338-4.338-2.772 0-4.644 1.998-4.644 4.644 0 2.772 2.214 4.644 4.59 4.644 1.782 0 3.24-.864 4.068-2.16l-2.16-1.458c-.36.666-.972 1.134-1.926 1.134-.81 0-1.836-.468-1.962-1.674Zm3.69-1.584h-3.654c.252-1.08 1.188-1.368 1.836-1.368.882 0 1.674.414 1.818 1.368ZM183.477 676.986v-.54h-2.718v12.312h2.718v-3.852c.522.432 1.242.684 1.98.684 2.664 0 4.356-2.178 4.356-4.644s-1.692-4.644-4.356-4.644c-.738 0-1.458.252-1.98.684Zm0 5.364v-2.808c.36-.486.864-.756 1.53-.756 1.296 0 2.07.972 2.07 2.16 0 1.188-.774 2.16-2.07 2.16-.666 0-1.17-.27-1.53-.756ZM193.437 681.702c-1.08 0-1.944.864-1.944 1.944s.864 1.944 1.944 1.944 1.944-.864 1.944-1.944-.864-1.944-1.944-1.944ZM201.107 672.666v12.78h7.92v-2.844h-5.04v-2.16h3.96v-2.772h-3.96v-2.16h5.04v-2.844h-7.92ZM216.952 678.822v-2.376h-6.066v9h2.718v-6.624h3.348ZM222.376 676.302c-2.592 0-4.68 2.088-4.68 4.644s2.088 4.644 4.68 4.644c2.592 0 4.68-2.088 4.68-4.644s-2.088-4.644-4.68-4.644Zm0 6.75c-1.116 0-1.944-.864-1.944-2.106s.828-2.106 1.944-2.106 1.944.864 1.944 2.106-.828 2.106-1.944 2.106ZM235.492 676.446h-2.718v9h2.718v-3.312h3.276v3.312h2.718v-9h-2.718v3.312h-3.276v-3.312ZM252.255 685.446v-9h-2.718v.54c-.522-.432-1.242-.684-1.98-.684-2.664 0-4.356 2.178-4.356 4.644s1.692 4.644 4.356 4.644c.738 0 1.458-.252 1.98-.684v.54h2.718Zm-2.718-5.904v2.808c-.36.486-.864.756-1.53.756-1.296 0-2.07-.972-2.07-2.16 0-1.188.774-2.16 2.07-2.16.666 0 1.17.27 1.53.756ZM262.989 676.446h-8.532v9h2.718v-6.624h3.096v6.624h2.718v-9ZM269.349 676.302c-2.592 0-4.68 2.088-4.68 4.644s2.088 4.644 4.68 4.644c2.592 0 4.68-2.088 4.68-4.644s-2.088-4.644-4.68-4.644Zm0 6.75c-1.116 0-1.944-.864-1.944-2.106s.828-2.106 1.944-2.106 1.944.864 1.944 2.106-.828 2.106-1.944 2.106ZM275.42 679.074h5.112v2.592h-5.112zM43.337 707.046h2.718v-9h-6.804l-.09 1.926c-.162 3.312-.144 4.752-1.926 4.752v2.574c3.348.108 3.906-2.106 4.14-5.04l.144-1.836h1.818v6.624ZM52.405 697.902c-2.592 0-4.68 2.088-4.68 4.644s2.088 4.644 4.68 4.644c2.592 0 4.68-2.088 4.68-4.644s-2.088-4.644-4.68-4.644Zm0 6.75c-1.116 0-1.944-.864-1.944-2.106s.828-2.106 1.944-2.106 1.944.864 1.944 2.106-.828 2.106-1.944 2.106ZM63.13 698.046h-4.374v9h4.95c2.43 0 3.312-1.458 3.312-2.772 0-.666-.342-1.458-1.08-2.016.342-.45.504-.972.504-1.44 0-1.314-.882-2.772-3.312-2.772Zm-.018 3.636h-1.638v-1.422h1.566c.288 0 .666.18.666.702 0 .504-.306.684-.594.72Zm.576 3.006h-2.214v-1.422h2.142c.288 0 .666.18.666.72 0 .486-.306.666-.594.702ZM71.479 702.366v-4.32h-2.718v9l5.994-4.284v4.284h2.718v-9l-5.994 4.32ZM82.024 698.046h-2.718v9h2.718v-3.312H85.3v3.312h2.718v-9H85.3v3.312h-3.276v-3.312ZM91.146 710.358h2.88l4.536-12.312h-2.88l-1.872 5.688-1.872-5.688h-2.88l3.312 9-1.224 3.312ZM102.912 699.666l1.8 1.404c.468-.522.936-.756 1.764-.756.954 0 1.332.27 1.332.81 0 .432-.252.63-.882.63h-1.746v1.584h1.98c.702 0 .99.144.99.594 0 .612-.54.864-1.548.864-.9 0-1.476-.216-2.142-.9l-1.62 1.746c1.26 1.242 2.322 1.548 3.762 1.548 2.952 0 4.122-1.278 4.122-2.862 0-1.044-.486-1.62-1.26-2.07.684-.45.918-.972.918-1.584 0-1.386-1.224-2.772-3.69-2.772-1.548 0-2.808.54-3.78 1.764ZM120.926 707.046v-9h-2.718v.54c-.522-.432-1.242-.684-1.98-.684-2.664 0-4.356 2.178-4.356 4.644s1.692 4.644 4.356 4.644c.738 0 1.458-.252 1.98-.684v.54h2.718Zm-2.718-5.904v2.808c-.36.486-.864.756-1.53.756-1.296 0-2.07-.972-2.07-2.16 0-1.188.774-2.16 2.07-2.16.666 0 1.17.27 1.53.756ZM131.651 698.046h-8.532v9h2.718v-6.624h3.096v6.624h2.718v-9ZM138.002 697.902c-2.592 0-4.68 2.088-4.68 4.644s2.088 4.644 4.68 4.644c2.592 0 4.68-2.088 4.68-4.644s-2.088-4.644-4.68-4.644Zm0 6.75c-1.116 0-1.944-.864-1.944-2.106s.828-2.106 1.944-2.106 1.944.864 1.944 2.106-.828 2.106-1.944 2.106ZM149.627 707.046h2.718v-9h-6.804l-.09 1.926c-.162 3.312-.144 4.752-1.926 4.752v2.574c3.348.108 3.906-2.106 4.14-5.04l.144-1.836h1.818v6.624ZM157.255 698.046h-2.718v9h2.718v-3.312h3.276v3.312h2.718v-9h-2.718v3.312h-3.276v-3.312ZM172.966 698.046h-4.194c-2.43 0-3.312 1.818-3.312 3.312 0 .972.414 2.124 1.458 2.772l-1.818 2.916h2.934l1.44-2.448h.774v2.448h2.718v-9Zm-2.718 2.34v1.872h-1.134c-.576-.036-.918-.396-.918-.9 0-.612.378-.972 1.026-.972h1.026ZM179.353 701.088h-1.494v-3.042h-2.718v9h2.718v-3.258h1.422a4.687 4.687 0 0 0 4.518 3.402c2.592 0 4.68-2.088 4.68-4.644s-2.088-4.644-4.68-4.644a4.673 4.673 0 0 0-4.446 3.186Zm4.446 3.564c-1.116 0-1.944-.864-1.944-2.106s.828-2.106 1.944-2.106 1.944.864 1.944 2.106-.828 2.106-1.944 2.106ZM189.358 698.046v2.376h2.34v6.624h2.718v-6.624h2.52v-2.376h-7.578ZM202.365 698.046v9h2.718v-4.482l3.33 4.482h3.204l-3.51-4.734 3.042-4.266h-3.132l-2.934 4.104v-4.104h-2.718ZM214.17 710.358h2.88l4.536-12.312h-2.88l-1.872 5.688-1.872-5.688h-2.88l3.312 9-1.224 3.312ZM229.988 696.876l.9-.072-.198-2.7-.882.072c-4.554.288-7.614 2.088-7.614 7.182 0 3.762 1.674 5.832 4.644 5.832 2.682 0 4.77-1.692 4.77-4.644 0-2.502-1.494-4.32-4.032-4.32-1.008 0-2.16.288-2.952 1.152.846-1.764 1.764-2.214 5.364-2.502Zm-3.024 7.776c-1.116 0-1.944-.846-1.944-2.124 0-1.26.828-2.088 1.944-2.088s1.944.828 1.944 2.088c0 1.278-.828 2.124-1.944 2.124ZM235.907 702.366v-4.32h-2.718v9l5.994-4.284v4.284h2.718v-9l-5.994 4.32ZM243.734 698.046v9h2.718v-4.482l3.33 4.482h3.204l-3.51-4.734 3.042-4.266h-3.132l-2.934 4.104v-4.104h-2.718ZM262.271 707.046v-9h-2.718v.54c-.522-.432-1.242-.684-1.98-.684-2.664 0-4.356 2.178-4.356 4.644s1.692 4.644 4.356 4.644c.738 0 1.458-.252 1.98-.684v.54h2.718Zm-2.718-5.904v2.808c-.36.486-.864.756-1.53.756-1.296 0-2.07-.972-2.07-2.16 0-1.188.774-2.16 2.07-2.16.666 0 1.17.27 1.53.756ZM273.049 707.046h2.682l-1.602-9h-2.07l-2.52 5.868-2.52-5.868h-2.07l-1.602 9h2.628l.702-4.176 1.98 4.176h1.764l1.98-4.158.648 4.158ZM279.778 702.366v-4.32h-2.718v9l5.994-4.284v4.284h2.718v-9l-5.994 4.32ZM43.337 728.646h2.718v-9h-6.804l-.09 1.926c-.162 3.312-.144 4.752-1.926 4.752v2.574c3.348.108 3.906-2.106 4.14-5.04l.144-1.836h1.818v6.624ZM50.963 719.646h-2.718v9h4.194c2.43 0 3.312-1.998 3.312-3.312 0-1.314-.882-3.33-3.312-3.33h-1.476v-2.358Zm0 6.66v-1.962h1.134c.576.036.918.396.918.99 0 .612-.378.972-1.026.972h-1.026ZM67.121 730.77v-4.5h-1.296v-6.624h-6.804l-.036 1.908c-.036 2.232-.324 3.6-.936 4.716h-.972v4.5h2.394v-2.124h5.256v2.124h2.394Zm-5.832-8.748h1.818v4.248h-2.646c.378-.864.612-1.962.702-2.916l.126-1.332ZM76.907 728.646v-9h-2.718v.54c-.522-.432-1.242-.684-1.98-.684-2.664 0-4.356 2.178-4.356 4.644s1.692 4.644 4.356 4.644c.738 0 1.458-.252 1.98-.684v.54h2.718Zm-2.718-5.904v2.808c-.36.486-.864.756-1.53.756-1.296 0-2.07-.972-2.07-2.16 0-1.188.774-2.16 2.07-2.16.666 0 1.17.27 1.53.756ZM82.373 725.514h-3.132v3.132h1.206l-.792 2.772h1.566l1.152-2.772v-3.132ZM97.877 719.646h-8.532v9h2.718v-6.624h3.096v6.624h2.718v-9ZM102.785 720.186v-.54h-2.718v12.312h2.718v-3.852c.522.432 1.242.684 1.98.684 2.664 0 4.356-2.178 4.356-4.644s-1.692-4.644-4.356-4.644c-.738 0-1.458.252-1.98.684Zm0 5.364v-2.808c.36-.486.864-.756 1.53-.756 1.296 0 2.07.972 2.07 2.16 0 1.188-.774 2.16-2.07 2.16-.666 0-1.17-.27-1.53-.756ZM113.543 723.966v-4.32h-2.718v9l5.994-4.284v4.284h2.718v-9l-5.994 4.32ZM124.637 721.626l2.16 1.44c.36-.666 1.152-1.206 1.944-1.206.882 0 1.548.486 1.872 1.188h-2.862v1.98h2.952c-.288.81-.99 1.404-1.962 1.404-.792 0-1.584-.54-1.944-1.206l-2.16 1.44c.828 1.278 2.448 2.124 4.104 2.124 2.592 0 4.752-2.088 4.752-4.644s-2.16-4.644-4.752-4.644c-1.656 0-3.276.846-4.104 2.124ZM134.369 719.646v2.376h2.34v6.624h2.718v-6.624h2.52v-2.376h-7.578ZM147.503 719.502c-2.592 0-4.68 2.088-4.68 4.644s2.088 4.644 4.68 4.644c2.592 0 4.68-2.088 4.68-4.644s-2.088-4.644-4.68-4.644Zm0 6.75c-1.116 0-1.944-.864-1.944-2.106s.828-2.106 1.944-2.106 1.944.864 1.944 2.106-.828 2.106-1.944 2.106ZM162.437 728.646h2.682l-1.602-9h-2.07l-2.52 5.868-2.52-5.868h-2.07l-1.602 9h2.628l.702-4.176 1.98 4.176h1.764l1.98-4.158.648 4.158ZM173.495 719.646h-4.374v9h4.95c2.43 0 3.312-1.458 3.312-2.772 0-.666-.342-1.458-1.08-2.016.342-.45.504-.972.504-1.44 0-1.314-.882-2.772-3.312-2.772Zm-.018 3.636h-1.638v-1.422h1.566c.288 0 .666.18.666.702 0 .504-.306.684-.594.72Zm.576 3.006h-2.214v-1.422h2.142c.288 0 .666.18.666.72 0 .486-.306.666-.594.702ZM183.281 719.502c-2.592 0-4.68 2.088-4.68 4.644s2.088 4.644 4.68 4.644c2.592 0 4.68-2.088 4.68-4.644s-2.088-4.644-4.68-4.644Zm0 6.75c-1.116 0-1.944-.864-1.944-2.106s.828-2.106 1.944-2.106 1.944.864 1.944 2.106-.828 2.106-1.944 2.106ZM198.611 730.77v-4.5h-1.296v-6.624h-6.804l-.036 1.908c-.036 2.232-.324 3.6-.936 4.716h-.972v4.5h2.394v-2.124h5.256v2.124h2.394Zm-5.832-8.748h1.818v4.248h-2.646c.378-.864.612-1.962.702-2.916l.126-1.332ZM200.945 731.958h2.88l4.536-12.312h-2.88l-1.872 5.688-1.872-5.688h-2.88l3.312 9-1.224 3.312ZM212.675 725.514h-3.132v3.132h1.206l-.792 2.772h1.566l1.152-2.772v-3.132ZM223.841 719.502c-2.592 0-4.68 2.088-4.68 4.644s2.088 4.644 4.68 4.644c2.592 0 4.68-2.088 4.68-4.644s-2.088-4.644-4.68-4.644Zm0 6.75c-1.116 0-1.944-.864-1.944-2.106s.828-2.106 1.944-2.106 1.944.864 1.944 2.106-.828 2.106-1.944 2.106ZM237.551 718.476l.9-.072-.198-2.7-.882.072c-4.554.288-7.614 2.088-7.614 7.182 0 3.762 1.674 5.832 4.644 5.832 2.682 0 4.77-1.692 4.77-4.644 0-2.502-1.494-4.32-4.032-4.32-1.008 0-2.16.288-2.952 1.152.846-1.764 1.764-2.214 5.364-2.502Zm-3.024 7.776c-1.116 0-1.944-.846-1.944-2.124 0-1.26.828-2.088 1.944-2.088s1.944.828 1.944 2.088c0 1.278-.828 2.124-1.944 2.124ZM253.403 728.124v.522h2.718v-9h-2.718v.54c-.522-.432-1.242-.684-1.98-.684-1.224 0-2.25.468-2.988 1.206a4.183 4.183 0 0 0-2.988-1.206c-.738 0-1.458.252-1.98.684v-.54h-2.718v12.312h2.718v-3.834c.522.432 1.242.666 1.98.666 1.224 0 2.232-.45 2.988-1.188.738.738 1.764 1.188 2.988 1.188.738 0 1.458-.234 1.98-.666Zm-9.936-2.556v-2.826c.378-.486.864-.756 1.53-.756 1.296 0 2.07.972 2.07 2.16 0 1.188-.774 2.16-2.07 2.16-.666 0-1.152-.252-1.53-.738Zm9.936-2.826v2.826c-.378.486-.864.738-1.53.738-1.296 0-2.07-.972-2.07-2.16 0-1.188.774-2.16 2.07-2.16.666 0 1.152.27 1.53.756ZM258.023 722.274h5.112v2.592h-5.112zM36.983 742.866l1.8 1.404c.468-.522.936-.756 1.764-.756.954 0 1.332.27 1.332.81 0 .432-.252.63-.882.63h-1.746v1.584h1.98c.702 0 .99.144.99.594 0 .612-.54.864-1.548.864-.9 0-1.476-.216-2.142-.9l-1.62 1.746c1.26 1.242 2.322 1.548 3.762 1.548 2.952 0 4.122-1.278 4.122-2.862 0-1.044-.486-1.62-1.26-2.07.684-.45.918-.972.918-1.584 0-1.386-1.224-2.772-3.69-2.772-1.548 0-2.808.54-3.78 1.764ZM50.56 741.102c-2.592 0-4.68 2.088-4.68 4.644s2.088 4.644 4.68 4.644c2.592 0 4.68-2.088 4.68-4.644s-2.088-4.644-4.68-4.644Zm0 6.75c-1.116 0-1.944-.864-1.944-2.106s.828-2.106 1.944-2.106 1.944.864 1.944 2.106-.828 2.106-1.944 2.106ZM61.257 741.246h-4.374v9h4.95c2.43 0 3.312-1.458 3.312-2.772 0-.666-.342-1.458-1.08-2.016.342-.45.504-.972.504-1.44 0-1.314-.882-2.772-3.312-2.772Zm-.018 3.636h-1.638v-1.422h1.566c.288 0 .666.18.666.702 0 .504-.306.684-.594.72Zm.576 3.006h-2.214v-1.422h2.142c.288 0 .666.18.666.72 0 .486-.306.666-.594.702ZM75.428 750.246v-9H72.71v.54c-.522-.432-1.242-.684-1.98-.684-2.664 0-4.356 2.178-4.356 4.644s1.692 4.644 4.356 4.644c.738 0 1.458-.252 1.98-.684v.54h2.718Zm-2.718-5.904v2.808c-.36.486-.864.756-1.53.756-1.296 0-2.07-.972-2.07-2.16 0-1.188.774-2.16 2.07-2.16.666 0 1.17.27 1.53.756ZM81.967 741.246h-4.374v9h4.95c2.43 0 3.312-1.458 3.312-2.772 0-.666-.342-1.458-1.08-2.016.342-.45.504-.972.504-1.44 0-1.314-.882-2.772-3.312-2.772Zm-.018 3.636h-1.638v-1.422h1.566c.288 0 .666.18.666.702 0 .504-.306.684-.594.72Zm.576 3.006h-2.214v-1.422h2.142c.288 0 .666.18.666.72 0 .486-.306.666-.594.702ZM87.57 750.246h12.186v-9h-2.718v6.624h-2.016v-6.624h-2.718v6.624h-2.016v-6.624H87.57v9ZM102.857 753.558h2.88l4.536-12.312h-2.88l-1.872 5.688-1.872-5.688h-2.88l3.312 9-1.224 3.312ZM115.498 744.288h-1.494v-3.042h-2.718v9h2.718v-3.258h1.422a4.687 4.687 0 0 0 4.518 3.402c2.592 0 4.68-2.088 4.68-4.644s-2.088-4.644-4.68-4.644a4.673 4.673 0 0 0-4.446 3.186Zm4.446 3.564c-1.116 0-1.944-.864-1.944-2.106s.828-2.106 1.944-2.106 1.944.864 1.944 2.106-.828 2.106-1.944 2.106ZM134.367 743.226a4.686 4.686 0 0 0-3.942-2.124c-2.592 0-4.68 2.088-4.68 4.644s2.088 4.644 4.68 4.644a4.686 4.686 0 0 0 3.942-2.124l-2.16-1.53c-.36.666-.99 1.116-1.782 1.116-1.116 0-1.944-.864-1.944-2.106s.828-2.106 1.944-2.106c.792 0 1.422.45 1.782 1.116l2.16-1.53ZM142.868 741.246h-4.194c-2.43 0-3.312 1.818-3.312 3.312 0 .972.414 2.124 1.458 2.772l-1.818 2.916h2.934l1.44-2.448h.774v2.448h2.718v-9Zm-2.718 2.34v1.872h-1.134c-.576-.036-.918-.396-.918-.9 0-.612.378-.972 1.026-.972h1.026ZM153.39 741.246h-4.374v9h4.95c2.43 0 3.312-1.458 3.312-2.772 0-.666-.342-1.458-1.08-2.016.342-.45.504-.972.504-1.44 0-1.314-.882-2.772-3.312-2.772Zm-.018 3.636h-1.638v-1.422h1.566c.288 0 .666.18.666.702 0 .504-.306.684-.594.72Zm.576 3.006h-2.214v-1.422h2.142c.288 0 .666.18.666.72 0 .486-.306.666-.594.702ZM171.526 741.246h-8.532v9h2.718v-6.624h3.096v6.624h2.718v-9ZM177.849 741.102c-2.592 0-4.68 2.088-4.68 4.644s2.088 4.644 4.68 4.644c2.592 0 4.68-2.088 4.68-4.644s-2.088-4.644-4.68-4.644Zm0 6.75c-1.116 0-1.944-.864-1.944-2.106s.828-2.106 1.944-2.106 1.944.864 1.944 2.106-.828 2.106-1.944 2.106ZM189.446 750.246h2.718v-9h-6.804l-.09 1.926c-.162 3.312-.144 4.752-1.926 4.752v2.574c3.348.108 3.906-2.106 4.14-5.04l.144-1.836h1.818v6.624ZM198.487 741.102c-2.592 0-4.68 2.088-4.68 4.644s2.088 4.644 4.68 4.644c2.592 0 4.68-2.088 4.68-4.644s-2.088-4.644-4.68-4.644Zm0 6.75c-1.116 0-1.944-.864-1.944-2.106s.828-2.106 1.944-2.106 1.944.864 1.944 2.106-.828 2.106-1.944 2.106ZM212.91 743.226a4.686 4.686 0 0 0-3.942-2.124c-2.592 0-4.68 2.088-4.68 4.644s2.088 4.644 4.68 4.644a4.686 4.686 0 0 0 3.942-2.124l-2.16-1.53c-.36.666-.99 1.116-1.782 1.116-1.116 0-1.944-.864-1.944-2.106s.828-2.106 1.944-2.106c.792 0 1.422.45 1.782 1.116l2.16-1.53ZM213.455 741.246v2.376h2.34v6.624h2.718v-6.624h2.52v-2.376h-7.578ZM229.93 741.246h-4.194c-2.43 0-3.312 1.818-3.312 3.312 0 .972.414 2.124 1.458 2.772l-1.818 2.916h2.934l1.44-2.448h.774v2.448h2.718v-9Zm-2.718 2.34v1.872h-1.134c-.576-.036-.918-.396-.918-.9 0-.612.378-.972 1.026-.972h1.026ZM240.807 741.246h-3.15l-1.692 2.574-1.692-2.574h-3.15l3.078 4.464-3.24 4.536h3.15l1.854-2.7 1.854 2.7h3.15l-3.24-4.536 3.078-4.464ZM51.636 788.666h-6.6v10.65h6.6v-2.37h-4.2v-1.8h3.3v-2.31h-3.3v-1.8h4.2v-2.37ZM61.407 795.026c0 1.29-.795 2.1-1.965 2.1s-1.965-.81-1.965-2.1v-6.36h-2.4v6.33c0 2.67 1.815 4.44 4.365 4.44 2.55 0 4.365-1.77 4.365-4.44v-6.33h-2.4v6.36ZM75.243 795.641c-.54.87-1.5 1.485-2.64 1.485-1.725 0-3.03-1.425-3.03-3.135 0-1.71 1.305-3.135 3.03-3.135 1.14 0 2.1.615 2.64 1.485l1.815-1.485a5.47 5.47 0 0 0-4.455-2.31c-3 0-5.445 2.445-5.445 5.445 0 3 2.445 5.445 5.445 5.445a5.47 5.47 0 0 0 4.455-2.31l-1.815-1.485ZM86.769 796.931h-4.125v-8.265h-2.415v10.65h6.54v-2.385ZM89.941 788.666h2.415v10.65h-2.415zM100.042 799.316c3 0 5.415-2.385 5.415-5.325 0-2.94-2.415-5.325-5.415-5.325h-3.735v10.65h3.735Zm0-8.46c1.785 0 3 1.425 3 3.135 0 1.71-1.215 3.135-3 3.135h-1.335v-6.27h1.335ZM114.546 788.666v2.37h2.535v8.28h2.445v-8.28h2.535v-2.37h-7.515ZM131.892 788.666h-6.6v10.65h6.6v-2.37h-4.2v-1.8h3.3v-2.31h-3.3v-1.8h4.2v-2.37ZM144.783 799.316l-5.25-10.77-5.25 10.77h2.52l.765-1.65h3.93l.765 1.65h2.52Zm-5.25-5.82 1.005 2.22h-2.01l1.005-2.22ZM153.879 788.666h-6.3v10.65h2.4v-4.17h3v-2.31h-3v-1.8h3.9v-2.37ZM163.501 795.026c0 1.29-.795 2.1-1.965 2.1s-1.965-.81-1.965-2.1v-6.36h-2.4v6.33c0 2.67 1.815 4.44 4.365 4.44 2.55 0 4.365-1.77 4.365-4.44v-6.33h-2.4v6.36ZM176.467 794.231l-6.72-5.685v10.77h2.4v-5.565l6.72 5.685v-10.77h-2.4v5.565ZM189.538 794.231l-6.72-5.685v10.77h2.4v-5.565l6.72 5.685v-10.77h-2.4v5.565ZM201.004 794.846l3.945-6.18h-2.835l-2.325 3.735-2.325-3.735h-2.805l3.945 6.18v4.47h2.4v-4.47ZM221.931 795.641c-.54.87-1.5 1.485-2.64 1.485-1.725 0-3.03-1.425-3.03-3.135 0-1.71 1.305-3.135 3.03-3.135 1.14 0 2.1.615 2.64 1.485l1.815-1.485a5.47 5.47 0 0 0-4.455-2.31c-3 0-5.445 2.445-5.445 5.445 0 3 2.445 5.445 5.445 5.445a5.47 5.47 0 0 0 4.455-2.31l-1.815-1.485ZM232.032 794.846l3.945-6.18h-2.835l-2.325 3.735-2.325-3.735h-2.805l3.945 6.18v4.47h2.4v-4.47ZM244.428 799.316h2.865l-3.45-4.53a3.15 3.15 0 0 0 2.04-2.955 3.175 3.175 0 0 0-3.165-3.165h-4.02v10.65h2.385v-4.32h.045l3.3 4.32Zm-3.345-6.345v-2.115h1.365c.645 0 1.11.48 1.11 1.065s-.465 1.05-1.11 1.05h-1.365ZM250.014 788.666h2.415v10.65h-2.415zM262.921 796.931h-4.125v-8.265h-2.415v10.65h6.54v-2.385ZM272.632 796.931h-4.125v-8.265h-2.415v10.65h6.54v-2.385ZM275.803 788.666h2.415v10.65h-2.415zM289.759 795.641c-.54.87-1.5 1.485-2.64 1.485-1.725 0-3.03-1.425-3.03-3.135 0-1.71 1.305-3.135 3.03-3.135 1.14 0 2.1.615 2.64 1.485l1.815-1.485a5.47 5.47 0 0 0-4.455-2.31c-3 0-5.445 2.445-5.445 5.445 0 3 2.445 5.445 5.445 5.445a5.47 5.47 0 0 0 4.455-2.31l-1.815-1.485ZM305.421 788.666h-4.005v10.65h4.695c1.8 0 3.225-1.41 3.225-3.165 0-1.14-.6-2.01-1.5-2.49a2.52 2.52 0 0 0 .75-1.83 3.175 3.175 0 0 0-3.165-3.165Zm-1.635 4.305v-2.115h1.365c.645 0 1.11.48 1.11 1.065s-.465 1.05-1.11 1.05h-1.365Zm2.1 4.14h-2.1v-2.115h2.1c.645 0 1.11.48 1.11 1.065s-.465 1.05-1.11 1.05ZM317.622 799.436c3 0 5.445-2.445 5.445-5.445 0-3-2.445-5.445-5.445-5.445-3 0-5.445 2.445-5.445 5.445 0 3 2.445 5.445 5.445 5.445Zm0-8.58c1.725 0 3.03 1.425 3.03 3.135 0 1.71-1.305 3.135-3.03 3.135-1.725 0-3.03-1.425-3.03-3.135 0-1.71 1.305-3.135 3.03-3.135ZM333.063 796.931h-4.125v-8.265h-2.415v10.65h6.54v-2.385ZM339.969 799.316c3 0 5.415-2.385 5.415-5.325 0-2.94-2.415-5.325-5.415-5.325h-3.735v10.65h3.735Zm0-8.46c1.785 0 3 1.425 3 3.135 0 1.71-1.215 3.135-3 3.135h-1.335v-6.27h1.335ZM358.881 788.666h-4.005v10.65h4.695c1.8 0 3.225-1.41 3.225-3.165 0-1.14-.6-2.01-1.5-2.49a2.52 2.52 0 0 0 .75-1.83 3.175 3.175 0 0 0-3.165-3.165Zm-1.635 4.305v-2.115h1.365c.645 0 1.11.48 1.11 1.065s-.465 1.05-1.11 1.05h-1.365Zm2.1 4.14h-2.1v-2.115h2.1c.645 0 1.11.48 1.11 1.065s-.465 1.05-1.11 1.05ZM372.732 788.666h-6.6v10.65h6.6v-2.37h-4.2v-1.8h3.3v-2.31h-3.3v-1.8h4.2v-2.37ZM375.558 788.666v2.37h2.535v8.28h2.445v-8.28h2.535v-2.37h-7.515ZM395.649 799.316l-5.25-10.77-5.25 10.77h2.52l.765-1.65h3.93l.765 1.65h2.52Zm-5.25-5.82 1.005 2.22h-2.01l1.005-2.22ZM408.441 788.546c-3 0-5.49 2.445-5.49 5.445 0 3 2.49 5.445 5.49 5.445s5.49-2.445 5.49-5.445c0-3-2.49-5.445-5.49-5.445Zm0 8.775c-1.875 0-3.21-1.485-3.21-3.33s1.335-3.33 3.21-3.33 3.21 1.485 3.21 3.33-1.335 3.33-3.21 3.33ZM421.842 792.416l1.77-3.75h-6.435v2.115h3.105l-1.575 3.33h1.08c.99 0 1.62.615 1.62 1.605s-.63 1.605-1.62 1.605c-.705 0-1.17-.375-1.5-.87l-1.605 1.485c.72.93 1.905 1.5 3.255 1.5 2.25 0 3.765-1.47 3.765-3.72 0-1.53-.705-2.7-1.86-3.3ZM446.196 795.281l-3.27 4.035h7.86v-2.115h-3.24l2.445-3.03c.495-.6.81-1.35.81-2.19 0-1.92-1.62-3.435-3.54-3.435s-3.525 1.515-3.525 3.435c0 1.56 1.035 2.85 2.46 3.3Zm1.065-1.965c-.765 0-1.245-.615-1.245-1.335s.48-1.32 1.245-1.32c.765 0 1.26.6 1.26 1.32 0 .72-.495 1.335-1.26 1.335ZM456.642 799.316l4.83-10.65h-7.38v2.115h3.96l-3.87 8.535h2.46ZM470.826 788.666l-4.965 10.65h2.04l4.965-10.65h-2.04ZM480.882 788.546c-3 0-5.49 2.445-5.49 5.445 0 3 2.49 5.445 5.49 5.445s5.49-2.445 5.49-5.445c0-3-2.49-5.445-5.49-5.445Zm0 8.775c-1.875 0-3.21-1.485-3.21-3.33s1.335-3.33 3.21-3.33 3.21 1.485 3.21 3.33-1.335 3.33-3.21 3.33ZM492.663 795.641l-2.01 3.675h2.535l2.805-5.145c.345-.63.675-1.29.675-2.07 0-2.01-1.605-3.555-3.735-3.555s-3.735 1.545-3.735 3.555c0 1.92 1.47 3.42 3.465 3.54Zm1.725-3.54c0 .765-.54 1.44-1.455 1.44s-1.455-.675-1.455-1.44c0-.765.54-1.44 1.455-1.44s1.455.675 1.455 1.44ZM506.136 788.666l-4.965 10.65h2.04l4.965-10.65h-2.04ZM513.387 795.281l-3.27 4.035h7.86v-2.115h-3.24l2.445-3.03c.495-.6.81-1.35.81-2.19 0-1.92-1.62-3.435-3.54-3.435s-3.525 1.515-3.525 3.435c0 1.56 1.035 2.85 2.46 3.3Zm1.065-1.965c-.765 0-1.245-.615-1.245-1.335s.48-1.32 1.245-1.32c.765 0 1.26.6 1.26 1.32 0 .72-.495 1.335-1.26 1.335ZM526.833 788.546c-3 0-5.49 2.445-5.49 5.445 0 3 2.49 5.445 5.49 5.445s5.49-2.445 5.49-5.445c0-3-2.49-5.445-5.49-5.445Zm0 8.775c-1.875 0-3.21-1.485-3.21-3.33s1.335-3.33 3.21-3.33 3.21 1.485 3.21 3.33-1.335 3.33-3.21 3.33ZM538.284 788.546l-2.28 2.28v8.49h2.28v-10.77ZM544.65 795.281l-3.27 4.035h7.86v-2.115H546l2.445-3.03c.495-.6.81-1.35.81-2.19 0-1.92-1.62-3.435-3.54-3.435s-3.525 1.515-3.525 3.435c0 1.56 1.035 2.85 2.46 3.3Zm1.065-1.965c-.765 0-1.245-.615-1.245-1.335s.48-1.32 1.245-1.32c.765 0 1.26.6 1.26 1.32 0 .72-.495 1.335-1.26 1.335ZM310.696 599.447h2.718v-9h-6.804l-.09 1.926c-.162 3.312-.144 4.752-1.926 4.752v2.574c3.348.108 3.906-2.106 4.14-5.04l.144-1.836h1.818v6.624ZM318.354 590.447h-2.718v9h4.194c2.43 0 3.312-1.998 3.312-3.312 0-1.314-.882-3.33-3.312-3.33h-1.476v-2.358Zm0 6.66v-1.962h1.134c.576.036.918.396.918.99 0 .612-.378.972-1.026.972h-1.026ZM334.544 601.571v-4.5h-1.296v-6.624h-6.804l-.036 1.908c-.036 2.232-.324 3.6-.936 4.716h-.972v4.5h2.394v-2.124h5.256v2.124h2.394Zm-5.832-8.748h1.818v4.248h-2.646c.378-.864.612-1.962.702-2.916l.126-1.332ZM339.053 594.767v-4.32h-2.718v9l5.994-4.284v4.284h2.718v-9l-5.994 4.32ZM349.627 590.447h-2.718v9h2.718v-3.312h3.276v3.312h2.718v-9h-2.718v3.312h-3.276v-3.312ZM362.001 590.303c-2.592 0-4.68 2.088-4.68 4.644s2.088 4.644 4.68 4.644c2.592 0 4.68-2.088 4.68-4.644s-2.088-4.644-4.68-4.644Zm0 6.75c-1.116 0-1.944-.864-1.944-2.106s.828-2.106 1.944-2.106 1.944.864 1.944 2.106-.828 2.106-1.944 2.106ZM368.381 590.447v9h2.718v-4.482l3.33 4.482h3.204l-3.51-4.734 3.042-4.266h-3.132l-2.934 4.104v-4.104h-2.718ZM382.555 596.315h-3.132v3.132h1.206l-.792 2.772h1.566l1.152-2.772v-3.132ZM388.188 590.447v2.376h2.34v6.624h2.718v-6.624h2.52v-2.376h-7.578ZM410.678 601.571v-4.5h-1.296v-6.624h-2.718v6.624h-2.016v-6.624h-2.718v6.624h-2.016v-6.624h-2.718v9h11.088v2.124h2.394ZM420.514 599.447v-9h-2.718v.54c-.522-.432-1.242-.684-1.98-.684-2.664 0-4.356 2.178-4.356 4.644s1.692 4.644 4.356 4.644c.738 0 1.458-.252 1.98-.684v.54h2.718Zm-2.718-5.904v2.808c-.36.486-.864.756-1.53.756-1.296 0-2.07-.972-2.07-2.16 0-1.188.774-2.16 2.07-2.16.666 0 1.17.27 1.53.756ZM421.944 590.447v2.376h2.34v6.624h2.718v-6.624h2.52v-2.376h-7.578ZM433.04 595.433h6.318c.036-.27.054-.54.054-.792 0-2.844-2.052-4.338-4.338-4.338-2.772 0-4.644 1.998-4.644 4.644 0 2.772 2.214 4.644 4.59 4.644 1.782 0 3.24-.864 4.068-2.16l-2.16-1.458c-.36.666-.972 1.134-1.926 1.134-.81 0-1.836-.468-1.962-1.674Zm3.69-1.584h-3.654c.252-1.08 1.188-1.368 1.836-1.368.882 0 1.674.414 1.818 1.368ZM446.729 599.447h2.718v-9h-6.804l-.09 1.926c-.162 3.312-.144 4.752-1.926 4.752v2.574c3.348.108 3.906-2.106 4.14-5.04l.144-1.836h1.818v6.624ZM454.387 590.447h-2.718v9h4.194c2.43 0 3.312-1.998 3.312-3.312 0-1.314-.882-3.33-3.312-3.33h-1.476v-2.358Zm0 6.66v-1.962h1.134c.576.036.918.396.918.99 0 .612-.378.972-1.026.972h-1.026ZM463.593 590.447h-2.718v9h2.718v-3.312h3.276v3.312h2.718v-9h-2.718v3.312h-3.276v-3.312ZM475.967 590.303c-2.592 0-4.68 2.088-4.68 4.644s2.088 4.644 4.68 4.644c2.592 0 4.68-2.088 4.68-4.644s-2.088-4.644-4.68-4.644Zm0 6.75c-1.116 0-1.944-.864-1.944-2.106s.828-2.106 1.944-2.106 1.944.864 1.944 2.106-.828 2.106-1.944 2.106ZM493.972 592.427a4.686 4.686 0 0 0-3.942-2.124c-2.592 0-4.68 2.088-4.68 4.644s2.088 4.644 4.68 4.644a4.686 4.686 0 0 0 3.942-2.124l-2.16-1.53c-.36.666-.99 1.116-1.782 1.116-1.116 0-1.944-.864-1.944-2.106s.828-2.106 1.944-2.106c.792 0 1.422.45 1.782 1.116l2.16-1.53ZM505.104 601.571v-4.5h-1.296v-6.624h-2.718v6.624h-3.006v-6.624h-2.718v9h7.344v2.124h2.394ZM508.622 595.433h6.318c.036-.27.054-.54.054-.792 0-2.844-2.052-4.338-4.338-4.338-2.772 0-4.644 1.998-4.644 4.644 0 2.772 2.214 4.644 4.59 4.644 1.782 0 3.24-.864 4.068-2.16l-2.16-1.458c-.36.666-.972 1.134-1.926 1.134-.81 0-1.836-.468-1.962-1.674Zm3.69-1.584h-3.654c.252-1.08 1.188-1.368 1.836-1.368.882 0 1.674.414 1.818 1.368ZM524.291 594.965l3.33 4.482h3.204l-3.51-4.734 3.042-4.266h-3.132l-2.934 4.104v-4.104h-2.718v4.104l-2.934-4.104h-3.132l3.042 4.266-3.51 4.734h3.204l3.33-4.482v4.482h2.718v-4.482ZM534.703 594.767v-4.32h-2.718v9l5.994-4.284v4.284h2.718v-9l-5.994 4.32ZM542.271 593.075h5.112v2.592h-5.112zM309.436 612.047h-4.374v9h4.95c2.43 0 3.312-1.458 3.312-2.772 0-.666-.342-1.458-1.08-2.016.342-.45.504-.972.504-1.44 0-1.314-.882-2.772-3.312-2.772Zm-.018 3.636h-1.638v-1.422h1.566c.288 0 .666.18.666.702 0 .504-.306.684-.594.72Zm.576 3.006h-2.214v-1.422h2.142c.288 0 .666.18.666.72 0 .486-.306.666-.594.702ZM323.595 621.047v-9h-2.718v.54c-.522-.432-1.242-.684-1.98-.684-2.664 0-4.356 2.178-4.356 4.644s1.692 4.644 4.356 4.644c.738 0 1.458-.252 1.98-.684v.54h2.718Zm-2.718-5.904v2.808c-.36.486-.864.756-1.53.756-1.296 0-2.07-.972-2.07-2.16 0-1.188.774-2.16 2.07-2.16.666 0 1.17.27 1.53.756ZM329.961 615.089h-1.494v-3.042h-2.718v9h2.718v-3.258h1.422a4.687 4.687 0 0 0 4.518 3.402c2.592 0 4.68-2.088 4.68-4.644s-2.088-4.644-4.68-4.644a4.673 4.673 0 0 0-4.446 3.186Zm4.446 3.564c-1.116 0-1.944-.864-1.944-2.106s.828-2.106 1.944-2.106 1.944.864 1.944 2.106-.828 2.106-1.944 2.106ZM339.926 612.047v2.376h2.34v6.624h2.718v-6.624h2.52v-2.376h-7.578ZM350.774 617.303c-1.08 0-1.944.864-1.944 1.944s.864 1.944 1.944 1.944 1.944-.864 1.944-1.944-.864-1.944-1.944-1.944ZM361.849 614.945v-6.678h-2.88v12.924l8.064-6.822v6.678h2.88v-12.924l-8.064 6.822ZM374.928 612.047h-2.718v9h2.718v-3.312h3.276v3.312h2.718v-9h-2.718v3.312h-3.276v-3.312ZM389.142 614.423v-2.376h-6.066v9h2.718v-6.624h3.348ZM393.437 612.587v-.54h-2.718v12.312h2.718v-3.852c.522.432 1.242.684 1.98.684 1.26 0 2.286-.486 3.042-1.26a4.689 4.689 0 0 0 3.168 1.26c1.782 0 3.24-.864 4.068-2.16l-2.16-1.458c-.36.666-.972 1.134-1.926 1.134-.81 0-1.836-.468-1.962-1.674h6.318c.036-.27.054-.54.054-.792 0-2.844-2.052-4.338-4.338-4.338-1.332 0-2.448.45-3.258 1.224-.738-.756-1.764-1.224-3.006-1.224-.738 0-1.458.252-1.98.684Zm9.9 2.862h-3.654c.252-1.08 1.188-1.368 1.836-1.368.882 0 1.674.414 1.818 1.368Zm-9.9 2.502v-2.808c.36-.486.864-.756 1.53-.756 1.296 0 2.07.972 2.07 2.16 0 1.188-.774 2.16-2.07 2.16-.666 0-1.17-.27-1.53-.756ZM417.335 623.171v-4.5h-1.296v-6.624h-6.804l-.036 1.908c-.036 2.232-.324 3.6-.936 4.716h-.972v4.5h2.394v-2.124h5.256v2.124h2.394Zm-5.832-8.748h1.818v4.248h-2.646c.378-.864.612-1.962.702-2.916l.126-1.332ZM421.774 616.367v-4.32h-2.718v9l5.994-4.284v4.284h2.718v-9l-5.994 4.32ZM431.649 617.033h6.318c.036-.27.054-.54.054-.792 0-2.844-2.052-4.338-4.338-4.338-2.772 0-4.644 1.998-4.644 4.644 0 2.772 2.214 4.644 4.59 4.644 1.782 0 3.24-.864 4.068-2.16l-2.16-1.458c-.36.666-.972 1.134-1.926 1.134-.81 0-1.836-.468-1.962-1.674Zm3.69-1.584h-3.654c.252-1.08 1.188-1.368 1.836-1.368.882 0 1.674.414 1.818 1.368ZM442.353 612.047h-2.718v9h2.718v-3.312h3.276v3.312h2.718v-9h-2.718v3.312h-3.276v-3.312ZM449.708 612.047v2.376h2.34v6.624h2.718v-6.624h2.52v-2.376h-7.578ZM461.366 614.405v-2.358h-2.718v9h4.194c2.43 0 3.312-1.998 3.312-3.312 0-1.314-.882-3.33-3.312-3.33h-1.476Zm8.694-2.358h-2.736v9h2.736v-9Zm-7.668 6.66h-1.026v-1.962h1.134c.576.036.918.396.918.99 0 .612-.378.972-1.026.972ZM478.921 612.047h-2.718v9h2.718v-3.312h3.276v3.312h2.718v-9h-2.718v3.312h-3.276v-3.312ZM495.636 621.047v-9h-2.718v.54c-.522-.432-1.242-.684-1.98-.684-2.664 0-4.356 2.178-4.356 4.644s1.692 4.644 4.356 4.644c.738 0 1.458-.252 1.98-.684v.54h2.718Zm-2.718-5.904v2.808c-.36.486-.864.756-1.53.756-1.296 0-2.07-.972-2.07-2.16 0-1.188.774-2.16 2.07-2.16.666 0 1.17.27 1.53.756ZM503.424 621.047h2.718v-9h-6.804l-.09 1.926c-.162 3.312-.144 4.752-1.926 4.752v2.574c3.348.108 3.906-2.106 4.14-5.04l.144-1.836h1.818v6.624ZM511.013 616.367v-4.32h-2.718v9l5.994-4.284v4.284h2.718v-9l-5.994 4.32ZM523.175 612.047h-4.374v9h4.95c2.43 0 3.312-1.458 3.312-2.772 0-.666-.342-1.458-1.08-2.016.342-.45.504-.972.504-1.44 0-1.314-.882-2.772-3.312-2.772Zm-.018 3.636h-1.638v-1.422h1.566c.288 0 .666.18.666.702 0 .504-.306.684-.594.72Zm.576 3.006h-2.214v-1.422h2.142c.288 0 .666.18.666.72 0 .486-.306.666-.594.702ZM537.334 621.047v-9h-2.718v.54c-.522-.432-1.242-.684-1.98-.684-2.664 0-4.356 2.178-4.356 4.644s1.692 4.644 4.356 4.644c.738 0 1.458-.252 1.98-.684v.54h2.718Zm-2.718-5.904v2.808c-.36.486-.864.756-1.53.756-1.296 0-2.07-.972-2.07-2.16 0-1.188.774-2.16 2.07-2.16.666 0 1.17.27 1.53.756ZM539.199 614.675h5.112v2.592h-5.112zM309.274 636.689h-1.494v-3.042h-2.718v9h2.718v-3.258h1.422a4.687 4.687 0 0 0 4.518 3.402c2.592 0 4.68-2.088 4.68-4.644s-2.088-4.644-4.68-4.644a4.673 4.673 0 0 0-4.446 3.186Zm4.446 3.564c-1.116 0-1.944-.864-1.944-2.106s.828-2.106 1.944-2.106 1.944.864 1.944 2.106-.828 2.106-1.944 2.106ZM319.266 633.647v2.376h2.34v6.624h2.718v-6.624h2.52v-2.376h-7.578ZM336.621 633.647h-4.374v9h4.95c2.43 0 3.312-1.458 3.312-2.772 0-.666-.342-1.458-1.08-2.016.342-.45.504-.972.504-1.44 0-1.314-.882-2.772-3.312-2.772Zm-.018 3.636h-1.638v-1.422h1.566c.288 0 .666.18.666.702 0 .504-.306.684-.594.72Zm.576 3.006h-2.214v-1.422h2.142c.288 0 .666.18.666.72 0 .486-.306.666-.594.702ZM346.255 642.647h12.186v-9h-2.718v6.624h-2.016v-6.624h-2.718v6.624h-2.016v-6.624h-2.718v9ZM362.708 638.633h6.318c.036-.27.054-.54.054-.792 0-2.844-2.052-4.338-4.338-4.338-2.772 0-4.644 1.998-4.644 4.644 0 2.772 2.214 4.644 4.59 4.644 1.782 0 3.24-.864 4.068-2.16l-2.16-1.458c-.36.666-.972 1.134-1.926 1.134-.81 0-1.836-.468-1.962-1.674Zm3.69-1.584h-3.654c.252-1.08 1.188-1.368 1.836-1.368.882 0 1.674.414 1.818 1.368ZM378.856 629.867h-2.034c-.018 1.008-.504 1.53-1.26 1.53s-1.242-.522-1.26-1.53h-2.034c.072 2.16 1.44 3.168 3.294 3.168s3.222-1.008 3.294-3.168Zm.576 3.78-5.994 4.32v-4.32h-2.718v9l5.994-4.284v4.284h2.718v-9ZM381.576 633.647v9h2.718v-4.482l3.33 4.482h3.204l-3.51-4.734 3.042-4.266h-3.132l-2.934 4.104v-4.104h-2.718ZM394.519 638.633h6.318c.036-.27.054-.54.054-.792 0-2.844-2.052-4.338-4.338-4.338-2.772 0-4.644 1.998-4.644 4.644 0 2.772 2.214 4.644 4.59 4.644 1.782 0 3.24-.864 4.068-2.16l-2.16-1.458c-.36.666-.972 1.134-1.926 1.134-.81 0-1.836-.468-1.962-1.674Zm3.69-1.584h-3.654c.252-1.08 1.188-1.368 1.836-1.368.882 0 1.674.414 1.818 1.368ZM405.249 634.187v-.54h-2.718v12.312h2.718v-3.852c.522.432 1.242.684 1.98.684 2.664 0 4.356-2.178 4.356-4.644s-1.692-4.644-4.356-4.644c-.738 0-1.458.252-1.98.684Zm0 5.364v-2.808c.36-.486.864-.756 1.53-.756 1.296 0 2.07.972 2.07 2.16 0 1.188-.774 2.16-2.07 2.16-.666 0-1.17-.27-1.53-.756ZM416.555 639.515h-3.132v3.132h1.206l-.792 2.772h1.566l1.152-2.772v-3.132ZM430.522 633.647h-8.532v9h2.718v-6.624h3.096v6.624h2.718v-9ZM438.336 642.647h2.718v-9h-6.804l-.09 1.926c-.162 3.312-.144 4.752-1.926 4.752v2.574c3.348.108 3.906-2.106 4.14-5.04l.144-1.836h1.818v6.624ZM447.391 633.503c-2.592 0-4.68 2.088-4.68 4.644s2.088 4.644 4.68 4.644c2.592 0 4.68-2.088 4.68-4.644s-2.088-4.644-4.68-4.644Zm0 6.75c-1.116 0-1.944-.864-1.944-2.106s.828-2.106 1.944-2.106 1.944.864 1.944 2.106-.828 2.106-1.944 2.106ZM452.937 633.647v2.376h2.34v6.624h2.718v-6.624h2.52v-2.376h-7.578ZM464.621 633.647h-2.718v9h2.718v-3.312h3.276v3.312h2.718v-9h-2.718v3.312h-3.276v-3.312ZM476.953 633.503c-2.592 0-4.68 2.088-4.68 4.644s2.088 4.644 4.68 4.644c2.592 0 4.68-2.088 4.68-4.644s-2.088-4.644-4.68-4.644Zm0 6.75c-1.116 0-1.944-.864-1.944-2.106s.828-2.106 1.944-2.106 1.944.864 1.944 2.106-.828 2.106-1.944 2.106ZM489.394 638.633h6.318c.036-.27.054-.54.054-.792 0-2.844-2.052-4.338-4.338-4.338-2.772 0-4.644 1.998-4.644 4.644 0 2.772 2.214 4.644 4.59 4.644 1.782 0 3.24-.864 4.068-2.16l-2.16-1.458c-.36.666-.972 1.134-1.926 1.134-.81 0-1.836-.468-1.962-1.674Zm3.69-1.584h-3.654c.252-1.08 1.188-1.368 1.836-1.368.882 0 1.674.414 1.818 1.368ZM503.472 636.023v-2.376h-6.066v9h2.718v-6.624h3.348ZM508.873 633.503c-2.592 0-4.68 2.088-4.68 4.644s2.088 4.644 4.68 4.644c2.592 0 4.68-2.088 4.68-4.644s-2.088-4.644-4.68-4.644Zm0 6.75c-1.116 0-1.944-.864-1.944-2.106s.828-2.106 1.944-2.106 1.944.864 1.944 2.106-.828 2.106-1.944 2.106ZM518.507 635.267l1.8 1.404c.468-.522.936-.756 1.764-.756.954 0 1.332.27 1.332.81 0 .432-.252.63-.882.63h-1.746v1.584h1.98c.702 0 .99.144.99.594 0 .612-.54.864-1.548.864-.9 0-1.476-.216-2.142-.9l-1.62 1.746c1.26 1.242 2.322 1.548 3.762 1.548 2.952 0 4.122-1.278 4.122-2.862 0-1.044-.486-1.62-1.26-2.07.684-.45.918-.972.918-1.584 0-1.386-1.224-2.772-3.69-2.772-1.548 0-2.808.54-3.78 1.764ZM536.509 642.647v-9h-2.718v.54c-.522-.432-1.242-.684-1.98-.684-2.664 0-4.356 2.178-4.356 4.644s1.692 4.644 4.356 4.644c.738 0 1.458-.252 1.98-.684v.54h2.718Zm-2.718-5.904v2.808c-.36.486-.864.756-1.53.756-1.296 0-2.07-.972-2.07-2.16 0-1.188.774-2.16 2.07-2.16.666 0 1.17.27 1.53.756ZM538.4 636.275h5.112v2.592H538.4zM305.062 655.247v9h2.718v-4.482l3.33 4.482h3.204l-3.51-4.734 3.042-4.266h-3.132l-2.934 4.104v-4.104h-2.718ZM318.56 655.787v-.54h-2.718v12.312h2.718v-3.852c.522.432 1.242.684 1.98.684 2.664 0 4.356-2.178 4.356-4.644s-1.692-4.644-4.356-4.644c-.738 0-1.458.252-1.98.684Zm0 5.364v-2.808c.36-.486.864-.756 1.53-.756 1.296 0 2.07.972 2.07 2.16 0 1.188-.774 2.16-2.07 2.16-.666 0-1.17-.27-1.53-.756ZM329.232 657.605v-2.358h-2.718v9h4.194c2.43 0 3.312-1.998 3.312-3.312 0-1.314-.882-3.33-3.312-3.33h-1.476Zm8.694-2.358h-2.736v9h2.736v-9Zm-7.668 6.66h-1.026v-1.962h1.134c.576.036.918.396.918.99 0 .612-.378.972-1.026.972ZM344.405 655.247h-4.374v9h4.95c2.43 0 3.312-1.458 3.312-2.772 0-.666-.342-1.458-1.08-2.016.342-.45.504-.972.504-1.44 0-1.314-.882-2.772-3.312-2.772Zm-.018 3.636h-1.638v-1.422h1.566c.288 0 .666.18.666.702 0 .504-.306.684-.594.72Zm.576 3.006h-2.214v-1.422h2.142c.288 0 .666.18.666.72 0 .486-.306.666-.594.702ZM358.515 664.247v-9h-2.718v.54c-.522-.432-1.242-.684-1.98-.684-2.664 0-4.356 2.178-4.356 4.644s1.692 4.644 4.356 4.644c.738 0 1.458-.252 1.98-.684v.54h2.718Zm-2.718-5.904v2.808c-.36.486-.864.756-1.53.756-1.296 0-2.07-.972-2.07-2.16 0-1.188.774-2.16 2.07-2.16.666 0 1.17.27 1.53.756ZM364.831 658.289h-1.494v-3.042h-2.718v9h2.718v-3.258h1.422a4.687 4.687 0 0 0 4.518 3.402c2.592 0 4.68-2.088 4.68-4.644s-2.088-4.644-4.68-4.644a4.673 4.673 0 0 0-4.446 3.186Zm4.446 3.564c-1.116 0-1.944-.864-1.944-2.106s.828-2.106 1.944-2.106 1.944.864 1.944 2.106-.828 2.106-1.944 2.106ZM374.747 655.247v2.376h2.34v6.624h2.718v-6.624h2.52v-2.376h-7.578ZM390.315 659.567v-4.32h-2.718v9l5.994-4.284v4.284h2.718v-9l-5.994 4.32ZM406.387 655.247h-4.374v9h4.95c2.43 0 3.312-1.458 3.312-2.772 0-.666-.342-1.458-1.08-2.016.342-.45.504-.972.504-1.44 0-1.314-.882-2.772-3.312-2.772Zm-.018 3.636h-1.638v-1.422h1.566c.288 0 .666.18.666.702 0 .504-.306.684-.594.72Zm.576 3.006h-2.214v-1.422h2.142c.288 0 .666.18.666.72 0 .486-.306.666-.594.702ZM420.029 657.227a4.686 4.686 0 0 0-3.942-2.124c-2.592 0-4.68 2.088-4.68 4.644s2.088 4.644 4.68 4.644a4.686 4.686 0 0 0 3.942-2.124l-2.16-1.53c-.36.666-.99 1.116-1.782 1.116-1.116 0-1.944-.864-1.944-2.106s.828-2.106 1.944-2.106c.792 0 1.422.45 1.782 1.116l2.16-1.53ZM420.514 655.247v2.376h2.34v6.624h2.718v-6.624h2.52v-2.376h-7.578ZM432.122 655.787v-.54h-2.718v12.312h2.718v-3.852c.522.432 1.242.684 1.98.684 2.664 0 4.356-2.178 4.356-4.644s-1.692-4.644-4.356-4.644c-.738 0-1.458.252-1.98.684Zm0 5.364v-2.808c.36-.486.864-.756 1.53-.756 1.296 0 2.07.972 2.07 2.16 0 1.188-.774 2.16-2.07 2.16-.666 0-1.17-.27-1.53-.756ZM447.24 655.247h-4.194c-2.43 0-3.312 1.818-3.312 3.312 0 .972.414 2.124 1.458 2.772l-1.818 2.916h2.934l1.44-2.448h.774v2.448h2.718v-9Zm-2.718 2.34v1.872h-1.134c-.576-.036-.918-.396-.918-.9 0-.612.378-.972 1.026-.972h1.026ZM458.056 655.247h-3.15l-1.692 2.574-1.692-2.574h-3.15l3.078 4.464-3.24 4.536h3.15l1.854-2.7 1.854 2.7h3.15l-3.24-4.536 3.078-4.464ZM461.924 659.567v-4.32h-2.718v9l5.994-4.284v4.284h2.718v-9l-5.994 4.32ZM474.037 655.247h-4.374v9h4.95c2.43 0 3.312-1.458 3.312-2.772 0-.666-.342-1.458-1.08-2.016.342-.45.504-.972.504-1.44 0-1.314-.882-2.772-3.312-2.772Zm-.018 3.636h-1.638v-1.422h1.566c.288 0 .666.18.666.702 0 .504-.306.684-.594.72Zm.576 3.006h-2.214v-1.422h2.142c.288 0 .666.18.666.72 0 .486-.306.666-.594.702ZM488.147 664.247v-9h-2.718v.54c-.522-.432-1.242-.684-1.98-.684-2.664 0-4.356 2.178-4.356 4.644s1.692 4.644 4.356 4.644c.738 0 1.458-.252 1.98-.684v.54h2.718Zm-2.718-5.904v2.808c-.36.486-.864.756-1.53.756-1.296 0-2.07-.972-2.07-2.16 0-1.188.774-2.16 2.07-2.16.666 0 1.17.27 1.53.756ZM494.463 658.289h-1.494v-3.042h-2.718v9h2.718v-3.258h1.422a4.687 4.687 0 0 0 4.518 3.402c2.592 0 4.68-2.088 4.68-4.644s-2.088-4.644-4.68-4.644a4.673 4.673 0 0 0-4.446 3.186Zm4.446 3.564c-1.116 0-1.944-.864-1.944-2.106s.828-2.106 1.944-2.106 1.944.864 1.944 2.106-.828 2.106-1.944 2.106ZM504.379 655.247v2.376h2.34v6.624h2.718v-6.624h2.52v-2.376h-7.578ZM519.947 655.247h-2.718v9h2.718v-3.312h3.276v3.312h2.718v-9h-2.718v3.312h-3.276v-3.312ZM530.133 660.233h6.318c.036-.27.054-.54.054-.792 0-2.844-2.052-4.338-4.338-4.338-2.772 0-4.644 1.998-4.644 4.644 0 2.772 2.214 4.644 4.59 4.644 1.782 0 3.24-.864 4.068-2.16l-2.16-1.458c-.36.666-.972 1.134-1.926 1.134-.81 0-1.836-.468-1.962-1.674Zm3.69-1.584h-3.654c.252-1.08 1.188-1.368 1.836-1.368.882 0 1.674.414 1.818 1.368ZM313.648 685.847h2.682l-1.602-9h-2.07l-2.52 5.868-2.52-5.868h-2.07l-1.602 9h2.628l.702-4.176 1.98 4.176h1.764l1.98-4.158.648 4.158ZM319.628 681.833h6.318c.036-.27.054-.54.054-.792 0-2.844-2.052-4.338-4.338-4.338-2.772 0-4.644 1.998-4.644 4.644 0 2.772 2.214 4.644 4.59 4.644 1.782 0 3.24-.864 4.068-2.16l-2.16-1.458c-.36.666-.972 1.134-1.926 1.134-.81 0-1.836-.468-1.962-1.674Zm3.69-1.584h-3.654c.252-1.08 1.188-1.368 1.836-1.368.882 0 1.674.414 1.818 1.368ZM330.253 676.847h-2.718v9h2.718v-3.312h3.276v3.312h2.718v-9h-2.718v3.312h-3.276v-3.312ZM340.409 681.833h6.318c.036-.27.054-.54.054-.792 0-2.844-2.052-4.338-4.338-4.338-2.772 0-4.644 1.998-4.644 4.644 0 2.772 2.214 4.644 4.59 4.644 1.782 0 3.24-.864 4.068-2.16l-2.16-1.458c-.36.666-.972 1.134-1.926 1.134-.81 0-1.836-.468-1.962-1.674Zm3.69-1.584h-3.654c.252-1.08 1.188-1.368 1.836-1.368.882 0 1.674.414 1.818 1.368ZM350.403 681.833h6.318c.036-.27.054-.54.054-.792 0-2.844-2.052-4.338-4.338-4.338-2.772 0-4.644 1.998-4.644 4.644 0 2.772 2.214 4.644 4.59 4.644 1.782 0 3.24-.864 4.068-2.16l-2.16-1.458c-.36.666-.972 1.134-1.926 1.134-.81 0-1.836-.468-1.962-1.674Zm3.69-1.584h-3.654c.252-1.08 1.188-1.368 1.836-1.368.882 0 1.674.414 1.818 1.368ZM364.822 672.923l-2.736 2.736v10.188h2.736v-12.924ZM373.448 672.923c-3.6 0-6.588 2.934-6.588 6.534 0 3.6 2.988 6.534 6.588 6.534s6.588-2.934 6.588-6.534c0-3.6-2.988-6.534-6.588-6.534Zm0 10.53c-2.25 0-3.852-1.782-3.852-3.996s1.602-3.996 3.852-3.996 3.852 1.782 3.852 3.996-1.602 3.996-3.852 3.996ZM393.809 678.827a4.686 4.686 0 0 0-3.942-2.124c-2.592 0-4.68 2.088-4.68 4.644s2.088 4.644 4.68 4.644a4.686 4.686 0 0 0 3.942-2.124l-2.16-1.53c-.36.666-.99 1.116-1.782 1.116-1.116 0-1.944-.864-1.944-2.106s.828-2.106 1.944-2.106c.792 0 1.422.45 1.782 1.116l2.16-1.53ZM397.144 681.833h6.318c.036-.27.054-.54.054-.792 0-2.844-2.052-4.338-4.338-4.338-2.772 0-4.644 1.998-4.644 4.644 0 2.772 2.214 4.644 4.59 4.644 1.782 0 3.24-.864 4.068-2.16l-2.16-1.458c-.36.666-.972 1.134-1.926 1.134-.81 0-1.836-.468-1.962-1.674Zm3.69-1.584h-3.654c.252-1.08 1.188-1.368 1.836-1.368.882 0 1.674.414 1.818 1.368ZM405.05 676.847v9h2.718v-4.482l3.33 4.482h3.204l-3.51-4.734 3.042-4.266h-3.132l-2.934 4.104v-4.104h-2.718ZM416.736 689.159h2.88l4.536-12.312h-2.88l-1.872 5.688-1.872-5.688h-2.88l3.312 9-1.224 3.312ZM427.792 676.847h-2.718v9h2.718v-3.312h3.276v3.312h2.718v-9h-2.718v3.312h-3.276v-3.312ZM445.563 687.971v-4.5h-1.296v-6.624h-6.804l-.036 1.908c-.036 2.232-.324 3.6-.936 4.716h-.972v4.5h2.394v-2.124h5.256v2.124h2.394Zm-5.832-8.748h1.818v4.248h-2.646c.378-.864.612-1.962.702-2.916l.126-1.332ZM449.113 682.103c-1.08 0-1.944.864-1.944 1.944s.864 1.944 1.944 1.944 1.944-.864 1.944-1.944-.864-1.944-1.944-1.944ZM457.324 674.795l1.728 1.764c.828-.774 1.44-.882 2.106-.882 1.08 0 1.584.288 1.584 1.17 0 1.008-.63 1.386-1.944 1.386h-.846v2.412h1.206c1.296 0 1.908.396 1.908 1.35 0 .864-.522 1.296-1.764 1.296-.972 0-1.584-.27-2.394-1.278l-2.052 1.782c1.17 1.548 2.61 2.196 4.374 2.196 2.88 0 4.626-1.746 4.626-3.798 0-1.584-.756-2.538-1.998-3.024 1.008-.504 1.638-1.476 1.638-2.934 0-1.656-1.278-3.312-3.978-3.312-1.728 0-3.096.684-4.194 1.872ZM475.904 685.847v-9h-2.718v.54c-.522-.432-1.242-.684-1.98-.684-2.664 0-4.356 2.178-4.356 4.644s1.692 4.644 4.356 4.644c.738 0 1.458-.252 1.98-.684v.54h2.718Zm-2.718-5.904v2.808c-.36.486-.864.756-1.53.756-1.296 0-2.07-.972-2.07-2.16 0-1.188.774-2.16 2.07-2.16.666 0 1.17.27 1.53.756ZM477.187 676.847v2.376h2.34v6.624h2.718v-6.624h2.52v-2.376h-7.578ZM488.135 681.833h6.318c.036-.27.054-.54.054-.792 0-2.844-2.052-4.338-4.338-4.338-2.772 0-4.644 1.998-4.644 4.644 0 2.772 2.214 4.644 4.59 4.644 1.782 0 3.24-.864 4.068-2.16l-2.16-1.458c-.36.666-.972 1.134-1.926 1.134-.81 0-1.836-.468-1.962-1.674Zm3.69-1.584h-3.654c.252-1.08 1.188-1.368 1.836-1.368.882 0 1.674.414 1.818 1.368ZM504.627 685.847h2.682l-1.602-9h-2.07l-2.52 5.868-2.52-5.868h-2.07l-1.602 9h2.628l.702-4.176 1.98 4.176h1.764l1.98-4.158.648 4.158ZM520.578 678.827a4.686 4.686 0 0 0-3.942-2.124c-2.592 0-4.68 2.088-4.68 4.644s2.088 4.644 4.68 4.644a4.686 4.686 0 0 0 3.942-2.124l-2.16-1.53c-.36.666-.99 1.116-1.782 1.116-1.116 0-1.944-.864-1.944-2.106s.828-2.106 1.944-2.106c.792 0 1.422.45 1.782 1.116l2.16-1.53ZM525.982 676.703c-2.592 0-4.68 2.088-4.68 4.644s2.088 4.644 4.68 4.644c2.592 0 4.68-2.088 4.68-4.644s-2.088-4.644-4.68-4.644Zm0 6.75c-1.116 0-1.944-.864-1.944-2.106s.828-2.106 1.944-2.106 1.944.864 1.944 2.106-.828 2.106-1.944 2.106ZM531.927 679.475h5.112v2.592h-5.112zM314.764 709.571v-4.5h-1.296v-6.624h-6.804l-.036 1.908c-.036 2.232-.324 3.6-.936 4.716h-.972v4.5h2.394v-2.124h5.256v2.124h2.394Zm-5.832-8.748h1.818v4.248h-2.646c.378-.864.612-1.962.702-2.916l.126-1.332ZM318.187 703.433h6.318c.036-.27.054-.54.054-.792 0-2.844-2.052-4.338-4.338-4.338-2.772 0-4.644 1.998-4.644 4.644 0 2.772 2.214 4.644 4.59 4.644 1.782 0 3.24-.864 4.068-2.16l-2.16-1.458c-.36.666-.972 1.134-1.926 1.134-.81 0-1.836-.468-1.962-1.674Zm3.69-1.584h-3.654c.252-1.08 1.188-1.368 1.836-1.368.882 0 1.674.414 1.818 1.368ZM328.865 698.987v-.54h-2.718v12.312h2.718v-3.852c.522.432 1.242.684 1.98.684 2.664 0 4.356-2.178 4.356-4.644s-1.692-4.644-4.356-4.644c-.738 0-1.458.252-1.98.684Zm0 5.364v-2.808c.36-.486.864-.756 1.53-.756 1.296 0 2.07.972 2.07 2.16 0 1.188-.774 2.16-2.07 2.16-.666 0-1.17-.27-1.53-.756ZM344.816 702.965l3.33 4.482h3.204l-3.51-4.734 3.042-4.266h-3.132l-2.934 4.104v-4.104h-2.718v4.104l-2.934-4.104h-3.132l3.042 4.266-3.51 4.734h3.204l3.33-4.482v4.482h2.718v-4.482ZM355.134 702.767v-4.32h-2.718v9l5.994-4.284v4.284h2.718v-9l-5.994 4.32ZM371.481 707.447h2.682l-1.602-9h-2.07l-2.52 5.868-2.52-5.868h-2.07l-1.602 9h2.628l.702-4.176 1.98 4.176h1.764l1.98-4.158.648 4.158ZM379.585 698.303c-2.592 0-4.68 2.088-4.68 4.644s2.088 4.644 4.68 4.644c2.592 0 4.68-2.088 4.68-4.644s-2.088-4.644-4.68-4.644Zm0 6.75c-1.116 0-1.944-.864-1.944-2.106s.828-2.106 1.944-2.106 1.944.864 1.944 2.106-.828 2.106-1.944 2.106ZM387.958 703.433h6.318c.036-.27.054-.54.054-.792 0-2.844-2.052-4.338-4.338-4.338-2.772 0-4.644 1.998-4.644 4.644 0 2.772 2.214 4.644 4.59 4.644 1.782 0 3.24-.864 4.068-2.16l-2.16-1.458c-.36.666-.972 1.134-1.926 1.134-.81 0-1.836-.468-1.962-1.674Zm3.69-1.584h-3.654c.252-1.08 1.188-1.368 1.836-1.368.882 0 1.674.414 1.818 1.368ZM399.881 707.447h12.186v-9h-2.718v6.624h-2.016v-6.624h-2.718v6.624h-2.016v-6.624h-2.718v9ZM416.282 703.433h6.318c.036-.27.054-.54.054-.792 0-2.844-2.052-4.338-4.338-4.338-2.772 0-4.644 1.998-4.644 4.644 0 2.772 2.214 4.644 4.59 4.644 1.782 0 3.24-.864 4.068-2.16l-2.16-1.458c-.36.666-.972 1.134-1.926 1.134-.81 0-1.836-.468-1.962-1.674Zm3.69-1.584h-3.654c.252-1.08 1.188-1.368 1.836-1.368.882 0 1.674.414 1.818 1.368ZM432.378 694.667h-2.034c-.018 1.008-.504 1.53-1.26 1.53s-1.242-.522-1.26-1.53h-2.034c.072 2.16 1.44 3.168 3.294 3.168s3.222-1.008 3.294-3.168Zm.576 3.78-5.994 4.32v-4.32h-2.718v9l5.994-4.284v4.284h2.718v-9ZM435.045 698.447v9h2.718v-4.482l3.33 4.482h3.204l-3.51-4.734 3.042-4.266h-3.132l-2.934 4.104v-4.104h-2.718ZM447.937 703.433h6.318c.036-.27.054-.54.054-.792 0-2.844-2.052-4.338-4.338-4.338-2.772 0-4.644 1.998-4.644 4.644 0 2.772 2.214 4.644 4.59 4.644 1.782 0 3.24-.864 4.068-2.16l-2.16-1.458c-.36.666-.972 1.134-1.926 1.134-.81 0-1.836-.468-1.962-1.674Zm3.69-1.584h-3.654c.252-1.08 1.188-1.368 1.836-1.368.882 0 1.674.414 1.818 1.368ZM468.55 706.925v.522h2.718v-9h-2.718v.54c-.522-.432-1.242-.684-1.98-.684-1.224 0-2.25.468-2.988 1.206a4.183 4.183 0 0 0-2.988-1.206c-.738 0-1.458.252-1.98.684v-.54h-2.718v12.312h2.718v-3.834c.522.432 1.242.666 1.98.666 1.224 0 2.232-.45 2.988-1.188.738.738 1.764 1.188 2.988 1.188.738 0 1.458-.234 1.98-.666Zm-9.936-2.556v-2.826c.378-.486.864-.756 1.53-.756 1.296 0 2.07.972 2.07 2.16 0 1.188-.774 2.16-2.07 2.16-.666 0-1.152-.252-1.53-.738Zm9.936-2.826v2.826c-.378.486-.864.738-1.53.738-1.296 0-2.07-.972-2.07-2.16 0-1.188.774-2.16 2.07-2.16.666 0 1.152.27 1.53.756ZM481.517 698.303c-2.592 0-4.68 2.088-4.68 4.644s2.088 4.644 4.68 4.644c2.592 0 4.68-2.088 4.68-4.644s-2.088-4.644-4.68-4.644Zm0 6.75c-1.116 0-1.944-.864-1.944-2.106s.828-2.106 1.944-2.106 1.944.864 1.944 2.106-.828 2.106-1.944 2.106ZM487.01 698.447v2.376h2.34v6.624h2.718v-6.624h2.52v-2.376h-7.578ZM503.016 698.375v-3.708h-2.736v3.708a4.566 4.566 0 0 0-4.878 4.572c0 2.628 2.178 4.68 4.878 4.554v3.258h2.736v-3.258c2.7.126 4.878-1.926 4.878-4.554a4.566 4.566 0 0 0-4.878-4.572Zm-2.736 2.484v4.176c-1.224 0-2.142-.774-2.142-2.088s.918-2.088 2.142-2.088Zm2.736 4.176v-4.176c1.224 0 2.142.774 2.142 2.088s-.918 2.088-2.142 2.088ZM512.217 702.767v-4.32h-2.718v9l5.994-4.284v4.284h2.718v-9l-5.994 4.32ZM525.613 707.447h2.718v-9h-6.804l-.09 1.926c-.162 3.312-.144 4.752-1.926 4.752v2.574c3.348.108 3.906-2.106 4.14-5.04l.144-1.836h1.818v6.624ZM533.176 698.447h-2.718v9h4.194c2.43 0 3.312-1.998 3.312-3.312 0-1.314-.882-3.33-3.312-3.33h-1.476v-2.358Zm0 6.66v-1.962h1.134c.576.036.918.396.918.99 0 .612-.378.972-1.026.972h-1.026ZM539.281 701.075h5.112v2.592h-5.112zM304.27 720.047v2.376h2.34v6.624h2.718v-6.624h2.52v-2.376h-7.578ZM315.93 720.587v-.54h-2.718v12.312h2.718v-3.852c.522.432 1.242.684 1.98.684 2.664 0 4.356-2.178 4.356-4.644s-1.692-4.644-4.356-4.644c-.738 0-1.458.252-1.98.684Zm0 5.364v-2.808c.36-.486.864-.756 1.53-.756 1.296 0 2.07.972 2.07 2.16 0 1.188-.774 2.16-2.07 2.16-.666 0-1.17-.27-1.53-.756ZM328.095 719.903c-2.592 0-4.68 2.088-4.68 4.644s2.088 4.644 4.68 4.644c2.592 0 4.68-2.088 4.68-4.644s-2.088-4.644-4.68-4.644Zm0 6.75c-1.116 0-1.944-.864-1.944-2.106s.828-2.106 1.944-2.106 1.944.864 1.944 2.106-.828 2.106-1.944 2.106ZM338.783 720.047h-4.374v9h4.95c2.43 0 3.312-1.458 3.312-2.772 0-.666-.342-1.458-1.08-2.016.342-.45.504-.972.504-1.44 0-1.314-.882-2.772-3.312-2.772Zm-.018 3.636h-1.638v-1.422h1.566c.288 0 .666.18.666.702 0 .504-.306.684-.594.72Zm.576 3.006h-2.214v-1.422h2.142c.288 0 .666.18.666.72 0 .486-.306.666-.594.702ZM347.096 722.405v-2.358h-2.718v9h4.194c2.43 0 3.312-1.998 3.312-3.312 0-1.314-.882-3.33-3.312-3.33h-1.476Zm8.694-2.358h-2.736v9h2.736v-9Zm-7.668 6.66h-1.026v-1.962h1.134c.576.036.918.396.918.99 0 .612-.378.972-1.026.972ZM362.32 720.047h-4.374v9h4.95c2.43 0 3.312-1.458 3.312-2.772 0-.666-.342-1.458-1.08-2.016.342-.45.504-.972.504-1.44 0-1.314-.882-2.772-3.312-2.772Zm-.018 3.636h-1.638v-1.422h1.566c.288 0 .666.18.666.702 0 .504-.306.684-.594.72Zm.576 3.006h-2.214v-1.422h2.142c.288 0 .666.18.666.72 0 .486-.306.666-.594.702ZM376.482 729.047v-9h-2.718v.54c-.522-.432-1.242-.684-1.98-.684-2.664 0-4.356 2.178-4.356 4.644s1.692 4.644 4.356 4.644c.738 0 1.458-.252 1.98-.684v.54h2.718Zm-2.718-5.904v2.808c-.36.486-.864.756-1.53.756-1.296 0-2.07-.972-2.07-2.16 0-1.188.774-2.16 2.07-2.16.666 0 1.17.27 1.53.756ZM382.851 723.089h-1.494v-3.042h-2.718v9h2.718v-3.258h1.422a4.687 4.687 0 0 0 4.518 3.402c2.592 0 4.68-2.088 4.68-4.644s-2.088-4.644-4.68-4.644a4.673 4.673 0 0 0-4.446 3.186Zm4.446 3.564c-1.116 0-1.944-.864-1.944-2.106s.828-2.106 1.944-2.106 1.944.864 1.944 2.106-.828 2.106-1.944 2.106ZM392.819 720.047v2.376h2.34v6.624h2.718v-6.624h2.52v-2.376h-7.578ZM409.228 719.903c-2.592 0-4.68 2.088-4.68 4.644s2.088 4.644 4.68 4.644c2.592 0 4.68-2.088 4.68-4.644s-2.088-4.644-4.68-4.644Zm0 6.75c-1.116 0-1.944-.864-1.944-2.106s.828-2.106 1.944-2.106 1.944.864 1.944 2.106-.828 2.106-1.944 2.106ZM414.75 720.047v2.376h2.34v6.624h2.718v-6.624h2.52v-2.376h-7.578ZM433.319 729.047h2.718v-9h-6.804l-.09 1.926c-.162 3.312-.144 4.752-1.926 4.752v2.574c3.348.108 3.906-2.106 4.14-5.04l.144-1.836h1.818v6.624ZM440.912 720.047h-2.718v9h4.194c2.43 0 3.312-1.998 3.312-3.312 0-1.314-.882-3.33-3.312-3.33h-1.476v-2.358Zm0 6.66v-1.962h1.134c.576.036.918.396.918.99 0 .612-.378.972-1.026.972h-1.026ZM457.036 731.171v-4.5h-1.296v-6.624h-6.804l-.036 1.908c-.036 2.232-.324 3.6-.936 4.716h-.972v4.5h2.394v-2.124h5.256v2.124h2.394Zm-5.832-8.748h1.818v4.248h-2.646c.378-.864.612-1.962.702-2.916l.126-1.332ZM466.788 729.047v-9h-2.718v.54c-.522-.432-1.242-.684-1.98-.684-2.664 0-4.356 2.178-4.356 4.644s1.692 4.644 4.356 4.644c.738 0 1.458-.252 1.98-.684v.54h2.718Zm-2.718-5.904v2.808c-.36.486-.864.756-1.53.756-1.296 0-2.07-.972-2.07-2.16 0-1.188.774-2.16 2.07-2.16.666 0 1.17.27 1.53.756ZM476.404 724.367v-4.32h-2.718v9l5.994-4.284v4.284h2.718v-9l-5.994 4.32ZM496.719 720.047h-8.532v9h2.718v-6.624h3.096v6.624h2.718v-9ZM500.963 725.033h6.318c.036-.27.054-.54.054-.792 0-2.844-2.052-4.338-4.338-4.338-2.772 0-4.644 1.998-4.644 4.644 0 2.772 2.214 4.644 4.59 4.644 1.782 0 3.24-.864 4.068-2.16l-2.16-1.458c-.36.666-.972 1.134-1.926 1.134-.81 0-1.836-.468-1.962-1.674Zm3.69-1.584h-3.654c.252-1.08 1.188-1.368 1.836-1.368.882 0 1.674.414 1.818 1.368ZM511.67 720.587v-.54h-2.718v12.312h2.718v-3.852c.522.432 1.242.684 1.98.684 1.26 0 2.286-.486 3.042-1.26a4.689 4.689 0 0 0 3.168 1.26c1.782 0 3.24-.864 4.068-2.16l-2.16-1.458c-.36.666-.972 1.134-1.926 1.134-.81 0-1.836-.468-1.962-1.674h6.318c.036-.27.054-.54.054-.792 0-2.844-2.052-4.338-4.338-4.338-1.332 0-2.448.45-3.258 1.224-.738-.756-1.764-1.224-3.006-1.224-.738 0-1.458.252-1.98.684Zm9.9 2.862h-3.654c.252-1.08 1.188-1.368 1.836-1.368.882 0 1.674.414 1.818 1.368Zm-9.9 2.502v-2.808c.36-.486.864-.756 1.53-.756 1.296 0 2.07.972 2.07 2.16 0 1.188-.774 2.16-2.07 2.16-.666 0-1.17-.27-1.53-.756ZM525.58 722.675h5.112v2.592h-5.112zM310.696 750.647h2.718v-9h-6.804l-.09 1.926c-.162 3.312-.144 4.752-1.926 4.752v2.574c3.348.108 3.906-2.106 4.14-5.04l.144-1.836h1.818v6.624ZM318.362 745.967v-4.32h-2.717v9l5.993-4.284v4.284h2.719v-9l-5.995 4.32ZM330.601 741.647h-4.374v9h4.95c2.43 0 3.312-1.458 3.312-2.772 0-.666-.342-1.458-1.08-2.016.342-.45.504-.972.504-1.44 0-1.314-.882-2.772-3.312-2.772Zm-.018 3.636h-1.638v-1.422h1.566c.288 0 .666.18.666.702 0 .504-.306.684-.594.72Zm.576 3.006h-2.214v-1.422h2.142c.288 0 .666.18.666.72 0 .486-.306.666-.594.702ZM344.837 750.647v-9h-2.718v.54c-.522-.432-1.241-.684-1.979-.684-2.665 0-4.356 2.178-4.356 4.644s1.691 4.644 4.356 4.644c.738 0 1.457-.252 1.979-.684v.54h2.718Zm-2.718-5.904v2.808c-.359.486-.863.756-1.529.756-1.296 0-2.07-.972-2.07-2.16 0-1.188.774-2.16 2.07-2.16.666 0 1.17.27 1.529.756ZM351.28 744.689h-1.494v-3.042h-2.718v9h2.718v-3.258h1.422a4.687 4.687 0 0 0 4.518 3.402c2.592 0 4.68-2.088 4.68-4.644s-2.088-4.644-4.68-4.644a4.673 4.673 0 0 0-4.446 3.186Zm4.446 3.564c-1.116 0-1.944-.864-1.944-2.106s.828-2.106 1.944-2.106 1.944.864 1.944 2.106-.828 2.106-1.944 2.106ZM361.323 741.647v2.376h2.34v6.624h2.718v-6.624h2.52v-2.376h-7.578ZM378.178 741.647h-4.374v9h4.95c2.43 0 3.312-1.458 3.312-2.772 0-.666-.342-1.458-1.08-2.016.342-.45.504-.972.504-1.44 0-1.314-.882-2.772-3.312-2.772Zm-.018 3.636h-1.638v-1.422h1.566c.288 0 .666.18.666.702 0 .504-.306.684-.594.72Zm.576 3.006h-2.214v-1.422h2.142c.288 0 .666.18.666.72 0 .486-.306.666-.594.702ZM395.275 740.477l.9-.072-.198-2.7-.882.072c-4.554.288-7.614 2.088-7.614 7.182 0 3.762 1.674 5.832 4.644 5.832 2.682 0 4.77-1.692 4.77-4.644 0-2.502-1.494-4.32-4.032-4.32-1.008 0-2.16.288-2.952 1.152.846-1.764 1.764-2.214 5.364-2.502Zm-3.024 7.776c-1.116 0-1.944-.846-1.944-2.124 0-1.26.828-2.088 1.944-2.088s1.944.828 1.944 2.088c0 1.278-.828 2.124-1.944 2.124ZM402.672 741.503c-2.592 0-4.68 2.088-4.68 4.644s2.088 4.644 4.68 4.644c2.592 0 4.68-2.088 4.68-4.644s-2.088-4.644-4.68-4.644Zm0 6.75c-1.116 0-1.944-.864-1.944-2.106s.828-2.106 1.944-2.106 1.944.864 1.944 2.106-.828 2.106-1.944 2.106ZM409.06 741.647v9h2.718v-4.482l3.33 4.482h3.204l-3.51-4.734 3.042-4.266h-3.132l-2.934 4.104v-4.104h-2.718ZM427.635 750.647v-9h-2.718v.54c-.522-.432-1.242-.684-1.98-.684-2.665 0-4.356 2.178-4.356 4.644s1.691 4.644 4.356 4.644c.738 0 1.458-.252 1.98-.684v.54h2.718Zm-2.718-5.904v2.808c-.36.486-.864.756-1.53.756-1.296 0-2.07-.972-2.07-2.16 0-1.188.774-2.16 2.07-2.16.666 0 1.17.27 1.53.756ZM435.499 750.647h2.718v-9h-6.804l-.09 1.926c-.162 3.312-.144 4.752-1.926 4.752v2.574c3.348.108 3.906-2.106 4.14-5.04l.144-1.836h1.818v6.624ZM442.356 746.903a1.935 1.935 0 0 0-1.944 1.944c0 1.08.863 1.944 1.944 1.944 1.08 0 1.943-.864 1.943-1.944s-.863-1.944-1.943-1.944ZM311.605 566.5h-6.6v10.65h6.6v-2.37h-4.2v-1.8h3.3v-2.31h-3.3v-1.8h4.2v-2.37ZM319.44 572.86c0 1.29-.795 2.1-1.965 2.1s-1.965-.81-1.965-2.1v-6.36h-2.4v6.33c0 2.67 1.815 4.44 4.365 4.44 2.55 0 4.365-1.77 4.365-4.44v-6.33h-2.4v6.36ZM331.34 573.475c-.54.87-1.5 1.485-2.64 1.485-1.725 0-3.03-1.425-3.03-3.135 0-1.71 1.305-3.135 3.03-3.135 1.14 0 2.1.615 2.64 1.485l1.815-1.485a5.47 5.47 0 0 0-4.455-2.31c-3 0-5.445 2.445-5.445 5.445 0 3 2.445 5.445 5.445 5.445a5.47 5.47 0 0 0 4.455-2.31l-1.815-1.485ZM340.931 574.765h-4.125V566.5h-2.415v10.65h6.54v-2.385ZM342.166 566.5h2.415v10.65h-2.415zM350.331 577.15c3 0 5.415-2.385 5.415-5.325 0-2.94-2.415-5.325-5.415-5.325h-3.735v10.65h3.735Zm0-8.46c1.785 0 3 1.425 3 3.135 0 1.71-1.215 3.135-3 3.135h-1.335v-6.27h1.335ZM359.852 566.5v2.37h2.535v8.28h2.445v-8.28h2.535v-2.37h-7.515ZM374.962 566.5h-6.3v10.65h2.4v-4.17h3v-2.31h-3v-1.8h3.9v-2.37ZM387.317 573.475c-.54.87-1.5 1.485-2.64 1.485-1.725 0-3.03-1.425-3.03-3.135 0-1.71 1.305-3.135 3.03-3.135 1.14 0 2.1.615 2.64 1.485l1.815-1.485a5.47 5.47 0 0 0-4.455-2.31c-3 0-5.445 2.445-5.445 5.445 0 3 2.445 5.445 5.445 5.445a5.47 5.47 0 0 0 4.455-2.31l-1.815-1.485ZM395.482 572.68l3.945-6.18h-2.835l-2.325 3.735-2.325-3.735h-2.805l3.945 6.18v4.47h2.4v-4.47ZM405.943 577.15h2.865l-3.45-4.53a3.15 3.15 0 0 0 2.04-2.955 3.175 3.175 0 0 0-3.165-3.165h-4.02v10.65h2.385v-4.32h.045l3.3 4.32Zm-3.345-6.345v-2.115h1.365c.645 0 1.11.48 1.11 1.065s-.465 1.05-1.11 1.05h-1.365ZM416.903 566.5h-4.005v10.65h4.695c1.8 0 3.225-1.41 3.225-3.165 0-1.14-.6-2.01-1.5-2.49a2.52 2.52 0 0 0 .75-1.83 3.175 3.175 0 0 0-3.165-3.165Zm-1.635 4.305v-2.115h1.365c.645 0 1.11.48 1.11 1.065s-.465 1.05-1.11 1.05h-1.365Zm2.1 4.14h-2.1v-2.115h2.1c.645 0 1.11.48 1.11 1.065s-.465 1.05-1.11 1.05ZM427.168 577.27c3 0 5.445-2.445 5.445-5.445 0-3-2.445-5.445-5.445-5.445-3 0-5.445 2.445-5.445 5.445 0 3 2.445 5.445 5.445 5.445Zm0-8.58c1.725 0 3.03 1.425 3.03 3.135 0 1.71-1.305 3.135-3.03 3.135-1.725 0-3.03-1.425-3.03-3.135 0-1.71 1.305-3.135 3.03-3.135ZM440.673 574.765h-4.125V566.5h-2.415v10.65h6.54v-2.385ZM445.644 577.15c3 0 5.415-2.385 5.415-5.325 0-2.94-2.415-5.325-5.415-5.325h-3.735v10.65h3.735Zm0-8.46c1.785 0 3 1.425 3 3.135 0 1.71-1.215 3.135-3 3.135h-1.335v-6.27h1.335ZM458.314 566.38l-2.28 2.28v8.49h2.28v-10.77ZM466.074 571.015c.375-.435.6-1.005.6-1.68a2.938 2.938 0 0 0-2.94-2.955 2.938 2.938 0 0 0-2.94 2.955c0 .675.225 1.245.6 1.68a3.224 3.224 0 0 0-1.395 2.7c0 2.01 1.605 3.555 3.735 3.555s3.735-1.545 3.735-3.555c0-1.155-.54-2.1-1.395-2.7Zm-2.34-2.52c.51 0 .81.39.81.84 0 .45-.3.84-.81.84s-.81-.39-.81-.84c0-.45.3-.84.81-.84Zm0 6.66c-.915 0-1.455-.675-1.455-1.44 0-.765.54-1.44 1.455-1.44s1.455.675 1.455 1.44c0 .765-.54 1.44-1.455 1.44ZM472.965 566.5 468 577.15h2.04l4.965-10.65h-2.04ZM478.28 573.115l-3.27 4.035h7.86v-2.115h-3.24l2.445-3.03c.495-.6.81-1.35.81-2.19 0-1.92-1.62-3.435-3.54-3.435s-3.525 1.515-3.525 3.435c0 1.56 1.035 2.85 2.46 3.3Zm1.065-1.965c-.765 0-1.245-.615-1.245-1.335s.48-1.32 1.245-1.32c.765 0 1.26.6 1.26 1.32 0 .72-.495 1.335-1.26 1.335ZM487.15 566.38l-2.28 2.28v8.49h2.28v-10.77ZM490.785 574.03c-.9 0-1.62.72-1.62 1.62 0 .9.72 1.62 1.62 1.62.9 0 1.62-.72 1.62-1.62 0-.9-.72-1.62-1.62-1.62ZM497.735 570.175l2.01-3.675h-2.535l-2.805 5.145c-.345.63-.675 1.29-.675 2.07 0 2.01 1.605 3.555 3.735 3.555s3.735-1.545 3.735-3.555c0-1.92-1.47-3.42-3.465-3.54Zm-1.725 3.54c0-.765.54-1.44 1.455-1.44s1.455.675 1.455 1.44c0 .765-.54 1.44-1.455 1.44s-1.455-.675-1.455-1.44ZM509.326 573.73c2.085 0 3.645-1.62 3.645-3.615s-1.56-3.615-3.645-3.615h-3.51v10.65h2.4v-3.42h1.11Zm-.03-4.98c.78 0 1.35.645 1.35 1.365s-.57 1.38-1.35 1.38h-1.08v-2.745h1.08ZM513.456 566.5v2.37h2.535v8.28h2.445v-8.28h2.535v-2.37h-7.515Z" style="fill:#231f20;fill-rule:nonzero" transform="translate(-28.76 -54.57) scale(4.16667)"/><path d="M0 0h520.887H0Z" style="fill:#fff;fill-rule:nonzero" transform="translate(107.935 2245.432) scale(4.16667)"/><path d="M0 0h520.887" style="fill:none;fill-rule:nonzero;stroke:#231f20;stroke-width:3px" transform="translate(107.934 2245.432) scale(4.16667)"/><path d="M0 0h520.887H0Z" style="fill:#fff;fill-rule:nonzero" transform="translate(107.935 107.93) scale(4.16667)"/><path d="M0 0h520.887" style="fill:none;fill-rule:nonzero;stroke:#231f20;stroke-width:5.16px" transform="translate(107.934 107.932) scale(4.16667)"/><path d="M0 0h520.887H0Z" style="fill:#fff;fill-rule:nonzero" transform="translate(107.935 363.488) scale(4.16667)"/><path d="M0 0h520.887" style="fill:none;fill-rule:nonzero;stroke:#231f20;stroke-width:5.16px" transform="translate(107.934 363.488) scale(4.16667)"/><path d="M0 0h520.887H0Z" style="fill:#fff;fill-rule:nonzero" transform="translate(107.935 3197.516) scale(4.16667)"/><path d="M0 0h520.887" style="fill:none;fill-rule:nonzero;stroke:#231f20;stroke-width:3px" transform="translate(107.934 3197.516) scale(4.16667)"/><path d="M0 0h520.887H0Z" style="fill:#fff;fill-rule:nonzero" transform="translate(107.935 3316.266) scale(4.16667)"/><path d="M0 0h520.887" style="fill:none;fill-rule:nonzero;stroke:#231f20;stroke-width:3px" transform="translate(107.934 3316.266) scale(4.16667)"/></svg>