<svg viewBox="0 0 2455 2981" xmlns="http://www.w3.org/2000/svg" xml:space="preserve" style="fill-rule:evenodd;clip-rule:evenodd;stroke-miterlimit:10"><path d="M.34-.718-.01 0h.168l.051-.11h.262L.522 0H.69L.34-.718Zm.067.478H.273L.34-.388l.067.148Z" style="fill:#231f20;fill-rule:nonzero" transform="matrix(233.33319 0 0 233.33319 224.62 696.373)"/><path d="M.225-.423v-.141h.299V-.71H.065V0H.38a.211.211 0 0 0 .215-.223c0-.11-.062-.2-.218-.2H.225Zm.14.276h-.14v-.141h.14c.043 0 .074.022.074.071 0 .049-.031.07-.074.07Z" style="fill:#231f20;fill-rule:nonzero" transform="matrix(233.33319 0 0 233.33319 411.707 696.373)"/><path d="M.334-.71H.067V0H.38C.5 0 .595-.094.595-.211a.183.183 0 0 0-.1-.166.168.168 0 0 0 .05-.122.212.212 0 0 0-.211-.211Zm-.018.287H.225v-.141h.091c.043 0 .074.032.074.071 0 .039-.031.07-.074.07Zm.049.276h-.14v-.141h.14c.043 0 .074.032.074.071 0 .039-.031.07-.074.07Z" style="fill:#231f20;fill-rule:nonzero" transform="matrix(233.33319 0 0 233.33319 585.027 696.373)"/><path d="M.467-.71h-.4V0h.16v-.552h.24V-.71Z" style="fill:#231f20;fill-rule:nonzero" transform="matrix(233.33319 0 0 233.33319 758.347 696.373)"/><path d="M.762.148v-.302H.665V-.71H.199v.136a.944.944 0 0 1-.078.42h-.09v.302h.154V0h.423v.148h.154ZM.505-.556v.402H.276a.744.744 0 0 0 .071-.322l.002-.08h.156Z" style="fill:#231f20;fill-rule:nonzero" transform="matrix(233.33319 0 0 233.33319 900.4 696.373)"/><path d="M.067-.71V0h.44v-.158h-.28v-.12h.22v-.154h-.22v-.12h.28V-.71h-.44Z" style="fill:#231f20;fill-rule:nonzero" transform="matrix(233.33319 0 0 233.33319 1115.958 696.373)"/><path d="M.103-.772h.14a.086.086 0 0 0 .02-.057.09.09 0 0 0-.09-.09.09.09 0 0 0-.09.09c0 .022.007.042.02.057Zm.239 0h.14a.086.086 0 0 0 .02-.057.09.09 0 0 0-.09-.09.09.09 0 0 0-.09.09c0 .022.007.042.02.057ZM.067-.71V0h.44v-.158h-.28v-.12h.22v-.154h-.22v-.12h.28V-.71h-.44Z" style="fill:#231f20;fill-rule:nonzero" transform="matrix(233.33319 0 0 233.33319 1272.008 696.373)"/><path d="M.604-.333.87 0h.198L.787-.352l.249-.358H.852l-.248.356V-.71h-.16v.356L.196-.71H.012l.249.358L-.02 0h.198l.266-.333V0h.16v-.333Z" style="fill:#231f20;fill-rule:nonzero" transform="matrix(233.33319 0 0 233.33319 1428.058 696.373)"/><path d="m.041-.614.096.098c.046-.043.08-.049.117-.049.06 0 .088.016.088.065 0 .056-.035.077-.108.077H.187v.134h.067c.072 0 .106.022.106.075 0 .048-.029.072-.098.072-.054 0-.088-.015-.133-.071l-.114.099a.286.286 0 0 0 .243.122c.16 0 .257-.097.257-.211 0-.088-.042-.141-.111-.168.056-.028.091-.082.091-.163 0-.092-.071-.184-.221-.184a.305.305 0 0 0-.233.104Z" style="fill:#231f20;fill-rule:nonzero" transform="matrix(233.33319 0 0 233.33319 1701.018 696.373)"/><path d="M.227-.339V-.71h-.16v.718l.448-.379V0h.16v-.718l-.448.379Z" style="fill:#231f20;fill-rule:nonzero" transform="matrix(233.33319 0 0 233.33319 1855.668 696.373)"/><path d="M.58-.914H.457c-.001.044-.018.072-.06.072-.042 0-.059-.028-.06-.072H.214c.004.12.08.176.183.176S.576-.794.58-.914Zm.095.196-.448.379V-.71h-.16v.718l.448-.379V0h.16v-.718Z" style="fill:#231f20;fill-rule:nonzero" transform="matrix(233.33319 0 0 233.33319 2057.218 696.373)"/><path d="M.227-.333.493 0h.198L.41-.352.659-.71H.475l-.248.356V-.71h-.16V0h.16v-.333Z" style="fill:#231f20;fill-rule:nonzero" transform="matrix(233.33319 0 0 233.33319 174.897 976.373)"/><path d="M.501 0h.16v-.71H.203l-.004.149C.191-.253.17-.134.044-.132l-.003.14c.158 0 .285-.039.3-.417l.006-.147h.154V0Z" style="fill:#231f20;fill-rule:nonzero" transform="matrix(233.33319 0 0 233.33319 358.344 976.373)"/><path d="M.34-.718-.01 0h.168L.34-.388.522 0H.69L.34-.718Z" style="fill:#231f20;fill-rule:nonzero" transform="matrix(233.33319 0 0 233.33319 555.09 976.373)"/><path d="M.227 0v-.348l.194.194.194-.194V0h.16v-.718l-.354.355-.354-.355V0h.16Z" style="fill:#231f20;fill-rule:nonzero" transform="matrix(233.33319 0 0 233.33319 740.637 976.373)"/><path d="M.067-.71V0h.16v-.278h.284V0h.16v-.71h-.16v.278H.227V-.71h-.16Z" style="fill:#231f20;fill-rule:nonzero" transform="matrix(233.33319 0 0 233.33319 963.984 976.373)"/><path d="M.397.008a.364.364 0 1 0-.001-.727.364.364 0 0 0 .001.727Zm0-.572c.115 0 .202.095.202.209a.204.204 0 0 1-.202.209.204.204 0 0 1-.202-.209c0-.114.087-.209.202-.209Z" style="fill:#231f20;fill-rule:nonzero" transform="matrix(233.33319 0 0 233.33319 1163.068 976.373)"/><path d="M.491 0h.16v-.71H.067V0h.16v-.556h.264V0Z" style="fill:#231f20;fill-rule:nonzero" transform="matrix(233.33319 0 0 233.33319 1375.208 976.373)"/><path d="M.301-.228a.24.24 0 0 0 .243-.241.24.24 0 0 0-.243-.241H.067V0h.16v-.228h.074ZM.299-.56a.09.09 0 0 1 .09.091.091.091 0 0 1-.09.092H.227V-.56h.072Z" style="fill:#231f20;fill-rule:nonzero" transform="matrix(233.33319 0 0 233.33319 1569.628 976.373)"/><path d="M.573-.245a.207.207 0 0 1-.176.099.204.204 0 0 1-.202-.209c0-.114.087-.209.202-.209.076 0 .14.041.176.099l.121-.099a.364.364 0 1 0 0 .418L.573-.245Z" style="fill:#231f20;fill-rule:nonzero" transform="matrix(233.33319 0 0 233.33319 1726.468 976.373)"/><path d="M.019-.552h.169V0h.163v-.552H.52V-.71H.019v.158Z" style="fill:#231f20;fill-rule:nonzero" transform="matrix(233.33319 0 0 233.33319 1918.788 976.373)"/><path d="M.749-.71H.03v.276h.16v-.118h.118V0h.163v-.552h.118v.118h.16V-.71Z" style="fill:#231f20;fill-rule:nonzero" transform="matrix(233.33319 0 0 233.33319 2071.428 976.373)"/><path d="M.643-.71H.467l-.143.328L.17-.71h-.18l.255.509L.158 0h.171l.314-.71Z" style="fill:#231f20;fill-rule:nonzero" transform="matrix(233.33319 0 0 233.33319 185.07 1256.373)"/><path d="M.558-.668V-.74H.397v.072c-.196 0-.353.109-.353.303s.157.303.353.303V0h.161v-.062c.196 0 .353-.109.353-.303S.754-.668.558-.668Zm-.161.144v.318C.286-.206.2-.252.2-.365s.086-.159.197-.159Zm.161.318v-.318c.111 0 .197.046.197.159s-.086.159-.197.159Z" style="fill:#231f20;fill-rule:nonzero" transform="matrix(233.33319 0 0 233.33319 355.093 1256.373)"/><path d="M.224-.356 0 0h.186l.151-.244L.488 0h.186L.45-.356.659-.71H.474l-.137.236L.2-.71H.015l.209.354Z" style="fill:#231f20;fill-rule:nonzero" transform="matrix(233.33319 0 0 233.33319 605.848 1256.373)"/><path d="M.728.148v-.302H.631V-.71h-.16v.556H.227V-.71h-.16V0h.507v.148h.154Z" style="fill:#231f20;fill-rule:nonzero" transform="matrix(233.33319 0 0 233.33319 793.37 1256.373)"/><path d="M.412 0h.16v-.71h-.16v.323a.18.18 0 0 1-.092.022C.242-.365.195-.4.195-.473V-.71h-.16v.269c0 .135.112.219.25.219.05 0 .091-.011.127-.027V0Z" style="fill:#231f20;fill-rule:nonzero" transform="matrix(233.33319 0 0 233.33319 1000.96 1256.373)"/><path d="M.068-.71V0h.774v-.71H.68v.556H.535V-.71H.374v.556H.228V-.71h-.16Z" style="fill:#231f20;fill-rule:nonzero" transform="matrix(233.33319 0 0 233.33319 1180.318 1256.373)"/><path d="M.934.148v-.302H.841V-.71H.68v.556H.535V-.71H.374v.556H.228V-.71H.067V0H.78v.148h.154Z" style="fill:#231f20;fill-rule:nonzero" transform="matrix(233.33319 0 0 233.33319 1422.668 1256.373)"/><path d="M.5-.433H.348V-.71H.019v.158h.169V0h.315c.113 0 .215-.086.215-.228 0-.11-.062-.205-.218-.205Zm-.012.286h-.14v-.151h.14c.043 0 .074.027.074.076s-.031.075-.074.075Z" style="fill:#231f20;fill-rule:nonzero" transform="matrix(233.33319 0 0 233.33319 1679.028 1256.373)"/><path d="M.377-.433H.225V-.71h-.16V0H.38c.113 0 .215-.086.215-.228 0-.11-.062-.205-.218-.205ZM.662-.71V0h.161v-.71H.662Zm-.297.563h-.14v-.151h.14c.043 0 .074.027.074.076s-.031.075-.074.075Z" style="fill:#231f20;fill-rule:nonzero" transform="matrix(233.33319 0 0 233.33319 1884.978 1256.373)"/><path d="M.377-.433H.225V-.71h-.16V0H.38c.113 0 .215-.086.215-.228 0-.11-.062-.205-.218-.205Zm-.012.286h-.14v-.151h.14c.043 0 .074.027.074.076s-.031.075-.074.075Z" style="fill:#231f20;fill-rule:nonzero" transform="matrix(233.33319 0 0 233.33319 2122.908 1256.373)"/><path d="m.015-.564.121.099a.207.207 0 0 1 .176-.099c.09 0 .162.058.19.137H.225v.144h.277a.201.201 0 0 1-.19.137.207.207 0 0 1-.176-.099l-.121.099a.364.364 0 1 0 0-.418Z" style="fill:#231f20;fill-rule:nonzero" transform="matrix(233.33319 0 0 233.33319 230.57 1536.37)"/><path d="M.36-.432H.227V-.71h-.16V0h.16v-.278H.36a.364.364 0 1 0 0-.154Zm.355.286a.204.204 0 0 1-.202-.209c0-.114.087-.209.202-.209.115 0 .202.095.202.209a.204.204 0 0 1-.202.209Z" style="fill:#231f20;fill-rule:nonzero" transform="matrix(233.33319 0 0 233.33319 426.231 1536.37)"/><path d="M.558-.71H.324c-.139 0-.243.098-.243.231 0 .087.045.16.115.199L.015 0h.181l.157-.248h.045V0h.16v-.71Zm-.16.15v.163H.326c-.052 0-.09-.034-.09-.082S.274-.56.326-.56h.072Z" style="fill:#231f20;fill-rule:nonzero" transform="matrix(233.33319 0 0 233.33319 708.925 1536.37)"/><path d="m.229-.718-.152.152V0h.152v-.718Z" style="fill:#231f20;fill-rule:nonzero" transform="matrix(233.33319 0 0 233.33319 886.386 1536.37)"/><path d="M.218-.269 0 0h.524v-.141H.308l.163-.202a.228.228 0 0 0 .054-.146.233.233 0 0 0-.236-.229.232.232 0 0 0-.235.229c0 .104.069.19.164.22ZM.289-.4C.238-.4.206-.441.206-.489c0-.048.032-.088.083-.088.051 0 .084.04.084.088C.373-.441.34-.4.289-.4Z" style="fill:#231f20;fill-rule:nonzero" transform="matrix(233.33319 0 0 233.33319 988.013 1536.37)"/><path d="m.359-.46.118-.25H.048v.141h.207L.15-.347h.072c.066 0 .108.041.108.107s-.042.107-.108.107c-.047 0-.078-.025-.1-.058l-.107.099c.048.062.127.1.217.1.15 0 .251-.098.251-.248a.236.236 0 0 0-.124-.22Z" style="fill:#231f20;fill-rule:nonzero" transform="matrix(233.33319 0 0 233.33319 1153.578 1536.37)"/><path d="M.559-.292H.493v-.426l-.508.558h.356V0h.152v-.16h.066v-.132ZM.341-.377v.085H.263l.078-.085Z" style="fill:#231f20;fill-rule:nonzero" transform="matrix(233.33319 0 0 233.33319 1304.898 1536.37)"/><path d="M.069-.71v.403l.098.041a.091.091 0 0 1 .09-.059c.061 0 .097.045.097.096a.093.093 0 0 1-.097.096C.209-.133.179-.165.16-.194l-.11.102c.046.063.126.1.217.1.144 0 .24-.093.24-.237S.411-.466.267-.466a.344.344 0 0 0-.046.003v-.106h.235V-.71H.069Z" style="fill:#231f20;fill-rule:nonzero" transform="matrix(233.33319 0 0 233.33319 1472.558 1536.37)"/><path d="M.284-.465.418-.71H.249l-.187.343a.286.286 0 0 0-.045.138c0 .134.107.237.249.237.142 0 .249-.103.249-.237a.237.237 0 0 0-.231-.236Zm-.115.236c0-.051.036-.096.097-.096.061 0 .097.045.097.096a.093.093 0 0 1-.097.096.093.093 0 0 1-.097-.096Z" style="fill:#231f20;fill-rule:nonzero" transform="matrix(233.33319 0 0 233.33319 1630.188 1536.37)"/><path d="m.205 0 .322-.71H.035v.141h.264L.041 0h.164Z" style="fill:#231f20;fill-rule:nonzero" transform="matrix(233.33319 0 0 233.33319 1785.248 1536.37)"/><path d="M.44-.409a.168.168 0 0 0 .04-.112.196.196 0 1 0-.392 0c0 .045.015.083.04.112a.215.215 0 0 0-.093.18c0 .134.107.237.249.237.142 0 .249-.103.249-.237a.215.215 0 0 0-.093-.18ZM.284-.577c.034 0 .054.026.054.056 0 .03-.02.056-.054.056S.23-.491.23-.521c0-.03.02-.056.054-.056Zm0 .444a.093.093 0 0 1-.097-.096c0-.051.036-.096.097-.096.061 0 .097.045.097.096a.093.093 0 0 1-.097.096Z" style="fill:#231f20;fill-rule:nonzero" transform="matrix(233.33319 0 0 233.33319 1936.808 1536.37)"/><path d="M.251-.245.117 0h.169l.187-.343a.286.286 0 0 0 .045-.138c0-.134-.107-.237-.249-.237-.142 0-.249.103-.249.237 0 .128.098.228.231.236Zm.115-.236a.093.093 0 0 1-.097.096.093.093 0 0 1-.097-.096c0-.051.036-.096.097-.096.061 0 .097.045.097.096Z" style="fill:#231f20;fill-rule:nonzero" transform="matrix(233.33319 0 0 233.33319 2099.568 1536.37)"/><path d="M.535 0v-.5H.384v.03a.175.175 0 0 0-.11-.038c-.148 0-.242.121-.242.258s.094.258.242.258a.175.175 0 0 0 .11-.038V0h.151ZM.384-.328v.156a.1.1 0 0 1-.085.042C.227-.13.184-.184.184-.25s.043-.12.115-.12a.1.1 0 0 1 .085.042Z" style="fill:#231f20;fill-rule:nonzero" transform="matrix(233.33319 0 0 233.33319 254.604 1816.37)"/><path d="m.468-.565.05-.004-.011-.15-.049.004c-.253.016-.423.116-.423.399 0 .209.093.324.258.324.149 0 .265-.094.265-.258 0-.139-.083-.24-.224-.24a.22.22 0 0 0-.164.064c.047-.098.098-.123.298-.139ZM.3-.133C.238-.133.192-.18.192-.251c0-.07.046-.116.108-.116s.108.046.108.116c0 .071-.046.118-.108.118Z" style="fill:#231f20;fill-rule:nonzero" transform="matrix(233.33319 0 0 233.33319 423.473 1816.37)"/><path d="M.23-.578h.247V-.71H.173c-.083 0-.151.046-.151.137 0 .063.04.114.103.123A.26.26 0 0 0 .29.008.26.26 0 0 0 .55-.25a.26.26 0 0 0-.354-.241.038.038 0 0 1-.031-.038c0-.038.03-.049.065-.049Zm.06.445C.228-.133.182-.181.182-.25S.228-.367.29-.367s.108.048.108.117-.046.117-.108.117Z" style="fill:#231f20;fill-rule:nonzero" transform="matrix(233.33319 0 0 233.33319 589.776 1816.37)"/><path d="M.302-.5H.059V0h.275c.135 0 .184-.081.184-.154a.145.145 0 0 0-.06-.112.134.134 0 0 0 .028-.08C.486-.419.437-.5.302-.5Zm-.001.202H.21v-.079h.087c.016 0 .037.01.037.039 0 .028-.017.038-.033.04Zm.032.167H.21V-.21h.119c.016 0 .037.01.037.04 0 .027-.017.037-.033.039Z" style="fill:#231f20;fill-rule:nonzero" transform="matrix(233.33319 0 0 233.33319 755.38 1816.37)"/><path d="M.302-.5H.059V0h.275c.135 0 .184-.081.184-.154a.145.145 0 0 0-.06-.112.134.134 0 0 0 .028-.08C.486-.419.437-.5.302-.5Zm-.001.202H.21v-.079h.087c.016 0 .037.01.037.039 0 .028-.017.038-.033.04Zm.032.167H.21V-.21h.119c.016 0 .037.01.037.04 0 .027-.017.037-.033.039Z" style="fill:#231f20;fill-rule:nonzero" transform="matrix(233.33319 0 0 233.33319 914.45 1816.37)"/><path d="M.396-.368V-.5H.059V0H.21v-.368h.186Z" style="fill:#231f20;fill-rule:nonzero" transform="matrix(233.33319 0 0 233.33319 1073.52 1816.37)"/><path d="M.598.118v-.25H.526V-.5H.148l-.002.106a.543.543 0 0 1-.052.262H.04v.25h.133V0h.292v.118h.133ZM.274-.368h.101v.236H.228a.556.556 0 0 0 .039-.162l.007-.074Z" style="fill:#231f20;fill-rule:nonzero" transform="matrix(233.33319 0 0 233.33319 1190.818 1816.37)"/><path d="M.057.138c.071.046.15.056.225.056.13 0 .262-.052.262-.193a.248.248 0 0 0-.021-.098V-.5H.372v.03a.175.175 0 0 0-.11-.038c-.151 0-.236.118-.236.24s.085.24.236.24a.177.177 0 0 0 .111-.038.072.072 0 0 1 .013.042c0 .06-.054.08-.114.08A.236.236 0 0 1 .125.005L.057.138Zm.315-.346a.112.112 0 0 1-.09.042.1.1 0 0 1-.104-.102.1.1 0 0 1 .104-.102c.037 0 .068.015.09.042v.12Z" style="fill:#231f20;fill-rule:nonzero" transform="matrix(233.33319 0 0 233.33319 1368.788 1816.37)"/><path d="M.175-.223h.351a.337.337 0 0 0 .003-.044c0-.158-.114-.241-.241-.241A.248.248 0 0 0 .03-.25c0 .154.123.258.255.258.099 0 .18-.048.226-.12l-.12-.081a.115.115 0 0 1-.107.063C.239-.13.182-.156.175-.223ZM.38-.311H.177c.014-.06.066-.076.102-.076.049 0 .093.023.101.076Z" style="fill:#231f20;fill-rule:nonzero" transform="matrix(233.33319 0 0 233.33319 1535.098 1816.37)"/><path d="M.16-.707a.08.08 0 0 0-.08.08c0 .044.036.08.08.08a.08.08 0 0 0 .08-.08.08.08 0 0 0-.08-.08Zm.238 0a.08.08 0 0 0-.08.08c0 .044.036.08.08.08a.08.08 0 0 0 .08-.08.08.08 0 0 0-.08-.08Zm-.223.484h.351a.337.337 0 0 0 .003-.044c0-.158-.114-.241-.241-.241A.248.248 0 0 0 .03-.25c0 .154.123.258.255.258.099 0 .18-.048.226-.12l-.12-.081a.115.115 0 0 1-.107.063C.239-.13.182-.156.175-.223ZM.38-.311H.177c.014-.06.066-.076.102-.076.049 0 .093.023.101.076Z" style="fill:#231f20;fill-rule:nonzero" transform="matrix(233.33319 0 0 233.33319 1695.568 1816.37)"/><path d="M.502-.249.687 0h.178L.67-.263.839-.5H.665l-.163.228V-.5H.351v.228L.188-.5H.014l.169.237L-.012 0h.178l.185-.249V0h.151v-.249Z" style="fill:#231f20;fill-rule:nonzero" transform="matrix(233.33319 0 0 233.33319 1856.038 1816.37)"/><path d="m.019-.41.1.078a.116.116 0 0 1 .098-.042c.053 0 .074.015.074.045 0 .024-.014.035-.049.035H.145v.088h.11c.039 0 .055.008.055.033 0 .034-.03.048-.086.048a.146.146 0 0 1-.119-.05l-.09.097c.07.069.129.086.209.086.164 0 .229-.071.229-.159 0-.058-.027-.09-.07-.115.038-.025.051-.054.051-.088 0-.077-.068-.154-.205-.154a.252.252 0 0 0-.21.098Z" style="fill:#231f20;fill-rule:nonzero" transform="matrix(233.33319 0 0 233.33319 2088.138 1816.37)"/><path d="M.21-.26V-.5H.059V0l.333-.238V0h.151v-.5L.21-.26Z" style="fill:#231f20;fill-rule:nonzero" transform="matrix(233.33319 0 0 233.33319 231.567 2096.37)"/><path d="M.538 0v-.5H.387v.319a.11.11 0 0 1-.094.051c-.06 0-.088-.05-.088-.118V-.5H.054v.279c0 .136.079.229.214.229a.183.183 0 0 0 .119-.045V0h.151Z" style="fill:#231f20;fill-rule:nonzero" transform="matrix(233.33319 0 0 233.33319 392.058 2096.37)"/><path d="M.511-.71H.398c-.001.056-.028.085-.07.085-.042 0-.069-.029-.07-.085H.145c.004.12.08.176.183.176S.507-.59.511-.71Zm.032.21L.21-.26V-.5H.059V0l.333-.238V0h.151v-.5Z" style="fill:#231f20;fill-rule:nonzero" transform="matrix(233.33319 0 0 233.33319 556.05 2096.37)"/><path d="M.059-.5V0H.21v-.249L.395 0h.178L.378-.263.547-.5H.373L.21-.272V-.5H.059Z" style="fill:#231f20;fill-rule:nonzero" transform="matrix(233.33319 0 0 233.33319 720.74 2096.37)"/><path d="M.372 0h.151v-.5H.145L.14-.393c-.009.184-.008.264-.107.264v.143c.186.006.217-.117.23-.28l.008-.102h.101V0Z" style="fill:#231f20;fill-rule:nonzero" transform="matrix(233.33319 0 0 233.33319 885.431 2096.37)"/><path d="M.276-.508-.015 0h.174l.117-.218L.393 0h.174L.276-.508Z" style="fill:#231f20;fill-rule:nonzero" transform="matrix(233.33319 0 0 233.33319 1045.923 2096.37)"/><path d="M.536 0h.149L.596-.5H.481l-.14.326L.201-.5H.086l-.089.5h.146l.039-.232.11.232H.39L.5-.231.536 0Z" style="fill:#231f20;fill-rule:nonzero" transform="matrix(233.33319 0 0 233.33319 1199.418 2096.37)"/><path d="M.444 0h.151v-.5H.483l-.156.228L.172-.5H.059V0H.21v-.22l.117.172.117-.172V0Z" style="fill:#231f20;fill-rule:nonzero" transform="matrix(233.33319 0 0 233.33319 1386.508 2096.37)"/><path d="M.21-.5H.059V0H.21v-.184h.182V0h.151v-.5H.392v.184H.21V-.5Z" style="fill:#231f20;fill-rule:nonzero" transform="matrix(233.33319 0 0 233.33319 1596.798 2096.37)"/><path d="M.29-.508a.26.26 0 0 0-.26.258.26.26 0 0 0 .26.258.26.26 0 0 0 .26-.258.26.26 0 0 0-.26-.258Zm0 .375C.228-.133.182-.181.182-.25S.228-.367.29-.367s.108.048.108.117-.046.117-.108.117Z" style="fill:#231f20;fill-rule:nonzero" transform="matrix(233.33319 0 0 233.33319 1761.958 2096.37)"/><path d="M.533-.5H.059V0H.21v-.368h.172V0h.151v-.5Z" style="fill:#231f20;fill-rule:nonzero" transform="matrix(233.33319 0 0 233.33319 1921.988 2096.37)"/><path d="M.21-.47V-.5H.059v.684H.21V-.03a.175.175 0 0 0 .11.038c.148 0 .242-.121.242-.258S.468-.508.32-.508a.175.175 0 0 0-.11.038Zm0 .298v-.156A.1.1 0 0 1 .295-.37c.072 0 .115.054.115.12s-.043.12-.115.12A.1.1 0 0 1 .21-.172Z" style="fill:#231f20;fill-rule:nonzero" transform="matrix(233.33319 0 0 233.33319 2084.808 2096.37)"/><path d="M.509-.39a.26.26 0 0 0-.479.14.26.26 0 0 0 .479.14l-.12-.085a.111.111 0 0 1-.099.062C.228-.133.182-.181.182-.25S.228-.367.29-.367c.044 0 .079.025.099.062l.12-.085Z" style="fill:#231f20;fill-rule:nonzero" transform="matrix(233.33319 0 0 233.33319 300.454 2376.37)"/><path d="M.015-.5v.132h.13V0h.151v-.368h.14V-.5H.015Z" style="fill:#231f20;fill-rule:nonzero" transform="matrix(233.33319 0 0 233.33319 445.027 2376.37)"/><path d="M.585-.368V0h.151v-.5H.059V0H.21v-.368h.112V0h.151v-.368h.112Z" style="fill:#231f20;fill-rule:nonzero" transform="matrix(233.33319 0 0 233.33319 573.034 2376.37)"/><path d="M.111.184h.16L.523-.5h-.16l-.104.316L.155-.5h-.16l.184.5-.068.184Z" style="fill:#231f20;fill-rule:nonzero" transform="matrix(233.33319 0 0 233.33319 781.307 2376.37)"/><path d="M.538-.049V-.5H.387v.283a.11.11 0 0 1-.094.051c-.06 0-.088-.04-.088-.118V-.5H.054v.243c0 .136.079.229.214.229a.183.183 0 0 0 .119-.045l.003.002.001.011c0 .09-.046.116-.114.116A.236.236 0 0 1 .13.005L.062.138a.387.387 0 0 0 .215.056c.14 0 .261-.082.261-.243Z" style="fill:#231f20;fill-rule:nonzero" transform="matrix(233.33319 0 0 233.33319 924.947 2376.37)"/><path d="M.453-.504V-.71H.301v.206a.254.254 0 1 0 0 .507v.181h.152V.003a.254.254 0 1 0 0-.507Zm-.152.138v.232C.233-.134.182-.177.182-.25c0-.073.051-.116.119-.116Zm.152.232v-.232c.068 0 .119.043.119.116 0 .073-.051.116-.119.116Z" style="fill:#231f20;fill-rule:nonzero" transform="matrix(233.33319 0 0 233.33319 1083.055 2376.37)"/><path d="M.544-.5H.369l-.094.143L.181-.5H.006l.171.248-.18.252h.175l.103-.15.103.15h.175l-.18-.252L.544-.5Z" style="fill:#231f20;fill-rule:nonzero" transform="matrix(233.33319 0 0 233.33319 1274.758 2376.37)"/><path d="M.6.118v-.25H.528V-.5H.377v.368H.21V-.5H.059V0h.408v.118H.6Z" style="fill:#231f20;fill-rule:nonzero" transform="matrix(233.33319 0 0 233.33319 1425.868 2376.37)"/><path d="M.176-.396V-.5H.025v.131c0 .135.065.229.206.229a.215.215 0 0 0 .115-.027V0h.151v-.5H.346v.19a.123.123 0 0 1-.09.032c-.066 0-.08-.051-.08-.118Z" style="fill:#231f20;fill-rule:nonzero" transform="matrix(233.33319 0 0 233.33319 1596.808 2376.37)"/><path d="M.059 0h.677v-.5H.585v.368H.473V-.5H.322v.368H.21V-.5H.059V0Z" style="fill:#231f20;fill-rule:nonzero" transform="matrix(233.33319 0 0 233.33319 1749.318 2376.37)"/><path d="M.808.118v-.25H.736V-.5H.585v.368H.473V-.5H.322v.368H.21V-.5H.059V0h.616v.118h.133Z" style="fill:#231f20;fill-rule:nonzero" transform="matrix(233.33319 0 0 233.33319 1957.588 2376.37)"/><path d="M.377-.369H.295V-.5h-.28v.132h.129V0h.233c.135 0 .184-.111.184-.184S.512-.369.377-.369ZM.352-.13H.295v-.109h.063c.032.002.051.022.051.055 0 .034-.021.054-.057.054Z" style="fill:#231f20;fill-rule:nonzero" transform="matrix(233.33319 0 0 233.33319 719.637 2656.371)"/><path d="M.21-.369V-.5H.059V0h.233c.135 0 .184-.111.184-.184S.427-.369.292-.369H.21ZM.693-.5H.541V0h.152v-.5Zm-.426.37H.21v-.109h.063c.032.002.051.022.051.055 0 .034-.021.054-.057.054Z" style="fill:#231f20;fill-rule:nonzero" transform="matrix(233.33319 0 0 233.33319 886.47 2656.371)"/><path d="M.21-.5H.059V0h.233c.135 0 .184-.111.184-.184S.427-.369.292-.369H.21V-.5Zm0 .37v-.109h.063c.032.002.051.022.051.055 0 .034-.021.054-.057.054H.21Z" style="fill:#231f20;fill-rule:nonzero" transform="matrix(233.33319 0 0 233.33319 1090.87 2656.371)"/><path d="m.017-.39.12.08a.13.13 0 0 1 .108-.067c.049 0 .086.027.104.066H.19v.11h.164a.113.113 0 0 1-.109.078.13.13 0 0 1-.108-.067l-.12.08a.277.277 0 0 0 .228.118.263.263 0 0 0 .264-.258.263.263 0 0 0-.264-.258.277.277 0 0 0-.228.118Z" style="fill:#231f20;fill-rule:nonzero" transform="matrix(233.33319 0 0 233.33319 1237.868 2656.371)"/><path d="M.293-.331H.21V-.5H.059V0H.21v-.181h.079A.26.26 0 0 0 .8-.25a.26.26 0 0 0-.26-.258.26.26 0 0 0-.247.177Zm.247.198C.478-.133.432-.181.432-.25S.478-.367.54-.367s.108.048.108.117-.046.117-.108.117Z" style="fill:#231f20;fill-rule:nonzero" transform="matrix(233.33319 0 0 233.33319 1392.568 2656.371)"/><path d="M.477-.5H.244C.109-.5.06-.399.06-.316a.18.18 0 0 0 .081.154L.04 0h.163l.08-.136h.043V0h.151v-.5Zm-.151.13v.104H.263C.231-.268.212-.288.212-.316c0-.034.021-.054.057-.054h.057Z" style="fill:#231f20;fill-rule:nonzero" transform="matrix(233.33319 0 0 233.33319 1610.508 2656.371)"/><path d="M.34-.718-.01 0h.168l.051-.11h.262L.522 0H.69L.34-.718Zm.067.478H.273L.34-.388l.067.148Z" style="fill:#231f20;fill-rule:nonzero" transform="matrix(233.33319 0 0 233.33319 205.137 317.973)"/><path d="M.501 0h.16v-.71H.203l-.004.149C.191-.253.17-.134.044-.132l-.003.14c.158 0 .285-.039.3-.417l.006-.147h.154V0Z" style="fill:#231f20;fill-rule:nonzero" transform="matrix(233.33319 0 0 233.33319 383.573 317.973)"/><path d="M.377-.433H.225V-.71h-.16V0H.38c.113 0 .215-.086.215-.228 0-.11-.062-.205-.218-.205Zm-.012.286h-.14v-.151h.14c.043 0 .074.027.074.076s-.031.075-.074.075Z" style="fill:#231f20;fill-rule:nonzero" transform="matrix(233.33319 0 0 233.33319 573.21 317.973)"/><path d="M.019-.552h.169V0h.163v-.552H.52V-.71H.019v.158Z" style="fill:#231f20;fill-rule:nonzero" transform="matrix(233.33319 0 0 233.33319 739.98 317.973)"/><path d="M.067-.71V0h.44v-.158h-.28v-.12h.22v-.154h-.22v-.12h.28V-.71h-.44Z" style="fill:#231f20;fill-rule:nonzero" transform="matrix(233.33319 0 0 233.33319 885.517 317.973)"/><path d="M.301-.228a.24.24 0 0 0 .243-.241.24.24 0 0 0-.243-.241H.067V0h.16v-.228h.074ZM.299-.56a.09.09 0 0 1 .09.091.091.091 0 0 1-.09.092H.227V-.56h.072Z" style="fill:#231f20;fill-rule:nonzero" transform="matrix(233.33319 0 0 233.33319 1032.92 317.973)"/><path d="M.067-.71V0h.16v-.278h.284V0h.16v-.71h-.16v.278H.227V-.71h-.16Z" style="fill:#231f20;fill-rule:nonzero" transform="matrix(233.33319 0 0 233.33319 1182.657 317.973)"/><path d="M.34-.718-.01 0h.168l.051-.11h.262L.522 0H.69L.34-.718Zm.067.478H.273L.34-.388l.067.148Z" style="fill:#231f20;fill-rule:nonzero" transform="matrix(233.33319 0 0 233.33319 1374.627 317.973)"/><path d="M.019-.552h.169V0h.163v-.552H.52V-.71H.019v.158Z" style="fill:#231f20;fill-rule:nonzero" transform="matrix(233.33319 0 0 233.33319 1539.067 317.973)"/><path d="M.227-.339V-.71h-.16v.718l.448-.379V0h.16v-.718l-.448.379Z" style="fill:#231f20;fill-rule:nonzero" transform="matrix(233.33319 0 0 233.33319 1684.597 317.973)"/><path d="M.334-.71H.067V0H.38C.5 0 .595-.094.595-.211a.183.183 0 0 0-.1-.166.168.168 0 0 0 .05-.122.212.212 0 0 0-.211-.211Zm-.018.287H.225v-.141h.091c.043 0 .074.032.074.071 0 .039-.031.07-.074.07Zm.049.276h-.14v-.141h.14c.043 0 .074.032.074.071 0 .039-.031.07-.074.07Z" style="fill:#231f20;fill-rule:nonzero" transform="matrix(233.33319 0 0 233.33319 1877.497 317.973)"/><path d="M.377-.433H.225V-.71h-.16V0H.38c.113 0 .215-.086.215-.228 0-.11-.062-.205-.218-.205ZM.662-.71V0h.161v-.71H.662Zm-.297.563h-.14v-.151h.14c.043 0 .074.027.074.076s-.031.075-.074.075Z" style="fill:#231f20;fill-rule:nonzero" transform="matrix(233.33319 0 0 233.33319 2042.167 317.973)"/><path d="M.507-.71h-.44V0h.44v-.158h-.28v-.12h.22v-.154h-.22v-.12h.28V-.71Z" style="fill:#231f20;fill-rule:nonzero" transform="translate(170.782 2877.415) scale(62.50005)"/><path d="M.482-.286c0 .086-.053.14-.131.14C.273-.146.22-.2.22-.286V-.71H.06v.422c0 .178.121.296.291.296.17 0 .291-.118.291-.296V-.71h-.16v.424Z" style="fill:#231f20;fill-rule:nonzero" transform="translate(213.058 2877.415) scale(62.50005)"/><path d="M.573-.245a.207.207 0 0 1-.176.099.204.204 0 0 1-.202-.209c0-.114.087-.209.202-.209.076 0 .14.041.176.099l.121-.099a.364.364 0 1 0 0 .418L.573-.245Z" style="fill:#231f20;fill-rule:nonzero" transform="translate(265.021 2877.415) scale(62.50005)"/><path d="M.503-.159H.228V-.71H.067V0h.436v-.159Z" style="fill:#231f20;fill-rule:nonzero" transform="translate(317.422 2877.415) scale(62.50005)"/><path style="fill:#231f20;fill-rule:nonzero" d="M.067-.71h.161V0H.067z" transform="translate(357.885 2877.415) scale(62.50005)"/><path d="M.316 0c.2 0 .361-.159.361-.355A.358.358 0 0 0 .316-.71H.067V0h.249Zm0-.564c.119 0 .2.095.2.209 0 .114-.081.209-.2.209H.227v-.418h.089Z" style="fill:#231f20;fill-rule:nonzero" transform="translate(384.411 2877.415) scale(62.50005)"/><path d="M.019-.71v.158h.169V0h.163v-.552H.52V-.71H.019Z" style="fill:#231f20;fill-rule:nonzero" transform="translate(463.407 2877.415) scale(62.50005)"/><path d="M.487-.71h-.42V0h.16v-.278h.2v-.154h-.2v-.12h.26V-.71Z" style="fill:#231f20;fill-rule:nonzero" transform="translate(505.183 2877.415) scale(62.50005)"/><path d="M.573-.245a.207.207 0 0 1-.176.099.204.204 0 0 1-.202-.209c0-.114.087-.209.202-.209.076 0 .14.041.176.099l.121-.099a.364.364 0 1 0 0 .418L.573-.245Z" style="fill:#231f20;fill-rule:nonzero" transform="translate(573.376 2877.415) scale(62.50005)"/><path d="M.408-.298.671-.71H.482l-.155.249L.172-.71h-.187l.263.412V0h.16v-.298Z" style="fill:#231f20;fill-rule:nonzero" transform="translate(625.777 2877.415) scale(62.50005)"/><path d="M.449 0H.64L.41-.302a.21.21 0 0 0 .136-.197.212.212 0 0 0-.211-.211H.067V0h.159v-.288h.003L.449 0ZM.226-.423v-.141h.091c.043 0 .074.032.074.071 0 .039-.031.07-.074.07H.226Z" style="fill:#231f20;fill-rule:nonzero" transform="translate(674.866 2877.415) scale(62.50005)"/><path style="fill:#231f20;fill-rule:nonzero" d="M.067-.71h.161V0H.067z" transform="translate(722.017 2877.415) scale(62.50005)"/><path d="M.503-.159H.228V-.71H.067V0h.436v-.159Z" style="fill:#231f20;fill-rule:nonzero" transform="translate(748.542 2877.415) scale(62.50005)"/><path d="M.503-.159H.228V-.71H.067V0h.436v-.159Z" style="fill:#231f20;fill-rule:nonzero" transform="translate(789.006 2877.415) scale(62.50005)"/><path style="fill:#231f20;fill-rule:nonzero" d="M.067-.71h.161V0H.067z" transform="translate(829.47 2877.415) scale(62.50005)"/><path d="M.573-.245a.207.207 0 0 1-.176.099.204.204 0 0 1-.202-.209c0-.114.087-.209.202-.209.076 0 .14.041.176.099l.121-.099a.364.364 0 1 0 0 .418L.573-.245Z" style="fill:#231f20;fill-rule:nonzero" transform="translate(855.996 2877.415) scale(62.50005)"/><path d="M.334-.71H.067V0H.38C.5 0 .595-.094.595-.211a.183.183 0 0 0-.1-.166.168.168 0 0 0 .05-.122.212.212 0 0 0-.211-.211Zm-.109.287v-.141h.091c.043 0 .074.032.074.071 0 .039-.031.07-.074.07H.225Zm.14.276h-.14v-.141h.14c.043 0 .074.032.074.071 0 .039-.031.07-.074.07Z" style="fill:#231f20;fill-rule:nonzero" transform="translate(936.19 2877.415) scale(62.50005)"/><path d="M.397.008a.364.364 0 1 0-.001-.727.364.364 0 0 0 .001.727Zm0-.572c.115 0 .202.095.202.209a.204.204 0 0 1-.202.209.204.204 0 0 1-.202-.209c0-.114.087-.209.202-.209Z" style="fill:#231f20;fill-rule:nonzero" transform="translate(983.09 2877.415) scale(62.50005)"/><path d="M.503-.159H.228V-.71H.067V0h.436v-.159Z" style="fill:#231f20;fill-rule:nonzero" transform="translate(1040.804 2877.415) scale(62.50005)"/><path d="M.316 0c.2 0 .361-.159.361-.355A.358.358 0 0 0 .316-.71H.067V0h.249Zm0-.564c.119 0 .2.095.2.209 0 .114-.081.209-.2.209H.227v-.418h.089Z" style="fill:#231f20;fill-rule:nonzero" transform="translate(1081.268 2877.415) scale(62.50005)"/><path d="M.218-.269 0 0h.524v-.141H.308l.163-.202a.228.228 0 0 0 .054-.146.233.233 0 0 0-.236-.229.232.232 0 0 0-.235.229c0 .104.069.19.164.22ZM.289-.4C.238-.4.206-.441.206-.489c0-.048.032-.088.083-.088.051 0 .084.04.084.088C.373-.441.34-.4.289-.4Z" style="fill:#231f20;fill-rule:nonzero" transform="translate(1832.842 2877.415) scale(62.50005)"/><path d="m.205 0 .322-.71H.035v.141h.264L.041 0h.164Z" style="fill:#231f20;fill-rule:nonzero" transform="translate(1877.182 2877.415) scale(62.50005)"/><path d="M.331-.71 0 0h.136l.331-.71H.331Z" style="fill:#231f20;fill-rule:nonzero" transform="translate(1928.412 2877.415) scale(62.50005)"/><path d="M.405-.718c-.2 0-.366.163-.366.363a.366.366 0 0 0 .732 0c0-.2-.166-.363-.366-.363Zm0 .585C.28-.133.191-.232.191-.355S.28-.577.405-.577s.214.099.214.222-.089.222-.214.222Z" style="fill:#231f20;fill-rule:nonzero" transform="translate(1965.682 2877.415) scale(62.50005)"/><path d="M.251-.245.117 0h.169l.187-.343a.286.286 0 0 0 .045-.138c0-.134-.107-.237-.249-.237-.142 0-.249.103-.249.237 0 .128.098.228.231.236Zm.115-.236a.093.093 0 0 1-.097.096.093.093 0 0 1-.097-.096c0-.051.036-.096.097-.096.061 0 .097.045.097.096Z" style="fill:#231f20;fill-rule:nonzero" transform="translate(2024.402 2877.415) scale(62.50005)"/><path d="M.331-.71 0 0h.136l.331-.71H.331Z" style="fill:#231f20;fill-rule:nonzero" transform="translate(2075.533 2877.415) scale(62.50005)"/><path d="M.218-.269 0 0h.524v-.141H.308l.163-.202a.228.228 0 0 0 .054-.146.233.233 0 0 0-.236-.229.232.232 0 0 0-.235.229c0 .104.069.19.164.22ZM.289-.4C.238-.4.206-.441.206-.489c0-.048.032-.088.083-.088.051 0 .084.04.084.088C.373-.441.34-.4.289-.4Z" style="fill:#231f20;fill-rule:nonzero" transform="translate(2112.813 2877.415) scale(62.50005)"/><path d="M.405-.718c-.2 0-.366.163-.366.363a.366.366 0 0 0 .732 0c0-.2-.166-.363-.366-.363Zm0 .585C.28-.133.191-.232.191-.355S.28-.577.405-.577s.214.099.214.222-.089.222-.214.222Z" style="fill:#231f20;fill-rule:nonzero" transform="translate(2157.153 2877.415) scale(62.50005)"/><path d="m.229-.718-.152.152V0h.152v-.718Z" style="fill:#231f20;fill-rule:nonzero" transform="translate(2215.863 2877.415) scale(62.50005)"/><path d="M.218-.269 0 0h.524v-.141H.308l.163-.202a.228.228 0 0 0 .054-.146.233.233 0 0 0-.236-.229.232.232 0 0 0-.235.229c0 .104.069.19.164.22ZM.289-.4C.238-.4.206-.441.206-.489c0-.048.032-.088.083-.088.051 0 .084.04.084.088C.373-.441.34-.4.289-.4Z" style="fill:#231f20;fill-rule:nonzero" transform="translate(2243.073 2877.415) scale(62.50005)"/><path d="M0 0h537.385H0Z" style="fill:#fff;fill-rule:nonzero" transform="translate(107.939 107.931) scale(4.16667)"/><path d="M0 0h537.385" style="fill:none;fill-rule:nonzero;stroke:#231f20;stroke-width:5.15px" transform="translate(107.938 107.932) scale(4.16667)"/><path d="M0 0h537.385H0Z" style="fill:#fff;fill-rule:nonzero" transform="translate(107.939 380.155) scale(4.16667)"/><path d="M0 0h537.385" style="fill:none;fill-rule:nonzero;stroke:#231f20;stroke-width:5.15px" transform="translate(107.938 380.155) scale(4.16667)"/><path d="M0 0h520.887H0Z" style="fill:#fff;fill-rule:nonzero" transform="translate(142.308 2799.015) scale(4.16667)"/><path d="M0 0h520.887" style="fill:none;fill-rule:nonzero;stroke:#231f20;stroke-width:3px" transform="translate(142.309 2799.015) scale(4.16667)"/><path d="M0 0h520.887H0Z" style="fill:#fff;fill-rule:nonzero" transform="translate(142.308 2917.766) scale(4.16667)"/><path d="M0 0h520.887" style="fill:none;fill-rule:nonzero;stroke:#231f20;stroke-width:3px" transform="translate(142.309 2917.766) scale(4.16667)"/></svg>