<svg viewBox="0 0 1158 169" xmlns="http://www.w3.org/2000/svg" xml:space="preserve" style="fill-rule:evenodd;clip-rule:evenodd;stroke-linejoin:round;stroke-miterlimit:2"><path d="M837.092 382.094v.912h-51.259v-.912c2.688 0 3.281-.273 3.281-.911v-28.245c0-.637-.638-.911-3.327-.911v-.911h7.427v30.067h19.137v-28.245c0-.637-.638-.911-3.326-.911v-.911h7.427v30.067h13.213v-30.067c2.415-.137 4.055-.547 5.012-1.002l.593.41c-1.413 1.321-1.504 2.734-1.504 4.738v25.921c0 .638.637.911 3.326.911" style="fill:#403f41;fill-rule:nonzero" transform="translate(-3274.11 -1458.807) scale(4.16667)"/><path d="M877.137 381.092v.912h-10.661v-.912c2.688 0 2.916-.227 2.734-.82l-1.732-5.375c-5.285-1.731-10.753-2.232-16.129-2.369l-2.825 7.744c-.228.639 0 .82 2.688.82v.912h-8.885v-.912c2.688 0 3.691-.181 3.919-.774l2.915-7.835h-1.913v-1.139h2.324l7.29-19.544c.228-.593 0-.775-2.688-.775v-.911h12.211v.911c-2.689 0-2.916.228-2.689.82l9.523 28.427c.228.593 1.23.82 3.918.82m-10.433-8.519-6.835-21.093h-.911l-7.199 19.909c4.966.046 9.978.319 14.945 1.184M892.807 365.376l3.509 3.872-1.367 1.367-3.372-5.877.501-.501c4.739 1.685 8.521-1.777 8.521-6.743 0-3.644-2.005-6.013-7.473-6.013h-3.827v28.7c0 .638 2.46.911 5.148.911v.912h-12.53v-.912c2.689 0 3.281-.273 3.281-.911v-28.245c0-.637-.638-.911-3.326-.911v-.911h11.254c7.837 0 11.3 2.871 11.346 7.563.045 6.651-7.2 9.111-11.665 7.699" style="fill:#403f41;fill-rule:nonzero" transform="translate(-3274.11 -1454.632) scale(4.16667)"/><path d="M938.277 372.983v1.367l-1.366 7.654h-1.368l-.455-7.654h-25.151l-.456 7.654h-1.367l-1.367-7.745v-1.276h2.689c5.467-.729 9.75-10.66 9.75-21.593v-7.108c0-.637-.637-.911-3.326-.911v-.911h21.597v.911c-2.688 0-3.281.274-3.281.911v28.701h4.101Zm-23.784 0h15.583v-29.156h-9.067v6.332c0 5.923-.729 10.478-2.187 14.578-1.094 3.053-2.825 5.741-4.329 8.246" style="fill:#403f41;fill-rule:nonzero" transform="translate(-3274.11 -1422.74) scale(4.16667)"/><path d="M945.109 366.014c0-9.613 6.835-16.446 17.132-16.446s17.086 6.833 17.086 16.446c0 9.612-6.789 16.445-17.086 16.445-10.297 0-17.132-6.833-17.132-16.445m29.89 0c0-8.839-5.285-15.08-12.758-15.08-7.518 0-12.803 6.241-12.803 15.08 0 8.838 5.285 15.079 12.803 15.079 7.473 0 12.758-6.241 12.758-15.079" style="fill:#403f41;fill-rule:nonzero" transform="translate(-3274.11 -1454.253) scale(4.16667)"/><path d="M1019.24 381.547v.912h-10.71v-.912c2.69 0 3.28-.273 3.28-.911v-11.434c-3.78-.182-7.56-.547-11.34-.593l-6.383-.09-.046 12.117c0 .638.638.911 3.326.911v.912H986.66v-.912c2.688 0 3.28-.273 3.28-.911v-12.209l-2.277-.045v-1.139h2.277v-14.305c0-.638-.637-.911-3.326-.911v-.911h7.519l-.046 16.081 17.723-.182v-15.899h.09c2.42-.137 4.06-.547 5.01-1.002l.6.41c-1.42 1.321-1.51 2.733-1.51 4.737l-.09 25.375c0 .638.64.911 3.33.911" style="fill:#403f41;fill-rule:nonzero" transform="translate(-3274.11 -1456.528) scale(4.16667)"/><path d="M1057.78 367.745h-26.84c.55 7.926 4.2 13.348 11.35 13.348 5.92 0 10.57-4.146 11.16-10.068h4.24c-1 6.697-8.29 11.434-15.4 11.434-9.25 0-15.77-6.833-15.77-16.445 0-9.613 6.52-16.446 15.77-16.446 9.07 0 15.54 6.787 15.58 16.354v.866c2.28-.182 3.83-1.503 3.56-5.057h2.23c.45 4.283-2.42 5.877-5.88 6.014m-4.24-1.823c-.04-8.792-3.82-14.988-11.25-14.988-6.74 0-11.48 6.287-11.44 15.216l22.69-.228Z" style="fill:#403f41;fill-rule:nonzero" transform="translate(-3274.11 -1454.253) scale(4.16667)"/></svg>