<svg viewBox="0 0 882 564" xmlns="http://www.w3.org/2000/svg" xml:space="preserve" style="fill-rule:evenodd;clip-rule:evenodd;stroke-linejoin:round;stroke-miterlimit:2"><path style="fill:none" d="M0 0h1190.55v841.89H0z" transform="translate(-191.78 -106.304)"/><text x="206.011" y="140.993" style="font-family:'Couteau2GIS-Regular','Couteau 2GIS';font-style:italic;font-size:49px;fill:#231f20" transform="translate(-196.966 -106.304)">В<tspan x="239.151px 252.472px 284.828px 319.732px 352.954px 384.608px 416.85px 461.048px 493.29px 531.608px 569.926px 602.56px 646.513px 659.669px 697.497px 730.376px 765.362px 804.17px 832.786px 866.008px 897.858px 933.53px 965.968px 998.406px 1031.63px" y="140.993px 140.993px 140.993px 140.993px 140.993px 140.993px 140.993px 140.993px 140.993px 140.993px 140.993px 140.993px 140.993px 140.993px 140.993px 140.993px 140.993px 140.993px 140.993px 140.993px 140.993px 140.993px 140.993px 140.993px 140.993px"> СОВРЕМЕННОМ ПРОИЗВОДСТВЕ</tspan></text><text x="205.494" y="267.393" style="font-family:'Couteau2GIS-Regular','Couteau 2GIS';font-style:italic;font-size:132px;fill:#231f20" transform="translate(-196.966 -106.304)">Т<tspan x="292.878px 371.286px 455.898px 575.49px 667.098px 752.37px 839.226px 926.61px" y="267.393px 267.393px 267.393px 267.393px 267.393px 267.393px 267.393px 267.393px">РАФАРЕТЫ</tspan></text><text x="204.377" y="367.393" style="font-family:'Couteau2GIS-Regular','Couteau 2GIS';font-style:italic;font-size:81px;fill:#231f20" transform="translate(-196.966 -106.304)">И<tspan x="268.529px 315.833px 366.539px 424.859px 472.649px 528.863px 583.781px 643.559px 707.711px 761.333px 817.547px 904.703px 958.325px 1011.95px" y="367.393px 367.393px 367.393px 367.393px 367.393px 367.393px 367.393px 367.393px 367.393px 367.393px 367.393px 367.393px 367.393px 367.393px">ЗГОТАВЛИВАЮТСЯ</tspan></text><text x="210.142" y="427.393" style="font-family:'Couteau2GIS-Regular','Couteau 2GIS';font-style:italic;font-size:36px;fill:#231f20" transform="translate(-196.966 -106.304)">Н<tspan x="240.082px 266.853px 278.361px 303.98px 333.56px 359.035px 389.875px 420.174px 446.946px 475.301px 505.601px 528.412px 558.711px 584.655px 612.146px 637.766px 664.537px 694.477px 724.416px 762.276px 788.759px 800.267px 828.082px 853.702px 876.729px 903.5px 933.44px 960.931px 987.127px 1015.34px 1042.11px" y="427.393px 427.393px 427.393px 427.393px 427.393px 427.393px 427.393px 427.393px 427.393px 427.393px 427.393px 427.393px 427.393px 427.393px 427.393px 427.393px 427.393px 427.393px 427.393px 427.393px 427.393px 427.393px 427.393px 427.393px 427.393px 427.393px 427.393px 427.393px 427.393px 427.393px 427.393px">А СПЕЦИАЛИЗИРОВАННЫХ УСТАНОВКАХ</tspan></text><text x="201.884" y="507.393" style="font-family:'Couteau2GIS-Regular','Couteau 2GIS';font-style:italic;font-size:64px;fill:#231f20" transform="translate(-196.966 -106.304)">Д<tspan x="249.692px 296.924px 344.86px 361.82px 409.052px 453.468px 490.844px 532.956px 574.3px 624.348px 670.044px 710.108px 756.508px 772.816px 810.832px 852.432px 894.8px 941.776px 984.72px 1027.09px" y="507.393px 507.393px 507.393px 507.393px 507.393px 507.393px 507.393px 507.393px 507.393px 507.393px 507.393px 507.393px 507.393px 507.393px 507.393px 507.393px 507.393px 507.393px 507.393px 507.393px">ЛЯ ЛАЗЕРНОГО РАСКРОЯ</tspan></text><text x="201.3" y="637.393" style="font-family:'Couteau2GIS-Regular','Couteau 2GIS';font-style:italic;font-size:130px;fill:#231f20" transform="translate(-196.966 -106.304)">К<tspan x="296.72px 399.68px 483.659px 586.619px 682.559px 778.499px 881.458px 986.368px" y="637.393px 637.393px 637.393px 637.393px 637.393px 637.393px 637.393px 637.393px">ИРИЛЛИЦА</tspan></text></svg>