<svg viewBox="0 0 2897 1285" xmlns="http://www.w3.org/2000/svg" xml:space="preserve" style="fill-rule:evenodd;clip-rule:evenodd;stroke-linejoin:round;stroke-miterlimit:2"><path d="M.396-.112C.396-.06.372-.024.32 0h.312C.596-.02.574-.064.568-.124L.512-.7H.368l.024.5c.001.029.004.056.004.088ZM.332-.616l-.284.504A.253.253 0 0 1-.064 0h.296a.073.073 0 0 1-.048-.072.21.21 0 0 1 .008-.052l.023-.08H.34L.336-.268H.234l.102-.348H.332Z" style="fill-rule:nonzero" transform="matrix(333.33327 0 0 333.33327 21.334 301)"/><path d="M.332-.552c.015-.07.044-.12.1-.148h-.32l.057.123-.093.425c-.015.069-.04.124-.1.152h.312C.252-.02.24-.06.24-.096c0-.028.004-.05.012-.088l.08-.368ZM.6-.408.664-.7h-.18c.08.044.112.128.112.276v.016H.6ZM.336 0c.195-.004.268-.106.268-.222 0-.123-.083-.203-.23-.186.042.036.064.103.064.176A.284.284 0 0 1 .336 0Z" style="fill-rule:nonzero" transform="matrix(333.33327 0 0 333.33327 249.334 301)"/><path d="M.332-.552c.015-.07.044-.12.1-.148h-.32l.057.123-.093.425c-.015.069-.04.124-.1.152h.312C.252-.02.24-.06.24-.096c0-.028.004-.05.012-.088l.08-.368ZM.336 0c.195-.004.268-.116.268-.212 0-.096-.068-.142-.168-.15.139-.017.224-.1.224-.198C.66-.644.596-.696.484-.7a.173.173 0 0 1 .032.108.242.242 0 0 1-.152.228c.052.032.072.08.072.14 0 .096-.04.18-.1.224Z" style="fill-rule:nonzero" transform="matrix(333.33327 0 0 333.33327 472.001 301)"/><path d="M.332-.552c.015-.07.044-.12.1-.148h-.32l.057.123-.093.425c-.015.069-.04.124-.1.152h.332C.256-.02.24-.052.24-.092c0-.032.008-.073.016-.108l.076-.352ZM.6-.408.664-.7h-.18c.08.044.112.128.112.276v.016H.6Z" style="fill-rule:nonzero" transform="matrix(333.33327 0 0 333.33327 694.667 301)"/><path d="M.395-.599A.17.17 0 0 1 .487-.7H.279l.055.123-.04.092c-.136.313-.183.421-.296.421h-.007L-.023 0l-.054.252h.004l.006-.016C-.01.085.061 0 .157 0h.177l.012-.064H.172c.055-.083.1-.24.184-.442l.039-.093Zm.278.025L.776-.7H.535l-.138.636L.384 0h.089c.08 0 .122.088.122.236v.016h.004L.653 0l.014-.064H.569l.104-.51Z" style="fill-rule:nonzero" transform="matrix(333.33327 0 0 333.33327 874.001 301)"/><path d="M.332-.552c.015-.07.044-.12.1-.148h-.32l.057.123-.093.425c-.015.069-.04.124-.1.152h.312C.252-.02.24-.06.24-.096c0-.028.004-.05.012-.088l.08-.368ZM.664-.7h-.18c.08.044.112.128.112.276v.016H.6L.664-.7ZM.48-.532l-.136.168.064.192.072-.36ZM.52 0l.064-.292H.58A.675.675 0 0 1 .348 0H.52Z" style="fill-rule:nonzero" transform="matrix(333.33327 0 0 333.33327 1124.668 301)"/><path d="m.374-.764.024-.112H.3l-.024.112h.098Zm.184 0 .024-.112H.484L.46-.764h.098Zm-.226.212c.015-.07.044-.12.1-.148h-.32l.057.123-.093.425c-.015.069-.04.124-.1.152h.312C.252-.02.24-.06.24-.096c0-.028.004-.05.012-.088l.08-.368ZM.664-.7h-.18c.08.044.112.128.112.276v.016H.6L.664-.7ZM.48-.532l-.136.168.064.192.072-.36ZM.52 0l.064-.292H.58A.675.675 0 0 1 .348 0H.52Z" style="fill-rule:nonzero" transform="matrix(333.33327 0 0 333.33327 1340.668 301)"/><path d="M.447-.344.294-.59.386-.7H.147l.19.261L.1-.132C.053-.071.002-.016-.044 0H.23c0-.012.004-.032.014-.052a.834.834 0 0 1 .124-.2l.079-.092Zm.155.248c0-.028.004-.05.012-.088l.081-.39L.798-.7H.484l.057.123-.093.425c-.015.069-.04.124-.1.152H.65C.614-.02.602-.06.602-.096Zm.23-.329L1.131-.7H.864l.064.116-.236.244.028.088c.021.067.04.144.04.2 0 .02-.004.04-.008.052h.263C.975-.016.946-.072.927-.132L.832-.425Z" style="fill-rule:nonzero" transform="matrix(333.33327 0 0 333.33327 1556.668 301)"/><path d="m.161-.7-.062.292h.004C.151-.548.22-.641.343-.7H.161Zm.047.276L.18-.312l.126-.033c.216-.057.281-.132.281-.224C.587-.668.501-.7.388-.7c.019.011.044.048.044.106a.277.277 0 0 1-.128.226L.208-.424ZM.24 0c.169-.007.298-.102.298-.21 0-.096-.103-.13-.19-.13a.253.253 0 0 1 .011.078C.359-.168.321-.054.24 0ZM.206 0a.426.426 0 0 1-.128-.292H.074l-.059.276C.049-.008.159 0 .206 0Z" style="fill-rule:nonzero" transform="matrix(333.33327 0 0 333.33327 1920.998 301)"/><path d="M.24-.096c0-.027.004-.049.011-.084l.233-.214L.5-.479l-.232.217.066-.312L.436-.7H.112l.057.123-.093.425c-.015.069-.04.124-.1.152h.312C.252-.02.24-.06.24-.096Zm.499-.478L.842-.7H.518l.057.123-.093.425c-.015.069-.04.124-.1.152h.312C.658-.02.646-.06.646-.096c0-.028.004-.05.012-.088l.081-.39Z" style="fill-rule:nonzero" transform="matrix(333.33327 0 0 333.33327 2112.338 301)"/><path d="M.485-.763a.218.218 0 0 0 .2-.132.181.181 0 0 1-.128.061.138.138 0 0 1-.119-.069l-.084.079c.021.04.071.061.131.061ZM.24-.096c0-.027.004-.049.011-.084l.233-.214L.5-.479l-.232.217.066-.312L.436-.7H.112l.057.123-.093.425c-.015.069-.04.124-.1.152h.312C.252-.02.24-.06.24-.096Zm.499-.478L.842-.7H.518l.057.123-.093.425c-.015.069-.04.124-.1.152h.312C.658-.02.646-.06.646-.096c0-.028.004-.05.012-.088l.081-.39Z" style="fill-rule:nonzero" transform="matrix(333.33327 0 0 333.33327 2372.999 301)"/><path d="M.288 0C.252-.02.24-.06.24-.096c0-.028.004-.05.012-.088l.081-.39L.436-.7H.112l.057.123-.093.425c-.015.069-.04.124-.1.152h.312ZM.66 0C.62-.016.592-.072.572-.132L.476-.428l.3-.272H.504l.064.116-.236.244.028.088c.021.067.04.144.04.2 0 .02-.004.04-.008.052H.66Z" style="fill-rule:nonzero" transform="matrix(333.33327 0 0 333.33327 2636.669 301)"/><path d="m.285-.7.055.123-.038.092c-.11.266-.159.315-.276.308L.006 0c.193.06.265-.283.356-.505l.047-.114C.427-.664.461-.684.5-.7H.285Zm.4.126L.788-.7H.547l-.119.548c-.015.069-.04.124-.1.152H.64C.604-.02.592-.06.592-.096c0-.028.004-.05.012-.088l.081-.39Z" style="fill-rule:nonzero" transform="matrix(333.33327 0 0 333.33327 100 751.001)"/><path d="M.804 0C.768-.02.756-.06.756-.096c0-.028.004-.05.012-.088l.084-.403L.956-.7H.744L.48-.352.332-.7H.104l.08.1.176.432.312-.349-.08.365c-.015.069-.04.124-.1.152h.312ZM.196-.424l-.06.204C.096-.084.04-.028-.04 0h.296C.2-.02.176-.064.176-.144c0-.044.004-.091.008-.128L.2-.424H.196Z" style="fill-rule:nonzero" transform="matrix(333.33327 0 0 333.33327 342.664 751.001)"/><path d="M.288 0C.252-.02.24-.06.24-.096c0-.028.004-.05.012-.088l.026-.124h.178l.012-.064H.291l.043-.202L.436-.7H.112l.057.123-.093.425c-.015.069-.04.124-.1.152h.312Zm.396 0C.648-.02.636-.06.636-.096c0-.028.004-.05.012-.088l.081-.39L.832-.7H.508l.057.123-.093.425c-.015.069-.04.124-.1.152h.312Z" style="fill-rule:nonzero" transform="matrix(333.33327 0 0 333.33327 639.994 751.001)"/><path d="M.42-.708C.204-.684.044-.5.044-.264c0 .144.084.26.228.272A.497.497 0 0 1 .224-.22c0-.22.096-.412.196-.488Zm-.1.716C.536-.016.696-.2.696-.436c0-.144-.084-.26-.228-.272a.497.497 0 0 1 .048.228c0 .22-.096.412-.196.488Z" style="fill-rule:nonzero" transform="matrix(333.33327 0 0 333.33327 897.324 751.001)"/><path d="M.24-.096c0-.028.004-.05.012-.088l.095-.452h.168L.527-.7H.112l.057.123-.093.425c-.015.069-.04.124-.1.152h.312C.252-.02.24-.06.24-.096Zm.479-.478L.822-.7H.581l-.119.548c-.015.069-.04.124-.1.152h.312C.638-.02.626-.06.626-.096c0-.028.004-.05.012-.088l.081-.39Z" style="fill-rule:nonzero" transform="matrix(333.33327 0 0 333.33327 1131.988 751.001)"/><path d="M.332-.552c.015-.07.044-.12.1-.148h-.32l.057.123-.093.425c-.015.069-.04.124-.1.152h.312C.252-.02.24-.06.24-.096c0-.028.004-.05.012-.088l.08-.368Zm.008.316c.204-.02.324-.12.324-.284C.664-.616.592-.696.48-.7a.259.259 0 0 1 .028.132.419.419 0 0 1-.168.332Z" style="fill-rule:nonzero" transform="matrix(333.33327 0 0 333.33327 1385.988 751.001)"/><path d="M.42-.7c-.216.02-.376.2-.376.436 0 .148.084.256.228.264a.459.459 0 0 1-.048-.22c0-.22.096-.404.196-.48Zm.252 0H.476c.096.04.128.13.128.264v.028h.004L.672-.7ZM.516 0l.068-.292H.58A.611.611 0 0 1 .34 0h.176Z" style="fill-rule:nonzero" transform="matrix(333.33327 0 0 333.33327 1606.318 751.001)"/><path d="m.12-.7-.064.292H.06A.675.675 0 0 1 .292-.7H.12Zm.3.7C.384-.02.372-.06.372-.096c0-.028.004-.05.012-.088L.492-.7H.328l-.12.548c-.015.069-.04.124-.1.152H.42Zm.288-.7h-.18c.08.044.112.128.112.276v.016h.004L.708-.7Z" style="fill-rule:nonzero" transform="matrix(333.33327 0 0 333.33327 1823.648 751.001)"/><path d="M.358-.576.439-.7H.098l.08.124.185.454a.071.071 0 0 1-.005.07l.124-.19-.124-.334ZM.574-.7l.05.124-.094.255h.004l.171-.255L.843-.7H.574Zm-.333.619c0-.011.002-.027.006-.036H.075c-.007.099.057.15.143.15A.161.161 0 0 0 .34-.018C.287-.003.241-.031.241-.081Z" style="fill-rule:nonzero" transform="matrix(333.33327 0 0 333.33327 2040.978 751.001)"/><path d="M.56.021C.524.001.512-.039.512-.075c0-.028.004-.05.012-.088l.088-.424.103-.126H.391l.057.123-.1.459c-.015.069-.04.124-.1.152H.56Zm.034-.096C.77-.092.91-.216.91-.376c0-.121-.081-.219-.204-.229a.394.394 0 0 1 .041.182c0 .163-.075.295-.153.348ZM.363-.604c-.175.016-.314.139-.314.298 0 .122.08.22.202.231A.415.415 0 0 1 .21-.26c0-.16.074-.292.153-.344Z" style="fill-rule:nonzero" transform="matrix(333.33327 0 0 333.33327 2273.638 751.001)"/><path d="M.352-.576.432-.7H.096l.08.124.16.412A.29.29 0 0 1 .36-.06c0 .025-.006.045-.032.06h.288C.571-.02.542-.073.52-.132L.352-.576Zm.096.164L.744-.7H.496l.048.112-.1.176h.004Zm-.204.116L.14-.164A.556.556 0 0 1-.048 0h.256C.173-.013.16-.042.16-.072a.15.15 0 0 1 .012-.06l.076-.164H.244Z" style="fill-rule:nonzero" transform="matrix(333.33327 0 0 333.33327 2573.969 751.001)"/><path d="m.227-.064.107-.51L.436-.7H.112l.057.123-.093.425c-.015.069-.04.124-.1.152H.38l.012-.064H.227Zm.492-.51L.822-.7H.498l.057.123L.429 0h.089C.598 0 .64.088.64.236v.016h.004l.068-.316H.614l.105-.51Z" style="fill-rule:nonzero" transform="matrix(333.33327 0 0 333.33327 22.667 1200.998)"/><path d="M.41-.305C.332-.305.287-.34.307-.444l.025-.13L.434-.7H.11l.057.123-.029.141c-.027.133.061.197.161.197.058 0 .11-.022.151-.069a.29.29 0 0 1-.04.003ZM.657 0C.621-.02.609-.06.609-.096c0-.028.004-.05.012-.088l.081-.39L.805-.7H.481l.057.123-.093.425C.43-.083.405-.028.345 0h.312Z" style="fill-rule:nonzero" transform="matrix(333.33327 0 0 333.33327 275.664 1200.998)"/><path d="m.227-.064.107-.51L.436-.7H.112l.057.123-.093.425c-.015.069-.04.124-.1.152H.35l.012-.064H.227Zm.356 0 .107-.51L.792-.7H.468l.057.123L.399 0h.307l.012-.064H.583Zm.462-.51L1.148-.7H.824l.057.123L.755 0H1C.964-.02.952-.06.952-.096c0-.028.004-.05.012-.088l.081-.39Z" style="fill-rule:nonzero" transform="matrix(333.33327 0 0 333.33327 523.66 1200.998)"/><path d="m.247-.064.107-.51L.456-.7H.132l.057.123-.093.425c-.015.069-.04.124-.1.152H.37l.012-.064H.247Zm.356 0 .107-.51L.812-.7H.488l.057.123L.419 0h.307l.012-.064H.603Zm.462-.51L1.168-.7H.844l.057.123L.775 0h.089c.08 0 .122.088.122.236v.016H.99l.068-.316H.96l.105-.51Z" style="fill-rule:nonzero" transform="matrix(333.33327 0 0 333.33327 886.323 1200.998)"/><path d="m.12-.7-.064.292H.06A.675.675 0 0 1 .292-.7H.12Zm.344.148c.015-.07.044-.12.1-.148H.328l-.12.548c-.015.069-.04.124-.1.152H.42C.384-.02.372-.06.372-.096c0-.028.004-.05.012-.088l.08-.368ZM.463 0c.184-.018.29-.131.29-.261 0-.126-.102-.207-.226-.203a.211.211 0 0 1 .071.169A.424.424 0 0 1 .463 0Z" style="fill-rule:nonzero" transform="matrix(333.33327 0 0 333.33327 1267.318 1200.998)"/><path d="M.332-.552c.015-.07.044-.12.1-.148h-.32l.057.123-.093.425c-.015.069-.04.124-.1.152h.312C.252-.02.24-.06.24-.096c0-.028.004-.05.012-.088l.08-.368ZM.904 0C.868-.02.856-.06.856-.096c0-.028.004-.05.012-.088l.081-.39.103-.126H.728l.057.123-.093.425c-.015.069-.04.124-.1.152h.312ZM.33 0c.184-.018.284-.131.284-.261 0-.131-.096-.207-.22-.203.047.038.058.099.058.169A.407.407 0 0 1 .33 0Z" style="fill-rule:nonzero" transform="matrix(333.33327 0 0 333.33327 1525.988 1200.998)"/><path d="M.332-.552c.015-.07.044-.12.1-.148h-.32l.057.123-.093.425c-.015.069-.04.124-.1.152h.312C.252-.02.24-.06.24-.096c0-.028.004-.05.012-.088l.08-.368ZM.33 0c.184-.018.292-.131.292-.261 0-.131-.104-.207-.228-.203.047.038.066.099.066.169C.46-.199.42-.087.33 0Z" style="fill-rule:nonzero" transform="matrix(333.33327 0 0 333.33327 1856.648 1200.998)"/><path d="M.168-.7.1-.408h.004A.611.611 0 0 1 .344-.7H.168Zm.096.7C.48-.02.64-.2.64-.436.64-.584.556-.692.412-.7a.459.459 0 0 1 .048.22c0 .22-.096.404-.196.48ZM.256-.168l.136-.168-.064-.192-.072.36ZM.012 0h.196C.112-.04.08-.13.08-.264v-.028H.076L.012 0Z" style="fill-rule:nonzero" transform="matrix(333.33327 0 0 333.33327 2071.638 1200.998)"/><path d="M.776-.708C.56-.684.4-.5.4-.264c0 .144.084.26.228.272A.497.497 0 0 1 .58-.22c0-.22.096-.412.196-.488Zm-.1.716c.216-.024.376-.208.376-.444 0-.144-.084-.26-.228-.272a.497.497 0 0 1 .048.228c0 .22-.096.412-.196.488ZM.288 0C.252-.02.24-.06.24-.096c0-.028.004-.05.012-.088l.026-.124h.087l.012-.064H.291l.043-.202L.436-.7H.112l.057.123-.093.425c-.015.069-.04.124-.1.152h.312Z" style="fill-rule:nonzero" transform="matrix(333.33327 0 0 333.33327 2292.968 1200.998)"/><path d="M.393-.283a.273.273 0 0 1-.062-.174A.32.32 0 0 1 .446-.7c-.185 0-.268.098-.268.209 0 .074.036.121.097.157l-.171.212A.385.385 0 0 1-.033 0h.268C.232-.013.234-.032.246-.062a.9.9 0 0 1 .147-.221Zm.308-.291L.804-.7H.48c.05.018.069.066.053.14l-.089.408c-.015.069-.04.124-.1.152h.312C.62-.02.608-.06.608-.096c0-.028.004-.05.012-.088l.081-.39Z" style="fill-rule:nonzero" transform="matrix(333.33327 0 0 333.33327 2628.969 1200.998)"/></svg>