<svg viewBox="0 0 914 493" xmlns="http://www.w3.org/2000/svg" xml:space="preserve" style="fill-rule:evenodd;clip-rule:evenodd;stroke-linejoin:round;stroke-miterlimit:2"><text x="201.294" y="149.133" style="font-family:'Couteau2GIS-Regular','Couteau 2GIS';font-style:italic;font-size:60px;fill:#231f20" transform="translate(-176.72 -106.65)">К<tspan x="245.334px 292.854px 331.614px 379.134px 423.414px 467.694px 515.214px 563.634px 605.274px 621.474px 660.714px 703.314px 748.674px 788.394px 827.394px 865.194px 910.554px 926.754px 964.554px 1005.23px 1027.43px" y="149.133px 149.133px 149.133px 149.133px 149.133px 149.133px 149.133px 149.133px 149.133px 149.133px 149.133px 149.133px 149.133px 149.133px 149.133px 149.133px 149.133px 149.133px 149.133px 149.133px 149.133px">ИРИЛЛИЦА COUTEAU 2GIS</tspan></text><text x="195.627" y="325.933" style="font-family:'Couteau2GIS-Regular','Couteau 2GIS';font-style:italic;font-size:187px;fill:#231f20" transform="translate(-176.72 -106.65)">М<tspan x="361.309px 495.949px 633.955px 780.189px 928.293px" y="325.933px 325.933px 325.933px 325.933px 325.933px">ОЛНИЯ</tspan></text><text x="192.319" y="412.333" style="font-family:'Couteau2GIS-Regular','Couteau 2GIS';font-style:italic;font-size:58px;fill:#231f20" transform="translate(-176.72 -106.65)">Т<tspan x="230.715px 268.879px 311.683px 349.847px 405.005px 446.417px 491.773px 537.129px 595.245px 641.703px 657.363px 695.759px 740.535px 774.987px 815.239px 854.563px 893.713px 937.445px 982.801px 1028.74px" y="412.333px 412.333px 412.333px 412.333px 412.333px 412.333px 412.333px 412.333px 412.333px 412.333px 412.333px 412.333px 412.333px 412.333px 412.333px 412.333px 412.333px 412.333px 412.333px 412.333px">ЕЛЕФОННЫЙ СПРАВОЧНИК</tspan></text><text x="179.604" y="528.733" style="font-family:'Couteau2GIS-Regular','Couteau 2GIS';font-style:italic;font-size:120px;fill:#231f20" transform="translate(-176.72 -106.65)">К<tspan x="260.484px 346.164px 440.004px 504.564px 591.204px 671.124px 779.364px 858.324px 929.604px 1005.2px" y="528.733px 528.733px 528.733px 528.733px 528.733px 528.733px 528.733px 528.733px 528.733px 528.733px">ОНГЛОМЕРАТ</tspan></text><text x="195.355" y="590.133" style="font-family:'Couteau2GIS-Regular','Couteau 2GIS';font-style:italic;font-size:34px;fill:#231f20" transform="translate(-176.72 -106.65)">А<tspan x="218.951px 242.003px 265.055px 283.687px 309.595px 331.967px 354.339px 391.841px 411.697px 438.625px 465.859px 490.815px 515.907px 546.575px 573.163px 597.439px 623.687px 646.501px 669.009px 691.517px 715.589px 746.563px 769.887px 795.523px 822.961px 860.293px 899.495px 925.131px 947.401px 974.125px 1008.19px 1031.11px" y="590.133px 590.133px 590.133px 590.133px 590.133px 590.133px 590.133px 590.133px 590.133px 590.133px 590.133px 590.133px 590.133px 590.133px 590.133px 590.133px 590.133px 590.133px 590.133px 590.133px 590.133px 590.133px 590.133px 590.133px 590.133px 590.133px 590.133px 590.133px 590.133px 590.133px 590.133px 590.133px">БВГДЕЁЖЗИЙКЛМНОПРСТУФХЧЦШЩЯЬЪЫЭЮ</tspan></text></svg>