<svg viewBox="0 0 1763 306" xmlns="http://www.w3.org/2000/svg" xml:space="preserve" style="fill-rule:evenodd;clip-rule:evenodd;stroke-linejoin:round;stroke-miterlimit:2"><path d="M73.374 390.647v-13.223h13.338v13.223h2.9v-40.595h-2.9v25.633H73.374v-25.633h-2.9v40.595h2.9Zm44.074 0v-1.74H102.95v-25.981h8.699v-1.739h-8.699v-9.395h14.498v-1.74H100.05v40.595h17.398Zm10.438 0v-13.223c2.262-1.159 4.176-2.319 5.8-3.595l6.379 16.818h3.131l-7.249-18.79c3.538-3.537 4.988-7.481 4.988-11.888 0-6.495-3.248-9.917-11.309-9.917h-4.639v40.595h2.899Zm0-14.904v-23.951h1.74c5.973 0 8.409 3.189 8.409 8.815 0 5.625-2.378 10.844-10.149 15.136Zm23.139 14.904h2.9v-40.595h-2.9v40.595Zm22.559 0v-38.855h10.207v-1.74h-22.907v1.74h9.801v38.855h2.899Zm15.426 0 3.132-22.037h8.583l3.131 22.037h2.9l-5.799-40.595h-8.467l-5.799 40.595h2.319Zm11.483-23.777h-8.119l2.146-15.078h3.827l2.146 15.078Zm30.214 24.067v-29.75h-6.089v1.739h3.189v26.039c-9.742-1.74-14.556-12.352-14.556-22.791s4.814-14.962 9.395-14.962c2.726 0 5.567 1.392 7.191 3.711v-3.653c-2.204-1.218-4.581-1.798-7.133-1.798-7.365 0-12.468 5.046-12.468 17.05 0 11.54 6.205 24.415 20.471 24.415Zm24.647-.29v-1.74h-14.498v-25.981h8.698v-1.739h-8.698v-9.395h14.498v-1.74h-17.398v40.595h17.398Z" style="fill:#080605;fill-rule:nonzero" transform="translate(-278.006 -1416.993) scale(4.16667)"/><path style="fill:#999796" d="M66.722 398.939h192.071v1.392H66.722z" transform="translate(-278.006 -1662.251) scale(4.16667)"/><path style="fill:#999796" d="M66.722 332.595h192.071v1.392H66.722z" transform="translate(-278.006 -1109.384) scale(4.16667)"/><path style="fill:#999796" d="M66.722 327.028h192.071v2.32H66.722z" transform="translate(-278.006 -1066.859) scale(4.16667)"/><path d="M285.589 381.484v-13.222h13.338v13.222h2.9v-40.595h-2.9v25.633h-13.338v-25.633h-2.9v40.595h2.9Zm24.937 0 3.131-22.037h8.583l3.132 22.037h2.899l-5.799-40.595h-8.467l-5.799 40.595h2.32Zm11.482-23.777h-8.119l2.146-15.078h3.827l2.146 15.078Zm27.952 24.067v-1.74c-10.148 0-15.194-11.599-15.194-23.023 0-10.439 4.814-14.962 9.395-14.962 2.726 0 5.567 1.392 7.191 3.711v-3.653c-2.203-1.218-4.581-1.798-7.133-1.798-7.365 0-12.468 5.046-12.468 17.05 0 11.54 5.567 24.415 18.209 24.415Zm6.206 0c5.625 0 6.669-5.568 6.669-25.575v-13.57h8.873v38.855h2.899v-40.595h-14.034v20.181c0 12.585-1.334 17.572-4.291 17.572-.522 0-.986-.058-1.566-.174l-.232 3.132c.696.174 1.218.174 1.682.174Zm46.278-.29v-1.74h-14.499v-25.981h8.699v-1.739h-8.699v-9.395h14.499v-1.74h-17.398v40.595h17.398Zm6.379 9.569.87-9.569h18.557l.87 9.569h1.74v-11.309h-3.132v-38.855H413.23c0 18.79 1.16 36.187-3.595 38.855h-2.552v11.309h1.74Zm16.006-11.309h-12.701c4.118-2.204 3.48-18.268 3.48-37.115h9.221v37.115Zm15.89 1.74v-9.453l14.498-20.471v29.924h2.899v-40.595h-2.899v7.365l-14.498 20.529v-27.894h-2.9v40.595h2.9Zm45.234 0v-1.74h-14.499v-25.981h8.699v-1.739h-8.699v-9.395h14.499v-1.74h-17.398v40.595h17.398Z" style="fill:#080605;fill-rule:nonzero" transform="translate(-278.006 -1379.296) scale(4.16667)"/><path style="fill:#999796" d="M278.305 398.939h211.509v1.392H278.305z" transform="translate(-278.006 -1662.251) scale(4.16667)"/><path style="fill:#999796" d="M278.305 332.595h211.509v1.392H278.305z" transform="translate(-278.006 -1109.384) scale(4.16667)"/><path style="fill:#999796" d="M278.305 327.028h211.509v2.32H278.305z" transform="translate(-278.006 -1066.859) scale(4.16667)"/></svg>