<svg viewBox="0 0 1159 273" xmlns="http://www.w3.org/2000/svg" xml:space="preserve" style="fill-rule:evenodd;clip-rule:evenodd;stroke-linejoin:round;stroke-miterlimit:2"><path d="M145.491 252.448c-.777 5.257-2.762 8.867-5.795 11.041l6.886 29.918h-2.603l.135.594h3.087l-6.886-29.918c3.146-2.256 5.164-6.055 5.877-11.635h-.701Zm-9.218 13.6-.164-.715c-1.553.45-3.241.65-5.079.65v27.424h-2.35v.594h2.968v-27.425c1.655 0 3.197-.165 4.625-.528Zm-4.625-2.836v-10.764h-.618v10.817l.618-.053Z" style="fill:#6c6e70;fill-rule:nonzero" transform="translate(-528.646 -1006.41) scale(4.16667)"/><path d="M169.848 253.278c2.044 1.707 2.945 4.255 2.945 7.599 0 7.064-4.037 13.059-14.662 17.867v13.534h-2.204v.565h2.968v-13.534c10.625-4.808 14.662-10.804 14.662-17.868 0-3.735-1.124-6.477-3.709-8.163Zm-10.953 21.953c-.265.141-.505.28-.764.406v-23.13h2.077c3.202 0 5.287.796 6.85 2.131-1.522-.969-3.37-1.566-6.086-1.566h-2.077v22.159Z" style="fill:#6c6e70;fill-rule:nonzero" transform="translate(-528.646 -1001.83) scale(4.16667)"/><path d="m190.807 252.507 6.383 40.987h-2.234l.089.565h2.909l-6.471-41.552h-.676Zm-.907 18.995-.09-.565h-9.004l-3.561 22.557h-1.582l-.088.565h2.434l3.561-22.557h8.33Zm-2.667-17.214h-2.992l-2.216 14.011-.84-.003c.772-4.919 1.52-9.653 2.292-14.573h3.666l.09.565Z" style="fill:#6c6e70;fill-rule:nonzero" transform="translate(-528.646 -1006.9) scale(4.16667)"/><path d="M210.527 290.027c2.944 2.3 6.679 3.706 11.289 3.706v-1.781c-.258 0-.513-.006-.764-.018v1.234c-4.22 0-7.706-1.177-10.525-3.141Zm2.537-1.38c-5.521-4.357-8.343-12.485-8.343-20.617 0-10.685 5.579-15.612 10.506-15.612 1.972 0 3.418.421 5.077 1.547-1.809-1.451-3.558-2.111-5.841-2.111-4.927 0-10.506 4.926-10.506 15.611 0 8.498 3.065 17.016 9.107 21.182Zm9.532-36.249v3.337c.247.249.483.51.704.779h.06v-3.74a28.427 28.427 0 0 0-.764-.376Z" style="fill:#6c6e70;fill-rule:nonzero" transform="translate(-528.646 -1002.82) scale(4.16667)"/><path d="M247.495 280.525v-.565h-14.274v13.534h-2.204v.565h2.968v-13.534h13.51Zm4.009-28.018v40.987H249.3v.565h2.968v-41.552h-.764Zm-17.519 24.815h-.764v-24.815h.764v24.815Z" style="fill:#6c6e70;fill-rule:nonzero" transform="translate(-528.646 -1006.9) scale(4.16667)"/><path d="M281.565 252.536c3.695 2.957 5.852 8.2 5.852 14.989 0 15.671-5.402 25.644-13.89 25.644a9.918 9.918 0 0 1-5.645-1.721c1.85 1.49 4.003 2.285 6.409 2.285 8.488 0 13.89-9.972 13.89-25.643 0-7.245-2.456-12.728-6.616-15.554Zm-11.681 37.414c-4.335-2.821-7.102-10.387-7.102-21.356 0-10.329 4.215-16.977 10.745-16.977 2.103 0 3.765.769 5.325 2.05-1.392-.918-2.791-1.486-4.561-1.486-6.53 0-10.745 6.648-10.745 16.977 0 10.307 2.464 17.417 6.338 20.792Z" style="fill:#6c6e70;fill-rule:nonzero" transform="translate(-528.646 -1001.83) scale(4.16667)"/><path d="M303.069 290.027c2.944 2.3 6.679 3.706 11.29 3.706v-1.781c-.259 0-.514-.006-.764-.018v1.234c-4.221 0-7.707-1.177-10.526-3.141Zm2.441-1.346c-5.521-4.357-8.247-12.519-8.247-20.651 0-10.685 5.58-15.612 10.507-15.612 1.971 0 3.709.626 5.368 1.752-1.809-1.451-3.85-2.316-6.132-2.316-4.927 0-10.507 4.926-10.507 15.611 0 8.498 2.969 17.05 9.011 21.216Zm9.628-36.283v3.337c.248.249.483.51.705.779h.059v-3.74a28.427 28.427 0 0 0-.764-.376Z" style="fill:#6c6e70;fill-rule:nonzero" transform="translate(-528.646 -1002.82) scale(4.16667)"/><path d="M344.343 252.507v1.216h-11.456v39.771h-2.204v.565h2.968v-39.771h11.456v-1.781h-.764Zm-15.464 1.781h-9.237v-.565h9.237v.565Z" style="fill:#6c6e70;fill-rule:nonzero" transform="translate(-528.646 -1006.9) scale(4.16667)"/><path d="M369.002 252.536c3.695 2.957 5.852 8.2 5.852 14.989 0 15.671-5.401 25.644-13.89 25.644a9.923 9.923 0 0 1-5.645-1.721c1.851 1.49 4.003 2.285 6.409 2.285 8.488 0 13.89-9.972 13.89-25.643 0-7.245-2.455-12.728-6.616-15.554Zm-11.62 37.342c-4.334-2.82-7.162-10.315-7.162-21.284 0-10.329 4.214-16.977 10.744-16.977 2.104 0 3.779.745 5.339 2.026-1.392-.919-2.805-1.462-4.575-1.462-6.53 0-10.744 6.648-10.744 16.977 0 10.308 2.525 17.505 6.398 20.72Z" style="fill:#6c6e70;fill-rule:nonzero" transform="translate(-528.646 -1001.83) scale(4.16667)"/><path d="M404.238 252.507v40.987h-2.205v.565h2.968v-41.552h-.763Zm-4.017 1.781v-.565h-14.266v39.771h-2.204v.565h2.968v-39.771h13.502Z" style="fill:#6c6e70;fill-rule:nonzero" transform="translate(-528.646 -1006.9) scale(4.16667)"/><path d="m135.838 267.11 6.47 28.375h3.087l-6.886-29.918c3.146-2.256 5.165-6.055 5.877-11.635h-2.849c-.713 8.608-4.571 12.288-11.694 12.347v-12.347h-2.968v41.553h2.968V268.06c2.196 0 4.214-.297 5.995-.95ZM171.751 264.083c0-6.648-3.562-10.151-12.585-10.151h-5.045v41.553h2.968V281.95c10.625-4.808 14.662-10.803 14.662-17.867Zm-14.662 16.146v-24.516h2.077c6.886 0 9.676 3.265 9.676 9.023 0 5.699-2.671 11.1-11.753 15.493ZM179.764 272.928h9.914l3.561 22.557h2.909l-6.47-41.553h-9.439l-6.47 41.553h2.434l3.561-22.557Zm.238-1.781 2.434-15.434h4.57l2.434 15.434h-9.438Z" style="fill:#231f20;fill-rule:nonzero" transform="translate(-528.646 -1018.78) scale(4.16667)"/><path d="M221.495 259.156h.059v-3.74c-2.434-1.247-5.046-2.137-7.836-2.137-8.073 0-13.89 5.461-13.89 17.749 0 11.812 5.877 25.347 20.183 25.347v-1.781c-11.635 0-17.096-12.228-17.096-23.922 0-10.685 5.58-15.612 10.507-15.612 3.086 0 6.114 1.721 8.073 4.096Z" style="fill:#231f20;fill-rule:nonzero" transform="translate(-528.646 -1019.77) scale(4.16667)"/><path d="M250.462 295.485v-41.553h-2.968v26.238h-15.315v-26.238h-2.968v41.553h2.968V281.95h15.315v13.535h2.968ZM272.485 253.042c-8.489 0-13.89 6.886-13.89 17.689 0 15.612 5.342 25.644 13.89 25.644 8.488 0 13.89-9.973 13.89-25.644 0-10.803-5.461-17.689-13.89-17.689ZM261.741 271.8c0-10.329 4.214-16.977 10.744-16.977 6.529 0 10.744 6.648 10.744 16.977 0 13.831-4.155 22.794-10.744 22.794-6.589 0-10.744-8.904-10.744-22.794Z" style="fill:#231f20;fill-rule:nonzero" transform="translate(-528.646 -1018.78) scale(4.16667)"/><path d="M314.037 259.156h.059v-3.74c-2.433-1.247-5.045-2.137-7.835-2.137-8.073 0-13.89 5.461-13.89 17.749 0 11.812 5.876 25.347 20.182 25.347v-1.781c-11.635 0-17.096-12.228-17.096-23.922 0-10.685 5.58-15.612 10.507-15.612 3.087 0 6.114 1.721 8.073 4.096Z" style="fill:#231f20;fill-rule:nonzero" transform="translate(-528.646 -1019.77) scale(4.16667)"/><path d="M331.845 295.485v-39.772h11.456v-1.781h-25.465v1.781h11.041v39.772h2.968ZM359.922 253.042c-8.488 0-13.89 6.886-13.89 17.689 0 15.612 5.342 25.644 13.89 25.644 8.489 0 13.891-9.973 13.891-25.644 0-10.803-5.462-17.689-13.891-17.689ZM349.178 271.8c0-10.329 4.215-16.977 10.744-16.977 6.53 0 10.744 6.648 10.744 16.977 0 13.831-4.155 22.794-10.744 22.794-6.589 0-10.744-8.904-10.744-22.794ZM400.228 295.485h2.968v-41.553h-21.251v41.553h2.968v-39.772h15.315v39.772Z" style="fill:#231f20;fill-rule:nonzero" transform="translate(-528.646 -1018.78) scale(4.16667)"/><path style="fill:#6c6e70" d="M126.875 303.723h278.146v1.187H126.875z" transform="translate(-528.646 -1265.512) scale(4.16667)"/><path style="fill:#6c6e70" d="M126.875 245.349h278.146v1.187H126.875z" transform="translate(-528.646 -779.06) scale(4.16667)"/><path style="fill:#6c6e70" d="M126.875 239.579h278.146v2.374H126.875z" transform="translate(-528.646 -735.92) scale(4.16667)"/></svg>