<svg viewBox="0 0 3151 1877" xmlns="http://www.w3.org/2000/svg" xml:space="preserve" style="fill-rule:evenodd;clip-rule:evenodd;stroke-linejoin:round;stroke-miterlimit:2"><path d="m442.28 495.1-20.064 14.554 2.964-14.25h-6.08l-4.522 21.28h-6.46l4.522-21.28h-6.08l-4.522 21.28h-6.498l4.522-21.28h-6.156l-5.662 26.98h25.498l19.646-14.25-2.964 14.25h6.08l5.776-27.284ZM482.712 495.404h-6.08l-2.242 10.564h-14.516l-1.216 5.852h14.516l-2.242 10.564h6.08l5.7-26.98Zm-24.966-.304-19.076 27.284h6.574l12.198-17.518h-2.736l4.18 17.518h6.384l-7.524-27.284Zm-.684 18.164h-6.308l-3.496 4.94h11.172l-1.368-4.94Z" style="fill-rule:nonzero" transform="translate(-165.6 -2054.368) scale(4.16667)"/><path d="m498.254 494.796-19.076 27.284h6.574l12.198-17.518h-2.736l2.432 10.222h6.384l-5.776-19.988Zm-.684 18.164h-6.308l-3.496 4.94h12.312l-2.508-4.94Zm16.682-18.164c-8.398 0-15.162 6.08-16.72 13.414-1.71 7.98 3.116 14.174 10.868 14.174 8.398 0 15.162-6.08 16.72-13.414 1.71-7.98-3.154-14.174-10.868-14.174Zm-1.14 5.776c4.446 0 6.726 3.534 5.814 7.866-.912 4.294-4.75 8.17-9.386 8.17-4.446 0-6.726-3.534-5.814-7.866.912-4.294 4.75-8.17 9.386-8.17Z" style="fill-rule:nonzero" transform="translate(-165.6 -2053.102) scale(4.16667)"/><path d="m539.864 488.108-19.076 27.284h6.574l12.198-17.518h-2.736l4.18 17.518 6.042-1.14-7.182-26.144Zm-.684 18.164h-6.308l-3.496 4.94h11.172l-1.368-4.94Zm18.886-9.88h-6.346l-7.562 14.288-2.014 2.47-5.396 9.234h6.194l15.124-25.992Z" style="fill-rule:nonzero" transform="translate(-165.6 -2025.235) scale(4.16667)"/><path d="M579.536 495.1h-17.404l-5.7 26.98h6.08l4.446-21.052h11.324l1.254-5.928Zm-10.716 15.466c2.204 0 3.23.95 2.812 2.926-.456 2.166-2.09 2.888-4.066 2.888h-3.876l1.254-5.814h3.876Zm-.608-15.466h-6.08l-5.7 26.98h10.374c5.282 0 9.5-2.622 10.678-8.474 1.026-5.13-2.166-8.702-6.954-8.702h-4.37l2.052-9.804Z" style="fill-rule:nonzero" transform="translate(-165.6 -2053.102) scale(4.16667)"/><path d="M583.45 494.758c-4.75 0-9.424 3.306-10.678 9.044-1.292 6.08 2.128 10.488 7.296 10.564 2.964.038 5.092-1.748 6.042-3.914l-.38-3.458c-1.14 1.482-2.736 2.052-4.066 2.052-2.166 0-3.724-1.52-3.192-4.37.57-2.926 2.812-4.56 4.94-4.56 1.292 0 2.698.608 3.458 1.748l1.596-5.244c-1.026-1.102-2.926-1.862-5.016-1.862Zm10.412.304h-5.738l-4.028 19h5.738l4.028-19Z" style="fill-rule:nonzero" transform="translate(-165.6 -2019.693) scale(4.16667)"/><path d="M619.588 495.1h-6.08l-2.584 12.084c-1.254.684-2.774.836-4.142.836-2.356 0-4.142-.684-3.496-3.724l1.976-9.196h-6.08l-2.166 10.032c-1.254 5.89 2.508 8.322 7.752 8.322 1.9 0 3.534-.418 5.016-1.026l-1.976 9.652h6.08l5.7-26.98Z" style="fill-rule:nonzero" transform="translate(-165.6 -2053.102) scale(4.16667)"/><path d="M630.19 495.1h-16.72l-5.7 26.98h16.72l1.216-5.89h-10.602l.988-4.75h8.36l1.216-5.738h-8.36l1.026-4.712h10.64l1.216-5.89ZM670.584 494.796 650.52 509.35l2.964-14.25h-6.08l-5.776 27.284 20.064-14.554-2.964 14.25h6.08l5.776-27.284Z" style="fill-rule:nonzero" transform="translate(-165.6 -2053.102) scale(4.16667)"/><path d="M653.522 495.1h-6.08l-2.584 12.084c-1.254.684-2.774.836-4.142.836-2.356 0-4.142-.684-3.496-3.724l1.976-9.196h-6.08l-2.166 10.032c-1.254 5.89 2.508 8.322 7.752 8.322 1.9 0 3.534-.418 5.016-1.026l-1.976 9.652 7.41-6.232 4.37-20.748Z" style="fill-rule:nonzero" transform="translate(-165.6 -2053.102) scale(4.16667)"/><path d="M697.792 489.476h-19.228l-3.382 15.884c-.684 3.344-1.748 5.244-3.876 5.244h-1.026l-.228 1.14h6.612c2.622-1.748 3.61-2.812 4.788-8.322l1.748-8.246h7.296l-4.522 21.28h6.08l5.738-26.98Zm-.912 21.128h-27.322l-2.432 11.476h5.852l1.178-5.624h15.618l-1.178 5.624h5.852l2.432-11.476Z" style="fill-rule:nonzero" transform="translate(-165.6 -2029.668) scale(4.16667)"/><path d="M713.79 495.1h-6.08l-5.7 26.98h6.08l5.7-26.98Zm-7.676 10.602h-12.008l-1.254 5.738h12.008l1.254-5.738Z" style="fill-rule:nonzero" transform="translate(-165.6 -2053.102) scale(4.16667)"/><path d="m736.21 498.976-1.14 5.206c5.168-.19 7.486 1.596 6.688 5.548-.836 4.218-4.332 6.308-9.158 6.118l-1.14 5.244c8.474.19 14.782-4.256 16.188-11.096 1.368-6.65-3.534-11.21-11.438-11.02Zm-4.598 0c-8.474-.19-14.782 4.256-16.188 11.096-1.368 6.65 3.534 11.21 11.438 11.02l1.14-5.206c-5.168.19-7.486-1.596-6.688-5.548.836-4.218 4.332-6.308 9.158-6.118l1.14-5.244Zm6.156-3.876h-6.118l-6.232 29.336h6.118l6.232-29.336Z" style="fill-rule:nonzero" transform="translate(-165.6 -2062.918) scale(4.16667)"/><path d="m762.468 498.976-1.14 5.206c5.168-.19 7.486 1.596 6.688 5.548-.836 4.218-4.332 6.308-9.158 6.118l-1.14 5.244c8.474.19 14.782-4.256 16.188-11.096 1.368-6.65-3.534-11.21-11.438-11.02Zm-4.598 0c-8.474-.19-14.782 4.256-16.188 11.096-1.368 6.65 3.534 11.21 11.438 11.02l1.14-5.206c-5.168.19-7.486-1.596-6.688-5.548.836-4.218 4.332-6.308 9.158-6.118l1.14-5.244Zm6.156-3.876h-6.118l-6.232 29.336h6.118l6.232-29.336Z" style="fill-rule:nonzero" transform="translate(-165.6 -2062.918) scale(4.16667)"/><path d="m64.56 452.976-1.14 5.206c5.168-.19 7.486 1.596 6.688 5.548-.836 4.218-4.332 6.308-9.158 6.118l-1.14 5.244c8.474.19 14.782-4.256 16.188-11.096 1.368-6.65-3.534-11.21-11.438-11.02Zm-4.598 0c-8.474-.19-14.782 4.256-16.188 11.096-1.368 6.65 3.534 11.21 11.438 11.02l1.14-5.206c-5.168.19-7.486-1.596-6.688-5.548.836-4.218 4.332-6.308 9.158-6.118l1.14-5.244Zm6.156-3.876H60l-6.232 29.336h6.118l6.232-29.336Z" style="fill-rule:nonzero" transform="translate(-165.6 -1679.585) scale(4.16667)"/><path d="M89.336 467.15c-1.976 2.166-4.37 3.458-7.334 3.458-5.434 0-6.574-4.484-5.814-8.056.912-4.446 4.826-7.98 9.272-7.98 2.622 0 4.636 1.216 5.814 3.686l4.94-3.344c-2.128-3.876-5.054-6.118-9.918-6.118-8.018 0-14.744 6.08-16.34 13.414-1.672 7.676 2.736 14.174 10.868 14.174 5.168 0 9.31-2.014 12.502-5.434l-3.99-3.8Z" style="fill-rule:nonzero" transform="translate(-165.6 -1669.768) scale(4.16667)"/><path d="m118.216 452.976-1.14 5.206c5.168-.19 7.486 1.596 6.688 5.548-.836 4.218-4.332 6.308-9.158 6.118l-1.14 5.244c8.474.19 14.782-4.256 16.188-11.096 1.368-6.65-3.534-11.21-11.438-11.02Zm-4.598 0c-8.474-.19-14.782 4.256-16.188 11.096-1.368 6.65 3.534 11.21 11.438 11.02l1.14-5.206c-5.168.19-7.486-1.596-6.688-5.548.836-4.218 4.332-6.308 9.158-6.118l1.14-5.244Zm6.156-3.876h-6.118l-6.232 29.336h6.118l6.232-29.336Z" style="fill-rule:nonzero" transform="translate(-165.6 -1679.585) scale(4.16667)"/><path d="M140.332 448.796c-8.398 0-15.162 6.08-16.72 13.414-1.71 7.98 3.116 14.174 10.868 14.174 8.398 0 15.162-6.08 16.72-13.414 1.71-7.98-3.154-14.174-10.868-14.174Zm-1.14 5.776c4.446 0 6.726 3.534 5.814 7.866-.912 4.294-4.75 8.17-9.386 8.17-4.446 0-6.726-3.534-5.814-7.866.912-4.294 4.75-8.17 9.386-8.17Z" style="fill-rule:nonzero" transform="translate(-165.6 -1669.768) scale(4.16667)"/><path d="m174.988 452.976-1.14 5.206c5.168-.19 7.486 1.596 6.688 5.548-.836 4.218-4.332 6.308-9.158 6.118l-1.14 5.244c8.474.19 14.782-4.256 16.188-11.096 1.368-6.65-3.534-11.21-11.438-11.02Zm-4.598 0c-8.474-.19-14.782 4.256-16.188 11.096-1.368 6.65 3.534 11.21 11.438 11.02l1.14-5.206c-5.168.19-7.486-1.596-6.688-5.548.836-4.218 4.332-6.308 9.158-6.118l1.14-5.244Zm6.156-3.876h-6.118l-6.232 29.336h6.118l6.232-29.336Z" style="fill-rule:nonzero" transform="translate(-165.6 -1679.585) scale(4.16667)"/><path d="M189.808 448.758c-4.75 0-9.424 3.306-10.678 9.044-1.292 6.08 2.128 10.488 7.296 10.564 2.964.038 5.092-1.748 6.042-3.914l-.38-3.458c-1.14 1.482-2.736 2.052-4.066 2.052-2.166 0-3.724-1.52-3.192-4.37.57-2.926 2.812-4.56 4.94-4.56 1.292 0 2.698.608 3.458 1.748l1.596-5.244c-1.026-1.102-2.926-1.862-5.016-1.862Zm10.412.304h-5.738l-4.028 19h5.738l4.028-19Z" style="fill-rule:nonzero" transform="translate(-165.6 -1636.36) scale(4.16667)"/><path d="M228.15 448.378h-19.228l-4.104 19.266 5.7.342 3.04-13.908h7.296l-4.522 21.28h6.08l5.738-26.98Zm-23.332 19.266c-.494 2.052-1.976 2.508-4.446 2.28l-1.178 5.434c5.32.722 10.032-1.254 11.324-7.372l-5.7-.342Z" style="fill-rule:nonzero" transform="translate(-165.6 -1666.76) scale(4.16667)"/><path d="M238.752 449.1h-16.72l-5.7 26.98h16.72l1.216-5.89h-10.602l.988-4.75h8.36l1.216-5.738h-8.36l1.026-4.712h10.64l1.216-5.89ZM281.35 448.796l-20.064 14.554 2.964-14.25h-6.08l-5.776 27.284 20.064-14.554-2.964 14.25h6.08l5.776-27.284Z" style="fill-rule:nonzero" transform="translate(-165.6 -1669.768) scale(4.16667)"/><path d="M264.288 448.378H245.06l-4.104 19.266 5.7.342 3.04-13.908h7.296l-4.522 21.28 7.524-6.878 4.294-20.102Zm-23.332 19.266c-.494 2.052-1.976 2.508-4.446 2.28l-1.178 5.434c5.32.722 10.032-1.254 11.324-7.372l-5.7-.342Z" style="fill-rule:nonzero" transform="translate(-165.6 -1666.76) scale(4.16667)"/><path d="M307.836 449.1h-6.08l-5.7 26.98h6.08l5.7-26.98Zm5.358 10.602h-8.208l-1.216 5.7h8.208l1.216-5.7Zm11.552-10.906c-8.398 0-15.162 6.08-16.72 13.414-1.71 7.98 3.116 14.174 10.868 14.174 8.398 0 15.162-6.08 16.72-13.414 1.71-7.98-3.154-14.174-10.868-14.174Zm-1.14 5.776c4.446 0 6.726 3.534 5.814 7.866-.912 4.294-4.75 8.17-9.386 8.17-4.446 0-6.726-3.534-5.814-7.866.912-4.294 4.75-8.17 9.386-8.17Z" style="fill-rule:nonzero" transform="translate(-165.6 -1669.768) scale(4.16667)"/><path d="M307.836 448.378h-19.228l-4.104 19.266 5.7.342 3.04-13.908h7.296l-4.522 21.28h6.08l5.738-26.98Zm-23.332 19.266c-.494 2.052-1.976 2.508-4.446 2.28l-1.178 5.434c5.32.722 10.032-1.254 11.324-7.372l-5.7-.342ZM362.708 448.378H343.48l-4.104 19.266 5.7.342 3.04-13.908h7.296l-4.522 21.28h6.08l5.738-26.98Zm-23.332 19.266c-.494 2.052-1.976 2.508-4.446 2.28l-1.178 5.434c5.32.722 10.032-1.254 11.324-7.372l-5.7-.342Zm26.486-6.118-7.068.266 8.436 13.566h6.992l-8.36-13.832Zm12.958-13.148h-7.372l-12.54 13.87 7.144-.228 12.768-13.642Z" style="fill-rule:nonzero" transform="translate(-165.6 -1666.76) scale(4.16667)"/><path d="M415.49 449.1h-6.764l-17.48 26.98h6.612l17.632-26.98Zm-18.544 0h-6.574l7.258 21.584 4.256-6.65-4.94-14.934Z" style="fill-rule:nonzero" transform="translate(-165.6 -1669.768) scale(4.16667)"/><path d="M395.426 448.378H383.76l-4.104 19.266 5.7.342 3.04-13.908h7.296l-.266-5.7Zm-15.77 19.266c-.494 2.052-1.976 2.508-4.446 2.28l-1.178 5.434c5.32.722 10.032-1.254 11.324-7.372l-5.7-.342Z" style="fill-rule:nonzero" transform="translate(-165.6 -1666.76) scale(4.16667)"/><path d="m465.08 449.1-16.036 13.452-8.36-10.374-12.35 10.374-10.868-13.452-5.776 27.284h6.08l2.964-13.946 6.156 7.904 8.474-6.726-2.964 12.768h6.194l2.85-13.87 6.156 7.828 8.474-6.726-2.85 12.768h6.08l5.776-27.284ZM499.85 449.404h-3.098l-15.674 13.148L470.21 449.1l-5.776 27.284h6.08l2.964-13.946 6.156 7.904 8.321-6.725-2.697 12.767h6.08l1.834-8.664h2.726c6.118 0 10.07-3.458 11.096-8.398 1.216-5.852-1.482-9.918-7.144-9.918Zm-2.736 12.654h-2.736l1.482-6.954h2.736c2.166 0 3.154 1.216 2.66 3.458-.532 2.394-2.166 3.496-4.142 3.496Z" style="fill-rule:nonzero" transform="translate(-165.6 -1671.035) scale(4.16667)"/><path d="m535 452.52-11.476 9.728-10.868-13.452-5.776 27.284h6.08l2.964-13.946 6.156 7.904 8.474-6.726L535 452.52Zm13.3 14.63c-1.976 2.166-4.37 3.458-7.334 3.458-5.434 0-6.574-4.484-5.814-8.056.912-4.446 4.826-7.98 9.272-7.98 2.622 0 4.636 1.216 5.814 3.686l4.94-3.344c-2.128-3.876-5.054-6.118-9.918-6.118-8.018 0-14.744 6.08-16.34 13.414-1.672 7.676 2.736 14.174 10.868 14.174 5.168 0 9.31-2.014 12.502-5.434l-3.99-3.8Z" style="fill-rule:nonzero" transform="translate(-165.6 -1669.768) scale(4.16667)"/><path d="m581.094 476.384 5.434-26.98-15.694 13.148-10.868-13.452-5.776 27.284h6.08l2.964-13.946 6.156 7.904 8.474-6.726-2.85 12.768h6.08Zm16.302-26.98h-10.868l-6.422 6.308-5.13 20.672h16.72l1.216-5.89H582.31l.988-4.75h8.36l1.216-5.738h-8.36l1.026-4.712h10.64l1.216-5.89Z" style="fill-rule:nonzero" transform="translate(-165.6 -1671.035) scale(4.16667)"/><path d="M645.504 448.796 625.44 463.35l3.04-14.554-16.036 13.452-10.868-13.452-5.776 27.284h6.08l2.964-13.946 6.156 7.904 8.314-6.72-2.766 13.066 20.064-14.554-2.964 14.25h6.08l5.776-27.284Z" style="fill-rule:nonzero" transform="translate(-165.6 -1669.768) scale(4.16667)"/><path d="m677.538 449.1-16.036 13.452-10.868-13.452-5.776 27.284h6.08l2.964-13.946 6.156 7.904 8.474-6.726-2.85 12.768h6.08l5.776-27.284Z" style="fill-rule:nonzero" transform="translate(-165.6 -1671.035) scale(4.16667)"/><path d="M682.82 459.702h-8.208l-1.216 5.7h8.208l1.216-5.7Zm11.552-10.906c-8.398 0-15.162 6.08-16.72 13.414-1.71 7.98 3.116 14.174 10.868 14.174 8.398 0 15.162-6.08 16.72-13.414 1.71-7.98-3.154-14.174-10.868-14.174Zm-1.14 5.776c4.446 0 6.726 3.534 5.814 7.866-.912 4.294-4.75 8.17-9.386 8.17-4.446 0-6.726-3.534-5.814-7.866.912-4.294 4.75-8.17 9.386-8.17Z" style="fill-rule:nonzero" transform="translate(-165.6 -1669.768) scale(4.16667)"/><path d="m742.1 462.552-7.068.266 8.436 13.566h6.992l-8.36-13.832Zm12.958-13.148h-7.372l-12.54 13.87 7.144-.228 12.768-13.642Zm-16.036-.304-16.036 13.452-10.868-13.452-5.776 27.284h6.08l2.964-13.946 6.156 7.904 8.474-6.726-2.85 12.768h6.08l5.776-27.284Z" style="fill-rule:nonzero" transform="translate(-165.6 -1671.035) scale(4.16667)"/><path d="m69.69 406.52-11.476 9.728-10.868-13.452-5.776 27.284h6.08l2.964-13.946 6.156 7.904 8.474-6.726 4.446-10.792Zm10.678-3.724c-8.398 0-15.162 6.08-16.72 13.414-1.71 7.98 3.116 14.174 10.868 14.174 8.398 0 15.162-6.08 16.72-13.414 1.71-7.98-3.154-14.174-10.868-14.174Zm-1.14 5.776c4.446 0 6.726 3.534 5.814 7.866-.912 4.294-4.75 8.17-9.386 8.17-4.446 0-6.726-3.534-5.814-7.866.912-4.294 4.75-8.17 9.386-8.17Z" style="fill-rule:nonzero" transform="translate(-165.6 -1286.434) scale(4.16667)"/><path d="m125.018 403.1-16.036 13.452L98.114 403.1l-5.776 27.284h6.08l2.964-13.946 6.156 7.904 8.474-6.726-2.85 12.768h6.08l5.776-27.284Z" style="fill-rule:nonzero" transform="translate(-165.6 -1287.701) scale(4.16667)"/><path d="m124.942 403.1-7.638 7.524-4.142 19.456h9.994c5.662 0 9.918-2.964 10.944-8.018 1.178-5.7-2.47-9.538-7.182-9.538h-3.952l1.976-9.424Zm.684 15.086c2.09 0 3.154 1.254 2.774 3.192-.38 1.938-2.014 3.002-4.104 3.002h-3.876l1.33-6.194h3.876Z" style="fill-rule:nonzero" transform="translate(-165.6 -1286.434) scale(4.16667)"/><path d="M176.014 403.404h-19l-1.254 5.89h19l1.254-5.89Zm-6.422.304-1.064.38-14.858 12.464-10.868-13.452-5.776 27.284h6.08l2.964-13.946 6.156 7.904 8.474-6.726-2.85 12.768h6.08l5.662-26.676ZM205.92 403.404l-15.694 13.148-10.868-13.452-5.776 27.284h6.08l2.964-13.946 6.156 7.904 8.474-6.726-2.85 12.768h6.08l5.434-26.98Zm4.256 0h-4.256l-7.258 7.068-4.218 19.912h6.004l2.318-10.944h2.888l1.064-.874c4.408 0 9.006-2.736 9.918-7.144.912-4.332-1.786-8.018-6.46-8.018Zm-.494 11.666-4.864 4.37h3.268c1.634 0 2.584.95 2.242 2.698-.342 1.748-1.748 2.66-3.382 2.66h-6.536l-1.178 5.586h6.726c5.928 0 9.386-3.116 10.26-7.524.95-4.826-2.09-7.79-6.536-7.79Zm-1.178-6.118c2.014 0 2.584 1.216 2.242 2.698-.304 1.482-1.558 2.66-3.382 2.66h-3.496l1.14-5.358h3.496ZM250.874 403.1l-16.036 13.452L223.97 403.1l-5.776 27.284h6.08l2.964-13.946 6.156 7.904 8.474-6.726-2.85 12.768h6.08l5.776-27.284Z" style="fill-rule:nonzero" transform="translate(-165.6 -1287.701) scale(4.16667)"/><path d="M273.218 403.1H267.1l-5.7 26.98h6.118l5.7-26.98Zm-22.42 0-7.524 6.84-4.256 20.14h9.994c5.662 0 9.918-2.964 10.944-8.018 1.178-5.7-2.47-9.538-7.182-9.538h-3.952l1.976-9.424Zm.684 15.086c2.09 0 3.154 1.254 2.774 3.192-.38 1.938-2.014 3.002-4.104 3.002h-3.876l1.33-6.194h3.876Z" style="fill-rule:nonzero" transform="translate(-165.6 -1286.434) scale(4.16667)"/><path d="M307.532 420.086h-6.498l5.738 10.298h6.726l-5.966-10.298Zm9.044-8.702h-7.258l-8.284 9.234h6.65l8.892-9.234Zm-11.248-8.284-16.036 13.452-10.868-13.452-5.776 27.284h6.08l2.964-13.946 6.156 7.904 8.474-6.726-2.85 12.768h6.08l5.776-27.284ZM327.406 403.404h-6.08l-5.7 26.98h6.08l5.7-26.98Zm12.616 10.602h-15.428l-1.254 5.738h15.428l1.254-5.738Zm6.308-10.906-19.076 27.284h6.574l12.198-17.518h-2.736l4.18 17.518h6.384L346.33 403.1Zm-.684 18.164h-6.308l-3.496 4.94h11.172l-1.368-4.94ZM367.838 403.404h-6.08l-5.7 26.98h6.08l5.7-26.98Zm8.816 10.602h-11.628l-1.254 5.738H375.4l1.254-5.738Zm29.07-10.906-16.036 13.452L378.82 403.1l-5.776 27.284h6.08l2.964-13.946 6.156 7.904 8.474-6.726-2.85 12.768h6.08l5.776-27.284Z" style="fill-rule:nonzero" transform="translate(-165.6 -1287.701) scale(4.16667)"/><path d="M433.35 403.1h-6.08l-5.7 26.98h6.08l5.7-26.98Zm-16.492 0h-6.08l-5.7 26.98h6.08l5.7-26.98Zm8.816 10.602h-11.628l-1.254 5.738h11.628l1.254-5.738Z" style="fill-rule:nonzero" transform="translate(-165.6 -1286.434) scale(4.16667)"/><path d="M436.162 403.1h-8.892l-5.7 26.98h6.08l1.824-8.664h2.736c6.118 0 10.07-3.458 11.096-8.398 1.216-5.852-1.482-9.918-7.144-9.918Zm-1.254 5.7c2.166 0 3.154 1.216 2.66 3.458-.532 2.394-2.166 3.496-4.142 3.496h-2.736l1.482-6.954h2.736ZM481.686 403.1h-15.732l-5.7 26.98h6.08l4.522-21.09h9.576l1.254-5.89Z" style="fill-rule:nonzero" transform="translate(-165.6 -1286.434) scale(4.16667)"/><path d="M454.972 403.1h-6.08l-5.7 26.98h6.08l5.7-26.98Zm8.816 10.602H452.16l-1.254 5.738h11.628l1.254-5.738ZM518.242 403.1h-16.72l-5.7 26.98h16.72l1.216-5.89h-10.602l.988-4.75h8.36l1.216-5.738h-8.36l1.026-4.712h10.64l1.216-5.89Zm-10.64 0h-6.08l-5.7 26.98h6.08l5.7-26.98Zm-16.492 0h-6.08l-5.7 26.98h6.08l5.7-26.98Zm8.816 10.602h-11.628l-1.254 5.738h11.628l1.254-5.738ZM562.626 402.796l-20.064 14.554 2.964-14.25h-6.08l-5.776 27.284 20.064-14.554-2.964 14.25h6.08l5.776-27.284Z" style="fill-rule:nonzero" transform="translate(-165.6 -1286.434) scale(4.16667)"/><path d="M528.426 403.1h-6.08l-5.7 26.98h6.08l5.7-26.98Zm8.816 10.602h-11.628l-1.254 5.738h11.628l1.254-5.738ZM590.252 403.1h-6.08l-5.7 26.98h6.08l5.7-26.98Zm-16.492 0h-6.08l-5.7 26.98h6.08l5.7-26.98Zm8.816 10.602h-11.628l-1.254 5.738h11.628l1.254-5.738Z" style="fill-rule:nonzero" transform="translate(-165.6 -1286.434) scale(4.16667)"/><path d="m594.242 416.248-7.068.266 8.436 13.566h6.992l-8.36-13.832ZM607.2 403.1h-7.372l-12.54 13.87 7.144-.228L607.2 403.1ZM632.508 403.1h-6.08l-5.7 26.98h6.08l5.7-26.98Zm-16.492 0h-6.08l-5.7 26.98h6.08l5.7-26.98Zm8.816 10.602h-11.628l-1.254 5.738h11.628l1.254-5.738Z" style="fill-rule:nonzero" transform="translate(-165.6 -1286.434) scale(4.16667)"/><path d="M648.316 403.1h-21.964l-5.7 26.98h6.08l4.56-21.28h9.804l-4.56 21.28h6.08l5.7-26.98ZM676.018 403.1h-6.08l-5.7 26.98h6.08l5.7-26.98Zm-16.492 0h-6.08l-5.7 26.98h6.08l5.7-26.98Zm8.816 10.602h-11.628l-1.254 5.738h11.628l1.254-5.738Z" style="fill-rule:nonzero" transform="translate(-165.6 -1286.434) scale(4.16667)"/><path d="M676.018 403.1h-6.08l-5.7 26.98h9.994c5.662 0 9.918-2.964 10.944-8.018 1.178-5.7-2.47-9.538-7.182-9.538h-3.952l1.976-9.424Zm.684 15.086c2.09 0 3.154 1.254 2.774 3.192-.38 1.938-2.014 3.002-4.104 3.002h-3.876l1.33-6.194h3.876ZM720.402 403.1H710.37l-5.7 26.98h6.004l2.318-10.944h2.888l1.064-.874c4.408 0 9.006-2.736 9.918-7.144.912-4.332-1.786-8.018-6.46-8.018Zm-.494 11.666-4.864 4.37h3.268c1.634 0 2.584.95 2.242 2.698-.342 1.748-1.748 2.66-3.382 2.66h-6.536l-1.178 5.586h6.726c5.928 0 9.386-3.116 10.26-7.524.95-4.826-2.09-7.79-6.536-7.79Zm-1.178-6.118c2.014 0 2.584 1.216 2.242 2.698-.304 1.482-1.558 2.66-3.382 2.66h-3.496l1.14-5.358h3.496Zm-2.356-5.548h-6.08l-5.7 26.98h6.08l5.7-26.98Zm-16.492 0h-6.08l-5.7 26.98h6.08l5.7-26.98Zm8.816 10.602H697.07l-1.254 5.738h11.628l1.254-5.738ZM756.692 403.1h-6.08l-5.7 26.98h6.08l5.7-26.98Zm-16.492 0h-6.08l-5.7 26.98h6.08l5.7-26.98Zm8.816 10.602h-11.628l-1.254 5.738h11.628l1.254-5.738Z" style="fill-rule:nonzero" transform="translate(-165.6 -1286.434) scale(4.16667)"/><path d="M779.112 403.1h-6.118l-5.7 26.98h6.118l5.7-26.98Zm-22.42 0h-6.08l-5.7 26.98h9.994c5.662 0 9.918-2.964 10.944-8.018 1.178-5.7-2.47-9.538-7.182-9.538h-3.952l1.976-9.424Zm.684 15.086c2.09 0 3.154 1.254 2.774 3.192-.38 1.938-2.014 3.002-4.104 3.002h-3.876l1.33-6.194h3.876Z" style="fill-rule:nonzero" transform="translate(-165.6 -1286.434) scale(4.16667)"/><path d="M56.162 357.1H47.27l-5.7 26.98h6.08l1.824-8.664h2.736c6.118 0 10.07-3.458 11.096-8.398 1.216-5.852-1.482-9.918-7.144-9.918Zm-1.254 5.7c2.166 0 3.154 1.216 2.66 3.458-.532 2.394-2.166 3.496-4.142 3.496H50.69l1.482-6.954h2.736Z" style="fill-rule:nonzero" transform="translate(-165.6 -903.1) scale(4.16667)"/><path d="M80.216 357.1h-6.764l-17.48 26.98h6.612l17.632-26.98Zm-17.024 4.56-5.282 3.838 4.446 13.186 4.256-6.65-3.42-10.374ZM83.446 366.03c1.976-2.166 4.37-3.458 7.334-3.458 5.434 0 6.574 4.484 5.814 8.056-1.064 4.978-4.826 7.98-9.158 7.98-2.736 0-4.788-1.216-5.928-3.686l-4.94 3.344c2.128 3.876 5.434 6.118 10.298 6.118 7.638 0 14.25-5.548 15.884-13.034 1.672-7.676-3.04-14.554-10.792-14.554-5.168 0-9.31 2.014-12.502 5.434l3.99 3.8Zm15.124 1.9H87.018l-1.14 5.32H97.43l1.14-5.32Z" style="fill-rule:nonzero" transform="translate(-165.6 -903.1) scale(4.16667)"/><path d="m117.912 360.976-1.14 5.206c5.168-.19 7.486 1.596 6.688 5.548-.836 4.218-4.332 6.308-9.158 6.118l-1.14 5.244c8.474.19 14.782-4.256 16.188-11.096 1.368-6.65-3.534-11.21-11.438-11.02Zm-4.598 0c-8.474-.19-14.782 4.256-16.188 11.096-1.368 6.65 3.534 11.21 11.438 11.02l1.14-5.206c-5.168.19-7.486-1.596-6.688-5.548.836-4.218 4.332-6.308 9.158-6.118l1.14-5.244Zm6.156-3.876h-6.118l-6.232 29.336h6.118l6.232-29.336Z" style="fill-rule:nonzero" transform="translate(-165.6 -912.917) scale(4.16667)"/><path d="M137.064 366.03c1.976-2.166 4.37-3.458 7.334-3.458 5.434 0 6.574 4.484 5.814 8.056-1.064 4.978-4.826 7.98-9.158 7.98-2.736 0-4.788-1.216-5.928-3.686l-4.94 3.344c2.128 3.876 5.434 6.118 10.298 6.118 7.638 0 14.25-5.548 15.884-13.034 1.672-7.676-3.04-14.554-10.792-14.554-5.168 0-9.31 2.014-12.502 5.434l3.99 3.8Zm15.124 1.9h-11.552l-1.14 5.32h11.552l1.14-5.32Z" style="fill-rule:nonzero" transform="translate(-165.6 -903.1) scale(4.16667)"/><path d="m171.53 360.976-1.14 5.206c5.168-.19 7.486 1.596 6.688 5.548-.836 4.218-4.332 6.308-9.158 6.118l-1.14 5.244c8.474.19 14.782-4.256 16.188-11.096 1.368-6.65-3.534-11.21-11.438-11.02Zm-4.598 0c-8.474-.19-14.782 4.256-16.188 11.096-1.368 6.65 3.534 11.21 11.438 11.02l1.14-5.206c-5.168.19-7.486-1.596-6.688-5.548.836-4.218 4.332-6.308 9.158-6.118l1.14-5.244Zm6.156-3.876h-6.118l-6.232 29.336h6.118l6.232-29.336Zm24.7 3.876-1.14 5.206c5.168-.19 7.486 1.596 6.688 5.548-.836 4.218-4.332 6.308-9.158 6.118l-1.14 5.244c8.474.19 14.782-4.256 16.188-11.096 1.368-6.65-3.534-11.21-11.438-11.02Zm-4.598 0c-8.474-.19-14.782 4.256-16.188 11.096-1.368 6.65 3.534 11.21 11.438 11.02l1.14-5.206c-5.168.19-7.486-1.596-6.688-5.548.836-4.218 4.332-6.308 9.158-6.118l1.14-5.244Zm6.156-3.876h-6.118l-6.232 29.336h6.118l6.232-29.336Z" style="fill-rule:nonzero" transform="translate(-165.6 -912.917) scale(4.16667)"/><path d="M234.99 357.062h-9.69c-6.042 0-9.614 3.306-10.412 7.372-1.216 6.156 2.204 9.918 7.866 9.918h2.584l-2.128 9.69h6.08l5.7-26.98Zm-15.504 14.098-11.438 12.882 6.992.038 10.298-11.666-5.852-1.254Zm8.246-8.512-1.216 6.004h-3.192c-2.09 0-3.04-1.52-2.66-3.344.38-1.862 1.786-2.66 3.952-2.66h3.116Z" style="fill-rule:nonzero" transform="translate(-165.6 -902.942) scale(4.16667)"/><path d="M237.726 357.1h-8.512l-5.7 26.98h5.7l1.824-8.664h2.736c6.118 0 10.07-3.458 11.096-8.398 1.216-5.852-1.482-9.918-7.144-9.918Zm-1.254 5.7c2.166 0 3.154 1.216 2.66 3.458-.532 2.394-2.166 3.496-4.142 3.496h-2.736l1.482-6.954h2.736ZM286.898 356.796l-20.064 14.554 3.002-14.25h-9.69c-6.042 0-9.614 3.306-10.412 7.372-.797 4.033.396 7.038 2.906 8.632l-9.746 10.976h6.992l8.587-9.69h1.585l-2.116 9.994 20.064-14.554-2.964 14.25h6.08l5.776-27.284Zm-25.634 11.894h-3.094c-2.09 0-3.04-1.52-2.66-3.344.38-1.862 1.786-2.66 3.952-2.66h3.073l-1.271 6.004Z" style="fill-rule:nonzero" transform="translate(-165.6 -903.1) scale(4.16667)"/><path d="M311.332 357.062h-9.69c-6.042 0-9.614 3.306-10.412 7.372-1.216 6.156 2.204 9.918 7.866 9.918h2.584l-2.128 9.69h6.08l5.7-26.98Zm-15.504 14.098-11.438 12.882 6.992.038 10.298-11.666-5.852-1.254Zm8.246-8.512-1.216 6.004h-3.192c-2.09 0-3.04-1.52-2.66-3.344.38-1.862 1.786-2.66 3.952-2.66h3.116Z" style="fill-rule:nonzero" transform="translate(-165.6 -902.942) scale(4.16667)"/><path d="M316.69 367.702h-8.208l-1.216 5.7h8.208l1.216-5.7Zm11.552-10.906c-8.398 0-15.162 6.08-16.72 13.414-1.71 7.98 3.116 14.174 10.868 14.174 8.398 0 15.162-6.08 16.72-13.414 1.71-7.98-3.154-14.174-10.868-14.174Zm-1.14 5.776c4.446 0 6.726 3.534 5.814 7.866-.912 4.294-4.75 8.17-9.386 8.17-4.446 0-6.726-3.534-5.814-7.866.912-4.294 4.75-8.17 9.386-8.17Z" style="fill-rule:nonzero" transform="translate(-165.6 -903.1) scale(4.16667)"/><path d="m372.93 357.1-19.076 27.284h6.574l12.198-17.518h-2.736l4.18 17.518h6.384L372.93 357.1Zm-.684 18.164h-6.308l-3.496 4.94h11.172l-1.368-4.94Zm-9.614-17.86h-16.72l-5.7 26.98h16.72l1.216-5.89h-10.602l.988-4.75h8.36l1.216-5.738h-8.36l1.026-4.712h10.64l1.216-5.89Z" style="fill-rule:nonzero" transform="translate(-165.6 -904.367) scale(4.16667)"/><path d="M428.258 357.1H409.03l-4.104 19.266 5.7.342 3.04-13.908h7.296l-4.522 21.28h6.08l5.738-26.98Zm-23.332 19.266c-.494 1.824-1.976 2.28-4.446 2.28l-1.178 5.434c5.32 0 10.032-1.254 11.324-7.372l-5.7-.342Zm.152-19.266h-16.72l-5.7 26.98h16.72l1.102-5.434h-10.602l1.102-5.206h8.36l1.216-5.738h-8.36l1.026-4.712h10.64l1.216-5.89ZM476.746 357.1h-6.08l-5.7 26.98h6.08l5.7-26.98Zm-16.492 0h-6.08l-5.7 26.98h6.08l5.7-26.98Zm8.816 10.602h-11.628l-1.254 5.738h11.628l1.254-5.738Z" style="fill-rule:nonzero" transform="translate(-165.6 -903.1) scale(4.16667)"/><path d="M450.716 357.1h-16.72l-5.7 26.98h16.72l1.216-5.89H435.63l.988-4.75h15.96l1.216-5.738h-15.96l1.026-4.712h10.64l1.216-5.89ZM510.908 357.1h-8.892l-5.7 26.98h6.08l1.824-8.664h2.736c6.118 0 10.07-3.458 11.096-8.398 1.216-5.852-1.482-9.918-7.144-9.918Zm-1.254 5.7c2.166 0 3.154 1.216 2.66 3.458-.532 2.394-2.166 3.496-4.142 3.496h-2.736l1.482-6.954h2.736Z" style="fill-rule:nonzero" transform="translate(-165.6 -903.1) scale(4.16667)"/><path d="M498.596 357.1h-16.72l-5.7 26.98h16.72l1.216-5.89H483.51l.988-4.75h15.96l1.216-5.738h-15.96l1.026-4.712h10.64l1.216-5.89ZM558.37 375.15c-1.976 2.166-4.37 3.458-7.334 3.458-5.434 0-6.574-4.484-5.814-8.056.912-4.446 4.826-7.98 9.272-7.98 2.622 0 4.636 1.216 5.814 3.686l4.94-3.344c-2.128-3.876-5.054-6.118-9.918-6.118-8.018 0-14.744 6.08-16.34 13.414-1.672 7.676 2.736 14.174 10.868 14.174 5.168 0 9.31-2.014 12.502-5.434l-3.99-3.8Z" style="fill-rule:nonzero" transform="translate(-165.6 -903.1) scale(4.16667)"/><path d="M540.358 357.1h-16.72l-5.7 26.98h16.72l1.216-5.89h-10.602l.988-4.75h15.96l1.216-5.738h-15.96l1.026-4.712h10.64l1.216-5.89ZM605.908 357.1h-15.732l-5.7 26.98h6.08l4.522-21.09h9.576l1.254-5.89Z" style="fill-rule:nonzero" transform="translate(-165.6 -903.1) scale(4.16667)"/><path d="M586.68 357.1h-16.72l-5.7 26.98h16.72l1.216-5.89h-10.602l.988-4.75h15.96l1.216-5.738h-15.96l1.026-4.712h10.64l1.216-5.89ZM642.654 357.1h-16.72l-5.7 26.98h16.72l1.216-5.89h-10.602l.988-4.75h8.36l1.216-5.738h-8.36l1.026-4.712h10.64l1.216-5.89Zm-16.682 0h-16.72l-5.7 26.98h16.72l1.216-5.89h-10.602l.988-4.75h8.36l1.216-5.738h-8.36l1.026-4.712h10.64l1.216-5.89ZM663.478 357.1h-16.72l-5.7 26.98h16.72l1.216-5.89h-10.602l.988-4.75h8.36l1.216-5.738h-8.36l1.026-4.712h10.64l1.216-5.89Z" style="fill-rule:nonzero" transform="translate(-165.6 -903.1) scale(4.16667)"/><path d="M674.954 362.458h-6.194l-4.56 21.622h6.194l4.56-21.622Zm7.562-5.358h-19.38l-1.254 5.89h19.38l1.254-5.89ZM715.956 357.1h-10.032l-5.7 26.98h6.004l2.318-10.944h2.888l1.064-.874c4.408 0 9.006-2.736 9.918-7.144.912-4.332-1.786-8.018-6.46-8.018Zm-.494 11.666-4.864 4.37h3.268c1.634 0 2.584.95 2.242 2.698-.342 1.748-1.748 2.66-3.382 2.66h-6.536l-1.178 5.586h6.726c5.928 0 9.386-3.116 10.26-7.524.95-4.826-2.09-7.79-6.536-7.79Zm-1.178-6.118c2.014 0 2.584 1.216 2.242 2.698-.304 1.482-1.558 2.66-3.382 2.66h-3.496l1.14-5.358h3.496Zm-11.78-5.548h-16.72l-5.7 26.98h16.72l1.216-5.89h-10.602l.988-4.75h15.96l1.216-5.738h-15.96l1.026-4.712h10.64l1.216-5.89ZM773.64 356.796l-16.036 13.452-8.607-10.654-16.207 11.756 2.964-14.25h-6.08l-5.776 27.284 20.064-14.554-3.002 14.25h6.118l2.947-13.919 6.135 7.877 8.322-6.726-2.698 12.768h6.08l5.776-27.284Z" style="fill-rule:nonzero" transform="translate(-165.6 -903.1) scale(4.16667)"/><path d="M70.45 310.796 50.386 325.35l2.964-14.25h-6.08l-5.776 27.284 20.064-14.554-2.964 14.25h6.08l5.776-27.284Z" style="fill-rule:nonzero" transform="translate(-165.6 -519.767) scale(4.16667)"/><path d="M86.866 311.1h-6.08l-5.7 26.98h6.08l5.7-26.98Zm-7.676 10.602H67.562l-1.254 5.738h11.628l1.254-5.738Z" style="fill-rule:nonzero" transform="translate(-165.6 -519.767) scale(4.16667)"/><path d="M117.874 310.796h-3.117l-19.645 14.25 2.964-14.25h-6.08L86.22 338.08l20.064-14.554-.545 2.621-2.457 11.629h6.118l1.834-8.664h2.688c6.118 0 10.07-3.458 11.096-8.398 1.216-5.852-1.482-9.918-7.144-9.918Zm-2.736 12.654h-2.705l1.472-6.954h2.715c2.166 0 3.154 1.216 2.66 3.458-.532 2.394-2.166 3.496-4.142 3.496Z" style="fill-rule:nonzero" transform="translate(-165.6 -518.5) scale(4.16667)"/><path d="M162.03 329.15c-1.976 2.166-4.37 3.458-7.334 3.458-5.434 0-6.574-4.484-5.814-8.056.912-4.446 4.826-7.98 9.272-7.98 2.622 0 4.636 1.216 5.814 3.686l4.94-3.344c-2.128-3.876-5.054-6.118-9.918-6.118-8.018 0-14.744 6.08-16.34 13.414-1.672 7.676 2.736 14.174 10.868 14.174 5.168 0 9.31-2.014 12.502-5.434l-3.99-3.8Z" style="fill-rule:nonzero" transform="translate(-165.6 -519.767) scale(4.16667)"/><path d="m149.604 313.532-15.884 11.514 2.964-14.25h-6.08l-5.776 27.284 20.064-14.554 4.712-9.994ZM205.046 316.686l1.254-5.89h-9.918l-19.646 14.25 2.964-14.25h-6.08l-5.776 27.284 20.029-14.529-3.005 14.225h6.156l4.465-21.09h9.557ZM243.388 310.796h-10.982l-19.646 14.25 2.964-14.25h-6.08l-5.776 27.284 20.026-14.516-3.002 14.212h16.796l1.216-5.89h-10.602l.989-4.75h8.359l1.216-5.738h-8.36l1.026-4.712h10.64l1.216-5.89Z" style="fill-rule:nonzero" transform="translate(-165.6 -518.5) scale(4.16667)"/><path d="m287.658 310.796-20.064 14.554 3.078-14.554-20.064 14.554 2.964-14.25h-6.08l-5.776 27.284 20.06-14.551-3.074 14.551 20.064-14.554-2.964 14.25h6.08l5.776-27.284ZM315.892 310.796l-20.064 14.554 2.964-14.25h-6.08l-5.776 27.284L307 323.83l-2.964 14.25h6.08l5.776-27.284Z" style="fill-rule:nonzero" transform="translate(-165.6 -519.767) scale(4.16667)"/><path d="M321.174 321.702h-8.208l-1.216 5.7h8.208l1.216-5.7Zm11.552-10.906c-8.398 0-15.162 6.08-16.72 13.414-1.71 7.98 3.116 14.174 10.868 14.174 8.398 0 15.162-6.08 16.72-13.414 1.71-7.98-3.154-14.174-10.868-14.174Zm-1.14 5.776c4.446 0 6.726 3.534 5.814 7.866-.912 4.294-4.75 8.17-9.386 8.17-4.446 0-6.726-3.534-5.814-7.866.912-4.294 4.75-8.17 9.386-8.17ZM373.576 310.796l-20.064 14.554 2.964-14.25h-6.08l-5.776 27.284 20.064-14.554-2.964 14.25h6.08l5.776-27.284Z" style="fill-rule:nonzero" transform="translate(-165.6 -519.767) scale(4.16667)"/><path d="m376.958 324.248-7.068.266 8.436 13.566h6.992l-8.36-13.832Zm12.958-13.148h-7.372l-12.54 13.87 7.144-.228 12.768-13.642Z" style="fill-rule:nonzero" transform="translate(-165.6 -519.767) scale(4.16667)"/><path d="M431.602 310.796h-16.188l-19.646 14.25 2.964-14.25h-6.08l-5.776 27.284 20.026-14.516-3.002 14.212h6.156l4.522-21.28h9.804l-4.56 21.28h6.08l5.7-26.98Z" style="fill-rule:nonzero" transform="translate(-165.6 -518.5) scale(4.16667)"/><path d="m476.898 318.244-20.064 14.554 3.078-14.554-20.064 14.554 2.964-14.25h-6.08l-5.776 27.284 20.06-14.551-3.074 14.551 20.064-14.554-2.964 14.25h6.08l5.776-27.284Zm-2.356-7.448h-4.674c-.19 1.672-.836 2.736-2.546 2.736-1.482 0-2.204-1.064-2.014-2.736h-4.674c-.836 4.56 2.128 6.688 5.928 6.688 3.952 0 7.448-2.09 7.98-6.688Z" style="fill-rule:nonzero" transform="translate(-165.6 -550.8) scale(4.16667)"/><path d="M509.084 310.796h-4.37l-19.646 14.25 2.964-14.25h-6.08l-5.776 27.284 20.026-14.516-3.002 14.212h11.666c5.928 0 9.386-3.116 10.26-7.524.619-3.142-.454-5.495-2.506-6.755 1.453-1.193 2.531-2.783 2.924-4.683.912-4.332-1.786-8.018-6.46-8.018Zm-5.136 5.548h3.464c2.014 0 2.584 1.216 2.242 2.698-.304 1.482-1.558 2.66-3.382 2.66h-3.496l1.108-5.209.064-.149Zm1.906 15.846h-5.315l1.135-5.358h5.32c1.634 0 2.584.95 2.242 2.698-.342 1.748-1.748 2.66-3.382 2.66Z" style="fill-rule:nonzero" transform="translate(-165.6 -518.5) scale(4.16667)"/><path d="m551.378 310.796-13.87 19.836h6.574l6.992-10.07h-2.736l4.18 17.518h6.384l-7.524-27.284Zm-.684 18.164h-6.308l-3.496 4.94h11.172l-1.368-4.94Zm-15.086-18.164c-8.398 0-15.162 6.08-16.72 13.414-1.71 7.98 3.116 14.174 10.868 14.174 8.398 0 15.162-6.08 16.72-13.414 1.71-7.98-3.154-14.174-10.868-14.174Zm-1.14 5.776c4.446 0 6.726 3.534 5.814 7.866-.912 4.294-4.75 8.17-9.386 8.17-4.446 0-6.726-3.534-5.814-7.866.912-4.294 4.75-8.17 9.386-8.17ZM579.612 310.796c-8.398 0-15.162 6.08-16.72 13.414-1.71 7.98 3.116 14.174 10.868 14.174 8.398 0 15.162-6.08 16.72-13.414 1.71-7.98-3.154-14.174-10.868-14.174Zm-1.14 5.776c4.446 0 6.726 3.534 5.814 7.866-.912 4.294-4.75 8.17-9.386 8.17-4.446 0-6.726-3.534-5.814-7.866.912-4.294 4.75-8.17 9.386-8.17Z" style="fill-rule:nonzero" transform="translate(-165.6 -519.767) scale(4.16667)"/><path d="m605.566 314.976-1.14 5.206c5.168-.19 7.486 1.596 6.688 5.548-.836 4.218-4.332 6.308-9.158 6.118l-1.14 5.244c8.474.19 14.782-4.256 16.188-11.096 1.368-6.65-3.534-11.21-11.438-11.02Zm-4.598 0c-8.474-.19-14.782 4.256-16.188 11.096-1.368 6.65 3.534 11.21 11.438 11.02l1.14-5.206c-5.168.19-7.486-1.596-6.688-5.548.836-4.218 4.332-6.308 9.158-6.118l1.14-5.244Zm6.156-3.876h-6.118l-6.232 29.336h6.118l6.232-29.336Z" style="fill-rule:nonzero" transform="translate(-165.6 -529.584) scale(4.16667)"/><path d="m668.76 310.796-16.036 13.452-7.714-9.538.114 9.424 6.156 7.904 8.322-6.726-2.698 12.768h6.08l5.776-27.284Zm-32.566 0c-8.398 0-15.162 6.08-16.72 13.414-1.71 7.98 3.116 14.174 10.868 14.174 8.398 0 15.162-6.08 16.72-13.414 1.71-7.98-3.154-14.174-10.868-14.174Zm-1.14 5.776c4.446 0 6.726 3.534 5.814 7.866-.912 4.294-4.75 8.17-9.386 8.17-4.446 0-6.726-3.534-5.814-7.866.912-4.294 4.75-8.17 9.386-8.17ZM716.868 311.1h-6.08l-5.7 26.98h6.08l5.7-26.98Zm-7.676 10.602h-11.628l-1.254 5.738h11.628l1.254-5.738Zm-22.572-10.906c-8.398 0-15.162 6.08-16.72 13.414-1.71 7.98 3.116 14.174 10.868 14.174 8.398 0 15.162-6.08 16.72-13.414 1.71-7.98-3.154-14.174-10.868-14.174Zm-1.14 5.776c4.446 0 6.726 3.534 5.814 7.866-.912 4.294-4.75 8.17-9.386 8.17-4.446 0-6.726-3.534-5.814-7.866.912-4.294 4.75-8.17 9.386-8.17ZM755.894 310.796c-8.018 0-14.744 6.08-16.34 13.414-1.672 7.676 2.736 14.174 10.868 14.174l1.178-5.776c-5.434 0-6.574-4.484-5.814-8.056.912-4.446 4.826-7.98 9.272-7.98l.836-5.776Zm3.04 18.354c-1.976 2.166-4.37 3.458-7.334 3.458l-1.178 5.776c4.522 0 9.31-2.014 12.502-5.434l-3.99-3.8Zm-3.04-18.354-.836 5.776c2.812 0 4.598 1.406 5.7 3.876l5.054-3.534c-2.128-3.876-5.054-6.118-9.918-6.118Zm-21.09 0c-8.398 0-15.162 6.08-16.72 13.414-1.71 7.98 3.116 14.174 10.868 14.174 8.398 0 15.162-6.08 16.72-13.414 1.71-7.98-3.154-14.174-10.868-14.174Zm-1.14 5.776c4.446 0 6.726 3.534 5.814 7.866-.912 4.294-4.75 8.17-9.386 8.17-4.446 0-6.726-3.534-5.814-7.866.912-4.294 4.75-8.17 9.386-8.17Z" style="fill-rule:nonzero" transform="translate(-165.6 -519.767) scale(4.16667)"/><path d="M60.076 264.796c-8.398 0-15.162 6.08-16.72 13.414-1.71 7.98 3.116 14.174 10.868 14.174 8.398 0 15.162-6.08 16.72-13.414 1.71-7.98-3.154-14.174-10.868-14.174Zm-1.14 5.776c4.446 0 6.726 3.534 5.814 7.866-.912 4.294-4.75 8.17-9.386 8.17-4.446 0-6.726-3.534-5.814-7.866.912-4.294 4.75-8.17 9.386-8.17Z" style="fill-rule:nonzero" transform="translate(-165.6 -136.434) scale(4.16667)"/><path d="M82.572 265.1h-16.72l1.102 12.844-6.802 14.136h16.72l1.216-5.89H66.726l1.748-4.75h8.36l1.216-5.738h-8.36l.266-4.712h11.4l1.216-5.89ZM99.482 264.796c-8.398 0-15.162 6.08-16.72 13.414-1.71 7.98 3.116 14.174 10.868 14.174 8.398 0 15.162-6.08 16.72-13.414 1.71-7.98-3.154-14.174-10.868-14.174Zm-1.14 5.776c4.446 0 6.726 3.534 5.814 7.866-.912 4.294-4.75 8.17-9.386 8.17-4.446 0-6.726-3.534-5.814-7.866.912-4.294 4.75-8.17 9.386-8.17Z" style="fill-rule:nonzero" transform="translate(-165.6 -136.434) scale(4.16667)"/><path d="m133.796 264.796-20.064 14.554 2.964-14.25h-6.08l-5.776 27.284 20.064-14.554-2.964 14.25h6.08l5.776-27.284ZM168.946 278.248l-7.068.266 8.436 13.566h6.992l-8.36-13.832Zm12.958-13.148h-7.372l-12.54 13.87 7.144-.228 12.768-13.642Zm-30.248-.304c-8.398 0-15.162 6.08-16.72 13.414-1.71 7.98 3.116 14.174 10.868 14.174 8.398 0 15.162-6.08 16.72-13.414 1.71-7.98-3.154-14.174-10.868-14.174Zm-1.14 5.776c4.446 0 6.726 3.534 5.814 7.866-.912 4.294-4.75 8.17-9.386 8.17-4.446 0-6.726-3.534-5.814-7.866.912-4.294 4.75-8.17 9.386-8.17ZM216.56 264.796c-8.398 0-15.162 6.08-16.72 13.414-1.71 7.98 3.154 14.174 10.868 14.174 8.398 0 15.162-6.08 16.72-13.414 1.71-7.98-3.116-14.174-10.868-14.174Zm-1.178 5.776c4.294 0 6.726 3.382 5.814 8.056-.912 4.256-4.18 7.98-9.31 7.98-5.624 0-6.726-4.446-5.814-8.056.912-4.446 4.826-7.98 9.31-7.98Zm-20.292-5.776c-8.398 0-15.162 6.08-16.72 13.414-1.71 7.98 3.116 14.174 10.868 14.174 8.398 0 15.162-6.08 16.72-13.414 1.71-7.98-3.154-14.174-10.868-14.174Zm-1.14 5.776c4.446 0 6.726 3.534 5.814 7.866-.912 4.294-4.75 8.17-9.386 8.17-4.446 0-6.726-3.534-5.814-7.866.912-4.294 4.75-8.17 9.386-8.17ZM247.036 264.796c-8.398 0-15.162 6.08-16.72 13.414-1.71 7.98 3.116 14.174 10.868 14.174 8.398 0 15.162-6.08 16.72-13.414 1.71-7.98-3.154-14.174-10.868-14.174Zm-1.14 5.776c4.446 0 6.726 3.534 5.814 7.866-.912 4.294-4.75 8.17-9.386 8.17-4.446 0-6.726-3.534-5.814-7.866.912-4.294 4.75-8.17 9.386-8.17Z" style="fill-rule:nonzero" transform="translate(-165.6 -136.434) scale(4.16667)"/><path d="M278.956 264.796h-4.674c-.19 1.672-.836 2.736-2.546 2.736-1.482 0-2.204-1.064-2.014-2.736h-4.674c-.836 4.56 2.128 6.688 5.928 6.688 3.952 0 7.448-2.09 7.98-6.688Zm2.394 7.448-20.064 14.554 2.964-14.25h-6.08l-5.776 27.284 20.064-14.554-2.964 14.25h6.08l5.776-27.284Z" style="fill-rule:nonzero" transform="translate(-165.6 -167.467) scale(4.16667)"/><path d="M299.21 258.108c-8.398 0-15.162 6.08-16.72 13.414-1.71 7.98 3.154 14.174 10.868 14.174 8.398 0 15.162-6.08 16.72-13.414 1.71-7.98-3.116-14.174-10.868-14.174Zm-1.178 5.776c4.294 0 6.726 3.382 5.814 8.056-.912 4.256-4.18 7.98-9.31 7.98-5.624 0-6.726-4.446-5.814-8.056.912-4.446 4.826-7.98 9.31-7.98Zm26.41 2.508h-6.346l-7.562 14.288 1.862-.152-2.128-13.376-6.004-.76 3.724 21.09.532-4.332-5.396 9.234h6.194l15.124-25.992Z" style="fill-rule:nonzero" transform="translate(-165.6 -108.567) scale(4.16667)"/><path d="M367.534 264.796 347.47 279.35l2.964-14.25h-6.08l-5.776 27.284 20.064-14.554-2.964 14.25h6.08l5.776-27.284Z" style="fill-rule:nonzero" transform="translate(-165.6 -136.434) scale(4.16667)"/><path d="M350.472 265.1h-21.964l-5.7 26.98h6.08l4.56-21.28h9.804l-4.56 21.28 7.676-7.638 4.104-19.342ZM394.552 265.1h-21.964l-5.7 26.98h6.08l4.56-21.28h9.804l-4.56 21.28h6.08l5.7-26.98ZM399.15 278.248l-7.068.266 8.436 13.566h6.992l-8.36-13.832Zm12.958-13.148h-7.372l-12.54 13.87 7.144-.228 12.768-13.642ZM446.118 265.1h-6.08l-4.522 21.28h-6.46l4.522-21.28h-6.08l-4.522 21.28h-6.498L421 265.1h-6.156l-5.662 26.98h31.236l5.7-26.98Z" style="fill-rule:nonzero" transform="translate(-165.6 -136.434) scale(4.16667)"/><path d="m449.576 278.248-7.068.266 8.436 13.566h6.992l-8.36-13.832Zm12.958-13.148h-7.372l-12.54 13.87 7.144-.228 12.768-13.642Z" style="fill-rule:nonzero" transform="translate(-165.6 -136.434) scale(4.16667)"/><path d="M486.056 264.796h-4.674c-.19 1.672-.836 2.736-2.546 2.736-1.482 0-2.204-1.064-2.014-2.736h-4.674c-.836 4.56 2.128 6.688 5.928 6.688 3.952 0 7.448-2.09 7.98-6.688Zm2.394 7.448-20.064 14.554 2.964-14.25h-6.08l-5.776 27.284 20.064-14.554-2.964 14.25h6.08l5.776-27.284Z" style="fill-rule:nonzero" transform="translate(-165.6 -167.467) scale(4.16667)"/><path d="m491.832 278.248-7.068.266 8.436 13.566h6.992l-8.36-13.832ZM504.79 265.1h-7.372l-12.54 13.87 7.144-.228L504.79 265.1ZM517.178 270.458h-6.194l-4.56 21.622h6.194l4.56-21.622Zm7.562-5.358h-19l-1.254 5.89h19l1.254-5.89Z" style="fill-rule:nonzero" transform="translate(-165.6 -136.434) scale(4.16667)"/><path d="M542.068 265.1h-17.404l-5.7 26.98h6.08l4.446-21.052h11.324l1.254-5.928Zm-10.716 15.466c2.204 0 3.23.95 2.812 2.926-.456 2.166-2.09 2.888-4.066 2.888h-3.876l1.254-5.814h3.876Zm-.608-15.466h-6.08l-5.7 26.98h10.374c5.282 0 9.5-2.622 10.678-8.474 1.026-5.13-2.166-8.702-6.954-8.702h-4.37l2.052-9.804Z" style="fill-rule:nonzero" transform="translate(-165.6 -136.434) scale(4.16667)"/><path d="M557.154 264.834h-6.194l-4.56 21.622h6.194l4.56-21.622Zm11.362-5.358h-22.8l-1.254 5.89h22.8l1.254-5.89Zm18.658 0h-19.228l-3.382 15.884c-.684 3.344-1.748 5.244-3.876 5.244h-1.026l-.228 1.14h6.612c2.622-1.748 3.61-2.812 4.788-8.322l1.748-8.246h7.296l-4.522 21.28h6.08l5.738-26.98Zm-.912 21.128H558.94l-2.432 11.476h5.852l1.178-5.624h15.618l-1.178 5.624h5.852l2.432-11.476Z" style="fill-rule:nonzero" transform="translate(-165.6 -113) scale(4.16667)"/><path d="M620.88 265.1h-6.08l-5.7 26.98h6.08l5.7-26.98Zm-7.676 10.64h-11.628l-1.254 5.7h11.628l1.254-5.7Zm-10.412-5.282h-6.194l-4.56 21.622h6.194l4.56-21.622Zm7.562-5.358h-19l-1.254 5.89h19l1.254-5.89ZM635.662 270.458h-6.194l-4.56 21.622h6.194l4.56-21.622Zm7.562-5.358h-19l-1.254 5.89h19l1.254-5.89Z" style="fill-rule:nonzero" transform="translate(-165.6 -136.434) scale(4.16667)"/><path d="M652.078 265.1h-8.892l-5.7 26.98h6.08l1.824-8.664h2.736c6.118 0 10.07-3.458 11.096-8.398 1.216-5.852-1.482-9.918-7.144-9.918Zm-1.254 5.7c2.166 0 3.154 1.216 2.66 3.458-.532 2.394-2.166 3.496-4.142 3.496h-2.736l1.482-6.954h2.736ZM674.46 270.458h-6.194l-4.56 21.622h6.194l4.56-21.622Zm7.562-5.358h-19l-1.254 5.89h19l1.254-5.89Z" style="fill-rule:nonzero" transform="translate(-165.6 -136.434) scale(4.16667)"/><path d="M698.704 265.1h-16.72l-5.7 26.98h16.72l1.216-5.89h-10.602l.988-4.75h8.36l1.216-5.738h-8.36l1.026-4.712h10.64l1.216-5.89ZM730.7 264.796l-20.064 14.554 2.964-14.25h-6.08l-5.776 27.284 20.064-14.554-2.964 14.25h6.08l5.776-27.284Zm-10.678.304h-19l-1.254 5.89h19l1.254-5.89ZM745.406 270.458h-6.194l-4.56 21.622h6.194l4.56-21.622Zm7.562-5.358h-19l-1.254 5.89h19l1.254-5.89Z" style="fill-rule:nonzero" transform="translate(-165.6 -136.434) scale(4.16667)"/><path d="M784.166 259.476h-6.08l-4.522 21.28h-6.46l4.522-21.28h-6.08l-4.522 21.28h-6.498l4.522-21.28h-6.118l-5.662 26.98h31.198l5.7-26.98Zm-1.026 21.28h-5.738l-2.546 11.324h5.852l2.432-11.324Z" style="fill-rule:nonzero" transform="translate(-165.6 -113) scale(4.16667)"/><path d="M72.692 224.458h-6.194l-4.56 21.622h6.194l4.56-21.622Zm7.562-5.358h-19L60 224.99h19l1.254-5.89Zm-23.332 5.358h-6.194l-4.56 21.622h6.194l4.56-21.622Zm7.562-5.358h-19l-1.254 5.89h19l1.254-5.89ZM93.174 224.458H86.98l-4.56 21.622h6.194l4.56-21.622Zm7.562-5.358h-19l-1.254 5.89h19l1.254-5.89Z" style="fill-rule:nonzero" transform="translate(-165.6 246.9) scale(4.16667)"/><path d="M110.73 219.1h-10.032l-5.7 26.98h6.004l2.318-10.944h2.888l1.064-.874c4.408 0 9.006-2.736 9.918-7.144.912-4.332-1.786-8.018-6.46-8.018Zm-.494 11.666-4.864 4.37h3.268c1.634 0 2.584.95 2.242 2.698-.342 1.748-1.748 2.66-3.382 2.66h-6.536l-1.178 5.586h6.726c5.928 0 9.386-3.116 10.26-7.524.95-4.826-2.09-7.79-6.536-7.79Zm-1.178-6.118c2.014 0 2.584 1.216 2.242 2.698-.304 1.482-1.558 2.66-3.382 2.66h-3.496l1.14-5.358h3.496Z" style="fill-rule:nonzero" transform="translate(-165.6 246.9) scale(4.16667)"/><path d="m146.222 226.434-14.516 8.968 2.28-10.716h6.422l1.254-5.89h-19l-1.254 5.89h6.384l-4.522 21.394 15.01-8.968-1.9 8.664h5.738l4.104-19.342Z" style="fill-rule:nonzero" transform="translate(-165.6 248.167) scale(4.16667)"/><path d="M177.572 237.15c-1.976 2.166-4.37 3.458-7.334 3.458-5.434 0-6.574-4.484-5.814-8.056.912-4.446 4.826-7.98 9.272-7.98 2.622 0 4.636 1.216 5.814 3.686l4.94-3.344c-2.128-3.876-5.054-6.118-9.918-6.118-8.018 0-14.744 6.08-16.34 13.414-1.672 7.676 2.736 14.174 10.868 14.174 5.168 0 9.31-2.014 12.502-5.434l-3.99-3.8Z" style="fill-rule:nonzero" transform="translate(-165.6 246.9) scale(4.16667)"/><path d="m165.868 228.714-5.168-2.318-12.768 19.684h6.612l11.324-17.366Zm-12.236-9.614h-6.574l7.258 21.584 4.256-6.65-4.94-14.934ZM199.194 219.1h-10.032l-5.7 26.98h6.004l2.318-10.944h2.888l1.064-.874c4.408 0 9.006-2.736 9.918-7.144.912-4.332-1.786-8.018-6.46-8.018Zm-.494 11.666-4.864 4.37h3.268c1.634 0 2.584.95 2.242 2.698-.342 1.748-1.748 2.66-3.382 2.66h-6.536l-1.178 5.586h6.726c5.928 0 9.386-3.116 10.26-7.524.95-4.826-2.09-7.79-6.536-7.79Zm-1.178-6.118c2.014 0 2.584 1.216 2.242 2.698-.304 1.482-1.558 2.66-3.382 2.66h-3.496l1.14-5.358h3.496Z" style="fill-rule:nonzero" transform="translate(-165.6 246.9) scale(4.16667)"/><path d="M210.48 218.758c-4.75 0-9.424 3.306-10.678 9.044-1.292 6.08 2.128 10.488 7.296 10.564 2.964.038 5.092-1.748 6.042-3.914l-.38-3.458c-1.14 1.482-2.736 2.052-4.066 2.052-2.166 0-3.724-1.52-3.192-4.37.57-2.926 2.812-4.56 4.94-4.56 1.292 0 2.698.608 3.458 1.748l1.596-5.244c-1.026-1.102-2.926-1.862-5.016-1.862Zm10.412.304h-5.738l-4.028 19h5.738l4.028-19Z" style="fill-rule:nonzero" transform="translate(-165.6 280.308) scale(4.16667)"/><path d="M237.422 219.1H227.39l-5.7 26.98h6.004l2.318-10.944h2.888l1.064-.874c4.408 0 9.006-2.736 9.918-7.144.912-4.332-1.786-8.018-6.46-8.018Zm-.494 11.666-4.864 4.37h3.268c1.634 0 2.584.95 2.242 2.698-.342 1.748-1.748 2.66-3.382 2.66h-6.536l-1.178 5.586h6.726c5.928 0 9.386-3.116 10.26-7.524.95-4.826-2.09-7.79-6.536-7.79Zm-1.178-6.118c2.014 0 2.584 1.216 2.242 2.698-.304 1.482-1.558 2.66-3.382 2.66h-3.496l1.14-5.358h3.496Z" style="fill-rule:nonzero" transform="translate(-165.6 246.9) scale(4.16667)"/><path d="M249.544 218.796c-5.852 0-10.374 4.332-11.514 9.5-1.254 5.852 2.356 10.108 8.17 10.108 5.852 0 10.374-4.332 11.514-9.5 1.254-5.852-2.356-10.108-8.17-10.108Zm-.722 5.358c2.394 0 3.686 1.862 3.192 4.37-.532 2.546-2.66 4.522-5.092 4.522-2.356 0-3.724-1.862-3.154-4.446.532-2.47 2.584-4.446 5.054-4.446Z" style="fill-rule:nonzero" transform="translate(-165.6 280.15) scale(4.16667)"/><path d="M272.116 218.758c-3.306 0-6.498 1.406-9.196 3.838l3.192 3.838c1.786-1.482 3.344-1.862 4.826-1.862 1.482 0 2.698.836 2.356 2.546-.38 1.748-1.862 2.66-4.218 2.66h-1.406l-1.064 4.94h3.382c1.976 0 2.888 1.33 2.508 3.116-.342 1.672-1.748 2.736-3.686 2.736-2.09 0-3.648-.836-4.902-2.622l-4.94 3.458c2.546 3.572 5.7 4.978 9.766 4.94 4.826-.038 8.892-3.116 9.728-7.03.836-3.838-.684-6.574-3.838-7.942l.152 1.026c2.508-1.482 3.952-3.344 4.37-5.358.836-4.028-1.254-8.284-7.03-8.284Z" style="fill-rule:nonzero" transform="translate(-165.6 247.058) scale(4.16667)"/><path d="M285.15 218.796c-6.27 0-10.64 4.142-11.742 9.082-1.368 6.118 2.85 10.526 7.638 10.526 3.952 0 6.65-1.33 9.348-4.408l-3.686-3.116c-1.064 1.406-2.85 2.28-4.864 2.28-2.09 0-3.648-1.672-2.964-4.864.722-3.458 3.154-4.864 5.396-4.864 1.786 0 2.926.912 2.85 2.85h-9.006l-.646 3.344h14.212c.19-.57.342-1.14.456-1.672 1.178-5.434-2.242-9.158-6.992-9.158Z" style="fill-rule:nonzero" transform="translate(-165.6 280.15) scale(4.16667)"/><path d="M305.176 218.758c-4.75 0-9.424 3.306-10.678 9.044-1.292 6.08 2.128 10.488 7.296 10.564 2.964.038 5.092-1.748 6.042-3.914l-.38-3.458c-1.14 1.482-2.736 2.052-4.066 2.052-2.166 0-3.724-1.52-3.192-4.37.57-2.926 2.812-4.56 4.94-4.56 1.292 0 2.698.608 3.458 1.748l1.596-5.244c-1.026-1.102-2.926-1.862-5.016-1.862Zm10.412.304h-5.738l-4.028 19h5.738l4.028-19Z" style="fill-rule:nonzero" transform="translate(-165.6 280.308) scale(4.16667)"/><path d="M328.204 219.1h-5.738l-1.482 7.03h-6.916l-1.064 4.94h6.916l-1.482 7.03h5.738l4.028-19ZM343.328 235.44l2.508-14.06c-1.406-1.824-3.61-2.584-6.46-2.584-2.014 0-4.104.38-6.042 1.064l-.342 5.054c1.216-.646 3.192-1.14 4.978-1.14 2.394 0 4.066.912 3.686 3.686-1.178-.684-2.66-1.026-4.294-1.026-3.952 0-7.638 2.014-8.474 5.928-.798 3.724 1.672 6.042 6.384 6.042 2.926 0 5.624-.912 8.056-2.964Zm-5.89-5.092c1.406 0 2.584.304 3.42.874l-.228 1.064c-1.14 1.064-2.736 1.558-4.066 1.52-1.406-.038-2.318-.684-2.052-1.862.266-1.254 1.52-1.596 2.926-1.596Zm15.922-11.552c-6.27 0-10.64 4.142-11.742 9.082-1.368 6.118 2.584 10.526 8.056 10.526 3.002 0 6.232-1.33 8.93-4.408l-3.686-3.116c-1.064 1.406-2.85 2.28-4.56 2.28-2.356 0-3.952-1.672-3.268-4.864.722-3.458 3.154-4.864 5.396-4.864 1.786 0 2.926.912 2.85 2.85h-9.006l-.646 3.344h14.212c.19-.57.342-1.14.456-1.672 1.178-5.434-2.242-9.158-6.992-9.158Z" style="fill-rule:nonzero" transform="translate(-165.6 280.15) scale(4.16667)"/><path d="m396.566 218.72-14.668 9.082 1.938-8.74h-5.738l-4.142 19.38 14.668-9.044-1.9 8.664h5.738l4.104-19.342Z" style="fill-rule:nonzero" transform="translate(-165.6 280.308) scale(4.16667)"/><path d="M373.386 218.758c-4.75 0-9.424 3.306-10.678 9.044-1.292 6.08 2.128 10.488 7.296 10.564 2.964.038 5.092-1.748 6.042-3.914l-.38-3.458c-1.14 1.482-2.736 2.052-4.066 2.052-2.166 0-3.724-1.52-3.192-4.37.57-2.926 2.812-4.56 4.94-4.56 1.292 0 2.698.608 3.458 1.748l1.596-5.244c-1.026-1.102-2.926-1.862-5.016-1.862Zm10.412.304h-5.738l-4.028 19 6.612-4.332 3.154-14.668Z" style="fill-rule:nonzero" transform="translate(-165.6 280.308) scale(4.16667)"/><path d="M432.628 218.72h-4.294c-.456 2.128-1.596 3.23-3.192 3.23s-2.584-1.102-2.128-3.23h-4.294c-.95 4.56 1.976 6.688 5.89 6.688 3.914 0 7.068-2.128 8.018-6.688Zm-.646 7.638-14.668 9.082 1.938-8.74h-5.738l-4.142 19.38 14.668-9.044-1.9 8.664h5.738l4.104-19.342Z" style="fill-rule:nonzero" transform="translate(-165.6 248.483) scale(4.16667)"/><path d="M408.802 218.758c-4.75 0-9.424 3.306-10.678 9.044-1.292 6.08 2.128 10.488 7.296 10.564 2.964.038 5.092-1.748 6.042-3.914l-.38-3.458c-1.14 1.482-2.736 2.052-4.066 2.052-2.166 0-3.724-1.52-3.192-4.37.57-2.926 2.812-4.56 4.94-4.56 1.292 0 2.698.608 3.458 1.748l1.596-5.244c-1.026-1.102-2.926-1.862-5.016-1.862Zm10.412.304h-5.738l-4.028 19 6.612-4.332 3.154-14.668Z" style="fill-rule:nonzero" transform="translate(-165.6 280.308) scale(4.16667)"/><path d="m447.03 235.44 2.508-14.06c-1.406-1.824-3.61-2.584-6.46-2.584-2.014 0-4.104.38-6.042 1.064l-.342 5.054c1.216-.646 3.192-1.14 4.978-1.14 2.394 0 4.066.912 3.686 3.686-1.178-.684-2.66-1.026-4.294-1.026-3.952 0-7.638 2.014-8.474 5.928-.798 3.724 1.672 6.042 6.384 6.042 2.926 0 5.624-.912 8.056-2.964Zm-5.89-5.092c1.406 0 2.584.304 3.42.874l-.228 1.064c-1.14 1.064-2.736 1.558-4.066 1.52-1.406-.038-2.318-.684-2.052-1.862.266-1.254 1.52-1.596 2.926-1.596Zm15.922-11.552c-6.27 0-10.64 4.142-11.742 9.082-1.368 6.118 2.584 10.526 8.056 10.526 3.002 0 6.232-1.33 8.93-4.408l-3.686-3.116c-1.064 1.406-2.85 2.28-4.56 2.28-2.356 0-3.952-1.672-3.268-4.864.722-3.458 3.154-4.864 5.396-4.864 1.786 0 2.926.912 2.85 2.85h-9.006l-.646 3.344h14.212c.19-.57.342-1.14.456-1.672 1.178-5.434-2.242-9.158-6.992-9.158Z" style="fill-rule:nonzero" transform="translate(-165.6 280.15) scale(4.16667)"/><path d="M462.116 239.886c-2.052 0-3.23 1.368-3.458 3.04-.228 1.672.95 3.04 2.622 3.04 2.052 0 3.23-1.368 3.458-3.04.228-1.672-.95-3.04-2.622-3.04Zm-9.044 0c-2.052 0-3.23 1.368-3.458 3.04-.228 1.672.95 3.04 2.622 3.04 2.052 0 3.23-1.368 3.458-3.04.228-1.672-.95-3.04-2.622-3.04Z" style="fill-rule:nonzero" transform="translate(-165.6 160.767) scale(4.16667)"/><path d="M477.088 218.758c-4.75 0-9.424 3.306-10.678 9.044-1.292 6.08 2.128 10.488 7.296 10.564 2.964.038 5.092-1.748 6.042-3.914l-.38-3.458c-1.14 1.482-2.736 2.052-4.066 2.052-2.166 0-3.724-1.52-3.192-4.37.57-2.926 2.812-4.56 4.94-4.56 1.292 0 2.698.608 3.458 1.748l1.596-5.244c-1.026-1.102-2.926-1.862-5.016-1.862Zm10.412.304h-5.738l-4.028 19h5.738l4.028-19Z" style="fill-rule:nonzero" transform="translate(-165.6 280.308) scale(4.16667)"/><path d="M500.306 218.796c-5.852 0-10.374 4.332-11.514 9.5-1.254 5.852 2.356 10.108 8.17 10.108 5.852 0 10.374-4.332 11.514-9.5 1.254-5.852-2.356-10.108-8.17-10.108Zm-14.364 7.334-1.14 4.94h7.068l1.064-4.94h-6.992Zm13.642-1.976c2.394 0 3.686 1.862 3.192 4.37-.532 2.546-2.66 4.522-5.092 4.522-2.356 0-3.724-1.862-3.154-4.446.532-2.47 2.584-4.446 5.054-4.446Z" style="fill-rule:nonzero" transform="translate(-165.6 280.15) scale(4.16667)"/><path d="M522.118 218.758c-4.75 0-9.424 3.306-10.678 9.044-1.292 6.08 2.128 10.488 7.296 10.564 2.964.038 5.092-1.748 6.042-3.914l-.38-3.458c-1.14 1.482-2.736 2.052-4.066 2.052-2.166 0-3.724-1.52-3.192-4.37.57-2.926 2.812-4.56 4.94-4.56 1.292 0 2.698.608 3.458 1.748l1.596-5.244c-1.026-1.102-2.926-1.862-5.016-1.862Zm10.412.304h-5.738l-4.028 19h5.738l4.028-19Z" style="fill-rule:nonzero" transform="translate(-165.6 280.308) scale(4.16667)"/><path d="M536.672 227.802h-6.498l5.738 10.298h6.726l-5.966-10.298Zm9.044-8.702h-7.258l-8.284 9.234h6.65l8.892-9.234Z" style="fill-rule:nonzero" transform="translate(-165.6 280.15) scale(4.16667)"/><path d="M559.016 218.758c-4.75 0-9.424 3.306-10.678 9.044-1.292 6.08 2.128 10.488 7.296 10.564 2.964.038 5.092-1.748 6.042-3.914l-.38-3.458c-1.14 1.482-2.736 2.052-4.066 2.052-2.166 0-3.724-1.52-3.192-4.37.57-2.926 2.812-4.56 4.94-4.56 1.292 0 2.698.608 3.458 1.748l1.596-5.244c-1.026-1.102-2.926-1.862-5.016-1.862Zm10.412.304h-5.738l-4.028 19h5.738l4.028-19Z" style="fill-rule:nonzero" transform="translate(-165.6 280.308) scale(4.16667)"/><path d="M581.702 219.1H563.69l-4.028 19h5.738l2.964-14.022h6.536l-2.964 14.022h5.738l4.028-19Z" style="fill-rule:nonzero" transform="translate(-165.6 280.15) scale(4.16667)"/><path d="M594.014 218.758c-4.75 0-9.424 3.306-10.678 9.044-1.292 6.08 2.128 10.488 7.296 10.564 2.964.038 5.092-1.748 6.042-3.914l-.38-3.458c-1.14 1.482-2.736 2.052-4.066 2.052-2.166 0-3.724-1.52-3.192-4.37.57-2.926 2.812-4.56 4.94-4.56 1.292 0 2.698.608 3.458 1.748l1.596-5.244c-1.026-1.102-2.926-1.862-5.016-1.862Zm10.412.304h-5.738l-4.028 19h5.738l4.028-19Z" style="fill-rule:nonzero" transform="translate(-165.6 280.308) scale(4.16667)"/><path d="M624.414 219.1h-5.738l-3.002 14.06h-4.256l3.002-14.06h-5.738l-3.002 14.06h-4.256l3.002-14.06h-5.738l-4.028 19h25.726l4.028-19Z" style="fill-rule:nonzero" transform="translate(-165.6 280.15) scale(4.16667)"/><path d="M636.726 218.758c-4.75 0-9.424 3.306-10.678 9.044-1.292 6.08 2.128 10.488 7.296 10.564 2.964.038 5.092-1.748 6.042-3.914l-.38-3.458c-1.14 1.482-2.736 2.052-4.066 2.052-2.166 0-3.724-1.52-3.192-4.37.57-2.926 2.812-4.56 4.94-4.56 1.292 0 2.698.608 3.458 1.748l1.596-5.244c-1.026-1.102-2.926-1.862-5.016-1.862Zm10.412.304H641.4l-4.028 19h5.738l4.028-19Z" style="fill-rule:nonzero" transform="translate(-165.6 280.308) scale(4.16667)"/><path d="M656.866 223.508h-5.738L648.05 238.1h5.738l3.078-14.592Zm6.27-4.408H647.1l-1.026 4.902h15.998l1.064-4.902Z" style="fill-rule:nonzero" transform="translate(-165.6 280.15) scale(4.16667)"/><path d="M684.91 218.796h-7.98c-7.22 0-11.476 4.864-13.224 13.338l-.304 1.482c-1.71 8.284 1.862 12.464 8.132 12.464 5.624 0 9.766-3.99 10.944-9.804h-5.814c-.646 3.078-2.66 4.446-4.788 4.446-2.394 0-3.952-1.748-3.116-5.472l1.33-6.004c.646-3.534 2.888-5.434 6.688-5.434h5.852l2.28-5.016Zm-9.272 7.98c-1.862 0-4.142.608-5.434 1.786l-1.292 5.472c1.14-1.368 2.66-2.128 4.522-2.128 2.736 0 3.724 1.634 3.23 4.37h5.814c1.064-5.092-1.824-9.5-6.84-9.5Z" style="fill-rule:nonzero" transform="translate(-165.6 248.167) scale(4.16667)"/><path d="M687.532 218.758c-4.75 0-9.424 3.306-10.678 9.044-1.292 6.08 2.128 10.488 7.296 10.564 2.964.038 5.092-1.748 6.042-3.914l-.38-3.458c-1.14 1.482-2.736 2.052-4.066 2.052-2.166 0-3.724-1.52-3.192-4.37.57-2.926 2.812-4.56 4.94-4.56 1.292 0 2.698.608 3.458 1.748l1.596-5.244c-1.026-1.102-2.926-1.862-5.016-1.862Zm10.412.304h-5.738l-4.028 19h5.738l4.028-19Z" style="fill-rule:nonzero" transform="translate(-165.6 280.308) scale(4.16667)"/><path d="M721.39 218.796h-7.98c-7.22 0-11.476 4.864-13.224 13.338l-.304 1.482c-1.71 8.284 1.862 12.464 8.132 12.464 5.624 0 9.766-3.99 10.944-9.804h-5.814c-.646 3.078-2.66 4.446-4.788 4.446-2.394 0-3.952-1.748-3.116-5.472l1.33-6.004c.646-3.534 2.888-5.434 6.688-5.434h5.852l2.28-5.016Zm-9.272 7.98c-1.862 0-4.142.608-5.434 1.786l-1.292 5.472c1.14-1.368 2.66-2.128 4.522-2.128 2.736 0 3.724 1.634 3.23 4.37h5.814c1.064-5.092-1.824-9.5-6.84-9.5Z" style="fill-rule:nonzero" transform="translate(-165.6 248.167) scale(4.16667)"/><path d="M733.132 212.108h-5.548l-7.22 33.972h5.548l7.22-33.972Zm-7.144 7.676c-6.802 0-11.362 3.534-12.578 9.044-1.368 6.194 2.736 10.564 8.474 10.564l1.064-5.206c-2.964 0-4.598-1.52-3.952-4.75.57-2.812 3.002-4.446 5.928-4.446l1.064-5.206Zm5.434 0-1.064 5.206c2.964 0 4.598 1.52 3.952 4.75-.57 2.812-3.002 4.446-5.928 4.446l-1.064 5.206c6.802 0 11.362-3.534 12.578-9.044 1.368-6.194-2.736-10.564-8.474-10.564Z" style="fill-rule:nonzero" transform="translate(-165.6 276.033) scale(4.16667)"/><path d="M764.52 218.796h-7.98c-7.22 0-11.476 4.864-13.224 13.338l-.304 1.482c-1.71 8.284 1.862 12.464 8.132 12.464 5.624 0 9.766-3.99 10.944-9.804h-5.814c-.646 3.078-2.66 4.446-4.788 4.446-2.394 0-3.952-1.748-3.116-5.472l1.33-6.004c.646-3.534 2.888-5.434 6.688-5.434h5.852l2.28-5.016Zm-9.272 7.98c-1.862 0-4.142.608-5.434 1.786l-1.292 5.472c1.14-1.368 2.66-2.128 4.522-2.128 2.736 0 3.724 1.634 3.23 4.37h5.814c1.064-5.092-1.824-9.5-6.84-9.5Z" style="fill-rule:nonzero" transform="translate(-165.6 248.167) scale(4.16667)"/><path d="M767.94 218.796c-5.89 0-10.412 4.332-11.552 9.538-1.254 5.814 2.356 10.07 8.17 10.07 3.572 0 6.688-1.634 8.968-4.484l-3.99-3.116c-1.026 1.444-2.546 2.242-4.256 2.242-2.432 0-3.648-2.014-3.154-4.446.494-2.47 2.584-4.446 5.054-4.446 1.368 0 2.888.608 3.42 2.014l4.94-2.698c-1.254-2.85-3.762-4.674-7.6-4.674Z" style="fill-rule:nonzero" transform="translate(-165.6 280.15) scale(4.16667)"/><path d="M64.218 172.796h-7.98c-7.22 0-11.476 4.864-13.224 13.338l-.304 1.482C41 195.9 44.572 200.08 50.842 200.08c5.624 0 9.766-3.99 10.944-9.804h-5.814c-.646 3.078-2.66 4.446-4.788 4.446-2.394 0-3.952-1.748-3.116-5.472l1.33-6.004c.646-3.534 2.888-5.434 6.688-5.434h5.852l2.28-5.016Zm-9.272 7.98c-1.862 0-4.142.608-5.434 1.786l-1.292 5.472c1.14-1.368 2.66-2.128 4.522-2.128 2.736 0 3.724 1.634 3.23 4.37h5.814c1.064-5.092-1.824-9.5-6.84-9.5Z" style="fill-rule:nonzero" transform="translate(-165.6 631.5) scale(4.16667)"/><path d="M68.094 172.796c-6.27 0-10.64 4.142-11.742 9.082-1.368 6.118 2.85 10.526 7.638 10.526 3.952 0 6.65-1.33 9.348-4.408l-3.686-3.116c-1.064 1.406-2.85 2.28-4.864 2.28-2.09 0-3.648-1.672-2.964-4.864.722-3.458 3.154-4.864 5.396-4.864 1.786 0 2.926.912 2.85 2.85h-9.006l-.646 3.344H74.63c.19-.57.342-1.14.456-1.672 1.178-5.434-2.242-9.158-6.992-9.158Z" style="fill-rule:nonzero" transform="translate(-165.6 663.484) scale(4.16667)"/><path d="M99.254 172.796h-7.98c-7.22 0-11.476 4.864-13.224 13.338l-.304 1.482c-1.71 8.284 1.862 12.464 8.132 12.464 5.624 0 9.766-3.99 10.944-9.804h-5.814c-.646 3.078-2.66 4.446-4.788 4.446-2.394 0-3.952-1.748-3.116-5.472l1.33-6.004c.646-3.534 2.888-5.434 6.688-5.434h5.852l2.28-5.016Zm-9.272 7.98c-1.862 0-4.142.608-5.434 1.786l-1.292 5.472c1.14-1.368 2.66-2.128 4.522-2.128 2.736 0 3.724 1.634 3.23 4.37h5.814c1.064-5.092-1.824-9.5-6.84-9.5Z" style="fill-rule:nonzero" transform="translate(-165.6 631.5) scale(4.16667)"/><path d="M102.598 172.796c-5.852 0-10.374 4.332-11.514 9.5-1.254 5.852 2.356 10.108 8.17 10.108 5.852 0 10.374-4.332 11.514-9.5 1.254-5.852-2.356-10.108-8.17-10.108Zm-.722 5.358c2.394 0 3.686 1.862 3.192 4.37-.532 2.546-2.66 4.522-5.092 4.522-2.356 0-3.724-1.862-3.154-4.446.532-2.47 2.584-4.446 5.054-4.446Z" style="fill-rule:nonzero" transform="translate(-165.6 663.484) scale(4.16667)"/><path d="M135.544 172.796h-7.98c-7.22 0-11.476 4.864-13.224 13.338l-.304 1.482c-1.71 8.284 1.862 12.464 8.132 12.464 5.624 0 9.766-3.99 10.944-9.804h-5.814c-.646 3.078-2.66 4.446-4.788 4.446-2.394 0-3.952-1.748-3.116-5.472l1.33-6.004c.646-3.534 2.888-5.434 6.688-5.434h5.852l2.28-5.016Zm-9.272 7.98c-1.862 0-4.142.608-5.434 1.786l-1.292 5.472c1.14-1.368 2.66-2.128 4.522-2.128 2.736 0 3.724 1.634 3.23 4.37h5.814c1.064-5.092-1.824-9.5-6.84-9.5Z" style="fill-rule:nonzero" transform="translate(-165.6 631.5) scale(4.16667)"/><path d="M146.526 166.108h-6.346l-7.562 14.288 1.862-.152-1.254-7.98-6.878-6.156 3.724 21.09.532-4.332-5.396 9.234h6.194l15.124-25.992Z" style="fill-rule:nonzero" transform="translate(-165.6 692.617) scale(4.16667)"/><path d="m178.066 172.72-14.668 9.082 1.938-8.74h-5.738l-4.142 19.38 14.668-9.044-1.9 8.664h5.738l4.104-19.342Z" style="fill-rule:nonzero" transform="translate(-165.6 663.642) scale(4.16667)"/><path d="M153.86 178.534h-5.738l-1.14 4.978c-1.368 5.966 2.318 8.588 6.688 8.55a12.647 12.647 0 0 0 5.054-1.216l1.178-4.75c-1.634.798-2.888 1.178-4.522 1.178-2.128 0-3.192-1.14-2.622-3.686l1.102-5.054Z" style="fill-rule:nonzero" transform="translate(-165.6 640.842) scale(4.16667)"/><path d="M200.258 168.616h-15.542l-2.356 10.982c-.38 1.9-1.596 3.002-3.268 3.002l-.304 1.444h5.472c2.204-1.596 3.116-3.306 3.762-6.346l.874-4.066h4.56l-3.002 13.984h5.738l4.066-19Zm-.266 13.984h-21.774l-2.014 9.5h5.054l.95-4.484h11.666l-.95 4.484h5.054l2.014-9.5Z" style="fill-rule:nonzero" transform="translate(-165.6 682.167) scale(4.16667)"/><path d="M219.942 173.1h-15.58l-2.584 12.008c-.342 1.672-1.52 1.976-3.458 1.976l-1.026 5.016c5.548 0 8.55-1.368 9.5-5.852l1.748-8.132h4.598l-3.002 13.984h5.738l4.066-19Z" style="fill-rule:nonzero" transform="translate(-165.6 663.484) scale(4.16667)"/><path d="m254.484 172.72-14.668 9.082 1.938-8.74h-5.738l-4.142 19.38 14.668-9.044-1.9 8.664h5.738l4.104-19.342Z" style="fill-rule:nonzero" transform="translate(-165.6 663.642) scale(4.16667)"/><path d="M241.754 172.036h-15.58l-2.584 12.008c-.418 1.9-1.52 2.584-3.458 2.318l-1.026 4.674c4.94 1.064 8.626-1.748 9.5-5.852l1.748-8.132h4.598l-3.002 13.984 6.612-4.104 3.192-14.896Z" style="fill-rule:nonzero" transform="translate(-165.6 667.917) scale(4.16667)"/><path d="M287.278 166.108h-6.346l-7.562 14.288 1.862-.152-2.242-14.136h-5.89l3.724 21.09.532-4.332-5.396 9.234h6.194l15.124-25.992Z" style="fill-rule:nonzero" transform="translate(-165.6 692.617) scale(4.16667)"/><path d="M271.66 172.036h-11.02l-2.584 12.008c-.418 1.9-1.52 2.584-3.458 2.318l-1.026 4.674c4.94 1.064 8.626-1.748 9.5-5.852l1.748-8.132h4.598l2.242-5.016Z" style="fill-rule:nonzero" transform="translate(-165.6 667.917) scale(4.16667)"/><path d="M323.872 166.108h-6.346l-7.562 14.288 1.71-.152-2.09-14.136-5.282 3.344 3.23 17.746.418-4.332-5.396 9.234h6.194l15.124-25.992Zm-28.538 0h-4.446l-7.258 19h5.434l4.636-12.122-2.166-.646 4.028 12.768h1.634l1.368-7.676-3.23-11.324Zm14.25 0h-3.382l-7.638 11.324-1.368 7.676h1.596l8.17-12.008-2.052-.114 4.864 12.122-.19-19Z" style="fill-rule:nonzero" transform="translate(-165.6 692.617) scale(4.16667)"/><path d="M344.316 173.1h-5.738l-1.482 7.03h-6.916l1.482-7.03h-5.738l-4.028 19h5.738l1.482-7.03h6.916l-1.482 7.03h5.738l4.028-19Zm12.654 0h-5.738l-1.482 7.03h-6.916l1.482-7.03h-5.738l-4.028 19h5.738l1.482-7.03h6.916l-1.482 7.03h5.738l4.028-19ZM379.846 173.1h-5.738l-1.482 7.03h-6.916l1.482-7.03h-5.738l-4.028 19h5.738l1.482-7.03h6.916l-1.482 7.03h5.738l4.028-19Z" style="fill-rule:nonzero" transform="translate(-165.6 663.484) scale(4.16667)"/><path d="M386.876 173.1H374.07l-4.028 19h5.738l2.964-14.022h7.068l1.064-4.978Z" style="fill-rule:nonzero" transform="translate(-165.6 663.484) scale(4.16667)"/><path d="m420.202 172.72-14.668 9.082 1.938-8.74h-5.738l-4.142 19.38 14.668-9.044-1.9 8.664h5.738l4.104-19.342Z" style="fill-rule:nonzero" transform="translate(-165.6 663.642) scale(4.16667)"/><path d="m399.188 185.07 1.064-4.94h-6.916l1.482-7.03h-5.738l-4.028 19h5.738l1.482-7.03h6.916ZM442.014 173.1h-5.776l-4.028 19h5.776l4.028-19Zm4.142 8.702h-6.498l5.738 10.298h6.726l-5.966-10.298Zm9.044-8.702h-7.258l-8.284 9.234h6.65l8.892-9.234Z" style="fill-rule:nonzero" transform="translate(-165.6 663.484) scale(4.16667)"/><path d="m433.73 185.07 1.064-4.94h-6.916l1.482-7.03h-5.738l-4.028 19h5.738l1.482-7.03h6.916ZM476.328 173.1h-5.738l-1.482 7.03h-6.916l1.482-7.03h-5.738l-4.028 19h5.738l1.482-7.03h6.916l-1.482 7.03h5.738l4.028-19Z" style="fill-rule:nonzero" transform="translate(-165.6 663.484) scale(4.16667)"/><path d="M487.994 168.616h-5.738l-2.964 14.098h-5.966l2.964-14.098h-5.738l-4.028 19h17.442l4.028-19Zm-.342 13.984h-5.054l-2.014 9.5h5.054l2.014-9.5Z" style="fill-rule:nonzero" transform="translate(-165.6 682.167) scale(4.16667)"/><path d="M512.58 173.1h-5.738l-1.482 7.03h-6.916l1.482-7.03h-5.738l-4.028 19h5.738l1.482-7.03h6.916l-1.482 7.03h5.738l4.028-19Z" style="fill-rule:nonzero" transform="translate(-165.6 663.484) scale(4.16667)"/><path d="M530.82 173.1h-5.776l-4.028 19h5.776l4.028-19Zm-18.24 0h-5.738l-4.028 19h8.854c5.282 0 7.676-3.154 8.398-6.612.722-3.458-.76-7.03-5.51-7.03h-3.116l1.14-5.358Zm.722 9.88c1.14 0 1.748.722 1.482 2.09-.266 1.368-1.254 2.052-2.622 2.052h-2.584l.912-4.142h2.812Z" style="fill-rule:nonzero" transform="translate(-165.6 663.484) scale(4.16667)"/><path d="M545.336 166.108c-3.192 0-5.32 1.748-6.27 3.914l.38 3.382c1.064-1.368 2.432-1.938 4.066-1.938 2.128 0 3.762 1.33 3.154 4.446-.57 3.002-2.888 4.446-4.94 4.446-1.558 0-2.66-.608-3.42-1.748l-1.596 5.244c1.026 1.026 2.09 1.862 4.636 1.862 4.75 0 9.614-3.23 10.906-9.158 1.52-6.916-2.85-10.45-6.916-10.45Zm-4.256.304h-5.738l-5.548 25.992h5.738l5.548-25.992Z" style="fill-rule:nonzero" transform="translate(-165.6 691.35) scale(4.16667)"/><path d="M557.534 172.758c-4.75 0-9.424 3.306-10.678 9.044-1.292 6.08 2.128 10.488 7.296 10.564 2.964.038 5.092-1.748 6.042-3.914l-.38-3.458c-1.14 1.482-2.736 2.052-4.066 2.052-2.166 0-3.724-1.52-3.192-4.37.57-2.926 2.812-4.56 4.94-4.56 1.292 0 2.698.608 3.458 1.748l1.596-5.244c-1.026-1.102-2.926-1.862-5.016-1.862Zm10.412.304h-5.738l-4.028 19h5.738l4.028-19Z" style="fill-rule:nonzero" transform="translate(-165.6 663.642) scale(4.16667)"/><path d="M581.512 166.108c-3.192 0-5.32 1.748-6.27 3.914l.38 3.382c1.064-1.368 2.432-1.938 4.066-1.938 2.128 0 3.762 1.33 3.154 4.446-.57 3.002-2.888 4.446-4.94 4.446-1.558 0-2.66-.608-3.42-1.748l-1.596 5.244c1.026 1.026 2.09 1.862 4.636 1.862 4.75 0 9.614-3.23 10.906-9.158 1.52-6.916-2.85-10.45-6.916-10.45Zm-4.256.304h-5.738l-5.548 25.992h5.738l5.548-25.992Z" style="fill-rule:nonzero" transform="translate(-165.6 691.35) scale(4.16667)"/><path d="M602.716 166.108h-5.548l-7.22 33.972h5.548l7.22-33.972Zm-7.144 7.676c-6.802 0-11.362 3.534-12.578 9.044-1.368 6.194 2.736 10.564 8.474 10.564l1.064-5.206c-2.964 0-4.598-1.52-3.952-4.75.57-2.812 3.002-4.446 5.928-4.446l1.064-5.206Zm5.434 0-1.064 5.206c2.964 0 4.598 1.52 3.952 4.75-.57 2.812-3.002 4.446-5.928 4.446l-1.064 5.206c6.802 0 11.362-3.534 12.578-9.044 1.368-6.194-2.736-10.564-8.474-10.564Z" style="fill-rule:nonzero" transform="translate(-165.6 659.367) scale(4.16667)"/><path d="M625.174 166.108c-3.192 0-5.32 1.748-6.27 3.914l.38 3.382c1.064-1.368 2.432-1.938 4.066-1.938 2.128 0 3.762 1.33 3.154 4.446-.57 3.002-2.888 4.446-4.94 4.446-1.558 0-2.66-.608-3.42-1.748l-1.596 5.244c1.026 1.026 2.09 1.862 4.636 1.862 4.75 0 9.614-3.23 10.906-9.158 1.52-6.916-2.85-10.45-6.916-10.45Zm-4.256.304h-5.738l-5.548 25.992h5.738l5.548-25.992Z" style="fill-rule:nonzero" transform="translate(-165.6 691.35) scale(4.16667)"/><path d="M638.132 172.796c-5.89 0-10.412 4.332-11.552 9.538-1.254 5.814 2.356 10.07 8.17 10.07 3.572 0 6.688-1.634 8.968-4.484l-3.99-3.116c-1.026 1.444-2.546 2.242-4.256 2.242-2.432 0-3.648-2.014-3.154-4.446.494-2.47 2.584-4.446 5.054-4.446 1.368 0 2.888.608 3.42 2.014l4.94-2.698c-1.254-2.85-3.762-4.674-7.6-4.674Z" style="fill-rule:nonzero" transform="translate(-165.6 663.484) scale(4.16667)"/><path d="M659.526 166.108c-3.192 0-5.32 1.748-6.27 3.914l.38 3.382c1.064-1.368 2.432-1.938 4.066-1.938 2.128 0 3.762 1.33 3.154 4.446-.57 3.002-2.888 4.446-4.94 4.446-1.558 0-2.66-.608-3.42-1.748l-1.596 5.244c1.026 1.026 2.09 1.862 4.636 1.862 4.75 0 9.614-3.23 10.906-9.158 1.52-6.916-2.85-10.45-6.916-10.45Zm-4.256.304h-5.738l-5.548 25.992h5.738l5.548-25.992Z" style="fill-rule:nonzero" transform="translate(-165.6 691.35) scale(4.16667)"/><path d="M672.902 172.796c-6.27 0-10.64 4.142-11.742 9.082-1.368 6.118 2.85 10.526 7.638 10.526 3.952 0 6.65-1.33 9.348-4.408l-3.686-3.116c-1.064 1.406-2.85 2.28-4.864 2.28-2.09 0-3.648-1.672-2.964-4.864.722-3.458 3.154-4.864 5.396-4.864 1.786 0 2.926.912 2.85 2.85h-9.006l-.646 3.344h14.212c.19-.57.342-1.14.456-1.672 1.178-5.434-2.242-9.158-6.992-9.158Z" style="fill-rule:nonzero" transform="translate(-165.6 663.484) scale(4.16667)"/><path d="M695.132 166.108c-3.192 0-5.32 1.748-6.27 3.914l.38 3.382c1.064-1.368 2.432-1.938 4.066-1.938 2.128 0 3.762 1.33 3.154 4.446-.57 3.002-2.888 4.446-4.94 4.446-1.558 0-2.66-.608-3.42-1.748l-1.596 5.244c1.026 1.026 2.09 1.862 4.636 1.862 4.75 0 9.614-3.23 10.906-9.158 1.52-6.916-2.85-10.45-6.916-10.45Zm-4.256.304h-5.738l-5.548 25.992h5.738l5.548-25.992Z" style="fill-rule:nonzero" transform="translate(-165.6 691.35) scale(4.16667)"/><path d="m721.238 172.72-14.668 9.082 1.938-8.74h-5.738l-4.142 19.38 14.668-9.044-1.9 8.664h5.738l4.104-19.342Z" style="fill-rule:nonzero" transform="translate(-165.6 663.642) scale(4.16667)"/><path d="M735.678 166.108c-3.192 0-5.32 1.748-6.27 3.914l.38 3.382c1.064-1.368 2.432-1.938 4.066-1.938 2.128 0 3.762 1.33 3.154 4.446-.57 3.002-2.888 4.446-4.94 4.446-1.558 0-2.66-.608-3.42-1.748l-1.596 5.244c1.026 1.026 2.09 1.862 4.636 1.862 4.75 0 9.614-3.23 10.906-9.158 1.52-6.916-2.85-10.45-6.916-10.45Zm-4.256.304h-5.738l-5.548 25.992h5.738l5.548-25.992Z" style="fill-rule:nonzero" transform="translate(-165.6 691.35) scale(4.16667)"/><path d="M748.598 172.796c-5.852 0-10.374 4.332-11.514 9.5-1.254 5.852 2.356 10.108 8.17 10.108 5.852 0 10.374-4.332 11.514-9.5 1.254-5.852-2.356-10.108-8.17-10.108Zm-.722 5.358c2.394 0 3.686 1.862 3.192 4.37-.532 2.546-2.66 4.522-5.092 4.522-2.356 0-3.724-1.862-3.154-4.446.532-2.47 2.584-4.446 5.054-4.446Z" style="fill-rule:nonzero" transform="translate(-165.6 663.484) scale(4.16667)"/><path d="M793.856 166.412h-6.346l-7.562 14.288 1.862-.152-1.254-8.018h-5.89l2.736 14.972.532-4.332-5.396 9.234h6.194l15.124-25.992Zm-20.444-.304c-3.192 0-5.32 1.748-6.27 3.914l.38 3.382c1.064-1.368 2.432-1.938 4.066-1.938 2.128 0 3.762 1.33 3.154 4.446-.57 3.002-2.888 4.446-4.94 4.446-1.558 0-2.66-.608-3.42-1.748l-1.596 5.244c1.026 1.026 2.09 1.862 4.636 1.862 4.75 0 9.614-3.23 10.906-9.158 1.52-6.916-2.85-10.45-6.916-10.45Zm-4.256.304h-5.738l-5.548 25.992h5.738l5.548-25.992Z" style="fill-rule:nonzero" transform="translate(-165.6 691.35) scale(4.16667)"/><path d="M61.14 127.1h-8.208c-5.168 0-8.17 1.9-9.006 5.7-1.064 4.902 2.508 7.562 6.954 7.562h1.71l-1.216 5.738h5.738l4.028-19Zm-13.3 10.146-8.094 8.854h6.612l7.258-8.132-5.776-.722Zm6.574-5.586-.874 4.142h-2.356c-1.368 0-2.242-.874-1.938-2.318.266-1.33 1.368-1.824 2.964-1.824h2.204Z" style="fill-rule:nonzero" transform="translate(-165.6 1046.817) scale(4.16667)"/><path d="M65.396 120.108c-3.192 0-5.32 1.748-6.27 3.914l.38 3.382c1.064-1.368 2.432-1.938 4.066-1.938 2.128 0 3.762 1.33 3.154 4.446-.57 3.002-2.888 4.446-4.94 4.446-1.558 0-2.66-.608-3.42-1.748l-1.596 5.244c1.026 1.026 2.09 1.862 4.636 1.862 4.75 0 9.614-3.23 10.906-9.158 1.52-6.916-2.85-10.45-6.916-10.45Zm-4.256.304h-5.738l-5.548 25.992h5.738l5.548-25.992Z" style="fill-rule:nonzero" transform="translate(-165.6 1074.684) scale(4.16667)"/><path d="M94.086 127.1h-8.208c-5.168 0-8.17 1.9-9.006 5.7-1.064 4.902 2.508 7.562 6.954 7.562h1.71L84.32 146.1h5.738l4.028-19Zm-13.3 10.146-8.094 8.854h6.612l7.258-8.132-5.776-.722Zm6.574-5.586-.874 4.142H84.13c-1.368 0-2.242-.874-1.938-2.318.266-1.33 1.368-1.824 2.964-1.824h2.204Z" style="fill-rule:nonzero" transform="translate(-165.6 1046.817) scale(4.16667)"/><path d="M106.854 126.796c-5.852 0-10.374 4.332-11.514 9.5-1.254 5.852 2.356 10.108 8.17 10.108 5.852 0 10.374-4.332 11.514-9.5 1.254-5.852-2.356-10.108-8.17-10.108Zm-14.402 7.334-1.064 4.94h7.79l1.064-4.94h-7.79Zm13.68-1.976c2.394 0 3.686 1.862 3.192 4.37-.532 2.546-2.66 4.522-5.092 4.522-2.356 0-3.724-1.862-3.154-4.446.532-2.47 2.584-4.446 5.054-4.446Z" style="fill-rule:nonzero" transform="translate(-165.6 1046.817) scale(4.16667)"/><path d="m139.344 126.72-14.668 9.082 1.938-8.74h-5.738l-4.142 19.38 14.668-9.044-1.9 8.664h5.738l4.104-19.342Z" style="fill-rule:nonzero" transform="translate(-165.6 1046.976) scale(4.16667)"/><path d="M151.922 127.1h-5.738l-1.482 7.03h-6.916l1.482-7.03-6.65 4.332-3.116 14.668h5.738l1.482-7.03h6.916l-1.482 7.03h5.738l4.028-19Z" style="fill-rule:nonzero" transform="translate(-165.6 1046.817) scale(4.16667)"/><path d="m174.912 126.72-14.668 9.082 1.938-8.74h-5.738l-4.142 19.38 14.668-9.044-1.9 8.664h5.738l4.104-19.342Z" style="fill-rule:nonzero" transform="translate(-165.6 1046.976) scale(4.16667)"/><path d="M179.092 120.108c-3.192 0-5.32 1.748-6.27 3.914l.38 3.382c1.064-1.368 2.432-1.938 4.066-1.938 2.128 0 3.762 1.33 3.154 4.446-.57 3.002-2.888 4.446-4.94 4.446-1.558 0-2.66-.608-3.42-1.748l-1.596 5.244c1.026 1.026 2.09 1.862 4.636 1.862 4.75 0 9.614-3.23 10.906-9.158 1.52-6.916-2.85-10.45-6.916-10.45Zm-4.256.304-6.65 4.484-4.636 21.508h5.738l5.548-25.992Z" style="fill-rule:nonzero" transform="translate(-165.6 1074.684) scale(4.16667)"/><path d="m216.294 131.698 1.064-4.978h-7.524l-14.098 8.74 1.938-8.74h-5.738l-4.142 19.38 14.554-8.968-1.824 8.588h5.776l2.964-14.022h7.03Z" style="fill-rule:nonzero" transform="translate(-165.6 1048.4) scale(4.16667)"/><path d="m239.056 126.72-14.668 9.082 1.938-8.74h-5.738l-4.142 19.38 14.668-9.044-1.862 8.664 6.688-4.712 3.116-14.63Zm12.73 0-14.668 9.082 1.862-8.74-6.536 3.99-3.268 15.39 14.668-9.044-1.9 8.664h5.738l4.104-19.342Z" style="fill-rule:nonzero" transform="translate(-165.6 1046.976) scale(4.16667)"/><path d="m274.7 134.358-14.668 9.082 1.938-8.74h-5.738l-4.142 19.38 14.668-9.044-1.862 8.664 6.688-4.712 3.116-14.63Zm12.73 0-14.668 9.082 1.862-8.74-6.536 3.99-3.268 15.39 14.668-9.044-1.9 8.664h5.738l4.104-19.342Zm.646-7.638h-4.294c-.456 2.128-1.596 3.23-3.192 3.23s-2.584-1.102-2.128-3.23h-4.294c-.95 4.56 1.976 6.688 5.89 6.688 3.914 0 7.068-2.128 8.018-6.688Z" style="fill-rule:nonzero" transform="translate(-165.6 1015.15) scale(4.16667)"/><path d="M312.206 134.092h-3.458l1.596-7.372-14.668 9.082 1.938-8.74h-5.738l-4.142 19.38 14.554-8.968-1.824 8.588h5.776l1.482-7.03h3.534c.266 4.37 3.572 7.334 8.436 7.334 5.852 0 10.374-4.332 11.514-9.5 1.254-5.852-2.356-10.108-8.17-10.108-5.016 0-9.044 3.192-10.83 7.334Zm13.3 2.394c-.532 2.546-2.66 4.522-5.092 4.522-2.356 0-3.724-1.862-3.154-4.446.532-2.47 2.584-4.446 5.054-4.446 2.394 0 3.686 1.862 3.192 4.37ZM355.526 126.72l-14.668 9.082 1.938-8.74h-5.738l-4.142 19.38 14.668-9.044-1.9 8.664h5.738l4.104-19.342Z" style="fill-rule:nonzero" transform="translate(-165.6 1046.976) scale(4.16667)"/><path d="M359.592 135.802h-6.498l5.738 10.298h6.726l-5.966-10.298Zm9.044-8.702h-7.258l-8.284 9.234h6.65l8.892-9.234Z" style="fill-rule:nonzero" transform="translate(-165.6 1046.817) scale(4.16667)"/><path d="m391.816 126.72-14.668 9.082 1.938-8.74h-5.738l-4.142 19.38 14.668-9.044-1.9 8.664h5.738l4.104-19.342Z" style="fill-rule:nonzero" transform="translate(-165.6 1046.976) scale(4.16667)"/><path d="M399.796 126.796c-5.852 0-10.374 4.332-11.514 9.5-1.254 5.852 2.356 10.108 8.17 10.108 5.852 0 10.374-4.332 11.514-9.5 1.254-5.852-2.356-10.108-8.17-10.108Zm-.722 5.358c2.394 0 3.686 1.862 3.192 4.37-.532 2.546-2.66 4.522-5.092 4.522-2.356 0-3.724-1.862-3.154-4.446.532-2.47 2.584-4.446 5.054-4.446Z" style="fill-rule:nonzero" transform="translate(-165.6 1046.817) scale(4.16667)"/><path d="M444.446 126.72h-12.73l-14.098 8.74 1.938-8.74h-5.738l-4.142 19.38 14.554-8.968-1.824 8.588h5.776l2.964-14.022h6.498l-2.964 14.022h5.738l4.028-19Z" style="fill-rule:nonzero" transform="translate(-165.6 1048.4) scale(4.16667)"/><path d="m467.436 126.72-14.668 9.082 1.938-8.74h-5.738l-4.142 19.38 14.668-9.044-1.9 8.664h5.738l4.104-19.342Z" style="fill-rule:nonzero" transform="translate(-165.6 1046.976) scale(4.16667)"/><path d="M487.348 127.1h-5.738l-3.002 14.06h-4.256l3.002-14.06h-5.738l-3.002 14.06h-4.256l3.002-14.06-6.65 4.37-3.116 14.63h25.726l4.028-19Z" style="fill-rule:nonzero" transform="translate(-165.6 1046.817) scale(4.16667)"/><path d="m510.338 126.72-14.668 9.082 1.938-8.74h-5.738l-4.142 19.38 14.668-9.044-1.9 8.664h5.738l4.104-19.342Z" style="fill-rule:nonzero" transform="translate(-165.6 1046.976) scale(4.16667)"/><path d="M529.87 136.6h-5.054l-2.014 9.5h5.054l2.014-9.5Zm.342-13.984h-5.738l-3.002 14.06h-4.256l3.002-14.06h-5.738l-3.002 14.06h-4.256l3.002-14.06-6.726 4.712-3.04 14.288h25.726l4.028-19Z" style="fill-rule:nonzero" transform="translate(-165.6 1065.5) scale(4.16667)"/><path d="M557.762 126.72h-3.382l-14.136 8.74 1.938-8.74h-5.738l-4.142 19.38 14.554-9.006-1.786 8.626h10.45c5.282 0 7.638-2.774 8.132-5.396.342-1.9-.038-3.42-1.634-4.712 1.216-.836 1.862-1.976 2.09-3.23.57-3.192-1.52-5.662-6.346-5.662Zm-1.102 7.6h-3.458l.646-3.04h3.04c.836 0 1.558.38 1.33 1.634-.152.95-.76 1.406-1.558 1.406Zm-.646 6.574h-4.18l.646-3.154.038-.076h3.952c1.178 0 1.748.532 1.558 1.634-.19 1.064-.95 1.596-2.014 1.596Z" style="fill-rule:nonzero" transform="translate(-165.6 1048.4) scale(4.16667)"/><path d="m588.048 126.72-14.668 9.082 1.938-8.74h-5.738l-4.142 19.38 14.668-9.044-1.9 8.664h5.738l4.104-19.342Z" style="fill-rule:nonzero" transform="translate(-165.6 1046.976) scale(4.16667)"/><path d="M592.114 143.782h-6.498l5.738 10.298h6.726l-5.966-10.298Zm9.044-8.702H593.9l-8.284 9.234h6.65l8.892-9.234Zm-12.464-7.98H584.4c-.456 2.128-1.596 3.23-3.192 3.23s-2.584-1.102-2.128-3.23h-4.294c-.95 4.56 1.976 6.688 5.89 6.688 3.914 0 7.068-2.128 8.018-6.688Z" style="fill-rule:nonzero" transform="translate(-165.6 1013.567) scale(4.16667)"/><path d="M624.984 126.72h-4.294c-.456 2.128-1.596 3.23-3.192 3.23s-2.584-1.102-2.128-3.23h-4.294c-.95 4.56 1.976 6.688 5.89 6.688 3.914 0 7.068-2.128 8.018-6.688Zm-.646 7.638-14.668 9.082 1.938-8.74h-5.738l-4.142 19.38 14.668-9.044-1.9 8.664h5.738l4.104-19.342Z" style="fill-rule:nonzero" transform="translate(-165.6 1015.15) scale(4.16667)"/><path d="M632.318 126.796c-5.852 0-10.374 4.332-11.514 9.5-1.254 5.852 2.356 10.108 8.17 10.108 5.852 0 10.374-4.332 11.514-9.5 1.254-5.852-2.356-10.108-8.17-10.108Zm-.722 5.358c2.394 0 3.686 1.862 3.192 4.37-.532 2.546-2.66 4.522-5.092 4.522-2.356 0-3.724-1.862-3.154-4.446.532-2.47 2.584-4.446 5.054-4.446ZM654.168 126.796c-5.852 0-10.374 4.332-11.514 9.5-1.254 5.852 2.356 10.108 8.17 10.108 5.852 0 10.374-4.332 11.514-9.5 1.254-5.852-2.356-10.108-8.17-10.108Zm-.722 5.358c2.394 0 3.686 1.862 3.192 4.37-.532 2.546-2.66 4.522-5.092 4.522-2.356 0-3.724-1.862-3.154-4.446.532-2.47 2.584-4.446 5.054-4.446Z" style="fill-rule:nonzero" transform="translate(-165.6 1046.817) scale(4.16667)"/><path d="M672.104 120.108c-3.192 0-5.32 1.748-6.27 3.914l.38 3.382c1.064-1.368 2.432-1.938 4.066-1.938 2.128 0 3.762 1.33 3.154 4.446-.57 3.002-2.888 4.446-4.94 4.446-1.558 0-2.66-.608-3.42-1.748l-1.596 5.244c1.026 1.026 2.09 1.862 4.636 1.862 4.75 0 9.614-3.23 10.906-9.158 1.52-6.916-2.85-10.45-6.916-10.45Zm-4.256.304h-5.738l-5.548 25.992h5.738l5.548-25.992Z" style="fill-rule:nonzero" transform="translate(-165.6 1074.684) scale(4.16667)"/><path d="M693.346 126.796c-5.852 0-10.374 4.332-11.514 9.5-1.254 5.852 2.356 10.108 8.17 10.108 5.852 0 10.374-4.332 11.514-9.5 1.254-5.852-2.356-10.108-8.17-10.108Zm-.722 5.358c2.394 0 3.686 1.862 3.192 4.37-.532 2.546-2.66 4.522-5.092 4.522-2.356 0-3.724-1.862-3.154-4.446.532-2.47 2.584-4.446 5.054-4.446Z" style="fill-rule:nonzero" transform="translate(-165.6 1046.817) scale(4.16667)"/><path d="M707.9 126.796c-6.27 0-10.64 4.142-11.742 9.082-1.368 6.118 2.85 10.526 7.638 10.526 3.952 0 6.65-1.33 9.348-4.408l-3.686-3.116c-1.064 1.406-2.85 2.28-4.864 2.28-2.09 0-3.648-1.672-2.964-4.864.722-3.458 3.154-4.864 5.396-4.864 1.786 0 2.926.912 2.85 2.85h-9.006l-.646 3.344h14.212c.19-.57.342-1.14.456-1.672 1.178-5.434-2.242-9.158-6.992-9.158Z" style="fill-rule:nonzero" transform="translate(-165.6 1046.817) scale(4.16667)"/><path d="m755.666 126.72-14.668 9.082 1.938-8.74h-5.738l-4.142 19.38 14.668-9.044-1.9 8.664h5.738l4.104-19.342Z" style="fill-rule:nonzero" transform="translate(-165.6 1046.976) scale(4.16667)"/><path d="M728.534 126.796c-5.852 0-10.374 4.332-11.514 9.5-1.254 5.852 2.356 10.108 8.17 10.108 5.852 0 10.374-4.332 11.514-9.5 1.254-5.852-2.356-10.108-8.17-10.108Zm-.722 5.358c2.394 0 3.686 1.862 3.192 4.37-.532 2.546-2.66 4.522-5.092 4.522-2.356 0-3.724-1.862-3.154-4.446.532-2.47 2.584-4.446 5.054-4.446Z" style="fill-rule:nonzero" transform="translate(-165.6 1046.817) scale(4.16667)"/><path d="M795.984 126.72h-4.294c-.456 2.128-1.596 3.23-3.192 3.23s-2.584-1.102-2.128-3.23h-4.294c-.95 4.56 1.976 6.688 5.89 6.688 3.914 0 7.068-2.128 8.018-6.688Zm-.646 7.638-14.668 9.082 1.938-8.74h-5.738l-4.142 19.38 14.668-9.044-1.9 8.664h5.738l4.104-19.342Z" style="fill-rule:nonzero" transform="translate(-165.6 1015.15) scale(4.16667)"/><path d="M768.244 126.796c-5.852 0-10.374 4.332-11.514 9.5-1.254 5.852 2.356 10.108 8.17 10.108 5.852 0 10.374-4.332 11.514-9.5 1.254-5.852-2.356-10.108-8.17-10.108Zm-.722 5.358c2.394 0 3.686 1.862 3.192 4.37-.532 2.546-2.66 4.522-5.092 4.522-2.356 0-3.724-1.862-3.154-4.446.532-2.47 2.584-4.446 5.054-4.446Z" style="fill-rule:nonzero" transform="translate(-165.6 1046.817) scale(4.16667)"/><path d="M53.692 80.796c-5.852 0-10.374 4.332-11.514 9.5-1.254 5.852 2.356 10.108 8.17 10.108 5.852 0 10.374-4.332 11.514-9.5 1.254-5.852-2.356-10.108-8.17-10.108Zm-.722 5.358c2.394 0 3.686 1.862 3.192 4.37-.532 2.546-2.66 4.522-5.092 4.522-2.356 0-3.724-1.862-3.154-4.446.532-2.47 2.584-4.446 5.054-4.446Z" style="fill-rule:nonzero" transform="translate(-165.6 1430.151) scale(4.16667)"/><path d="M73.3 80.796c-2.052 0-3.23 1.368-3.458 3.04-.228 1.672.95 3.04 2.622 3.04 2.052 0 3.23-1.368 3.458-3.04.228-1.672-.95-3.04-2.622-3.04Zm-9.044 0c-2.052 0-3.23 1.368-3.458 3.04-.228 1.672.95 3.04 2.622 3.04 2.052 0 3.23-1.368 3.458-3.04.228-1.672-.95-3.04-2.622-3.04Zm3.99 7.562c-6.27 0-10.64 4.142-11.742 9.082-1.368 6.118 2.85 10.526 7.638 10.526 3.952 0 6.65-1.33 9.348-4.408l-3.686-3.116c-1.064 1.406-2.85 2.28-4.864 2.28-2.09 0-3.648-1.672-2.964-4.864.722-3.458 3.154-4.864 5.396-4.864 1.786 0 2.926.912 2.85 2.85h-9.006l-.646 3.344h14.212c.19-.57.342-1.14.456-1.672 1.178-5.434-2.242-9.158-6.992-9.158Z" style="fill-rule:nonzero" transform="translate(-165.6 1398.643) scale(4.16667)"/><path d="M88.994 80.796c-5.852 0-10.374 4.332-11.514 9.5-1.254 5.852 2.356 10.108 8.17 10.108 5.852 0 10.374-4.332 11.514-9.5 1.254-5.852-2.356-10.108-8.17-10.108Zm-.722 5.358c2.394 0 3.686 1.862 3.192 4.37-.532 2.546-2.66 4.522-5.092 4.522-2.356 0-3.724-1.862-3.154-4.446.532-2.47 2.584-4.446 5.054-4.446ZM104.194 90.22l8.778-9.12h-7.258l-8.094 9.044 5.548 9.956h6.726l-5.7-9.88Z" style="fill-rule:nonzero" transform="translate(-165.6 1430.151) scale(4.16667)"/><path d="M145.766 74.412h-6.346L131.858 88.7l1.862-.152-1.254-7.98-6.878-6.156 3.724 21.09.532-4.332-5.396 9.234h6.194l15.124-25.992Zm-21.622-.304c-5.852 0-10.374 4.332-11.514 9.5-1.254 5.852 2.356 10.108 8.17 10.108 5.852 0 10.374-4.332 11.514-9.5 1.254-5.852-2.356-10.108-8.17-10.108Zm-.722 5.358c2.394 0 3.686 1.862 3.192 4.37-.532 2.546-2.66 4.522-5.092 4.522-2.356 0-3.724-1.862-3.154-4.446.532-2.47 2.584-4.446 5.054-4.446Z" style="fill-rule:nonzero" transform="translate(-165.6 1458.018) scale(4.16667)"/><path d="m178.522 80.72-14.554 9.006 1.862-8.664h-18.012l-4.028 19h5.738l2.964-14.022h6.498l-3.078 14.402 14.668-9.044-1.9 8.664h5.738l4.104-19.342Z" style="fill-rule:nonzero" transform="translate(-165.6 1430.31) scale(4.16667)"/><path d="M219.182 81.1h-5.776l-4.028 19h5.776l4.028-19Zm-18.24 0h-5.738l-4.028 19h8.854c5.282 0 7.676-3.154 8.398-6.612.722-3.458-.76-7.03-5.51-7.03h-3.116l1.14-5.358Zm.722 9.88c1.14 0 1.748.722 1.482 2.09-.266 1.368-1.254 2.052-2.622 2.052h-2.584l.912-4.142h2.812Z" style="fill-rule:nonzero" transform="translate(-165.6 1430.151) scale(4.16667)"/><path d="M200.942 81.1H182.93l-4.028 19h5.738l2.964-14.022h6.536l-2.964 14.022h5.738l4.028-19Z" style="fill-rule:nonzero" transform="translate(-165.6 1430.151) scale(4.16667)"/><path d="m262.084 81.1-14.516 9.006 1.824-8.664h-5.776l-3.002 14.06h-4.218l3.002-14.06h-5.738l-3.002 14.06h-4.256l3.002-14.06h-5.738l-4.028 19h20.444l14.06-8.664-1.9 8.664h5.738l4.104-19.342Z" style="fill-rule:nonzero" transform="translate(-165.6 1428.726) scale(4.16667)"/><path d="M274.548 85.508h-5.738l-3.078 14.592h5.738l3.078-14.592Zm6.27-4.408H264.82l-1.064 4.902h15.998l1.064-4.902Z" style="fill-rule:nonzero" transform="translate(-165.6 1430.151) scale(4.16667)"/><path d="M299.134 81.1h-5.738l-1.482 7.03h-6.916l1.482-7.03h-5.738l-4.028 19h5.738l1.482-7.03h6.916l-1.482 7.03h5.738l4.028-19Z" style="fill-rule:nonzero" transform="translate(-165.6 1430.151) scale(4.16667)"/><path d="m321.364 74.412-9.538 6.042-4.37 8.246 1.862-.152-2.242-14.136h-5.89l3.724 21.09.532-4.332-5.396 9.234h6.194l15.124-25.992Zm.228-.304c-4.75 0-9.424 3.306-10.678 9.044-1.292 6.08 2.128 10.488 7.296 10.564 2.964.038 5.092-1.748 6.042-3.914l-.38-3.458c-1.14 1.482-2.736 2.052-4.066 2.052-2.166 0-3.724-1.52-3.192-4.37.57-2.926 2.812-4.56 4.94-4.56 1.292 0 2.698.608 3.458 1.748l1.596-5.244c-1.026-1.102-2.926-1.862-5.016-1.862Zm10.412.304h-5.738l-4.028 19h5.738l4.028-19Z" style="fill-rule:nonzero" transform="translate(-165.6 1458.018) scale(4.16667)"/><path d="M366.128 80.796h-7.98c-7.22 0-11.476 4.864-13.224 13.338l-.304 1.482c-1.71 8.284 1.862 12.464 8.132 12.464 5.624 0 9.766-3.99 10.944-9.804h-5.814c-.646 3.078-2.66 4.446-4.788 4.446-2.394 0-3.952-1.748-3.116-5.472l1.33-6.004c.646-3.534 2.888-5.434 6.688-5.434h5.852l2.28-5.016Zm-9.272 7.98c-1.862 0-4.142.608-5.434 1.786l-1.292 5.472c1.14-1.368 2.66-2.128 4.522-2.128 2.736 0 3.724 1.634 3.23 4.37h5.814c1.064-5.092-1.824-9.5-6.84-9.5Z" style="fill-rule:nonzero" transform="translate(-165.6 1398.168) scale(4.16667)"/><path d="m353.094 76.122-7.6 2.622-5.13 9.652 1.862-.152-2.242-14.136h-5.89l3.724 21.09.532-4.332-5.396 9.234h6.194l13.946-23.978Z" style="fill-rule:nonzero" transform="translate(-165.6 1459.284) scale(4.16667)"/><path d="M396.072 74.108h-5.548l-7.22 33.972h5.548l7.22-33.972Zm-7.144 7.676c-6.802 0-11.362 3.534-12.578 9.044-1.368 6.194 2.736 10.564 8.474 10.564l1.064-5.206c-2.964 0-4.598-1.52-3.952-4.75.57-2.812 3.002-4.446 5.928-4.446l1.064-5.206Zm5.434 0-1.064 5.206c2.964 0 4.598 1.52 3.952 4.75-.57 2.812-3.002 4.446-5.928 4.446l-1.064 5.206c6.802 0 11.362-3.534 12.578-9.044 1.368-6.194-2.736-10.564-8.474-10.564Z" style="fill-rule:nonzero" transform="translate(-165.6 1426.034) scale(4.16667)"/><path d="M386.838 74.108 377.3 80.15l-4.37 8.246 1.862-.152-2.242-14.136h-5.89l3.724 21.09.532-4.332-5.396 9.234h6.194l15.124-25.992Z" style="fill-rule:nonzero" transform="translate(-165.6 1459.284) scale(4.16667)"/><path d="m426.244 74.412-9.538 6.042-4.37 8.246 1.862-.152-2.242-14.136h-5.89l3.724 21.09.532-4.332-5.396 9.234h6.194l15.124-25.992Zm.836-.304c-5.89 0-10.412 4.332-11.552 9.538-1.254 5.814 2.356 10.07 8.17 10.07 3.572 0 6.688-1.634 8.968-4.484l-3.99-3.116c-1.026 1.444-2.546 2.242-4.256 2.242-2.432 0-3.648-2.014-3.154-4.446.494-2.47 2.584-4.446 5.054-4.446 1.368 0 2.888.608 3.42 2.014l4.94-2.698c-1.254-2.85-3.762-4.674-7.6-4.674ZM456.188 74.412l-9.538 6.042-4.37 8.246 1.862-.152-2.242-14.136h-5.89l3.724 21.09.532-4.332-5.396 9.234h6.194l15.124-25.992Zm1.216-.304c-6.27 0-10.64 4.142-11.742 9.082-1.368 6.118 2.85 10.526 7.638 10.526 3.952 0 6.65-1.33 9.348-4.408l-3.686-3.116c-1.064 1.406-2.85 2.28-4.864 2.28-2.09 0-3.648-1.672-2.964-4.864.722-3.458 3.154-4.864 5.396-4.864 1.786 0 2.926.912 2.85 2.85h-9.006l-.646 3.344h14.212c.19-.57.342-1.14.456-1.672 1.178-5.434-2.242-9.158-6.992-9.158ZM487.5 74.412l-9.538 6.042-4.37 8.246 1.862-.152-2.242-14.136h-5.89l3.724 21.09.532-4.332-5.396 9.234h6.194L487.5 74.412Zm.798-.304c-5.852 0-10.374 4.332-11.514 9.5-1.254 5.852 2.356 10.108 8.17 10.108 5.852 0 10.374-4.332 11.514-9.5 1.254-5.852-2.356-10.108-8.17-10.108Zm-.722 5.358c2.394 0 3.686 1.862 3.192 4.37-.532 2.546-2.66 4.522-5.092 4.522-2.356 0-3.724-1.862-3.154-4.446.532-2.47 2.584-4.446 5.054-4.446Z" style="fill-rule:nonzero" transform="translate(-165.6 1458.018) scale(4.16667)"/><path d="M520.028 74.108h-6.346l-7.562 14.288 1.862-.152-2.242-14.136h-5.89l3.724 21.09.532-4.332-5.396 9.234h6.194l15.124-25.992Z" style="fill-rule:nonzero" transform="translate(-165.6 1459.284) scale(4.16667)"/><path d="M525.196 85.508h-5.738L516.38 100.1h5.738l3.078-14.592Zm6.27-4.408h-15.998l-1.064 4.902h15.998l1.064-4.902ZM542.942 81.1h-8.664l-4.028 19h10.45c5.282 0 7.638-2.774 8.132-5.396.342-1.9-.038-3.42-1.634-4.712 1.216-.836 1.862-1.976 2.09-3.23.57-3.192-1.52-5.662-6.346-5.662Zm-1.292 10.944c1.178 0 1.748.532 1.558 1.634-.19 1.064-.95 1.596-2.014 1.596h-4.218l.722-3.23h3.952Zm.418-6.384c.836 0 1.558.38 1.33 1.634-.152.95-.76 1.406-1.558 1.406h-3.458l.646-3.04h3.04Z" style="fill-rule:nonzero" transform="translate(-165.6 1430.151) scale(4.16667)"/><path d="M555.064 80.796c-5.89 0-10.412 4.332-11.552 9.538-1.254 5.814 2.356 10.07 8.17 10.07 3.572 0 6.688-1.634 8.968-4.484l-3.99-3.116c-1.026 1.444-2.546 2.242-4.256 2.242-2.432 0-3.648-2.014-3.154-4.446.494-2.47 2.584-4.446 5.054-4.446 1.368 0 2.888.608 3.42 2.014l4.94-2.698c-1.254-2.85-3.762-4.674-7.6-4.674ZM575.09 81.1h-8.664l-4.028 19h10.45c5.282 0 7.638-2.774 8.132-5.396.342-1.9-.038-3.42-1.634-4.712 1.216-.836 1.862-1.976 2.09-3.23.57-3.192-1.52-5.662-6.346-5.662Zm-1.292 10.944c1.178 0 1.748.532 1.558 1.634-.19 1.064-.95 1.596-2.014 1.596h-4.218l.722-3.23h3.952Zm.418-6.384c.836 0 1.558.38 1.33 1.634-.152.95-.76 1.406-1.558 1.406h-3.458l.646-3.04h3.04Z" style="fill-rule:nonzero" transform="translate(-165.6 1430.151) scale(4.16667)"/><path d="M587.326 80.796c-6.27 0-10.64 4.142-11.742 9.082-1.368 6.118 2.85 10.526 7.638 10.526 3.952 0 6.65-1.33 9.348-4.408l-3.686-3.116c-1.064 1.406-2.85 2.28-4.864 2.28-2.09 0-3.648-1.672-2.964-4.864.722-3.458 3.154-4.864 5.396-4.864 1.786 0 2.926.912 2.85 2.85h-9.006l-.646 3.344h14.212c.19-.57.342-1.14.456-1.672 1.178-5.434-2.242-9.158-6.992-9.158ZM608.188 81.1h-8.664l-4.028 19h10.45c5.282 0 7.638-2.774 8.132-5.396.342-1.9-.038-3.42-1.634-4.712 1.216-.836 1.862-1.976 2.09-3.23.57-3.192-1.52-5.662-6.346-5.662Zm-1.292 10.944c1.178 0 1.748.532 1.558 1.634-.19 1.064-.95 1.596-2.014 1.596h-4.218l.722-3.23h3.952Zm.418-6.384c.836 0 1.558.38 1.33 1.634-.152.95-.76 1.406-1.558 1.406h-3.458l.646-3.04h3.04Z" style="fill-rule:nonzero" transform="translate(-165.6 1430.151) scale(4.16667)"/><path d="M620.272 80.796c-5.852 0-10.374 4.332-11.514 9.5-1.254 5.852 2.356 10.108 8.17 10.108 5.852 0 10.374-4.332 11.514-9.5 1.254-5.852-2.356-10.108-8.17-10.108Zm-.722 5.358c2.394 0 3.686 1.862 3.192 4.37-.532 2.546-2.66 4.522-5.092 4.522-2.356 0-3.724-1.862-3.154-4.446.532-2.47 2.584-4.446 5.054-4.446Z" style="fill-rule:nonzero" transform="translate(-165.6 1430.151) scale(4.16667)"/><path d="M18.695 37.7H1432.53l-9.352 44H9.342zM2477.15 1785.122h669.189l-9.353 44h-669.19z"/></svg>