<svg viewBox="0 0 3164 2243" xmlns="http://www.w3.org/2000/svg" xml:space="preserve" style="fill-rule:evenodd;clip-rule:evenodd;stroke-linejoin:round;stroke-miterlimit:2"><path d="M49.36 561.82h10.48l2.04 4.4h6.72l-5.44-11.12h11.36v11.12h6.4v-28.4h-6.4v11.12H60.16L54.6 537.5l-14 28.72h6.72l2.04-4.4Zm5.24-11.12 2.68 5.92h-5.36l2.68-5.92Z" style="fill-rule:nonzero" transform="translate(-168.917 -2230.587) scale(4.16667)"/><path d="M130.33 551.7c0-8-6.52-14.52-14.52-14.52-5.52 0-10.32 3.12-12.76 7.64l-3.72-7.64-14 28.72h6.72l2.04-4.4h11c2.68 2.92 6.48 4.72 10.72 4.72 8 0 14.52-6.52 14.52-14.52Zm-6.44 0c0 4.56-3.48 8.36-8.08 8.36s-8.08-3.8-8.08-8.36 3.48-8.36 8.08-8.36 8.08 3.8 8.08 8.36Zm-27.24 4.6 2.68-5.92 2.68 5.92h-5.36Z" style="fill-rule:nonzero" transform="translate(-168.917 -2229.247) scale(4.16667)"/><path d="M142.348 554.46h10.48l2.04 4.4-2.72 7.36h6.4l10.08-27.36h-6.4l-4.2 12.76-10.44-21.48-14 28.72h6.72l2.04-4.4Zm5.24-11.12 2.68 5.92h-5.36l2.68-5.92Z" style="fill-rule:nonzero" transform="translate(-168.917 -2199.917) scale(4.16667)"/><path d="M179.23 537.5h-6.4v28.4h10.56c5.56 0 9.72-3.92 9.72-9.04 0-5.12-4.16-9.04-9.72-9.04h-4.16V537.5Zm4.08 16.28c2.08 0 3.6 1.16 3.6 3.08 0 1.92-1.52 3.04-3.6 3.04h-4.08v-6.12h4.08Zm7.84-16.28h-18.32v28.4h6.4v-22.08h11.92v-6.32Z" style="fill-rule:nonzero" transform="translate(-168.917 -2229.247) scale(4.16667)"/><path d="M187.07 547.5c0 5.48 3.76 10.32 9.68 10.32 1.64 0 3.24-.52 4.4-1.48v1.16h6.04v-20h-6.04v1.2c-1.16-.96-2.76-1.52-4.4-1.52-5.92 0-9.68 4.84-9.68 10.32Zm10.68 4.8c-2.88 0-4.6-2.16-4.6-4.8 0-2.64 1.72-4.8 4.6-4.8 1.48 0 2.56.6 3.4 1.68v6.28c-.84 1.08-1.92 1.64-3.4 1.64Z" style="fill-rule:nonzero" transform="translate(-168.917 -2194.247) scale(4.16667)"/><path d="M219.48 537.5h-6.36v9.92c0 5.72 3.24 9.56 9.2 9.56 2.36 0 4.12-.4 5.88-1.04v-5.56c-1.4.6-2.84.84-4.32.84-3.28 0-4.4-2.12-4.4-4.96v-8.76Zm15.08 11.12v-4.8h11.2v-6.32h-17.6v28.4h17.6v-6.32h-11.2v-4.8h8.8v-6.16h-8.8ZM290.112 537.18l-17.92 15.16V537.5h-6.4v12.897c-1.387.588-2.814.823-4.28.823-3.28 0-4.4-2.12-4.4-4.96v-8.76h-6.36v9.92c0 5.72 3.24 9.56 9.2 9.56 2.342 0 4.093-.394 5.84-1.025v10.265l17.92-15.16v14.84h6.4v-28.72Z" style="fill-rule:nonzero" transform="translate(-168.917 -2229.247) scale(4.16667)"/><path d="M323.334 553.82h-27.36v12.08h6.16v-5.92h15.04v5.92h6.16v-12.08Zm-2.56 6.16v-28.4h-20.04v16.72c0 3.52-.68 5.52-2.92 5.52h-1.08v1.2h6.96c2.4-1.84 3.2-2.96 3.2-8.76v-8.52h7.48v22.24h6.4Zm10.96-28.4v11.12h-11.36v6.16h11.36v11.12h6.4v-28.4h-6.4ZM378.786 531.58l-10.24 14.68 10.96 13.72h7.92l-11.28-14.08 10-14.32h-7.36Zm-7.32 22.24h-27.36v12.08h6.16v-5.92h15.04v5.92h6.16v-12.08Zm-2.56 6.16v-28.4h-20.04v16.72c0 3.52-.68 5.52-2.92 5.52h-1.08v1.2h6.96c2.4-1.84 3.2-2.96 3.2-8.76v-8.52h7.48v22.24h6.4Z" style="fill-rule:nonzero" transform="translate(-168.917 -2204.587) scale(4.16667)"/><path d="M406.918 541.5v5.6c4.56 0 8.08 2.08 8.08 6.48 0 4.24-3.24 6.08-8.08 6.08v5.6c8.8 0 14.52-4.48 14.52-11.68 0-7.64-6.36-12.08-14.52-12.08Zm-5.64-4v30.88h6.44V537.5h-6.44Zm.8 4c-8.16 0-14.52 4.44-14.52 12.08 0 7.2 5.72 11.68 14.52 11.68v-5.6c-4.84 0-8.08-1.84-8.08-6.08 0-4.4 3.52-6.48 8.08-6.48v-5.6Zm32.28 0v5.6c4.56 0 8.08 2.08 8.08 6.48 0 4.24-3.24 6.08-8.08 6.08v5.6c8.8 0 14.52-4.48 14.52-11.68 0-7.64-6.36-12.08-14.52-12.08Zm-5.64-4v30.88h6.44V537.5h-6.44Zm.8 4c-8.16 0-14.52 4.44-14.52 12.08 0 7.2 5.72 11.68 14.52 11.68v-5.6c-4.84 0-8.08-1.84-8.08-6.08 0-4.4 3.52-6.48 8.08-6.48v-5.6Z" style="fill-rule:nonzero" transform="translate(-168.917 -2239.587) scale(4.16667)"/><path d="M496.76 560.06c-4.6 0-8.08-3.8-8.08-8.36s3.48-8.36 8.08-8.36c3.04 0 5.6 1.64 7.04 3.96l4.84-3.96c-2.64-3.72-7-6.16-11.88-6.16-8 0-14.52 6.52-14.52 14.52s6.52 14.52 14.52 14.52c4.88 0 9.24-2.44 11.88-6.16l-4.84-3.96c-1.44 2.32-4 3.96-7.04 3.96Z" style="fill-rule:nonzero" transform="translate(-168.917 -2229.247) scale(4.16667)"/><path d="M474.16 541.5v5.6c4.56 0 8.08 2.08 8.08 6.48 0 4.24-3.24 6.08-8.08 6.08v5.6c8.8 0 14.52-4.48 14.52-11.68 0-7.64-6.36-12.08-14.52-12.08Zm-5.64-4v30.88h6.44V537.5h-6.44Zm.8 4c-8.16 0-14.52 4.44-14.52 12.08 0 7.2 5.72 11.68 14.52 11.68v-5.6c-4.84 0-8.08-1.84-8.08-6.08 0-4.4 3.52-6.48 8.08-6.48v-5.6Z" style="fill-rule:nonzero" transform="translate(-168.917 -2239.587) scale(4.16667)"/><path d="M532.75 541.18v5.6c4.56 0 8.08 2.08 8.08 6.48 0 4.24-3.24 6.08-8.08 6.08v5.6c8.8 0 14.52-4.48 14.52-11.68 0-7.64-6.36-12.08-14.52-12.08Zm-5.64-4v30.88h6.44v-30.88h-6.44Zm.8 4c-8.16 0-14.52 4.44-14.52 12.08 0 7.2 5.72 11.68 14.52 11.68v-5.6c-4.84 0-8.08-1.84-8.08-6.08 0-4.4 3.52-6.48 8.08-6.48v-5.6Zm41.96 12.68c0-8-6.52-14.52-14.52-14.52s-14.52 6.48-14.52 14.52c0 8 6.52 14.52 14.52 14.52s14.52-6.52 14.52-14.52Zm-6.44 0c0 4.56-3.48 8.36-8.08 8.36s-8.08-3.8-8.08-8.36 3.48-8.36 8.08-8.36 8.08 3.8 8.08 8.36Z" style="fill-rule:nonzero" transform="translate(-168.917 -2238.247) scale(4.16667)"/><path d="M602.71 547.5c0 5.48 3.76 10.32 9.68 10.32 1.64 0 3.24-.52 4.4-1.48v1.16h6.04v-20h-6.04v1.2c-1.16-.96-2.76-1.52-4.4-1.52-5.92 0-9.68 4.84-9.68 10.32Zm10.68 4.8c-2.88 0-4.6-2.16-4.6-4.8 0-2.64 1.72-4.8 4.6-4.8 1.48 0 2.56.6 3.4 1.68v6.28c-.84 1.08-1.92 1.64-3.4 1.64Z" style="fill-rule:nonzero" transform="translate(-168.917 -2194.247) scale(4.16667)"/><path d="M590.07 541.5c-8.16 0-14.52 4.44-14.52 12.08 0 7.2 5.72 11.68 14.52 11.68v-5.6c-4.84 0-8.08-1.84-8.08-6.08 0-4.4 3.52-6.48 8.08-6.48v-5.6Zm5.64-4h-6.44v30.88h6.44V537.5Zm-.8 4v5.6c4.56 0 8.08 2.08 8.08 6.48 0 4.24-3.24 6.08-8.08 6.08v5.6c8.8 0 14.52-4.48 14.52-11.68 0-7.64-6.36-12.08-14.52-12.08Z" style="fill-rule:nonzero" transform="translate(-168.917 -2239.587) scale(4.16667)"/><path d="M652.78 548.62v-4.8h11.2v-6.32h-17.6v28.4h17.6v-6.32h-11.2v-4.8h8.8v-6.16h-8.8Z" style="fill-rule:nonzero" transform="translate(-168.917 -2229.247) scale(4.16667)"/><path d="M652.78 557.14v-20.4h-20.04v20.96l6.16-.72V542.9h7.48v14.24h6.4Zm-20.04-.12c0 2.36-1.56 2.64-4.2 2.4v5.72c5.96.76 10.36-1.68 10.36-8.16l-6.16.04Z" style="fill-rule:nonzero" transform="translate(-168.917 -2226.087) scale(4.16667)"/><path d="m710.432 536.74-17.92 15.16v-14.84h-6.4v28.72l17.92-15.16v14.84h6.4v-28.72Zm-17.92 20.72v-20.4h-20.04v20.96l6.16-.72v-14.08h7.48v14.24h6.4Zm-20.04-.12c0 2.36-1.56 2.64-4.2 2.4v5.72c5.96.76 10.36-1.68 10.36-8.16l-6.16.04Z" style="fill-rule:nonzero" transform="translate(-168.917 -2227.417) scale(4.16667)"/><path d="M744.554 548.62h-4.12V537.5h-6.4v28.4h6.4v-11.12h4.12c1.44 6.52 7.24 11.44 14.2 11.44 8 0 14.52-6.52 14.52-14.52s-6.52-14.52-14.52-14.52c-6.96 0-12.76 4.92-14.2 11.44Zm14.2 11.44c-4.6 0-8.08-3.8-8.08-8.36s3.48-8.36 8.08-8.36 8.08 3.8 8.08 8.36-3.48 8.36-8.08 8.36Z" style="fill-rule:nonzero" transform="translate(-168.917 -2229.247) scale(4.16667)"/><path d="M740.434 557.14v-20.4h-20.04v20.96l6.16-.72V542.9h7.48v14.24h6.4Zm-20.04-.12c0 2.36-1.56 2.64-4.2 2.4v5.72c5.96.76 10.36-1.68 10.36-8.16l-6.16.04Z" style="fill-rule:nonzero" transform="translate(-168.917 -2226.087) scale(4.16667)"/><path d="M64.78 515.14v-28.4H44.74v20.96l6.16-.72V492.9h7.48v22.24h6.4Zm-20.04-8.12c0 2.36-1.56 2.64-4.2 2.4v5.72c5.96.76 10.36-1.68 10.36-8.16l-6.16.04Z" style="fill-rule:nonzero" transform="translate(-168.917 -1809.417) scale(4.16667)"/><path d="m74.66 487.5-10.24 14.68 10.96 13.72h7.92l-11.28-14.08 10-14.32h-7.36ZM122.714 487.5h-7.04l-5.713 13.126-6.167-13.126h-7.2l10.218 20.364-3.498 8.036h6.84l12.56-28.4Z" style="fill-rule:nonzero" transform="translate(-168.917 -1812.587) scale(4.16667)"/><path d="M103.594 492.9v-6.16h-14.04v20.96l6.16-.72V492.9h7.88Zm-14.04 14.12c0 2.36-1.56 2.64-4.2 2.4v5.72c5.96.76 10.36-1.68 10.36-8.16l-6.16.04Z" style="fill-rule:nonzero" transform="translate(-168.917 -1809.417) scale(4.16667)"/><path d="m176.954 487.5-14.16 14.2-10.96-11-10.96 11-14.16-14.2v28.72h6.4V502.3l7.76 7.76 7.76-7.76v13.92h6.4V502.3l7.76 7.76 7.76-7.76v13.92h6.4V487.5ZM213.414 499.3h3.64c1.72 0 2.96-1.24 2.96-2.8 0-1.56-1.24-2.84-2.96-2.84h-3.64v5.64Zm2.64 5.4h-2.64v11.52h-6.36l6.24-28.4h4.48c4.64 0 8.44 3.8 8.44 8.44s-3.76 8.52-8.84 8.52l-1.32-.08Zm-16.8-3 13.84-13.88h.32v28.4h-6.4V502.3l-7.76 7.76-7.76-7.76v13.92h-6.4V487.5l14.16 14.2Z" style="fill-rule:nonzero" transform="translate(-168.917 -1813.917) scale(4.16667)"/><path d="M265.95 493.34c3.04 0 5.6 1.64 7.04 3.96l4.84-3.96c-2.64-3.72-7-6.16-11.88-6.16-3.88 0-7.48 1.48-10 4l-10.16 10.2-14.16-14.2v28.72h6.4v-13.92l7.76 7.76 5.8-5.8c1.08 6.96 7.12 12.28 14.36 12.28 4.88 0 9.24-2.44 11.88-6.16l-4.84-3.96c-1.44 2.32-4 3.96-7.04 3.96-4.6 0-8.08-3.8-8.08-8.36s3.48-8.36 8.08-8.36Z" style="fill-rule:nonzero" transform="translate(-168.917 -1812.587) scale(4.16667)"/><path d="m311.584 487.82-13.84 13.88-14.16-14.2v28.72h6.4V502.3l7.76 7.76 7.76-7.76v13.92h17.6v-6.32h-11.2v-4.8h8.8v-6.16h-8.8v-4.8h11.2v-6.32h-11.52Z" style="fill-rule:nonzero" transform="translate(-168.917 -1813.917) scale(4.16667)"/><path d="m357.894 487.18-14.16 14.2-14.16-14.2v28.72h6.4v-13.92l7.76 7.76 7.76-7.76v13.92l6.4-6v-22.72Zm17.92 0-17.92 15.16V487.5l-6.4 8v20.72l17.92-15.16v14.84h6.4v-28.72ZM412.074 487.18l-14.16 14.2-14.16-14.2v28.72h6.4v-13.92l7.76 7.76 7.76-7.76v13.92h6.4v-28.72Zm4.12 11.44h-4.12v-3.12h-6.4v20.4h6.4v-11.12h4.12c1.44 6.52 7.24 11.44 14.2 11.44 8 0 14.52-6.52 14.52-14.52s-6.52-14.52-14.52-14.52c-6.96 0-12.76 4.92-14.2 11.44Zm14.2 11.44c-4.6 0-8.08-3.8-8.08-8.36s3.48-8.36 8.08-8.36 8.08 3.8 8.08 8.36-3.48 8.36-8.08 8.36Z" style="fill-rule:nonzero" transform="translate(-168.917 -1812.587) scale(4.16667)"/><path d="m480.534 487.5-14.16 14.2-14.16-14.2v28.72h6.4V502.3l7.76 7.76 7.76-7.76v13.92h6.4V502.9l10.64 13.32h7.92l-11.28-14.08 10-14.32h-7.36l-9.92 14.24V487.5Z" style="fill-rule:nonzero" transform="translate(-168.917 -1813.917) scale(4.16667)"/><path d="m527.732 491.18-10.16 10.2-14.16-14.2v28.72h6.4v-13.92l7.76 7.76 5.8-5.8c1.08 6.96 7.12 12.28 14.36 12.28 8 0 14.52-6.52 14.52-14.52s-6.52-14.52-14.52-14.52c-3.88 0-7.48 1.48-10 4Zm1.92 10.52c0-4.56 3.48-8.36 8.08-8.36s8.08 3.8 8.08 8.36-3.48 8.36-8.08 8.36-8.08-3.8-8.08-8.36Z" style="fill-rule:nonzero" transform="translate(-168.917 -1812.587) scale(4.16667)"/><path d="m587.256 487.5-14.16 14.2-14.16-14.2v28.72h6.4V502.3l7.76 7.76 7.76-7.76v13.92h6.4V487.5Zm0 16.2h4.08c2.08 0 3.6 1.16 3.6 3.28s-1.52 3.24-3.6 3.24h-4.08v-6.52Zm4.16-5.96h-4.16v-9.92l-6.4 8v20.4h10.56c5.56 0 9.72-3.92 9.72-9.24s-4.16-9.24-9.72-9.24ZM628.82 516.22h6.4v-22.08h6.76v-6.32h-20.16v6.32h6.76l-7.52 7.56-14.16-14.2v28.72h6.4V502.3l7.76 7.76 7.76-7.76v13.92ZM675.346 487.82l-13.84 13.88-14.16-14.2v28.72h6.4V502.3l7.76 7.76 7.76-7.76v13.92h12.6c4.8 0 8.6-3.76 8.6-8.44 0-3.04-1.6-5.36-4-6.6 1.24-1.28 2-2.92 2-4.92 0-4.64-3.8-8.44-8.44-8.44h-4.68Zm5.92 22.52h-5.6v-5.64h5.6c1.72 0 2.96 1.28 2.96 2.84 0 1.56-1.24 2.8-2.96 2.8Zm-1.96-11.04h-3.64v-5.64h3.64c1.72 0 2.96 1.28 2.96 2.84 0 1.56-1.24 2.8-2.96 2.8ZM724.848 487.5l-14.16 14.2-14.16-14.2v28.72h6.4V502.3l7.76 7.76 7.76-7.76v13.92h6.4V487.5Zm17.4 28.72h6.44v-28.4h-6.44v28.4Zm-17.4-12.52h4.08c2.08 0 3.6 1.16 3.6 3.28s-1.52 3.24-3.6 3.24h-4.08v-6.52Zm4.16-5.96h-4.16v-9.92l-6.4 8v20.4h10.56c5.56 0 9.72-3.92 9.72-9.24s-4.16-9.24-9.72-9.24ZM785.244 487.5l-14.16 14.2-14.16-14.2v28.72h6.4V502.3l7.76 7.76 7.76-7.76v13.92h6.4v-9.92l7.4 9.92h7.12l-7.84-10.52 6.8-9.48h-6.96l-6.52 9.12V487.5Z" style="fill-rule:nonzero" transform="translate(-168.917 -1813.917) scale(4.16667)"/><path d="M50.08 448.94v-11.12h-6.4v28.4h6.4V455.1H61.4L56 466.22h6.72l2.04-4.4h10.48l2.04 4.4H84L70 437.5l-5.6 11.44H50.08ZM70 450.7l2.68 5.92h-5.36L70 450.7ZM134.49 437.5l-14.16 14.2-14.16-14.2v11.44H94.81v-11.12h-6.4v28.4h6.4V455.1h11.36v11.12h6.4V452.3l7.76 7.76 7.76-7.76v13.92h6.4V437.5Z" style="fill-rule:nonzero" transform="translate(-168.917 -1397.247) scale(4.16667)"/><path d="M160.182 437.5v11.12h-11.36V437.5h-6.4v28.4h6.4v-11.12h11.36v11.12h6.4v-9.12h2.96c5.56 0 9.72-4.32 9.72-9.64s-4.16-9.64-9.72-9.64h-9.36Zm9.28 13.32h-2.88v-7.32h2.88c2.08 0 3.6 1.72 3.6 3.64 0 1.92-1.52 3.68-3.6 3.68ZM208.624 437.5h-6.4v11.12h-11.36V437.5h-6.4v28.4h6.4v-11.12h11.36v11.12h6.4v-28.4Zm9.6 0h-16v28.4h6.4v-22.08h9.6v-6.32ZM247.726 448.62v-4.8h11.2v-6.32h-17.6v11.12h-11.36V437.5h-6.4v28.4h6.4v-11.12h11.36v11.12h17.6v-6.32h-11.2v-4.8h8.8v-6.16h-8.8ZM307.268 437.18l-17.92 15.16V437.5h-6.4v28.72l17.92-15.16v14.84h6.4v-28.72Zm-24.32.32v11.12h-11.36V437.5h-6.4v28.4h6.4v-11.12h11.36v5.12h6.4v-22.4h-6.4ZM332.76 437.5v11.12H321.4V437.5H315v28.4h6.4v-11.12h11.36v11.12h6.4v-28.4h-6.4Zm16.24 0-10.24 14.68 10.96 13.72h7.92l-11.28-14.08 10-14.32H349ZM403.706 437.5h-23.36v11.12h-11.36V437.5h-6.4v28.4h6.4v-11.12h11.36v11.12h6.4v-22.24h10.56v22.24h6.4v-28.4ZM435.55 437.5h-6.4v11.12h-11.36V437.5h-6.4v28.4h6.4v-11.12h11.36v11.12l6.4-19.28v-9.12Zm4.08 15.88c2.08 0 3.6 1.16 3.6 3.28s-1.52 3.24-3.6 3.24h-4.08v-6.52h4.08Zm-4.08-15.88h-6.4v28.4h10.56c5.56 0 9.72-3.92 9.72-9.24s-4.16-9.24-9.72-9.24h-4.16v-9.92ZM472.746 437.5v11.12h-11.36V437.5h-6.4v28.4h6.4v-11.12h11.36v11.12h12.6c4.8 0 8.6-3.76 8.6-8.44 0-3.04-1.6-5.36-4-6.6 1.24-1.28 2-2.92 2-4.92 0-4.64-3.8-8.44-8.44-8.44h-10.76Zm6.4 16.88h5.6c1.72 0 2.96 1.28 2.96 2.84 0 1.56-1.24 2.8-2.96 2.8h-5.6v-5.64Zm3.64-5.4h-3.64v-5.64h3.64c1.72 0 2.96 1.28 2.96 2.84 0 1.56-1.24 2.8-2.96 2.8ZM523.96 437.5h-6.4v11.12H506.2V437.5h-6.4v28.4h6.4v-11.12h11.36v11.12l6.4-19.28v-9.12Zm4.08 15.88c2.08 0 3.6 1.16 3.6 3.28s-1.52 3.24-3.6 3.24h-4.08v-6.52h4.08Zm-4.08-15.88h-6.4v28.4h10.56c5.56 0 9.72-3.92 9.72-9.24s-4.16-9.24-9.72-9.24h-4.16v-9.92Zm23.84 0h-6.44v28.4h6.44v-28.4ZM565.108 450.82h-2.88v-7.32h2.88c2.08 0 3.6 1.72 3.6 3.64 0 1.92-1.52 3.68-3.6 3.68Zm-2.88 5.96h2.96c5.56 0 9.72-4.32 9.72-9.64s-4.16-9.64-9.72-9.64h-9.36v28.4h6.4v-9.12Zm13.44 3.6 3.2-6.96-4.92-10.52-5.08 3.88 6.8 13.6Zm7.6-22.88-12.36 28.4h6.84l12.56-28.4h-7.04ZM603.974 443.34c4.6 0 8.08 3.8 8.08 8.36s-3.48 8.36-8.08 8.36c-3.04 0-5.6-1.64-7.04-3.96l-4.84 3.96c2.64 3.72 7 6.16 11.88 6.16 8 0 14.52-6.52 14.52-14.52s-6.52-14.52-14.52-14.52c-4.88 0-9.24 2.44-11.88 6.16l4.84 3.96c1.44-2.32 4-3.96 7.04-3.96Zm8.24 11.16v-5.6h-11.72v5.6h11.72Z" style="fill-rule:nonzero" transform="translate(-168.917 -1395.917) scale(4.16667)"/><path d="M631.414 441.5v5.6c4.56 0 8.08 2.08 8.08 6.48 0 4.24-3.24 6.08-8.08 6.08v5.6c8.8 0 14.52-4.48 14.52-11.68 0-7.64-6.36-12.08-14.52-12.08Zm-5.64-4v30.88h6.44V437.5h-6.44Zm.8 4c-8.16 0-14.52 4.44-14.52 12.08 0 7.2 5.72 11.68 14.52 11.68v-5.6c-4.84 0-8.08-1.84-8.08-6.08 0-4.4 3.52-6.48 8.08-6.48v-5.6Z" style="fill-rule:nonzero" transform="translate(-168.917 -1406.247) scale(4.16667)"/><path d="M662.564 443.34c4.6 0 8.08 3.8 8.08 8.36s-3.48 8.36-8.08 8.36c-3.04 0-5.6-1.64-7.04-3.96l-4.84 3.96c2.64 3.72 7 6.16 11.88 6.16 8 0 14.52-6.52 14.52-14.52s-6.52-14.52-14.52-14.52c-4.88 0-9.24 2.44-11.88 6.16l4.84 3.96c1.44-2.32 4-3.96 7.04-3.96Zm8.24 11.16v-5.6h-11.72v5.6h11.72Z" style="fill-rule:nonzero" transform="translate(-168.917 -1395.917) scale(4.16667)"/><path d="M690.004 441.5v5.6c4.56 0 8.08 2.08 8.08 6.48 0 4.24-3.24 6.08-8.08 6.08v5.6c8.8 0 14.52-4.48 14.52-11.68 0-7.64-6.36-12.08-14.52-12.08Zm-5.64-4v30.88h6.44V437.5h-6.44Zm.8 4c-8.16 0-14.52 4.44-14.52 12.08 0 7.2 5.72 11.68 14.52 11.68v-5.6c-4.84 0-8.08-1.84-8.08-6.08 0-4.4 3.52-6.48 8.08-6.48v-5.6Zm32.28 0v5.6c4.56 0 8.08 2.08 8.08 6.48 0 4.24-3.24 6.08-8.08 6.08v5.6c8.8 0 14.52-4.48 14.52-11.68 0-7.64-6.36-12.08-14.52-12.08Zm-5.64-4v30.88h6.44V437.5h-6.44Zm.8 4c-8.16 0-14.52 4.44-14.52 12.08 0 7.2 5.72 11.68 14.52 11.68v-5.6c-4.84 0-8.08-1.84-8.08-6.08 0-4.4 3.52-6.48 8.08-6.48v-5.6Z" style="fill-rule:nonzero" transform="translate(-168.917 -1406.247) scale(4.16667)"/><path d="M759.966 437.5h-9.36c-5.56 0-9.72 3.92-9.72 9.24s4.16 9 9.72 9h2.96v10.16h6.4v-28.4Zm-12.96 14.84-8.76 13.56h7.24l7.76-12.28-6.24-1.28Zm6.56-9v6.28h-2.84c-2.48 0-3.6-1.12-3.6-3.04s1.52-3.24 3.6-3.24h2.84Zm9.28.16c2.08 0 3.6 1.72 3.6 3.64 0 1.92-1.52 3.68-3.6 3.68h-2.88v-7.32h2.88Zm.08-6h-2.96v19.28h2.96c5.56 0 9.72-4.32 9.72-9.64s-4.16-9.64-9.72-9.64Z" style="fill-rule:nonzero" transform="translate(-168.917 -1395.917) scale(4.16667)"/><path d="m81.4 387.18-17.92 15.16V387.5h-9.36c-5.56 0-9.72 3.92-9.72 9.24 0 3.528 1.829 6.334 4.683 7.825L41.76 415.9H49l6.42-10.16h1.66v10.48L75 401.06v14.84h6.4v-28.72Zm-24.32 12.44h-2.84c-2.48 0-3.6-1.12-3.6-3.04s1.52-3.24 3.6-3.24h2.84v6.28ZM127.034 387.18c-6.96 0-12.76 4.92-14.2 11.44h-4.12V387.5h-6.4v28.4h6.4v-11.12h4.12c1.44 6.52 7.24 11.44 14.2 11.44 8 0 14.52-6.52 14.52-14.52s-6.52-14.52-14.52-14.52Zm-31.28 15.16-8.76 13.56h7.24l7.76-12.28-6.24-1.28Zm12.96-14.84h-9.36c-5.56 0-9.72 3.92-9.72 9.24s4.16 9 9.72 9h2.96v10.16h6.4v-28.4Zm-6.4 5.84v6.28h-2.84c-2.48 0-3.6-1.12-3.6-3.04s1.52-3.24 3.6-3.24h2.84Zm24.72 0c4.6 0 8.08 3.8 8.08 8.36s-3.48 8.36-8.08 8.36-8.08-3.8-8.08-8.36 3.48-8.36 8.08-8.36Z" style="fill-rule:nonzero" transform="translate(-168.917 -979.25) scale(4.16667)"/><path d="M171.708 411.82h10.48l2.04 4.4h6.72l-14-28.72-10.92 22.4h-11.2v-4.8h8.8v-6.16h-8.8v-4.8h11.2v-6.32h-17.6v28.4h21.24l2.04-4.4Zm5.24-11.12 2.68 5.92h-5.36l2.68-5.92Z" style="fill-rule:nonzero" transform="translate(-168.917 -980.584) scale(4.16667)"/><path d="M236.708 415.9v-28.4h-20.04v20.96l6.16-.72v-14.08h7.48v22.24h6.4Zm-20.04-8.12c0 2.36-1.56 2.44-4.2 2.44v5.68c6.24 0 10.36-1.68 10.36-8.16l-6.16.04Zm-14.8-9.16v-4.8h11.2v-6.32h-17.6v28.4h17.04l1.08-5.68h-11.72v-5.44h8.8v-6.16h-8.8ZM283.358 387.5v11.12h-11.36V387.5h-6.4v28.4h6.4v-11.12h11.36v11.12h6.4v-28.4h-6.4Zm-32.56 11.12v-4.8h11.2v-6.32h-17.6v28.4h17.6v-6.32h-11.2v-4.8h16v-6.16h-16ZM304.054 398.62v-4.8h11.2v-6.32h-17.6v28.4h17.6v-6.32h-11.2v-4.8h17.6v-6.16h-17.6Zm24.08 2.2h-2.88v-7.32h2.88c2.08 0 3.6 1.72 3.6 3.64 0 1.92-1.52 3.68-3.6 3.68Zm-2.88 5.96h2.96c5.56 0 9.72-4.32 9.72-9.64s-4.16-9.64-9.72-9.64h-9.36v28.4h6.4v-9.12ZM375.988 410.06c-4.6 0-8.08-3.8-8.08-8.36s3.48-8.36 8.08-8.36c3.04 0 5.6 1.64 7.04 3.96l4.84-3.96c-2.64-3.72-7-6.16-11.88-6.16-8 0-14.52 6.52-14.52 14.52s6.52 14.52 14.52 14.52c4.88 0 9.24-2.44 11.88-6.16l-4.84-3.96c-1.44 2.32-4 3.96-7.04 3.96Z" style="fill-rule:nonzero" transform="translate(-168.917 -979.25) scale(4.16667)"/><path d="M349.708 398.62v-4.8h11.2v-6.32h-17.6v28.4h17.6v-6.32h-11.2v-4.8h16v-6.16h-16ZM411.14 387.5h-17.6v28.4h17.6v-6.32h-11.2v-4.8h16v-6.16h-16v-4.8h11.2v-6.32Zm19.6 0h-16v28.4h6.4v-22.08h9.6v-6.32ZM460.254 398.62v-4.8h11.2v-6.32h-35.2v28.4h35.2v-6.32h-11.2v-4.8h8.8v-6.16h-8.8Zm-17.6 0v-4.8h11.2v15.76h-11.2v-4.8h8.4v-6.16h-8.4ZM508.548 393.82h6.76v-6.32h-20.04v6.32h6.76v22.08h6.52v-22.08Z" style="fill-rule:nonzero" transform="translate(-168.917 -979.25) scale(4.16667)"/><path d="M495.308 387.5h-17.6v28.4h17.6v-6.32h-11.2v-4.8h8.8v-6.16h-8.8v-4.8h11.2v-6.32ZM563.12 407.46c0-3.04-1.6-5.36-4-6.6 1.24-1.28 2-2.92 2-4.92 0-4.64-3.8-8.44-8.44-8.44H542v28.4h12.52c4.8 0 8.6-3.76 8.6-8.44Zm-14.8-3.08h5.6c1.72 0 2.96 1.28 2.96 2.84 0 1.56-1.24 2.8-2.96 2.8h-5.6v-5.64Zm3.64-5.4h-3.64v-5.64h3.64c1.72 0 2.96 1.28 2.96 2.84 0 1.56-1.24 2.8-2.96 2.8Zm-24.76-.36v-4.8h11.2v-6.32h-17.6v28.4h17.6v-6.32h-11.2v-4.8h14.92v-6.16H527.2ZM615.382 387.18l-14.16 14.2-11.231-11.263-14.449 12.223V387.5h-6.4v28.72l17.92-15.16v14.84h6.4v-13.92l7.76 7.76 7.76-7.76v13.92h6.4v-28.72ZM647.642 387.18l-17.92 15.16V387.5h-6.4v28.72l17.92-15.16v14.84h6.4v-28.72Zm11.36.32v11.12h-11.36v6.16h11.36v11.12h6.4v-28.4h-6.4Z" style="fill-rule:nonzero" transform="translate(-168.917 -979.25) scale(4.16667)"/><path d="M700.414 387.18h-3.4l-17.48 14.84v-14.84h-6.4v28.72l17.92-15.16v14.84h6.4v-9.12h2.96c5.56 0 9.72-4.32 9.72-9.64s-4.16-9.64-9.72-9.64Zm-.08 13.32h-2.88v-7.32h2.88c2.08 0 3.6 1.72 3.6 3.64 0 1.92-1.52 3.68-3.6 3.68Z" style="fill-rule:nonzero" transform="translate(-168.917 -977.917) scale(4.16667)"/><path d="M744.944 387.18c-8 0-14.52 6.52-14.52 14.52s6.52 14.52 14.52 14.52c4.88 0 9.24-2.44 11.88-6.16l-4.84-3.96c-1.44 2.32-4 3.96-7.04 3.96-4.6 0-8.08-3.8-8.08-8.36s3.48-8.36 8.08-8.36c3.04 0 5.6 1.64 7.04 3.96l4.84-3.96c-2.64-3.72-7-6.16-11.88-6.16Zm-5.28 7.12-4.2-3.56-13.72 11.6V387.5h-6.4v28.72l17.92-15.16v1.24l6.4-8Z" style="fill-rule:nonzero" transform="translate(-168.917 -979.25) scale(4.16667)"/><path d="M786.662 415.58V393.5h9.6v-6.32h-10l-17.52 14.84v-14.84h-6.4v28.72l17.92-15.16v14.84h6.4Z" style="fill-rule:nonzero" transform="translate(-168.917 -977.917) scale(4.16667)"/><path d="M68 354.46h8.8v-6.16H68v-4.8h11.2v-6.32H67.6l-17.52 14.84v-14.84h-6.4v28.72l17.92-15.16v14.84h17.6v-6.32H68v-4.8Z" style="fill-rule:nonzero" transform="translate(-168.917 -561.25) scale(4.16667)"/><path d="m127.71 337.18-17.92 15.16v-15.16l-17.92 15.16V337.5h-6.4v28.72l17.92-15.16v15.16l17.92-15.16v14.84h6.4v-28.72ZM163.89 348.62h-4.12v-11.44l-17.92 15.16V337.5h-6.4v28.72l17.92-15.16v14.84h6.4v-11.12h4.12c1.44 6.52 7.24 11.44 14.2 11.44 8 0 14.52-6.52 14.52-14.52s-6.52-14.52-14.52-14.52c-6.96 0-12.76 4.92-14.2 11.44Zm14.2 11.44c-4.6 0-8.08-3.8-8.08-8.36s3.48-8.36 8.08-8.36 8.08 3.8 8.08 8.36-3.48 8.36-8.08 8.36ZM199.71 366.22V337.5h6.4v14.84l17.92-15.16v28.72h-6.4v-14.84l-17.92 15.16Z" style="fill-rule:nonzero" transform="translate(-168.917 -562.584) scale(4.16667)"/><path d="m233.95 337.5-10.24 14.68 10.96 13.72h7.92l-11.28-14.08 10-14.32h-7.36Z" style="fill-rule:nonzero" transform="translate(-168.917 -562.584) scale(4.16667)"/><path d="M287.988 337.18h-17.36l-17.52 14.84v-14.84h-6.4v28.72l17.92-15.16v14.84h6.4v-22.24h10.56v22.24h6.4v-28.4Z" style="fill-rule:nonzero" transform="translate(-168.917 -561.25) scale(4.16667)"/><path d="M337.92 345.02 320 360.18v-15.16l-17.92 15.16v-14.84h-6.4v28.72l17.92-15.16v15.16l17.92-15.16v14.84h6.4v-28.72Zm-3.76-7.84h-4.92c-.04 1.76-.72 2.88-2.4 2.88s-2.36-1.12-2.4-2.88h-4.92c.16 4.8 3.2 7.04 7.32 7.04s7.16-2.24 7.32-7.04Z" style="fill-rule:nonzero" transform="translate(-168.917 -595.25) scale(4.16667)"/><path d="M374.1 348.62h-4.12v-11.44l-17.92 15.16V337.5h-6.4v28.72l17.92-15.16v14.84h6.4v-11.12h4.12c1.44 6.52 7.24 11.44 14.2 11.44 8 0 14.52-6.52 14.52-14.52s-6.52-14.52-14.52-14.52c-6.96 0-12.76 4.92-14.2 11.44Zm14.2 11.44c-4.6 0-8.08-3.8-8.08-8.36s3.48-8.36 8.08-8.36 8.08 3.8 8.08 8.36-3.48 8.36-8.08 8.36Z" style="fill-rule:nonzero" transform="translate(-168.917 -562.584) scale(4.16667)"/><path d="M438.52 337.18h-4.68l-17.52 14.84v-14.84h-6.4v28.72l17.92-15.16v14.84h12.52c4.8 0 8.6-3.76 8.6-8.44 0-3.04-1.6-5.36-4-6.6 1.24-1.28 2-2.92 2-4.92 0-4.64-3.8-8.44-8.44-8.44Zm-4.36 5.84h3.64c1.72 0 2.96 1.28 2.96 2.84 0 1.56-1.24 2.8-2.96 2.8h-3.64v-5.64Zm5.6 16.68h-5.6v-5.64h5.6c1.72 0 2.96 1.28 2.96 2.84 0 1.56-1.24 2.8-2.96 2.8Z" style="fill-rule:nonzero" transform="translate(-168.917 -561.25) scale(4.16667)"/><path d="M453.582 351.7c0 8 6.52 14.52 14.52 14.52 4.2 0 8.04-1.8 10.68-4.72h11.04l2.04 4.4h6.72l-14-28.72-3.72 7.64c-2.48-4.52-7.28-7.64-12.76-7.64-8 0-14.52 6.52-14.52 14.52Zm6.44 0c0-4.56 3.48-8.36 8.08-8.36s8.08 3.8 8.08 8.36-3.48 8.36-8.08 8.36-8.08-3.8-8.08-8.36Zm24.56-1.32 2.68 5.92h-5.36l2.68-5.92ZM499.32 351.7c0 8 6.52 14.52 14.52 14.52s14.52-6.52 14.52-14.52-6.52-14.52-14.52-14.52-14.52 6.52-14.52 14.52Zm6.44 0c0-4.56 3.48-8.36 8.08-8.36s8.08 3.8 8.08 8.36-3.48 8.36-8.08 8.36-8.08-3.8-8.08-8.36Z" style="fill-rule:nonzero" transform="translate(-168.917 -562.584) scale(4.16667)"/><path d="M536.44 341.5c-8.16 0-14.52 4.44-14.52 12.08 0 7.2 5.72 11.68 14.52 11.68v-5.6c-4.84 0-8.08-1.84-8.08-6.08 0-4.4 3.52-6.48 8.08-6.48v-5.6Zm5.64-4h-6.44v30.88h6.44V337.5Zm-.8 4v5.6c4.56 0 8.08 2.08 8.08 6.48 0 4.24-3.24 6.08-8.08 6.08v5.6c8.8 0 14.52-4.48 14.52-11.68 0-7.64-6.36-12.08-14.52-12.08Z" style="fill-rule:nonzero" transform="translate(-168.917 -572.917) scale(4.16667)"/><path d="M596.16 351.38 586 341.18c-2.52-2.52-6.12-4-10-4-8 0-14.52 6.52-14.52 14.52S568 366.22 576 366.22c7.24 0 13.28-5.32 14.36-12.28l5.8 5.8 7.76-7.76v13.92h6.4v-28.72l-14.16 14.2Zm-12.08.32c0 4.56-3.48 8.36-8.08 8.36s-8.08-3.8-8.08-8.36 3.48-8.36 8.08-8.36 8.08 3.8 8.08 8.36ZM617.004 351.7c0 8 6.52 14.52 14.52 14.52 6.92 0 12.76-4.92 14.16-11.44h11.36v11.12h6.4v-28.4h-6.4v11.12h-11.36c-1.4-6.52-7.24-11.44-14.16-11.44-8 0-14.52 6.52-14.52 14.52Zm6.44 0c0-4.56 3.48-8.36 8.08-8.36s8.08 3.8 8.08 8.36-3.48 8.36-8.08 8.36-8.08-3.8-8.08-8.36ZM707.128 360.06c-4.6 0-8.08-3.8-8.08-8.36s3.48-8.36 8.08-8.36c3.04 0 5.6 1.64 7.04 3.96l4.84-3.96c-2.64-3.72-7-6.16-11.88-6.16-4.56 0-8.64 2.12-11.32 5.4a14.47 14.47 0 0 0-11.28-5.4c-8 0-14.52 6.52-14.52 14.52s6.52 14.52 14.52 14.52c4.56 0 8.64-2.08 11.28-5.4 2.68 3.32 6.76 5.4 11.32 5.4 4.88 0 9.24-2.44 11.88-6.16l-4.84-3.96c-1.44 2.32-4 3.96-7.04 3.96Zm-30.68-8.36c0-4.56 3.48-8.36 8.08-8.36s8.08 3.8 8.08 8.36-3.48 8.36-8.08 8.36-8.08-3.8-8.08-8.36ZM743.476 365.9h17.64v-6.32h-10.92a13.44 13.44 0 0 0 2-4.8h7.16v-6.16h-7.16c-.36-1.72-1.04-3.36-2-4.8h10.88v-6.32h-17.6v.76c-1.68-.68-3.52-1.08-5.44-1.08-8 0-14.52 6.52-14.52 14.52s6.52 14.52 14.52 14.52c1.92 0 3.76-.36 5.44-1.04v.72Zm-13.52-14.2c0-4.56 3.48-8.36 8.08-8.36s8.08 3.8 8.08 8.36-3.48 8.36-8.08 8.36-8.08-3.8-8.08-8.36Z" style="fill-rule:nonzero" transform="translate(-168.917 -562.584) scale(4.16667)"/><path d="M56.88 287.18c-8 0-14.52 6.52-14.52 14.52s6.52 14.52 14.52 14.52S71.4 309.7 71.4 301.7s-6.52-14.52-14.52-14.52Zm0 6.16c4.6 0 8.08 3.8 8.08 8.36s-3.48 8.36-8.08 8.36-8.08-3.8-8.08-8.36 3.48-8.36 8.08-8.36Zm36.04-6.16L75 302.34V287.5h-6.4v28.72l17.92-15.16v14.84h6.4v-28.72ZM99.69 301.7c0 8 6.52 14.52 14.52 14.52s14.52-6.52 14.52-14.52-6.52-14.52-14.52-14.52-14.52 6.52-14.52 14.52Zm6.44 0c0-4.56 3.48-8.36 8.08-8.36s8.08 3.8 8.08 8.36-3.48 8.36-8.08 8.36-8.08-3.8-8.08-8.36Zm33.12-14.2-10.24 14.68 10.96 13.72h7.92l-11.28-14.08 10-14.32h-7.36ZM148.284 301.7c0 8 6.52 14.52 14.52 14.52 4.56 0 8.64-2.08 11.28-5.4 2.68 3.32 6.76 5.4 11.32 5.4 8 0 14.52-6.52 14.52-14.52s-6.52-14.52-14.52-14.52c-4.56 0-8.64 2.12-11.32 5.4a14.47 14.47 0 0 0-11.28-5.4c-8 0-14.52 6.52-14.52 14.52Zm29.04 0c0-4.56 3.48-8.36 8.08-8.36s8.08 3.8 8.08 8.36-3.48 8.36-8.08 8.36-8.08-3.8-8.08-8.36Zm-22.6 0c0-4.56 3.48-8.36 8.08-8.36s8.08 3.8 8.08 8.36-3.48 8.36-8.08 8.36-8.08-3.8-8.08-8.36Z" style="fill-rule:nonzero" transform="translate(-168.917 -145.917) scale(4.16667)"/><path d="M219.882 295.02c-8 0-14.52 6.52-14.52 14.52s6.52 14.52 14.52 14.52 14.52-6.52 14.52-14.52-6.52-14.52-14.52-14.52Zm0 6.16c4.6 0 8.08 3.8 8.08 8.36s-3.48 8.36-8.08 8.36-8.08-3.8-8.08-8.36 3.48-8.36 8.08-8.36Zm32.12-14h-4.92c-.04 1.76-.72 2.88-2.4 2.88s-2.36-1.12-2.4-2.88h-4.92c.16 4.8 3.2 7.04 7.32 7.04s7.16-2.24 7.32-7.04Zm3.92 7.84-17.92 15.16v-14.84h-6.4v28.72l17.92-15.16v14.84h6.4v-28.72Z" style="fill-rule:nonzero" transform="translate(-168.917 -178.584) scale(4.16667)"/><path d="m294.732 301.5-3.52-10.68c-2-6.04-7.32-10.68-14-10.68-8 0-14.52 6.52-14.52 14.52s6.52 14.52 14.52 14.52c5 0 9.44-2.56 12.04-6.44l2.28 6.12-2.72 7.36h6.4l10.08-27.36h-6.4l-4.16 12.64Zm-25.6-6.84c0-4.56 3.48-8.36 8.08-8.36s8.08 3.8 8.08 8.36-3.48 8.36-8.08 8.36-8.08-3.8-8.08-8.36Z" style="fill-rule:nonzero" transform="translate(-168.917 -116.584) scale(4.16667)"/><path d="M333.32 308.7v-21.2h-23.36v28.4h6.4v-22.24h10.56v22.24l6.4-7.2Zm17.92-21.52-17.92 15.16V287.5l-6.4 8v20.72l17.92-15.16v14.84h6.4v-28.72ZM382.492 315.9v-28.4h-23.56v28.4h6.4v-22.24h10.76v22.24h6.4Z" style="fill-rule:nonzero" transform="translate(-168.917 -145.917) scale(4.16667)"/><path d="m392.212 287.5-10.24 14.68 10.96 13.72h7.92l-11.28-14.08 10-14.32h-7.36Z" style="fill-rule:nonzero" transform="translate(-168.917 -145.917) scale(4.16667)"/><path d="M435.882 287.82h-6.44v22.24h-5.8v-22.24h-6.44v22.24h-5.84v-22.24h-6.44l.042 28.4h24.598l6.32-5.6v-22.8Zm17.92-.32-17.92 15.16v-14.84h-6.4v28.4h.4l17.52-14.84v14.84h6.4V287.5Z" style="fill-rule:nonzero" transform="translate(-168.917 -147.25) scale(4.16667)"/><path d="M461.914 315.9h32.84v-28.4h-6.4v22.24h-6.8V287.5h-6.4v22.24h-6.84V287.5h-6.44l.04 28.4Z" style="fill-rule:nonzero" transform="translate(-168.917 -145.917) scale(4.16667)"/><path d="m502.794 287.5-10.24 14.68 10.96 13.72h7.92l-11.28-14.08 10-14.32h-7.36Z" style="fill-rule:nonzero" transform="translate(-168.917 -145.917) scale(4.16667)"/><path d="M536.406 287.18h-4.92c-.04 1.76-.72 2.88-2.4 2.88s-2.36-1.12-2.4-2.88h-4.92c.16 4.8 3.2 7.04 7.32 7.04s7.16-2.24 7.32-7.04Zm-20.52 36.88v-28.72h6.4v14.84l17.92-15.16v28.72h-6.4V308.9l-17.92 15.16Z" style="fill-rule:nonzero" transform="translate(-168.917 -178.584) scale(4.16667)"/><path d="m550.086 287.5-10.24 14.68 10.96 13.72h7.92l-11.28-14.08 10-14.32h-7.36ZM574.202 293.82h6.76v-6.32h-20.04v6.32h6.76v22.08h6.52v-22.08Z" style="fill-rule:nonzero" transform="translate(-168.917 -145.917) scale(4.16667)"/><path d="M587.322 287.5h-6.4v28.4h10.56c5.56 0 9.72-3.92 9.72-9.04 0-5.12-4.16-9.04-9.72-9.04h-4.16V287.5Zm4.08 16.28c2.08 0 3.6 1.16 3.6 3.08 0 1.92-1.52 3.04-3.6 3.04h-4.08v-6.12h4.08Zm7.84-16.28h-18.32v28.4h6.4v-22.08h11.92v-6.32Z" style="fill-rule:nonzero" transform="translate(-168.917 -145.917) scale(4.16667)"/><path d="M618.386 287.9h9.96v-6.32h-23.24v6.32h6.76v22.08h6.52V287.9Zm33.72 15.92h-3.76v-22.24h-20.04v16.72c0 3.52-.68 5.52-2.92 5.52h-1.84v12.08h6.16v-5.92h16.24v5.92h6.16v-12.08Zm-10.16 0h-9.28c1.32-1.4 1.8-3.08 1.8-7.56v-8.52h7.48v16.08Z" style="fill-rule:nonzero" transform="translate(-168.917 -121.25) scale(4.16667)"/><path d="M670.244 293.82h6.76v-6.32h-20.04v6.32h6.76v22.08h6.52v-11.12h11.36v11.12h6.4v-28.4h-6.4v11.12h-11.36v-4.8ZM704.528 293.82h6.76v-6.32h-20.04v6.32h6.76v22.08h6.52v-22.08Z" style="fill-rule:nonzero" transform="translate(-168.917 -145.917) scale(4.16667)"/><path d="M720.448 300.82h-2.88v-7.32h2.88c2.08 0 3.6 1.72 3.6 3.64 0 1.92-1.52 3.68-3.6 3.68Zm-2.88 5.96h2.96c5.56 0 9.72-4.32 9.72-9.64s-4.16-9.64-9.72-9.64h-9.36v28.4h6.4v-9.12ZM746.822 293.82h6.76v-6.32h-20.04v6.32h6.76v22.08h6.52v-22.08Z" style="fill-rule:nonzero" transform="translate(-168.917 -145.917) scale(4.16667)"/><path d="M759.942 298.62v-4.8h11.2v-6.32h-17.6v28.4h17.6v-6.32h-11.2v-4.8h8.8v-6.16h-8.8Z" style="fill-rule:nonzero" transform="translate(-168.917 -145.917) scale(4.16667)"/><path d="m48.56 266.22 17.92-15.16v14.84h6.4v-28.72l-17.92 15.16v-8.52h6.8v-6.32h-20v6.32h6.8v22.4ZM91.328 243.82h6.76v-6.32h-20.04v6.32h6.76v22.08h6.52v-22.08Z" style="fill-rule:nonzero" transform="translate(-168.917 270.75) scale(4.16667)"/><path d="M132.608 253.82h-3.72v-22.24h-6.44v22.24h-5.8v-22.24h-6.44v22.24h-5.84v-22.24h-6.44l.04 28.4h28.48v5.92h6.16v-12.08Z" style="fill-rule:nonzero" transform="translate(-168.917 295.416) scale(4.16667)"/><path d="M167.564 243.82h6.76v-6.32h-36.72v6.32h6.76v22.08h6.52v-22.08h10.16v22.08h6.52v-22.08ZM191.036 243.82h6.76v-6.32h-20.04v6.32h6.76v22.08h6.52v-22.08ZM218.916 257.46c0-3.04-1.6-5.36-4-6.6 1.24-1.28 2-2.92 2-4.92 0-4.64-3.8-8.44-8.44-8.44h-10.68v28.4h12.52c4.8 0 8.6-3.76 8.6-8.44Zm-14.8-3.08h5.6c1.72 0 2.96 1.28 2.96 2.84 0 1.56-1.24 2.8-2.96 2.8h-5.6v-5.64Zm3.64-5.4h-3.64v-5.64h3.64c1.72 0 2.96 1.28 2.96 2.84 0 1.56-1.24 2.8-2.96 2.8Z" style="fill-rule:nonzero" transform="translate(-168.917 270.75) scale(4.16667)"/><path d="M237.624 237.46h-6.04v20.36l13.32-9.68v9.32h6.04v-20.32l-13.32 9.72v-9.4Z" style="fill-rule:nonzero" transform="translate(-168.917 305.916) scale(4.16667)"/><path d="M238.064 243.82h6.76v-6.32h-20.04v6.32h6.76v22.08l6.52-4.8v-17.28ZM280.244 260.06c-4.6 0-8.08-3.8-8.08-8.36s3.48-8.36 8.08-8.36c3.04 0 5.6 1.64 7.04 3.96l4.84-3.96c-2.64-3.72-7-6.16-11.88-6.16-8 0-14.52 6.52-14.52 14.52s6.52 14.52 14.52 14.52c4.88 0 9.24-2.44 11.88-6.16l-4.84-3.96c-1.44 2.32-4 3.96-7.04 3.96Z" style="fill-rule:nonzero" transform="translate(-168.917 270.75) scale(4.16667)"/><path d="m263.004 260.38 3.2-6.96-7.48-15.92h-7.2l11.48 22.88Zm4.04-14.68-8.8 20.2h6.84l7.68-17.44-5.72-2.76ZM318.564 257.46c0-3.04-1.6-5.36-4-6.6 1.24-1.28 2-2.92 2-4.92 0-4.64-3.8-8.44-8.44-8.44h-10.68v28.4h12.52c4.8 0 8.6-3.76 8.6-8.44Zm-14.8-3.08h5.6c1.72 0 2.96 1.28 2.96 2.84 0 1.56-1.24 2.8-2.96 2.8h-5.6v-5.64Zm3.64-5.4h-3.64v-5.64h3.64c1.72 0 2.96 1.28 2.96 2.84 0 1.56-1.24 2.8-2.96 2.8Z" style="fill-rule:nonzero" transform="translate(-168.917 270.75) scale(4.16667)"/><path d="M312.404 247.5c0 5.48 3.76 10.32 9.68 10.32 1.64 0 3.24-.52 4.4-1.48v1.16h6.04v-20h-6.04v1.2c-1.16-.96-2.76-1.52-4.4-1.52-5.92 0-9.68 4.84-9.68 10.32Zm10.68 4.8c-2.88 0-4.6-2.16-4.6-4.8 0-2.64 1.72-4.8 4.6-4.8 1.48 0 2.56.6 3.4 1.68v6.28c-.84 1.08-1.92 1.64-3.4 1.64Z" style="fill-rule:nonzero" transform="translate(-168.917 305.75) scale(4.16667)"/><path d="M360.69 257.46c0-3.04-1.6-5.36-4-6.6 1.24-1.28 2-2.92 2-4.92 0-4.64-3.8-8.44-8.44-8.44h-10.68v28.4h12.52c4.8 0 8.6-3.76 8.6-8.44Zm-14.8-3.08h5.6c1.72 0 2.96 1.28 2.96 2.84 0 1.56-1.24 2.8-2.96 2.8h-5.6v-5.64Zm3.64-5.4h-3.64v-5.64h3.64c1.72 0 2.96 1.28 2.96 2.84 0 1.56-1.24 2.8-2.96 2.8Z" style="fill-rule:nonzero" transform="translate(-168.917 270.75) scale(4.16667)"/><path d="M369.25 247.5c0 2.76-1.84 4.68-4.32 4.68-2.48 0-4.32-1.92-4.32-4.68s1.84-4.68 4.32-4.68c2.48 0 4.32 1.92 4.32 4.68Zm6.08 0c0-5.68-4.64-10.32-10.4-10.32-5.76 0-10.4 4.64-10.4 10.32 0 5.68 4.64 10.32 10.4 10.32 5.76 0 10.4-4.64 10.4-10.32Z" style="fill-rule:nonzero" transform="translate(-168.917 305.75) scale(4.16667)"/><path d="m380.272 241.34 3.76 4c1.6-1.44 2.88-2.08 4.64-2.08 1.8 0 3.04.96 3.04 2.68 0 1.56-1.24 2.68-2.96 2.68h-2.76v5.4h3.8c2.08 0 3.32 1.12 3.32 2.92 0 1.96-1.64 3.12-3.88 3.12-2.16 0-3.68-.68-5.48-3l-4.72 4c3.24 3.88 6.6 5.2 10.6 5.2 5.04 0 9.8-3.4 9.8-8.8 0-4.16-2.32-6.36-5.64-7.6l.04 1.6c3.32-2.28 4.12-4.16 4.12-6.44 0-4.12-3.16-7.76-8.28-7.8-3.88-.04-6.68 1.16-9.4 4.12Z" style="fill-rule:nonzero" transform="translate(-168.917 270.583) scale(4.16667)"/><path d="M403.752 252.3c-1.8 0-4.08-1.04-4.36-3.72h14.04c.08-.6.12-1.2.12-1.76 0-6.32-4.56-9.64-9.64-9.64-6.16 0-10.32 4.44-10.32 10.32 0 6.16 4.92 10.32 10.2 10.32 3.96 0 7.2-1.92 9.04-4.8l-4.8-3.24c-.8 1.48-2.16 2.52-4.28 2.52Zm3.84-7.24h-8.16c.56-2.4 2.68-3.04 4.12-3.04 1.96 0 3.72.92 4.04 3.04ZM451.242 237.5h-6.04v7.36h-7.28v-7.36h-6.04v20h6.04v-7.36h7.28v7.36h6.04v-20Zm-23.76-.32c-5.92 0-9.68 4.84-9.68 10.32s3.76 10.32 9.68 10.32c1.92 0 3.8-.76 4.96-2.04v-6.04c-.84 1.64-2.12 2.56-3.96 2.56-2.88 0-4.6-2.16-4.6-4.8 0-2.64 1.72-4.8 4.6-4.8 1.84 0 3.12.92 3.96 2.56v-6.04c-1.16-1.28-3.04-2.04-4.96-2.04ZM468.496 245.7v.6c-1.4-.72-3.04-1.08-4.64-1.08-4.28 0-7.72 2.12-7.72 6.04 0 4.52 3.52 6.56 8.04 6.56 2.96 0 5.48-.84 7.52-2.72 1.88 1.76 4.36 2.72 6.96 2.72 3.96 0 7.2-1.92 9.04-4.8l-4.8-3.24c-.8 1.48-2.16 2.52-4.28 2.52-1.8 0-4.08-1.04-4.36-3.72h14.04c.08-.6.12-1.2.12-1.76 0-6.32-4.56-9.64-9.64-9.64-2.96 0-5.44 1.04-7.24 2.72-1.92-1.92-4.4-2.72-7.48-2.72-2.04 0-4.16.4-6.04 1.12l.84 5.64c1.12-.68 3.12-1.2 5-1.2 2.24 0 4.32.76 4.64 2.96Zm13.96-.64h-8.16c.56-2.4 2.68-3.04 4.12-3.04 1.96 0 3.72.92 4.04 3.04Zm-17.76 4.28c1.48 0 2.76.32 3.8.92v1.12c-.68.92-2.2 1.4-3.84 1.4-1.24 0-2.68-.4-2.68-1.68 0-1.32 1.24-1.76 2.72-1.76ZM502.242 237.18c-5.92 0-9.68 4.84-9.68 10.32s3.76 10.32 9.68 10.32c1.92 0 3.8-.76 4.96-2.04v-6.04c-.84 1.64-2.12 2.56-3.96 2.56-2.88 0-4.6-2.16-4.6-4.8 0-2.64 1.72-4.8 4.6-4.8 1.84 0 3.12.92 3.96 2.56v-6.04c-1.16-1.28-3.04-2.04-4.96-2.04Zm10.48.32h-6.04v20l13.32-9.52v9.52h6.04v-20l-13.32 9.6v-9.6Z" style="fill-rule:nonzero" transform="translate(-168.917 305.75) scale(4.16667)"/><path d="M541.218 245.26c-5.92 0-9.68 4.84-9.68 10.32s3.76 10.32 9.68 10.32c1.92 0 3.8-.76 4.96-2.04v-6.04c-.84 1.64-2.12 2.56-3.96 2.56-2.88 0-4.6-2.16-4.6-4.8 0-2.64 1.72-4.8 4.6-4.8 1.84 0 3.12.92 3.96 2.56v-6.04c-1.16-1.28-3.04-2.04-4.96-2.04Zm10.48.32h-6.04v20l13.32-9.52v9.52h6.04v-20l-13.32 9.6v-9.6Zm12.04-8.4h-4.52c-.04 2.24-1.12 3.4-2.8 3.4-1.68 0-2.76-1.16-2.8-3.4h-4.52c.16 4.8 3.2 7.04 7.32 7.04s7.16-2.24 7.32-7.04Z" style="fill-rule:nonzero" transform="translate(-168.917 272.083) scale(4.16667)"/><path d="M582.274 245.7v.6c-1.4-.72-3.04-1.08-4.64-1.08-4.28 0-7.72 2.12-7.72 6.04 0 4.52 3.52 6.56 8.04 6.56 2.96 0 5.48-.84 7.52-2.72 1.88 1.76 4.36 2.72 6.96 2.72 3.96 0 7.2-1.92 9.04-4.8l-4.8-3.24c-.8 1.48-2.16 2.52-4.28 2.52-1.8 0-4.08-1.04-4.36-3.72h14.04c.08-.6.12-1.2.12-1.76 0-6.32-4.56-9.64-9.64-9.64-2.96 0-5.44 1.04-7.24 2.72-1.92-1.92-4.4-2.72-7.48-2.72-2.04 0-4.16.4-6.04 1.12l.84 5.64c1.12-.68 3.12-1.2 5-1.2 2.24 0 4.32.76 4.64 2.96Zm13.96-.64h-8.16c.56-2.4 2.68-3.04 4.12-3.04 1.96 0 3.72.92 4.04 3.04Zm-17.76 4.28c1.48 0 2.76.32 3.8.92v1.12c-.68.92-2.2 1.4-3.84 1.4-1.24 0-2.68-.4-2.68-1.68 0-1.32 1.24-1.76 2.72-1.76Z" style="fill-rule:nonzero" transform="translate(-168.917 305.75) scale(4.16667)"/><path d="M584.314 262.58c0 1.76 1.44 3.2 3.2 3.2 1.76 0 3.2-1.44 3.2-3.2 0-1.76-1.44-3.2-3.2-3.2a3.21 3.21 0 0 0-3.2 3.2Zm9.52 0c0 1.76 1.44 3.2 3.2 3.2 1.76 0 3.2-1.44 3.2-3.2 0-1.76-1.44-3.2-3.2-3.2a3.21 3.21 0 0 0-3.2 3.2Z" style="fill-rule:nonzero" transform="translate(-168.917 180.083) scale(4.16667)"/><path d="M638.86 237.18c-5.76 0-10.4 4.64-10.4 10.32 0 5.68 4.64 10.32 10.4 10.32 5.76 0 10.4-4.64 10.4-10.32 0-5.68-4.64-10.32-10.4-10.32Zm-12.4.32h-6.04v20h6.04v-7.36h4.88v-5.28h-4.88v-7.36Zm12.4 5.32c2.48 0 4.32 1.92 4.32 4.68s-1.84 4.68-4.32 4.68c-2.48 0-4.32-1.92-4.32-4.68s1.84-4.68 4.32-4.68Z" style="fill-rule:nonzero" transform="translate(-168.917 305.75) scale(4.16667)"/><path d="M616.02 237.18c-5.92 0-9.68 4.84-9.68 10.32s3.76 10.32 9.68 10.32c1.92 0 3.8-.76 4.96-2.04v-6.04c-.84 1.64-2.12 2.56-3.96 2.56-2.88 0-4.6-2.16-4.6-4.8 0-2.64 1.72-4.8 4.6-4.8 1.84 0 3.12.92 3.96 2.56v-6.04c-1.16-1.28-3.04-2.04-4.96-2.04ZM673.53 246.74l8 10.76h7.12l-8-10.76h-7.12Zm7.12-9.24-7 9.8h6.96l7-9.8h-6.96Zm-12.56 0v20h6.04v-20h-6.04Zm-4.4-.32c-5.92 0-9.68 4.84-9.68 10.32s3.76 10.32 9.68 10.32c1.92 0 3.8-.76 4.96-2.04v-6.04c-.84 1.64-2.12 2.56-3.96 2.56-2.88 0-4.6-2.16-4.6-4.8 0-2.64 1.72-4.8 4.6-4.8 1.84 0 3.12.92 3.96 2.56v-6.04c-1.16-1.28-3.04-2.04-4.96-2.04ZM724.302 237.5h-19v20h6.04v-14.72h6.92v14.72h6.04v-20Zm-23.4-.32c-5.92 0-9.68 4.84-9.68 10.32s3.76 10.32 9.68 10.32c1.92 0 3.8-.76 4.96-2.04v-6.04c-.84 1.64-2.12 2.56-3.96 2.56-2.88 0-4.6-2.16-4.6-4.8 0-2.64 1.72-4.8 4.6-4.8 1.84 0 3.12.92 3.96 2.56v-6.04c-1.16-1.28-3.04-2.04-4.96-2.04ZM770.938 257.5v-20h-6.04v14.72h-4.48V237.5h-6.04v14.72h-4.48V237.5h-6.04v20h27.08Z" style="fill-rule:nonzero" transform="translate(-168.917 305.75) scale(4.16667)"/><path d="M739.458 237.18c-5.92 0-9.68 4.84-9.68 10.32s3.76 10.32 9.68 10.32c1.92 0 3.8-.76 4.96-2.04v-6.04c-.84 1.64-2.12 2.56-3.96 2.56-2.88 0-4.6-2.16-4.6-4.8 0-2.64 1.72-4.8 4.6-4.8 1.84 0 3.12.92 3.96 2.56v-6.04c-1.16-1.28-3.04-2.04-4.96-2.04Z" style="fill-rule:nonzero" transform="translate(-168.917 305.75) scale(4.16667)"/><path d="M62.4 192.78h5.2v14.72h6.04v-14.72h5.6v-5.28H62.4v5.28ZM62.4 187.5h-6.04v20h6.04v-20Zm-10.44-.32c-5.92 0-9.68 4.84-9.68 10.32s3.76 10.32 9.68 10.32c1.92 0 3.8-.76 4.96-2.04v-6.04c-.84 1.64-2.12 2.56-3.96 2.56-2.88 0-4.6-2.16-4.6-4.8 0-2.64 1.72-4.8 4.6-4.8 1.84 0 3.12.92 3.96 2.56v-6.04c-1.16-1.28-3.04-2.04-4.96-2.04Z" style="fill-rule:nonzero" transform="translate(-168.917 722.416) scale(4.16667)"/><path d="M103.662 205.58h-6.08c0 3-1.84 4.68-4.32 4.68-2.56 0-4.28-1.88-4.28-5.44l.08-6.64c.04-3.8 1.96-5.72 5.12-5.72h6.88l1.28-5.28h-8.6c-6.68 0-10.76 5.08-10.76 13.8v2.52c0 7.64 4.08 12.4 10.32 12.4 5.84 0 10.36-4.56 10.36-10.32Zm-9.2-9.88c-2.32 0-4.28.8-5.44 2.08l-.08 5.96c.84-1.64 2.28-2.52 4.44-2.52 2.68 0 4.2 2.12 4.2 4.36h6.08c0-5.08-3.28-9.88-9.2-9.88Z" style="fill-rule:nonzero" transform="translate(-168.917 688.75) scale(4.16667)"/><path d="M97.582 197.5c0 5.48 3.76 10.32 9.68 10.32 1.64 0 3.24-.52 4.4-1.48v1.16h6.04v-20h-6.04v1.2c-1.16-.96-2.76-1.52-4.4-1.52-5.92 0-9.68 4.84-9.68 10.32Zm10.68 4.8c-2.88 0-4.6-2.16-4.6-4.8 0-2.64 1.72-4.8 4.6-4.8 1.48 0 2.56.6 3.4 1.68v6.28c-.84 1.08-1.92 1.64-3.4 1.64Z" style="fill-rule:nonzero" transform="translate(-168.917 722.416) scale(4.16667)"/><path d="M143.856 205.58h-6.08c0 3-1.84 4.68-4.32 4.68-2.56 0-4.28-1.88-4.28-5.44l.08-6.64c.04-3.8 1.96-5.72 5.12-5.72h6.88l1.28-5.28h-8.6c-6.68 0-10.76 5.08-10.76 13.8v2.52c0 7.64 4.08 12.4 10.32 12.4 5.84 0 10.36-4.56 10.36-10.32Zm-9.2-9.88c-2.32 0-4.28.8-5.44 2.08l-.08 5.96c.84-1.64 2.28-2.52 4.44-2.52 2.68 0 4.2 2.12 4.2 4.36h6.08c0-5.08-3.28-9.88-9.2-9.88Z" style="fill-rule:nonzero" transform="translate(-168.917 688.75) scale(4.16667)"/><path d="M155.096 188.38v-8.24h-6.08v8.24c-6.4 0-11.24 4.16-11.24 10.04 0 5.96 4.84 10.24 11.24 10.24v7.24h6.08v-7.24c6.4 0 11.24-4.28 11.24-10.24 0-5.88-4.84-10.04-11.24-10.04Zm-6.08 5.52v9.28c-3.12 0-5.16-1.6-5.16-4.76 0-3.08 2.04-4.52 5.16-4.52Zm6.08 9.28v-9.28c3.12 0 5.16 1.44 5.16 4.52 0 3.16-2.04 4.76-5.16 4.76Z" style="fill-rule:nonzero" transform="translate(-168.917 718.083) scale(4.16667)"/><path d="M191.694 205.58h-6.08c0 3-1.84 4.68-4.32 4.68-2.56 0-4.28-1.88-4.28-5.44l.08-6.64c.04-3.8 1.96-5.72 5.12-5.72h6.88l1.28-5.28h-8.6c-6.68 0-10.76 5.08-10.76 13.8v2.52c0 7.64 4.08 12.4 10.32 12.4 5.84 0 10.36-4.56 10.36-10.32Zm-9.2-9.88c-2.32 0-4.28.8-5.44 2.08l-.08 5.96c.84-1.64 2.28-2.52 4.44-2.52 2.68 0 4.2 2.12 4.2 4.36h6.08c0-5.08-3.28-9.88-9.2-9.88Z" style="fill-rule:nonzero" transform="translate(-168.917 688.75) scale(4.16667)"/><path d="M185.614 197.5c0 5.68 4.64 10.32 10.4 10.32 3.68 0 6.92-1.88 8.76-4.72l-4.8-3.4c-.8 1.48-2.2 2.48-3.96 2.48-2.48 0-4.32-1.92-4.32-4.68s1.84-4.68 4.32-4.68c1.76 0 3.16 1 3.96 2.48l4.8-3.4c-1.84-2.84-5.08-4.72-8.76-4.72-5.76 0-10.4 4.64-10.4 10.32Z" style="fill-rule:nonzero" transform="translate(-168.917 722.416) scale(4.16667)"/><path d="M228.948 205.58h-6.08c0 3-1.84 4.68-4.32 4.68-2.56 0-4.28-1.88-4.28-5.44l.08-6.64c.04-3.8 1.96-5.72 5.12-5.72h6.88l1.28-5.28h-8.6c-6.68 0-10.76 5.08-10.76 13.8v2.52c0 7.64 4.08 12.4 10.32 12.4 5.84 0 10.36-4.56 10.36-10.32Zm-9.2-9.88c-2.32 0-4.28.8-5.44 2.08l-.08 5.96c.84-1.64 2.28-2.52 4.44-2.52 2.68 0 4.2 2.12 4.2 4.36h6.08c0-5.08-3.28-9.88-9.2-9.88Z" style="fill-rule:nonzero" transform="translate(-168.917 688.75) scale(4.16667)"/><path d="M233.268 202.3c-1.8 0-4.08-1.04-4.36-3.72h14.04c.08-.6.12-1.2.12-1.76 0-6.32-4.56-9.64-9.64-9.64-6.16 0-10.32 4.44-10.32 10.32 0 6.16 4.92 10.32 10.2 10.32 3.96 0 7.2-1.92 9.04-4.8l-4.8-3.24c-.8 1.48-2.16 2.52-4.28 2.52Zm3.84-7.24h-8.16c.56-2.4 2.68-3.04 4.12-3.04 1.96 0 3.72.92 4.04 3.04Z" style="fill-rule:nonzero" transform="translate(-168.917 722.416) scale(4.16667)"/><path d="M267.966 205.58h-6.08c0 3-1.84 4.68-4.32 4.68-2.56 0-4.28-1.88-4.28-5.44l.08-6.64c.04-3.8 1.96-5.72 5.12-5.72h6.88l1.28-5.28h-8.6c-6.68 0-10.76 5.08-10.76 13.8v2.52c0 7.64 4.08 12.4 10.32 12.4 5.84 0 10.36-4.56 10.36-10.32Zm-9.2-9.88c-2.32 0-4.28.8-5.44 2.08l-.08 5.96c.84-1.64 2.28-2.52 4.44-2.52 2.68 0 4.2 2.12 4.2 4.36h6.08c0-5.08-3.28-9.88-9.2-9.88Z" style="fill-rule:nonzero" transform="translate(-168.917 688.75) scale(4.16667)"/><path d="M276.606 197.5c0 2.76-1.84 4.68-4.32 4.68-2.48 0-4.32-1.92-4.32-4.68s1.84-4.68 4.32-4.68c2.48 0 4.32 1.92 4.32 4.68Zm6.08 0c0-5.68-4.64-10.32-10.4-10.32-5.76 0-10.4 4.64-10.4 10.32 0 5.68 4.64 10.32 10.4 10.32 5.76 0 10.4-4.64 10.4-10.32Z" style="fill-rule:nonzero" transform="translate(-168.917 722.416) scale(4.16667)"/><path d="M307.656 205.58h-6.08c0 3-1.84 4.68-4.32 4.68-2.56 0-4.28-1.88-4.28-5.44l.08-6.64c.04-3.8 1.96-5.72 5.12-5.72h6.88l1.28-5.28h-8.6c-6.68 0-10.76 5.08-10.76 13.8v2.52c0 7.64 4.08 12.4 10.32 12.4 5.84 0 10.36-4.56 10.36-10.32Zm-9.2-9.88c-2.32 0-4.28.8-5.44 2.08l-.08 5.96c.84-1.64 2.28-2.52 4.44-2.52 2.68 0 4.2 2.12 4.2 4.36h6.08c0-5.08-3.28-9.88-9.2-9.88Z" style="fill-rule:nonzero" transform="translate(-168.917 688.75) scale(4.16667)"/><path d="m309.136 192.78-2.04-6.2-7.64-3.96 6.48 17.52-2.72 7.36h6.4l10.08-27.36h-6.4l-4.16 12.64Z" style="fill-rule:nonzero" transform="translate(-168.917 753.083) scale(4.16667)"/><path d="m353.982 187.5-13.32 9.6v-9.6h-6.04v20l13.32-9.52v9.52h6.04v-20Zm-25.76 0h-6.04v5.32c0 5.4 3.08 9.04 8.72 9.04 2.44 0 3.92-.4 5.16-.84v-5.84c-1.32.92-2.36 1.28-4.16 1.28-2.64 0-3.68-2.04-3.68-4.72v-4.24Z" style="fill-rule:nonzero" transform="translate(-168.917 722.416) scale(4.16667)"/><path d="M379.14 202.78v-20h-16.36v11.56c0 2-1 3.16-2.76 3.16v1.52h5.76c1.96-1.68 2.52-3.48 2.52-6.68v-4.28h4.8v14.72h6.04Zm-.72-5.28H359.1v10h5.32v-4.72h14v-5.28Zm20.28 5.28v-20h-16.4v11.48l5.52 1.48v-7.68h4.84v14.72h6.04Zm-16.4-12.56v6l5.52-.4v-5.6h-5.52Zm0 5.24c0 1.8-1.04 2.04-3.16 2.04v5.28c5.4 0 8.68-1.84 8.68-6.96l-5.52-.36Zm-19.92 2.04v5.28h14v4.72h5.32v-10h-19.32Z" style="fill-rule:nonzero" transform="translate(-168.917 742.083) scale(4.16667)"/><path d="M423.768 186.7h-6.04v20.36l13.32-9.68v9.32h6.04v-20.32l-13.32 9.72v-9.4Zm0 13.6v-13.6h-16.4v11.48l5.52 1.48v-7.68h4.84v14.72l6.04-6.4Zm-16.4-6.16v6l5.52-.4v-5.6h-5.52Zm0 5.24c0 2.08-1.04 2.68-3.16 2.4v4.92c5.4 1.12 8.68-1.84 8.68-6.96l-5.52-.36Z" style="fill-rule:nonzero" transform="translate(-168.917 725.75) scale(4.16667)"/><path d="m462.94 192.78-4.16-12.64h-6.4l7.36 20-2.72 7.36h6.4l10.08-27.36h-6.4l-4.16 12.64Z" style="fill-rule:nonzero" transform="translate(-168.917 753.083) scale(4.16667)"/><path d="M458.22 191.66v-5.28h-12.8v11.48l5.52 1.48v-7.68h7.28Zm-12.8 2.16v6l5.52-.4v-5.6h-5.52Zm0 5.24c0 2.08-1.04 2.68-3.16 2.4v4.92c5.4 1.12 8.68-1.84 8.68-6.96l-5.52-.36Z" style="fill-rule:nonzero" transform="translate(-168.917 727.083) scale(4.16667)"/><path d="M498.902 180.14h-4.04l-5.6 12.24v7.76h1.76l5.84-12.04-1.8-.72 4.64 12.76h5.56l-6.36-20Zm-15.24 0h-4.6l-3.56 20h5.8l2.16-12.76-1.88.72 5.72 12.04h1.96v-7.76l-5.6-12.24Zm23.4 0-4.88 14.76-1.6 2.8-3.6 9.8h6.4l10.08-27.36h-6.4Z" style="fill-rule:nonzero" transform="translate(-168.917 753.083) scale(4.16667)"/><path d="M517.54 187.5v20h6.04v-7.36h7.28v7.36h6.04v-20h-6.04v7.36h-7.28v-7.36h-6.04Z" style="fill-rule:nonzero" transform="translate(-168.917 722.416) scale(4.16667)"/><path d="M530.86 187.5v20h6.04v-7.36h7.28v7.36h6.04v-20h-6.04v7.36h-7.28v-7.36h-6.04ZM583.61 192.78v-5.28h-13.48v7.36h-7.28v-7.36h-6.04v20h6.04v-7.36h7.28v7.36h6.04v-14.72h7.44Z" style="fill-rule:nonzero" transform="translate(-168.917 722.416) scale(4.16667)"/><path d="M608.048 187.46h-6.04v20.36l13.32-9.68v9.32h6.04v-20.32l-13.32 9.72v-9.4Z" style="fill-rule:nonzero" transform="translate(-168.917 722.583) scale(4.16667)"/><path d="m602.008 207.5 6.04-10.4v-9.6h-6.04v7.36h-7.28v-7.36h-6.04v20h6.04v-7.36h7.28v7.36ZM627.958 187.5v20h6.04v-7.36h7.28v7.36h6.04v-20h-6.04v7.36h-7.28v-7.36h-6.04ZM655.198 207.5h7.12l-7.8-10.52 6.76-9.48h-6.96l-6.84 9.6 7.72 10.4ZM666.598 187.5v20h6.04v-7.36h7.28v7.36h6.04v-20h-6.04v7.36h-7.28v-7.36h-6.04Z" style="fill-rule:nonzero" transform="translate(-168.917 722.416) scale(4.16667)"/><path d="M696.318 197.34v10.16h5.28v-10.16h-5.28Zm2.56 5.28v-20h-6.04v14.72h-6.88v-14.72h-6.04v20h18.96Z" style="fill-rule:nonzero" transform="translate(-168.917 742.75) scale(4.16667)"/><path d="M721.624 200.14v-5.28h-7.28v-7.36h-6.04v20h6.04v-7.36h7.28Zm18.96-12.64v20h6.08v-20h-6.08Zm-19.28 0v20h8.92c5.4 0 7.36-3.92 7.36-6.84s-1.96-7-7.36-7h-2.88v-6.16h-6.04Zm6.04 10.92h2.56c1.28.08 2.04.88 2.04 2.2 0 1.36-.84 2.16-2.28 2.16h-2.32v-4.36Z" style="fill-rule:nonzero" transform="translate(-168.917 722.416) scale(4.16667)"/><path d="M781.658 199.3v1.16h6.04v-20h-6.04v1.2c-1.16-.96-2.76-1.52-4.4-1.52-2.72 0-5 1.04-6.64 2.68-1.68-1.64-3.92-2.68-6.64-2.68-1.64 0-3.24.56-4.4 1.52v-1.2h-6.04v27.36h6.04v-8.52c1.16.96 2.76 1.48 4.4 1.48 2.72 0 4.96-1 6.64-2.64 1.64 1.64 3.92 2.64 6.64 2.64 1.64 0 3.24-.52 4.4-1.48Zm0-5.68c-.84 1.08-1.92 1.64-3.4 1.64-2.88 0-4.6-2.16-4.6-4.8 0-2.64 1.72-4.8 4.6-4.8 1.48 0 2.56.6 3.4 1.68v6.28Zm-14.08-3.16c0 2.64-1.72 4.8-4.6 4.8-1.48 0-2.56-.56-3.4-1.64v-6.28c.84-1.08 1.92-1.68 3.4-1.68 2.88 0 4.6 2.16 4.6 4.8Z" style="fill-rule:nonzero" transform="translate(-168.917 751.75) scale(4.16667)"/><path d="M74.72 138.38v-8.24h-6.08v8.24c-6.4 0-11.24 4.16-11.24 10.04 0 5.96 4.84 10.24 11.24 10.24v7.24h6.08v-7.24c6.4 0 11.24-4.28 11.24-10.24 0-5.88-4.84-10.04-11.24-10.04Zm-6.08 5.52v9.28c-3.12 0-5.16-1.6-5.16-4.76 0-3.08 2.04-4.52 5.16-4.52Zm6.08 9.28v-9.28c3.12 0 5.16 1.44 5.16 4.52 0 3.16-2.04 4.76-5.16 4.76Z" style="fill-rule:nonzero" transform="translate(-168.917 1134.753) scale(4.16667)"/><path d="M49.4 130.46h-6.04v27.36h6.04v-27.36Zm4.4-.32c-1.92 0-3.8.76-4.96 2.04v6.04c.84-1.64 2.12-2.56 3.96-2.56 2.88 0 4.6 2.16 4.6 4.8 0 2.64-1.72 4.8-4.6 4.8-1.84 0-3.12-.92-3.96-2.56v6.04c1.16 1.28 3.04 2.04 4.96 2.04 5.92 0 9.68-4.84 9.68-10.32s-3.76-10.32-9.68-10.32Z" style="fill-rule:nonzero" transform="translate(-168.917 1168.413) scale(4.16667)"/><path d="M105.868 147.5c0 5.68 4.64 10.32 10.4 10.32 3.68 0 6.92-1.88 8.76-4.72l-4.8-3.4c-.8 1.48-2.2 2.48-3.96 2.48-2.48 0-4.32-1.92-4.32-4.68s1.84-4.68 4.32-4.68c1.76 0 3.16 1 3.96 2.48l4.8-3.4c-1.84-2.84-5.08-4.72-8.76-4.72-5.76 0-10.4 4.64-10.4 10.32Z" style="fill-rule:nonzero" transform="translate(-168.917 1139.083) scale(4.16667)"/><path d="M111.948 140.46c0-5.48-3.76-10.32-9.68-10.32-1.64 0-3.24.56-4.4 1.52v-1.2h-6.04v27.36h6.04v-8.52c1.16.96 2.76 1.48 4.4 1.48 5.92 0 9.68-4.84 9.68-10.32Zm-10.68 4.8c-1.48 0-2.6-.56-3.4-1.64v-6.28c.8-1.08 1.92-1.68 3.4-1.68 2.88 0 4.6 2.16 4.6 4.8 0 2.64-1.72 4.8-4.6 4.8ZM154.072 130.14c-6.16 0-10.32 4.44-10.32 10.32 0 6.16 4.92 10.32 10.2 10.32 3.96 0 7.2-1.92 9.04-4.8l-4.8-3.24c-.8 1.48-2.16 2.52-4.28 2.52-2 0-4.6-1.32-4.36-4.72-.6-4.52 2.32-5.56 4.16-5.56 1.96 0 3.72.92 4.04 3.04h-9.48l.08 3.52h15.24c.08-.6.12-1.2.12-1.76 0-6.32-4.56-9.64-9.64-9.64Zm-18.32.32h-6.04v27.36h6.04v-27.36Zm4.4-.32c-1.92 0-3.8.76-4.96 2.04v6.04c.84-1.64 2.12-2.56 3.96-2.56 2.88 0 4.6 2.16 4.6 4.8 0 2.64-1.72 4.8-4.6 4.8-1.84 0-3.12-.92-3.96-2.56v6.04c1.16 1.28 3.04 2.04 4.96 2.04 3.92 0 6.92-2.16 8.48-5.2.8-1.52-1.28-2.96-1.28-4.8 0-2.52 1.68-5.24.24-7.08-1.68-2.16-4.24-3.56-7.44-3.56ZM189.228 140.46c0-5.48-3.76-10.32-9.68-10.32-1.64 0-3.24.56-4.4 1.52v-1.2h-6.04v27.36h6.04v-8.52c1.16.96 2.76 1.48 4.4 1.48 5.92 0 9.68-4.84 9.68-10.32Zm-10.68 4.8c-1.48 0-2.6-.56-3.4-1.64v-6.28c.8-1.08 1.92-1.68 3.4-1.68 2.88 0 4.6 2.16 4.6 4.8 0 2.64-1.72 4.8-4.6 4.8Z" style="fill-rule:nonzero" transform="translate(-168.917 1168.413) scale(4.16667)"/><path d="M193.748 137.5h-6.04v20l13.32-9.52v9.52h6.04v-20l-13.32 9.6v-9.6Z" style="fill-rule:nonzero" transform="translate(-168.917 1139.083) scale(4.16667)"/><path d="M242.682 140.46c0 2.76-1.84 4.68-4.32 4.68-2.48 0-4.32-1.92-4.32-4.68s1.84-4.68 4.32-4.68c2.48 0 4.32 1.92 4.32 4.68Zm6.08 0c0-5.68-4.64-10.32-10.4-10.32-5.76 0-10.4 4.64-10.4 10.32 0 5.68 4.64 10.32 10.4 10.32 5.76 0 10.4-4.64 10.4-10.32Zm-14.72 0c0-5.48-3.76-10.32-9.68-10.32-1.64 0-3.24.56-4.4 1.52v-1.2h-6.04v27.36h6.04v-8.52c1.16.96 2.76 1.48 4.4 1.48 5.92 0 9.68-4.84 9.68-10.32Zm-10.68 4.8c-1.48 0-2.6-.56-3.4-1.64v-6.28c.8-1.08 1.92-1.68 3.4-1.68 2.88 0 4.6 2.16 4.6 4.8 0 2.64-1.72 4.8-4.6 4.8ZM275.842 143.1l-1.92-5.8c-1.32-4-4.52-7.16-9.24-7.16-1.64 0-3.24.56-4.4 1.52v-1.2h-6.04v27.36h6.04v-8.52c1.16.96 2.76 1.48 4.4 1.48 2.92 0 5.28-1.16 6.96-3l1 2.68-2.72 7.36h6.4l10.08-27.36h-6.4l-4.16 12.64Zm-12.16 2.16c-1.48 0-2.6-.56-3.4-1.64v-6.28c.8-1.08 1.92-1.68 3.4-1.68 2.88 0 4.6 2.16 4.6 4.8 0 2.64-1.72 4.8-4.6 4.8Z" style="fill-rule:nonzero" transform="translate(-168.917 1168.413) scale(4.16667)"/><path d="m295.238 157.5 6.12-8.56-5.88-.76-6.76 9.32h6.52Zm11.52 0v-20h-9.32c-4.72 0-7.36 2.88-7.36 6.84 0 3.4 2.28 7.12 7.36 7.12h3.28v6.04h6.04Zm-6.04-10.84h-2.92c-1.08 0-2.08-.76-2.08-2.04 0-1.4.68-2.32 2.04-2.32h2.96v4.36Z" style="fill-rule:nonzero" transform="translate(-168.917 1139.083) scale(4.16667)"/><path d="M320.838 140.46c0-5.48-3.76-10.32-9.68-10.32-1.64 0-3.24.56-4.4 1.52v-1.2h-6.04v27.36h6.04v-8.52c1.16.96 2.76 1.48 4.4 1.48 5.92 0 9.68-4.84 9.68-10.32Zm-10.68 4.8c-1.48 0-2.6-.56-3.4-1.64v-6.28c.8-1.08 1.92-1.68 3.4-1.68 2.88 0 4.6 2.16 4.6 4.8 0 2.64-1.72 4.8-4.6 4.8Z" style="fill-rule:nonzero" transform="translate(-168.917 1168.413) scale(4.16667)"/><path d="m331.064 157.5 6.12-8.56-5.88-.76-6.76 9.32h6.52Zm11.52 0v-20h-9.32c-4.72 0-7.36 2.88-7.36 6.84 0 3.4 2.28 7.12 7.36 7.12h3.28v6.04h6.04Zm-6.04-10.84h-2.92c-1.08 0-2.08-.76-2.08-2.04 0-1.4.68-2.32 2.04-2.32h2.96v4.36Z" style="fill-rule:nonzero" transform="translate(-168.917 1139.083) scale(4.16667)"/><path d="M354.984 137.18c-5.76 0-10.4 4.64-10.4 10.32 0 5.68 4.64 10.32 10.4 10.32 5.76 0 10.4-4.64 10.4-10.32 0-5.68-4.64-10.32-10.4-10.32Zm-12.4.32h-6.04v20h6.04v-7.36h4.88v-5.28h-4.88v-7.36Zm12.4 5.32c2.48 0 4.32 1.92 4.32 4.68s-1.84 4.68-4.32 4.68c-2.48 0-4.32-1.92-4.32-4.68s1.84-4.68 4.32-4.68ZM380.086 152.3c-1.8 0-4.08-1.04-4.36-3.72h14.04c.08-.6.12-1.2.12-1.76 0-6.32-4.56-9.64-9.64-9.64-6.16 0-10.32 4.44-10.32 10.32 0 6.16 4.92 10.32 10.2 10.32 3.96 0 7.2-1.92 9.04-4.8l-4.8-3.24c-.8 1.48-2.16 2.52-4.28 2.52Zm3.84-7.24h-8.16c.56-2.4 2.68-3.04 4.12-3.04 1.96 0 3.72.92 4.04 3.04Z" style="fill-rule:nonzero" transform="translate(-168.917 1139.083) scale(4.16667)"/><path d="M383.806 147.5c0 5.68 4.64 10.32 10.4 10.32 3.68 0 6.92-1.88 8.76-4.72l-4.8-3.4c-.8 1.48-2.2 2.48-3.96 2.48-2.48 0-4.32-1.92-4.32-4.68s1.84-4.68 4.32-4.68c1.76 0 3.16 1 3.96 2.48l4.8-3.4c-1.84-2.84-5.08-4.72-8.76-4.72-5.76 0-10.4 4.64-10.4 10.32Z" style="fill-rule:nonzero" transform="translate(-168.917 1139.083) scale(4.16667)"/><path d="M413.624 137.46h-6.04v20.36l13.32-9.68v9.32h6.04v-20.32l-13.32 9.72v-9.4Z" style="fill-rule:nonzero" transform="translate(-168.917 1139.253) scale(4.16667)"/><path d="M420.904 142.7v14.8h6.04v-7.36h7.28v7.36h6.04v-20h-6.04v7.36h-7.28v-7.36l-6.04 5.2Z" style="fill-rule:nonzero" transform="translate(-168.917 1139.083) scale(4.16667)"/><path d="M452.894 137.46h-6.04v20.36l13.32-9.68v9.32h6.04v-20.32l-13.32 9.72v-9.4Z" style="fill-rule:nonzero" transform="translate(-168.917 1139.253) scale(4.16667)"/><path d="M480.294 140.46c0-5.48-3.76-10.32-9.68-10.32-1.64 0-3.24.56-4.4 1.52v-1.2l-6.04 4.4v22.96h6.04v-8.52c1.16.96 2.76 1.48 4.4 1.48 5.92 0 9.68-4.84 9.68-10.32Zm-10.68 4.8c-1.48 0-2.6-.56-3.4-1.64v-6.28c.8-1.08 1.92-1.68 3.4-1.68 2.88 0 4.6 2.16 4.6 4.8 0 2.64-1.72 4.8-4.6 4.8Z" style="fill-rule:nonzero" transform="translate(-168.917 1168.413) scale(4.16667)"/><path d="M505.064 137.14v5.28h7.44v-5.28h-7.44Zm-13.32 0h-6.04v20.36l13.32-9.68v9.32h6.04v-20l-13.32 9.4v-9.4Z" style="fill-rule:nonzero" transform="translate(-168.917 1140.583) scale(4.16667)"/><path d="M523.622 137.46h-6.04v20.36l13.32-9.68v9.32l6.04-4.8v-15.52l-13.32 9.72v-9.4Zm13.32 0-6.04 4.8v15.56l13.32-9.68v9.32h6.04v-20.32l-13.32 9.72v-9.4Z" style="fill-rule:nonzero" transform="translate(-168.917 1139.253) scale(4.16667)"/><path d="M588.252 137.14h-4.52c-.04 2.24-1.12 3.4-2.8 3.4-1.68 0-2.76-1.16-2.8-3.4h-4.52c.16 4.8 3.2 7.04 7.32 7.04s7.16-2.24 7.32-7.04Zm-25.36 8.4h-6.04v20.36l13.32-9.68v9.32l6.04-4.8v-15.52l-13.32 9.72v-9.4Zm13.32 0-6.04 4.8v15.56l13.32-9.68v9.32h6.04v-20.32l-13.32 9.72v-9.4Z" style="fill-rule:nonzero" transform="translate(-168.917 1105.583) scale(4.16667)"/><path d="M602.162 137.46h-6.04v20.36l13.32-9.68v9.32h6.04v-20.32l-13.32 9.72v-9.4Zm30.04 10c0 2.76-1.84 4.68-4.32 4.68-2.48 0-4.32-1.92-4.32-4.68s1.84-4.68 4.32-4.68c2.48 0 4.32 1.92 4.32 4.68Zm6.08 0c0-5.68-4.64-10.32-10.4-10.32-5.76 0-10.4 4.64-10.4 10.32 0 5.68 4.64 10.32 10.4 10.32 5.76 0 10.4-4.64 10.4-10.32Z" style="fill-rule:nonzero" transform="translate(-168.917 1139.253) scale(4.16667)"/><path d="M609.442 142.7v14.8h6.04v-7.36h7.28v-5.28h-7.28v-7.36l-6.04 5.2ZM668.048 147.5c0-2.76 1.84-4.68 4.32-4.68 2.48 0 4.32 1.92 4.32 4.68s-1.84 4.68-4.32 4.68c-2.48 0-4.32-1.92-4.32-4.68Zm-6.08 0c0 5.68 4.64 10.32 10.4 10.32 5.76 0 10.4-4.64 10.4-10.32 0-5.68-4.64-10.32-10.4-10.32-5.76 0-10.4 4.64-10.4 10.32Zm-11.8-10h-6.04v20.4l13.32-9.92v9.52h6.04v-20.4l-13.32 10v-9.6Z" style="fill-rule:nonzero" transform="translate(-168.917 1139.083) scale(4.16667)"/><path d="M707.798 137.14v5.28h6.88v14.72h6.04v-20h-12.92Zm-13.32 0h-6.04v20.36l13.32-9.68v9.32h6.04v-20l-13.32 9.4v-9.4Z" style="fill-rule:nonzero" transform="translate(-168.917 1140.583) scale(4.16667)"/><path d="M767.688 157.46v-20h-6.04v14.72h-4.48v-14.72h-6.04v14.72h-4.48V137.3l-6.04 4.96v15.2h27.08Zm-34.36-20h-6.04v20.36l13.32-9.68v9.32h6.04v-20.32l-13.32 9.72v-9.4Z" style="fill-rule:nonzero" transform="translate(-168.917 1139.253) scale(4.16667)"/><path d="M49.4 83.02h-6.04v20.4l13.32-9.52v9.12h6.04v-20.4l-13.32 10v-9.6Zm31.92 14.72v10.16h5.28V97.74h-5.28Zm2.44 5.28v-20h-6.04v14.72h-4.48V83.02H67.2v14.72h-4.48V82.62l-6.04 5.2v15.2h27.08Z" style="fill-rule:nonzero" transform="translate(-168.917 1574.413) scale(4.16667)"/><path d="M98.75 87.5h-6.04v20l13.32-9.52v9.52h6.04v-20l-13.32 9.6v-9.6Zm16.76 0h-3.44l-6.04 4.8v15.2h11c5.4 0 7.36-3.24 7.36-6.16 0-1.48-.76-3.24-2.4-4.48.76-1 1.12-2.16 1.12-3.2 0-2.92-2.2-6.16-7.6-6.16Zm-3.44 4.8h3.48c.8 0 1.48.4 1.48 1.6 0 1.12-.68 1.52-1.32 1.6h-3.64v-3.2Zm4.92 10.12h-4.92v-3.4h4.76c.84 0 1.48.48 1.48 1.8 0 .92-.68 1.52-1.32 1.6Z" style="fill-rule:nonzero" transform="translate(-168.917 1555.753) scale(4.16667)"/><path d="M135.332 87.46h-6.04v20.36l13.32-9.68v9.32h6.04V87.14l-13.32 9.72v-9.4Z" style="fill-rule:nonzero" transform="translate(-168.917 1555.913) scale(4.16667)"/><path d="M161.332 105.58c0 2.76-1.84 4.68-4.32 4.68-2.48 0-4.32-1.92-4.32-4.68s1.84-4.68 4.32-4.68c2.48 0 4.32 1.92 4.32 4.68Zm6.08 0c0-5.68-4.64-10.32-10.4-10.32-5.76 0-10.4 4.64-10.4 10.32 0 5.68 4.64 10.32 10.4 10.32 5.76 0 10.4-4.64 10.4-10.32Zm-20.04-18.4h-4.52c-.04 2.24-1.12 3.4-2.8 3.4-1.68 0-2.76-1.16-2.8-3.4h-4.52c.16 4.8 3.2 7.04 7.32 7.04s7.16-2.24 7.32-7.04Z" style="fill-rule:nonzero" transform="translate(-168.917 1522.083) scale(4.16667)"/><path d="M186.616 97.5c0 2.76-1.84 4.68-4.32 4.68-2.48 0-4.32-1.92-4.32-4.68s1.84-4.68 4.32-4.68c2.48 0 4.32 1.92 4.32 4.68Zm6.08 0c0-5.68-4.64-10.32-10.4-10.32-5.76 0-10.4 4.64-10.4 10.32 0 5.68 4.64 10.32 10.4 10.32 5.76 0 10.4-4.64 10.4-10.32Z" style="fill-rule:nonzero" transform="translate(-168.917 1555.753) scale(4.16667)"/><path d="M210.376 90.46c0-5.48-3.76-10.32-9.68-10.32-1.64 0-3.24.56-4.4 1.52v-1.2h-6.04v27.36h6.04V99.3c1.16.96 2.76 1.48 4.4 1.48 5.92 0 9.68-4.84 9.68-10.32Zm-10.68 4.8c-1.48 0-2.6-.56-3.4-1.64v-6.28c.8-1.08 1.92-1.68 3.4-1.68 2.88 0 4.6 2.16 4.6 4.8 0 2.64-1.72 4.8-4.6 4.8Z" style="fill-rule:nonzero" transform="translate(-168.917 1585.083) scale(4.16667)"/><path d="M240.02 102.3c-1.8 0-4.08-1.04-4.36-3.72h14.04c.08-.6.12-1.2.12-1.76 0-6.32-4.56-9.64-9.64-9.64-3.16 0-5.76 1.16-7.56 3.08-1.88-1.92-4.52-3.08-7.4-3.08-5.76 0-10.4 4.64-10.4 10.32 0 5.68 4.64 10.32 10.4 10.32 2.92 0 5.56-1.2 7.44-3.12 1.92 2 4.6 3.12 7.4 3.12 3.96 0 7.2-1.92 9.04-4.8l-4.8-3.24c-.8 1.48-2.16 2.52-4.28 2.52Zm-10.48-4.8c0 2.76-1.84 4.68-4.32 4.68-2.48 0-4.32-1.92-4.32-4.68s1.84-4.68 4.32-4.68c2.48 0 4.32 1.92 4.32 4.68Zm14.32-2.44h-8.16c.56-2.4 2.68-3.04 4.12-3.04 1.96 0 3.72.92 4.04 3.04ZM268.768 97.5c0 2.76-1.84 4.68-4.32 4.68-2.48 0-4.32-1.92-4.32-4.68s1.84-4.68 4.32-4.68c2.48 0 4.32 1.92 4.32 4.68Zm6.08 0c0-5.68-4.64-10.32-10.4-10.32-5.76 0-10.4 4.64-10.4 10.32 0 5.68 4.64 10.32 10.4 10.32 5.76 0 10.4-4.64 10.4-10.32Zm4.52-10h-6.04v20l13.32-9.52v9.52h6.04v-20l-13.32 9.6v-9.6Z" style="fill-rule:nonzero" transform="translate(-168.917 1555.753) scale(4.16667)"/><path d="M311.478 105.54c0 2.76-1.84 4.68-4.32 4.68-2.48 0-4.32-1.92-4.32-4.68s1.84-4.68 4.32-4.68c2.48 0 4.32 1.92 4.32 4.68Zm6.08 0c0-5.68-4.64-10.32-10.4-10.32-5.76 0-10.4 4.64-10.4 10.32 0 5.68 4.64 10.32 10.4 10.32 5.76 0 10.4-4.64 10.4-10.32Zm16.52-18.4h-4.52c-.04 2.24-1.12 3.4-2.8 3.4-1.68 0-2.76-1.16-2.8-3.4h-4.52c.16 4.8 3.2 7.04 7.32 7.04s7.16-2.24 7.32-7.04Zm-12.04 8.4h-6.04v20.36l13.32-9.68v9.32h6.04V95.22l-13.32 9.72v-9.4Z" style="fill-rule:nonzero" transform="translate(-168.917 1522.253) scale(4.16667)"/><path d="M365.91 102.3c-1.8 0-4.08-1.04-4.36-3.72h14.04c.08-.6.12-1.2.12-1.76 0-6.32-4.56-9.64-9.64-9.64-3.08 0-5.64 1.08-7.44 2.92-1.84-1.8-4.4-2.92-7.2-2.92-5.76 0-10.4 4.64-10.4 10.32 0 5.68 4.64 10.32 10.4 10.32 2.84 0 5.44-1.12 7.32-2.96a10.2 10.2 0 0 0 7.2 2.96c3.96 0 7.2-1.92 9.04-4.8l-4.8-3.24c-.8 1.48-2.16 2.52-4.28 2.52Zm-10.16-4.8c0 2.76-1.84 4.68-4.32 4.68-2.48 0-4.32-1.92-4.32-4.68s1.84-4.68 4.32-4.68c2.48 0 4.32 1.92 4.32 4.68Zm14-2.44h-8.16c.56-2.4 2.68-3.04 4.12-3.04 1.96 0 3.72.92 4.04 3.04Z" style="fill-rule:nonzero" transform="translate(-168.917 1555.753) scale(4.16667)"/><path d="M357.79 112.58c0 1.76 1.44 3.2 3.2 3.2 1.76 0 3.2-1.44 3.2-3.2 0-1.76-1.44-3.2-3.2-3.2a3.21 3.21 0 0 0-3.2 3.2Zm9.52 0c0 1.76 1.44 3.2 3.2 3.2 1.76 0 3.2-1.44 3.2-3.2 0-1.76-1.44-3.2-3.2-3.2a3.21 3.21 0 0 0-3.2 3.2Z" style="fill-rule:nonzero" transform="translate(-168.917 1430.083) scale(4.16667)"/><path d="M390.402 87.18c-5.76 0-10.4 4.64-10.4 10.32 0 5.68 4.64 10.32 10.4 10.32 5.76 0 10.4-4.64 10.4-10.32 0-5.68-4.64-10.32-10.4-10.32Zm18.48 20.32h7.12l-7.8-10.52 6.76-9.48h-6.96l-6.84 9.6 7.72 10.4Zm-18.48-5.32c-2.48 0-4.32-1.92-4.32-4.68s1.84-4.68 4.32-4.68c2.48 0 4.32 1.92 4.32 4.68s-1.84 4.68-4.32 4.68Z" style="fill-rule:nonzero" transform="translate(-168.917 1555.753) scale(4.16667)"/><path d="m440.762 93.1-1.72-5.16c-1.48-4.4-5.2-7.8-10.08-7.8-5.76 0-10.4 4.64-10.4 10.32 0 5.68 4.64 10.32 10.4 10.32 2.96 0 5.64-1.24 7.52-3.2l1.08 2.88-2.72 7.36h6.4l10.08-27.36h-6.4l-4.16 12.64Zm-7.48-2.64c0 2.76-1.84 4.68-4.32 4.68-2.48 0-4.32-1.92-4.32-4.68s1.84-4.68 4.32-4.68c2.48 0 4.32 1.92 4.32 4.68Z" style="fill-rule:nonzero" transform="translate(-168.917 1585.083) scale(4.16667)"/><path d="M474.13 87.46h-6.04v20.36l13.32-9.68v9.32h6.04V87.14l-13.32 9.72v-9.4Z" style="fill-rule:nonzero" transform="translate(-168.917 1555.913) scale(4.16667)"/><path d="M455.17 87.5v20h6.04V92.78h6.88l6.04-5.28h-18.96ZM526.22 87.5v20h6.08v-20h-6.08Zm-19.28 0v20h8.92c5.4 0 7.36-3.92 7.36-6.84s-1.96-7-7.36-7h-2.88V87.5h-6.04Zm6.04 10.92h2.56c1.28.08 2.04.88 2.04 2.2 0 1.36-.84 2.16-2.28 2.16h-2.32v-4.36ZM494.02 87.5v20h6.04V92.78h6.88v14.72h6.04v-20h-18.96Z" style="fill-rule:nonzero" transform="translate(-168.917 1555.753) scale(4.16667)"/><path d="M566.25 87.9h-6.04v20l13.32-9.52v9.52h6.04V87.5l-13.32 9.6v-9.2Zm0 12.4V87.9h-6.04v14.72h-4.48V87.9h-6.04v14.72h-4.48V87.9h-6.04v20h21.04l6.04-7.6Z" style="fill-rule:nonzero" transform="translate(-168.917 1554.083) scale(4.16667)"/><path d="M600.026 92.74v-5.28h-15.24v5.28h5.6v14.72l6.04-4.8v-9.92h3.6Zm-3.6-5.28h-6.04v20.36l13.32-9.68v9.32h6.04V87.14l-13.32 9.72v-9.4Z" style="fill-rule:nonzero" transform="translate(-168.917 1555.913) scale(4.16667)"/><path d="M639.422 99.3v1.16h6.04v-20h-6.04v1.2c-1.16-.96-2.76-1.52-4.4-1.52-4.4 0-7.76 2.64-8.96 6.28l-2.2 6.68-4.16-12.64h-6.4l7.36 20-2.72 7.36h6.4l3.68-10.04c1.68 1.84 4.08 3 7 3 1.64 0 3.24-.52 4.4-1.48Zm-3.4-4.04c-2.88 0-4.6-2.16-4.6-4.8 0-2.64 1.72-4.8 4.6-4.8 1.48 0 2.56.6 3.4 1.68v6.28c-.84 1.08-1.92 1.64-3.4 1.64Z" style="fill-rule:nonzero" transform="translate(-168.917 1585.083) scale(4.16667)"/><path d="M674.778 85.42h6.32l1.28-5.28h-7.6c-6.16 0-9.68 3.36-11.04 8.04l-3.84 13-4.16-12.64h-6.4l7.36 20-2.72 7.36h6.4l4.2-12.24c1.96 3.52 4.951 5.2 8.76 5.2 5.84 0 10.36-4.56 10.36-10.32 0-5.48-3.28-10.28-9.2-10.28-2.262 0-4.183.761-5.352 1.986.334-3.332 2.389-4.826 5.632-4.826Zm-5.76 12.36v-1.592c.867-1.568 2.29-2.408 4.4-2.408 2.68 0 4.2 2.12 4.2 4.76 0 3-1.84 4.68-4.32 4.68-2.56 0-4.28-1.88-4.28-5.44ZM715.576 88.38v-8.24h-6.08v8.24c-6.4 0-11.24 4.16-11.24 10.04 0 5.96 4.84 10.24 11.24 10.24v7.24h6.08v-7.24c6.4 0 11.24-4.28 11.24-10.24 0-5.88-4.84-10.04-11.24-10.04Zm-6.08 5.52v9.28c-3.12 0-5.16-1.6-5.16-4.76 0-3.08 2.04-4.52 5.16-4.52Zm6.08 9.28V93.9c3.12 0 5.16 1.44 5.16 4.52 0 3.16-2.04 4.76-5.16 4.76Z" style="fill-rule:nonzero" transform="translate(-168.917 1551.413) scale(4.16667)"/><path d="m696.816 92.78-4.16-12.64h-6.4l7.36 20-2.72 7.36h6.4l8.6-23.28-7.08 2.64-2 5.92Z" style="fill-rule:nonzero" transform="translate(-168.917 1586.413) scale(4.16667)"/><path d="m740.454 93.1-4.16-12.64h-6.4l7.36 20-2.72 7.36h6.4l3.8-10.28c1.88 2 4.56 3.24 7.56 3.24 3.68 0 6.92-1.88 8.76-4.72l-4.8-3.4c-.8 1.48-2.2 2.48-3.96 2.48-2.48 0-4.32-1.92-4.32-4.68s1.84-4.68 4.32-4.68c1.76 0 3.16 1 3.96 2.48l4.8-3.4c-1.84-2.84-5.08-4.72-8.76-4.72-4.52 0-8.48 2.84-9.8 6.84l-2.04 6.12ZM773.508 93.1l-4.16-12.64h-6.4l7.36 20-2.72 7.36h6.4l3.76-10.24c1.92 2.04 4.64 3.2 7.44 3.2 3.96 0 7.2-1.92 9.04-4.8l-4.8-3.24c-.8 1.48-2.16 2.52-4.28 2.52-1.8 0-4.08-1.04-4.36-3.72h14.04c.08-.6.12-1.2.12-1.76 0-6.32-4.56-9.64-9.64-9.64-5.04 0-8.52 3-9.92 7.24l-1.88 5.72Zm15.48-5.08h-8.16c.56-2.4 2.68-3.04 4.12-3.04 1.96 0 3.72.92 4.04 3.04Z" style="fill-rule:nonzero" transform="translate(-168.917 1585.083) scale(4.16667)"/><path d="M51.36 43.1 47.2 30.46h-6.4l7.36 20-2.72 7.36h6.4l3.76-10.24c1.92 1.96 4.56 3.2 7.56 3.2 5.76 0 10.4-4.64 10.4-10.32 0-5.68-4.64-10.32-10.4-10.32-4.88 0-8.64 3.4-10.08 7.76l-1.72 5.2Zm16.12-2.64c0 2.76-1.84 4.68-4.32 4.68-2.48 0-4.32-1.92-4.32-4.68s1.84-4.68 4.32-4.68c2.48 0 4.32 1.92 4.32 4.68Z" style="fill-rule:nonzero" transform="translate(-168.917 2001.753) scale(4.16667)"/><path d="m86.808 42.78-4.16-12.64h-6.4l7.36 20-2.72 7.36h6.4l10.08-27.36h-6.4l-4.16 12.64Z" style="fill-rule:nonzero" transform="translate(-168.917 2003.083) scale(4.16667)"/><path d="M92.608 42.78h5.2V57.5h6.04V42.78h5.6V37.5h-16.84v5.28ZM123.568 37.5h-9.48v20h11c5.4 0 7.36-3.24 7.36-6.16 0-1.48-.76-3.24-2.4-4.48.76-1 1.12-2.16 1.12-3.2 0-2.92-2.2-6.16-7.6-6.16Zm.2 8h-3.64v-3.2h3.48c.8 0 1.48.4 1.48 1.6 0 1.12-.68 1.52-1.32 1.6Zm1.28 6.92h-4.92v-3.4h4.76c.84 0 1.48.48 1.48 1.8 0 .92-.68 1.52-1.32 1.6Z" style="fill-rule:nonzero" transform="translate(-168.917 1972.413) scale(4.16667)"/><path d="M126.008 47.5c0 5.68 4.28 10.32 10.04 10.32 3.68 0 6.92-1.88 8.76-4.72l-4.8-3.4c-.8 1.48-2.2 2.48-3.96 2.48-2.48 0-4.32-1.92-4.32-4.68s1.84-4.68 4.32-4.68c1.76 0 3.16 1 3.96 2.48l4.8-3.4c-1.84-2.84-5.08-4.72-8.76-4.72-5.76 0-10.04 4.64-10.04 10.32ZM158.848 37.5h-9.48v20h11c5.4 0 7.36-3.24 7.36-6.16 0-1.48-.76-3.24-2.4-4.48.76-1 1.12-2.16 1.12-3.2 0-2.92-2.2-6.16-7.6-6.16Zm.2 8h-3.64v-3.2h3.48c.8 0 1.48.4 1.48 1.6 0 1.12-.68 1.52-1.32 1.6Zm1.28 6.92h-4.92v-3.4h4.76c.84 0 1.48.48 1.48 1.8 0 .92-.68 1.52-1.32 1.6Z" style="fill-rule:nonzero" transform="translate(-168.917 1972.413) scale(4.16667)"/><path d="M171.568 52.3c-1.8 0-4.08-1.04-4.36-3.72h14.04c.08-.6.12-1.2.12-1.76 0-6.32-4.56-9.64-9.64-9.64-6.16 0-10.32 4.44-10.32 10.32 0 6.16 4.92 10.32 10.2 10.32 3.96 0 7.2-1.92 9.04-4.8l-4.8-3.24c-.8 1.48-2.16 2.52-4.28 2.52Zm3.84-7.24h-8.16c.56-2.4 2.68-3.04 4.12-3.04 1.96 0 3.72.92 4.04 3.04ZM196.144 37.5h-9.48v20h11c5.4 0 7.36-3.24 7.36-6.16 0-1.48-.76-3.24-2.4-4.48.76-1 1.12-2.16 1.12-3.2 0-2.92-2.2-6.16-7.6-6.16Zm.2 8h-3.64v-3.2h3.48c.8 0 1.48.4 1.48 1.6 0 1.12-.68 1.52-1.32 1.6Zm1.28 6.92h-4.92v-3.4h4.76c.84 0 1.48.48 1.48 1.8 0 .92-.68 1.52-1.32 1.6Z" style="fill-rule:nonzero" transform="translate(-168.917 1972.413) scale(4.16667)"/><path d="M212.904 47.5c0 2.76-1.84 4.68-4.32 4.68-2.48 0-4.32-1.92-4.32-4.68s1.84-4.68 4.32-4.68c2.48 0 4.32 1.92 4.32 4.68Zm6.08 0c0-5.68-4.64-10.32-10.4-10.32-5.76 0-10 4.64-10 10.32 0 5.68 4.24 10.32 10 10.32s10.4-4.64 10.4-10.32Z" style="fill-rule:nonzero" transform="translate(-168.917 1972.413) scale(4.16667)"/></svg>