<svg viewBox="0 0 3144 2024" xmlns="http://www.w3.org/2000/svg" xml:space="preserve" style="fill-rule:evenodd;clip-rule:evenodd;stroke-linejoin:round;stroke-miterlimit:2"><path d="M57.44 514.12c-8.88 0-14.52 7.26-14.52 15.48s5.64 15.48 14.52 15.48c2.88 0 5.7-1.14 7.44-3.06l-.72-9.72c0 3.24-1.98 4.5-5.22 4.5-4.32 0-6.9-3.24-6.9-7.2s2.58-7.2 6.9-7.2c2.76 0 4.68 1.38 5.94 3.84v-9.06c-1.74-1.92-4.56-3.06-7.44-3.06Zm35.46 22.56h-4.32V514.6H64.16v30h20.76v7.08h7.98v-15Zm-13.32 0h-8.94c1.32-1.98 1.74-4.32 1.74-7.74v-6.42h7.2v14.16Z" style="fill-rule:nonzero" transform="translate(-177.083 -2091.67) scale(4.16667)"/><path d="M114.56 533.5v.9c-2.1-1.08-4.56-1.62-6.96-1.62-6.42 0-11.58 3.18-11.58 9.06 0 6.78 5.28 9.84 12.06 9.84 4.44 0 8.22-1.26 11.28-4.08 2.82 2.64 6.54 4.08 10.44 4.08 5.94 0 10.8-2.88 13.56-7.2l-7.2-4.86c-1.2 2.22-3.24 3.78-6.42 3.78-2.7 0-6.12-1.56-6.54-5.58h21.06c.12-.9.18-1.8.18-2.64 0-9.48-6.84-14.46-14.46-14.46-4.44 0-8.16 1.56-10.86 4.08-2.88-2.88-6.6-4.08-11.22-4.08-3.06 0-6.24.6-9.06 1.68l1.26 8.46c1.68-1.02 4.68-1.8 7.5-1.8 3.36 0 6.48 1.14 6.96 4.44Zm20.94-.96h-12.24c.84-3.6 4.02-4.56 6.18-4.56 2.94 0 5.58 1.38 6.06 4.56Zm-26.64 6.42c2.22 0 4.14.48 5.7 1.38v1.68c-1.02 1.38-3.3 2.1-5.76 2.1-1.86 0-4.02-.6-4.02-2.52 0-1.98 1.86-2.64 4.08-2.64ZM165.74 533.5v.9c-2.1-1.08-4.56-1.62-6.96-1.62-6.42 0-11.58 3.18-11.58 9.06 0 6.78 5.28 9.84 12.06 9.84 4.44 0 8.22-1.26 11.28-4.08 2.82 2.64 6.54 4.08 10.44 4.08 5.94 0 10.8-2.88 13.56-7.2l-7.2-4.86c-1.2 2.22-3.24 3.78-6.42 3.78-2.7 0-6.12-1.56-6.54-5.58h21.06c.12-.9.18-1.8.18-2.64 0-9.48-6.84-14.46-14.46-14.46-4.44 0-8.16 1.56-10.86 4.08-2.88-2.88-6.6-4.08-11.22-4.08-3.06 0-6.24.6-9.06 1.68l1.26 8.46c1.68-1.02 4.68-1.8 7.5-1.8 3.36 0 6.48 1.14 6.96 4.44Zm20.94-.96h-12.24c.84-3.6 4.02-4.56 6.18-4.56 2.94 0 5.58 1.38 6.06 4.56Zm-26.64 6.42c2.22 0 4.14.48 5.7 1.38v1.68c-1.02 1.38-3.3 2.1-5.76 2.1-1.86 0-4.02-.6-4.02-2.52 0-1.98 1.86-2.64 4.08-2.64Z" style="fill-rule:nonzero" transform="translate(-177.083 -2119.17) scale(4.16667)"/><path d="M168.8 558.82c0 2.64 2.16 4.8 4.8 4.8 2.64 0 4.8-2.16 4.8-4.8 0-2.64-2.16-4.8-4.8-4.8-2.64 0-4.8 2.16-4.8 4.8Zm14.28 0c0 2.64 2.16 4.8 4.8 4.8 2.64 0 4.8-2.16 4.8-4.8 0-2.64-2.16-4.8-4.8-4.8-2.64 0-4.8 2.16-4.8 4.8Z" style="fill-rule:nonzero" transform="translate(-177.083 -2307.67) scale(4.16667)"/><path d="M248.06 520.72c-8.64 0-15.6 6.96-15.6 15.48s6.96 15.48 15.6 15.48 15.6-6.96 15.6-15.48-6.96-15.48-15.6-15.48Zm-18.6.48h-9.06v30h9.06v-11.04h7.32v-7.92h-7.32V521.2Zm18.6 7.98c3.72 0 6.48 2.88 6.48 7.02s-2.76 7.02-6.48 7.02c-3.72 0-6.48-2.88-6.48-7.02s2.76-7.02 6.48-7.02Z" style="fill-rule:nonzero" transform="translate(-177.083 -2119.17) scale(4.16667)"/><path d="M213.8 520.72c-8.88 0-14.52 7.26-14.52 15.48s5.64 15.48 14.52 15.48c2.88 0 5.7-1.14 7.44-3.06v-9.06c-1.26 2.46-3.18 3.84-5.94 3.84-4.32 0-6.9-3.24-6.9-7.2s2.58-7.2 6.9-7.2c2.76 0 4.68 1.38 5.94 3.84v-9.06c-1.74-1.92-4.56-3.06-7.44-3.06ZM317 521.2h-28.5v30h9.06v-22.08h10.38v22.08H317v-30Zm-35.1-.48c-8.88 0-14.52 7.26-14.52 15.48s5.64 15.48 14.52 15.48c2.88 0 5.7-1.14 7.44-3.06v-9.06c-1.26 2.46-3.18 3.84-5.94 3.84-4.32 0-6.9-3.24-6.9-7.2s2.58-7.2 6.9-7.2c2.76 0 4.68 1.38 5.94 3.84v-9.06c-1.74-1.92-4.56-3.06-7.44-3.06ZM357.8 521.2h-14.22v30h16.5c8.1 0 11.04-4.86 11.04-9.24 0-2.22-1.14-4.86-3.6-6.72 1.14-1.5 1.68-3.24 1.68-4.8 0-4.38-3.3-9.24-11.4-9.24Zm.3 12h-5.46v-4.8h5.22c1.2 0 2.22.6 2.22 2.4 0 1.68-1.02 2.28-1.98 2.4Zm1.92 10.38h-7.38v-5.1h7.14c1.26 0 2.22.72 2.22 2.7 0 1.38-1.02 2.28-1.98 2.4Z" style="fill-rule:nonzero" transform="translate(-177.083 -2119.17) scale(4.16667)"/><path d="M352.64 521.2h-9.06v30h9.06v-30Zm-15.66-.48c-8.88 0-14.52 7.26-14.52 15.48s5.64 15.48 14.52 15.48c2.88 0 5.7-1.14 7.44-3.06v-9.06c-1.26 2.46-3.18 3.84-5.94 3.84-4.32 0-6.9-3.24-6.9-7.2s2.58-7.2 6.9-7.2c2.76 0 4.68 1.38 5.94 3.84v-9.06c-1.74-1.92-4.56-3.06-7.44-3.06Z" style="fill-rule:nonzero" transform="translate(-177.083 -2119.17) scale(4.16667)"/><path d="M405.14 548.32h-9.12c0 4.5-2.76 7.02-6.48 7.02-3.84 0-6.42-2.82-6.42-8.16l.12-9.96c.06-5.7 2.94-8.58 7.68-8.58h10.32l1.92-7.92h-12.9c-10.02 0-16.14 7.62-16.14 20.7v3.78c0 11.46 6.12 18.6 15.48 18.6 8.76 0 15.54-6.84 15.54-15.48Zm-13.8-14.82c-3.48 0-6.42 1.2-8.16 3.12l-.12 8.94c1.26-2.46 3.42-3.78 6.66-3.78 4.02 0 6.3 3.18 6.3 6.54h9.12c0-7.62-4.92-14.82-13.8-14.82Z" style="fill-rule:nonzero" transform="translate(-177.083 -2169.67) scale(4.16667)"/><path d="M396.02 536.2c0 8.22 5.64 15.48 14.52 15.48 2.46 0 4.86-.78 6.6-2.22v1.74h9.06v-30h-9.06v1.8c-1.74-1.44-4.14-2.28-6.6-2.28-8.88 0-14.52 7.26-14.52 15.48Zm16.02 7.2c-4.32 0-6.9-3.24-6.9-7.2s2.58-7.2 6.9-7.2c2.22 0 3.84.9 5.1 2.52v9.42c-1.26 1.62-2.88 2.46-5.1 2.46Z" style="fill-rule:nonzero" transform="translate(-177.083 -2119.17) scale(4.16667)"/><path d="M462.56 548.32h-9.12c0 4.5-2.76 7.02-6.48 7.02-3.84 0-6.42-2.82-6.42-8.16l.12-9.96c.06-5.7 2.94-8.58 7.68-8.58h10.32l1.92-7.92h-12.9c-10.02 0-16.14 7.62-16.14 20.7v3.78c0 11.46 6.12 18.6 15.48 18.6 8.76 0 15.54-6.84 15.54-15.48Zm-13.8-14.82c-3.48 0-6.42 1.2-8.16 3.12l-.12 8.94c1.26-2.46 3.42-3.78 6.66-3.78 4.02 0 6.3 3.18 6.3 6.54h9.12c0-7.62-4.92-14.82-13.8-14.82Z" style="fill-rule:nonzero" transform="translate(-177.083 -2169.67) scale(4.16667)"/><path d="M479.42 522.52v-12.36h-9.12v12.36c-9.6 0-16.86 6.24-16.86 15.06 0 8.94 7.26 15.36 16.86 15.36v10.86h9.12v-10.86c9.6 0 16.86-6.42 16.86-15.36 0-8.82-7.26-15.06-16.86-15.06Zm-9.12 8.28v13.92c-4.68 0-7.74-2.4-7.74-7.14 0-4.62 3.06-6.78 7.74-6.78Zm9.12 13.92V530.8c4.68 0 7.74 2.16 7.74 6.78 0 4.74-3.06 7.14-7.74 7.14Z" style="fill-rule:nonzero" transform="translate(-177.083 -2125.67) scale(4.16667)"/><path d="M530.9 548.32h-9.12c0 4.5-2.76 7.02-6.48 7.02-3.84 0-6.42-2.82-6.42-8.16l.12-9.96c.06-5.7 2.94-8.58 7.68-8.58H527l1.92-7.92h-12.9c-10.02 0-16.14 7.62-16.14 20.7v3.78c0 11.46 6.12 18.6 15.48 18.6 8.76 0 15.54-6.84 15.54-15.48Zm-13.8-14.82c-3.48 0-6.42 1.2-8.16 3.12l-.12 8.94c1.26-2.46 3.42-3.78 6.66-3.78 4.02 0 6.3 3.18 6.3 6.54h9.12c0-7.62-4.92-14.82-13.8-14.82Z" style="fill-rule:nonzero" transform="translate(-177.083 -2169.67) scale(4.16667)"/><path d="M537.38 543.4c-2.7 0-6.12-1.56-6.54-5.58h21.06c.12-.9.18-1.8.18-2.64 0-9.48-6.84-14.46-14.46-14.46-9.24 0-15.48 6.66-15.48 15.48 0 9.24 7.38 15.48 15.3 15.48 5.94 0 10.8-2.88 13.56-7.2l-7.2-4.86c-1.2 2.22-3.24 3.78-6.42 3.78Zm5.76-10.86H530.9c.84-3.6 4.02-4.56 6.18-4.56 2.94 0 5.58 1.38 6.06 4.56Z" style="fill-rule:nonzero" transform="translate(-177.083 -2119.17) scale(4.16667)"/><path d="M577.58 522.04v-7.92h-16.74v17.34c0 3-1.5 4.74-4.14 4.74v2.28h8.64c2.94-2.52 3.78-5.22 3.78-10.02v-6.42h8.46Zm-6 14.16h-16.26v15h7.98v-7.08h8.28v-7.92Zm29.34 7.92v-30h-24.6v17.22l8.28 2.22v-11.52h7.26v22.08h9.06Zm-24.6-18.84v9l8.28-.6v-8.4h-8.28Zm0 7.86c0 2.7-1.56 3.06-4.74 3.06v7.92c8.1 0 13.02-2.76 13.02-10.44l-8.28-.54Z" style="fill-rule:nonzero" transform="translate(-177.083 -2089.67) scale(4.16667)"/><path d="M636.02 540.64v-30h-24.54v17.34c0 3-1.5 4.74-4.14 4.74V535h8.64c2.94-2.52 3.78-5.22 3.78-10.02v-6.42h7.2v22.08h9.06Zm-1.68-7.92h-28.38v15h7.98v-7.08h18.42l1.98-7.92Zm22.8-7.08c0-8.22-5.64-15.48-14.52-15.48-2.46 0-4.86.84-6.6 2.28v-1.8h-9.06v41.04h9.06V538.9c1.74 1.44 4.14 2.22 6.6 2.22 8.88 0 14.52-7.26 14.52-15.48Zm-16.02 7.2c-2.22 0-3.9-.84-5.1-2.46v-9.42c1.2-1.62 2.88-2.52 5.1-2.52 4.32 0 6.9 3.24 6.9 7.2s-2.58 7.2-6.9 7.2Z" style="fill-rule:nonzero" transform="translate(-177.083 -2075.17) scale(4.16667)"/><path d="m691.64 529.12-6.24-18.96h-9.6l11.04 30-4.08 11.04h9.6l15.12-41.04h-9.6l-6.24 18.96Z" style="fill-rule:nonzero" transform="translate(-177.083 -2073.17) scale(4.16667)"/><path d="M684.02 522.04v-7.92h-17.94v17.34c0 3-1.5 4.74-4.14 4.74v2.28h8.64c2.94-2.52 3.78-5.22 3.78-10.02v-6.42h9.66Zm10.92 14.16h-34.38v15h7.98v-7.08h26.4v-7.92Z" style="fill-rule:nonzero" transform="translate(-177.083 -2089.67) scale(4.16667)"/><path d="M736.22 520h-9.06v30.54l19.98-14.52V550h9.06v-30.48l-19.98 14.58V520Zm0 20.4V520h-24.6v17.22l8.28 2.22v-11.52h7.26V550l9.06-9.6Zm-24.6-9.24v9l8.28-.6v-8.4h-8.28Zm0 7.86c0 3.12-1.56 4.02-4.74 3.6V550c8.1 1.68 13.02-2.76 13.02-10.44l-8.28-.54Z" style="fill-rule:nonzero" transform="translate(-177.083 -2114.17) scale(4.16667)"/><path d="M71.84 477.52v-30h-24.6v17.22l8.28 2.22v-11.52h7.26v22.08h9.06Zm-24.6-18.84v9l8.28-.6v-8.4h-8.28Zm0 7.86c0 3.12-1.56 4.02-4.74 3.6v7.38c8.1 1.68 13.02-2.76 13.02-10.44l-8.28-.54Z" style="fill-rule:nonzero" transform="translate(-177.083 -1512.17) scale(4.16667)"/><path d="M62.78 449.2v30h13.98c8.1 0 11.04-6.66 11.04-11.04 0-4.38-2.94-10.5-11.04-10.5h-4.92v-8.46h-9.06Zm9.06 15.6h4.44c1.92.12 3.06 1.32 3.06 3.3 0 2.04-1.26 3.24-3.42 3.24h-4.08v-6.54Z" style="fill-rule:nonzero" transform="translate(-177.083 -1519.17) scale(4.16667)"/><path d="m121.82 457.12-6.24-18.96h-9.6l11.04 30-4.08 11.04h9.6l15.12-41.04h-9.6l-6.24 18.96Z" style="fill-rule:nonzero" transform="translate(-177.083 -1473.17) scale(4.16667)"/><path d="M114.74 455.44v-7.92h-19.2v17.22l8.28 2.22v-11.52h10.92Zm-19.2 3.24v9l8.28-.6v-8.4h-8.28Zm0 7.86c0 3.12-1.56 4.02-4.74 3.6v7.38c8.1 1.68 13.02-2.76 13.02-10.44l-8.28-.54Z" style="fill-rule:nonzero" transform="translate(-177.083 -1512.17) scale(4.16667)"/><path d="m197.18 479.74-10.32-30h-5.64l-6.06 17.28-7.74-17.82-7.92 18.48-7.8-17.94h-6.78l-6.66 30h8.7l3-14.46 6.54 14.46h5.4l5.64-12.24 5.34 12.24h5.4l5.22-15.06 4.86 15.06h8.82Z" style="fill-rule:nonzero" transform="translate(-177.083 -1521.42) scale(4.16667)"/><path d="M234.68 438.16h-6.06l-8.4 18.36v11.64h2.64l8.76-18.06-2.7-1.08 6.96 19.14h8.34l-9.54-30Zm-22.86 0h-6.9l-5.34 30h8.7l3.24-19.14-2.82 1.08 8.58 18.06h2.94v-11.64l-8.4-18.36Zm35.1 0-7.32 22.14-2.4 4.2-5.4 14.7h9.6l15.12-41.04h-9.6Z" style="fill-rule:nonzero" transform="translate(-177.083 -1473.17) scale(4.16667)"/><path d="M259.76 449.2v30h9.06v-11.04h10.92v11.04h9.06v-30h-9.06v11.04h-10.92V449.2h-9.06Z" style="fill-rule:nonzero" transform="translate(-177.083 -1519.17) scale(4.16667)"/><path d="M279.74 449.2v30h9.06v-11.04h10.92v11.04h9.06v-30h-9.06v11.04H288.8V449.2h-9.06ZM315.86 449.2v30h9.06v-11.04h10.92v11.04h9.06v-30h-9.06v11.04h-10.92V449.2h-9.06Z" style="fill-rule:nonzero" transform="translate(-177.083 -1519.17) scale(4.16667)"/><path d="M360.44 463.96v15.24h7.92v-15.24h-7.92Zm3.84 7.92v-30h-9.06v22.08H344.9v-22.08h-9.06v30h28.44Z" style="fill-rule:nonzero" transform="translate(-177.083 -1488.67) scale(4.16667)"/><path d="M396.5 464.2c0 8.52 6.96 15.48 15.6 15.48 5.52 0 10.38-2.82 13.14-7.08l-7.2-5.1c-1.2 2.22-3.3 3.72-5.94 3.72-3.72 0-6.48-2.88-6.48-7.02s2.76-7.02 6.48-7.02c2.64 0 4.74 1.5 5.94 3.72l7.2-5.1c-2.76-4.26-7.62-7.08-13.14-7.08-8.64 0-15.6 6.96-15.6 15.48Z" style="fill-rule:nonzero" transform="translate(-177.083 -1519.17) scale(4.16667)"/><path d="M405.62 453.64c0-8.22-5.64-15.48-14.52-15.48-2.46 0-4.86.84-6.6 2.28v-1.8h-9.06v41.04h9.06V466.9c1.74 1.44 4.14 2.22 6.6 2.22 8.88 0 14.52-7.26 14.52-15.48Zm-16.02 7.2c-2.22 0-3.9-.84-5.1-2.46v-9.42c1.2-1.62 2.88-2.52 5.1-2.52 4.32 0 6.9 3.24 6.9 7.2s-2.58 7.2-6.9 7.2ZM459.74 453.64c0-8.22-5.64-15.48-14.52-15.48-2.46 0-4.86.84-6.6 2.28v-1.8h-9.06v41.04h9.06V466.9c1.74 1.44 4.14 2.22 6.6 2.22 8.88 0 14.52-7.26 14.52-15.48Zm-16.02 7.2c-2.22 0-3.9-.84-5.1-2.46v-9.42c1.2-1.62 2.88-2.52 5.1-2.52 4.32 0 6.9 3.24 6.9 7.2s-2.58 7.2-6.9 7.2Z" style="fill-rule:nonzero" transform="translate(-177.083 -1475.17) scale(4.16667)"/><path d="M466.52 449.2h-9.06v30l19.98-14.28v14.28h9.06v-30l-19.98 14.4v-14.4ZM501.02 479.2l9.18-12.84-8.82-1.14-10.14 13.98h9.78Zm17.28 0v-30h-13.98c-7.08 0-11.04 4.32-11.04 10.26 0 5.1 3.42 10.68 11.04 10.68h4.92v9.06h9.06Zm-9.06-16.26h-4.38c-1.62 0-3.12-1.14-3.12-3.06 0-2.1 1.02-3.48 3.06-3.48h4.44v6.54Z" style="fill-rule:nonzero" transform="translate(-177.083 -1519.17) scale(4.16667)"/><path d="M539.42 453.64c0-8.22-5.64-15.48-14.52-15.48-2.46 0-4.86.84-6.6 2.28v-1.8h-9.06v41.04h9.06V466.9c1.74 1.44 4.14 2.22 6.6 2.22 8.88 0 14.52-7.26 14.52-15.48Zm-16.02 7.2c-2.22 0-3.9-.84-5.1-2.46v-9.42c1.2-1.62 2.88-2.52 5.1-2.52 4.32 0 6.9 3.24 6.9 7.2s-2.58 7.2-6.9 7.2Z" style="fill-rule:nonzero" transform="translate(-177.083 -1475.17) scale(4.16667)"/><path d="m552.2 479.2 9.18-12.84-8.82-1.14-10.14 13.98h9.78Zm17.28 0v-30H555.5c-7.08 0-11.04 4.32-11.04 10.26 0 5.1 3.42 10.68 11.04 10.68h4.92v9.06h9.06Zm-9.06-16.26h-4.38c-1.62 0-3.12-1.14-3.12-3.06 0-2.1 1.02-3.48 3.06-3.48h4.44v6.54Z" style="fill-rule:nonzero" transform="translate(-177.083 -1519.17) scale(4.16667)"/><path d="M588.08 448.72c-8.64 0-15.6 6.96-15.6 15.48s6.96 15.48 15.6 15.48 15.6-6.96 15.6-15.48-6.96-15.48-15.6-15.48Zm-18.6.48h-9.06v30h9.06v-11.04h7.32v-7.92h-7.32V449.2Zm18.6 7.98c3.72 0 6.48 2.88 6.48 7.02s-2.76 7.02-6.48 7.02c-3.72 0-6.48-2.88-6.48-7.02s2.76-7.02 6.48-7.02ZM622.52 471.4c-2.7 0-6.12-1.56-6.54-5.58h21.06c.12-.9.18-1.8.18-2.64 0-9.48-6.84-14.46-14.46-14.46-9.24 0-15.48 6.66-15.48 15.48 0 9.24 7.38 15.48 15.3 15.48 5.94 0 10.8-2.88 13.56-7.2l-7.2-4.86c-1.2 2.22-3.24 3.78-6.42 3.78Zm5.76-10.86h-12.24c.84-3.6 4.02-4.56 6.18-4.56 2.94 0 5.58 1.38 6.06 4.56Z" style="fill-rule:nonzero" transform="translate(-177.083 -1519.17) scale(4.16667)"/><path d="M628.1 464.2c0 8.52 6.96 15.48 15.6 15.48 5.52 0 10.38-2.82 13.14-7.08l-7.2-5.1c-1.2 2.22-3.3 3.72-5.94 3.72-3.72 0-6.48-2.88-6.48-7.02s2.76-7.02 6.48-7.02c2.64 0 4.74 1.5 5.94 3.72l7.2-5.1c-2.76-4.26-7.62-7.08-13.14-7.08-8.64 0-15.6 6.96-15.6 15.48Z" style="fill-rule:nonzero" transform="translate(-177.083 -1519.17) scale(4.16667)"/><path d="M670.22 449.14h-9.06v30.54l19.98-14.52v13.98h9.06v-30.48l-19.98 14.58v-14.1Z" style="fill-rule:nonzero" transform="translate(-177.083 -1518.92) scale(4.16667)"/><path d="M711.32 453.64c0-8.22-5.64-15.48-14.52-15.48-2.46 0-4.86.84-6.6 2.28v-1.8l-9.06 6.6v34.44h9.06V466.9c1.74 1.44 4.14 2.22 6.6 2.22 8.88 0 14.52-7.26 14.52-15.48Zm-16.02 7.2c-2.22 0-3.9-.84-5.1-2.46v-9.42c1.2-1.62 2.88-2.52 5.1-2.52 4.32 0 6.9 3.24 6.9 7.2s-2.58 7.2-6.9 7.2Z" style="fill-rule:nonzero" transform="translate(-177.083 -1475.17) scale(4.16667)"/><path d="M745.7 448.66v7.92h11.16v-7.92H745.7Zm-19.98 0h-9.06v30.54l19.98-14.52v13.98h9.06v-30l-19.98 14.1v-14.1Z" style="fill-rule:nonzero" transform="translate(-177.083 -1516.92) scale(4.16667)"/><path d="M53.6 377.14h-9.06v30.54l19.98-14.52v13.98l9.06-7.2v-23.28L53.6 391.24v-14.1Zm19.98 0-9.06 7.2v23.34l19.98-14.52v13.98h9.06v-30.48l-19.98 14.58v-14.1Z" style="fill-rule:nonzero" transform="translate(-177.083 -918.917) scale(4.16667)"/><path d="M147.74 376.66h-6.78c-.06 3.36-1.68 5.1-4.2 5.1-2.52 0-4.14-1.74-4.2-5.1h-6.78c.24 7.2 4.8 10.56 10.98 10.56 6.18 0 10.74-3.36 10.98-10.56Zm-38.04 12.6h-9.06v30.54l19.98-14.52v13.98l9.06-7.2v-23.28l-19.98 14.58v-14.1Zm19.98 0-9.06 7.2v23.34l19.98-14.52v13.98h9.06v-30.48l-19.98 14.58v-14.1Z" style="fill-rule:nonzero" transform="translate(-177.083 -969.417) scale(4.16667)"/><path d="M165.8 377.14h-9.06v30.54l19.98-14.52v13.98h9.06v-30.48l-19.98 14.58v-14.1Zm45.06 15c0 4.14-2.76 7.02-6.48 7.02-3.72 0-6.48-2.88-6.48-7.02s2.76-7.02 6.48-7.02c3.72 0 6.48 2.88 6.48 7.02Zm9.12 0c0-8.52-6.96-15.48-15.6-15.48s-15.6 6.96-15.6 15.48 6.96 15.48 15.6 15.48 15.6-6.96 15.6-15.48Z" style="fill-rule:nonzero" transform="translate(-177.083 -918.917) scale(4.16667)"/><path d="M176.72 385v22.2h9.06v-11.04h10.92v-7.92h-10.92V377.2l-9.06 7.8ZM261.2 392.2c0-4.14 2.76-7.02 6.48-7.02 3.72 0 6.48 2.88 6.48 7.02s-2.76 7.02-6.48 7.02c-3.72 0-6.48-2.88-6.48-7.02Zm-9.12 0c0 8.52 6.96 15.48 15.6 15.48s15.6-6.96 15.6-15.48-6.96-15.48-15.6-15.48-15.6 6.96-15.6 15.48Zm-17.7-15h-9.06v30l19.98-14.28v14.28h9.06v-30l-19.98 14.4v-14.4Z" style="fill-rule:nonzero" transform="translate(-177.083 -919.167) scale(4.16667)"/><path d="M317.66 376.66v7.92h10.32v22.08h9.06v-30h-19.38Zm-19.98 0h-9.06v30.54l19.98-14.52v13.98h9.06v-30l-19.98 14.1v-14.1ZM356.9 384.58h7.2v22.08h9.06v-22.08h8.4v-7.92H356.9v7.92Zm-3.72-7.92h-9.06v30.54l19.98-12.54v12h9.06v-25.14l-1.8-1.02-18.18 10.86v-14.7Z" style="fill-rule:nonzero" transform="translate(-177.083 -916.917) scale(4.16667)"/><path d="M395.06 377.14H386v30.54l19.98-14.52v13.98h9.06v-30.48l-19.98 14.58v-14.1Z" style="fill-rule:nonzero" transform="translate(-177.083 -918.917) scale(4.16667)"/><path d="M434.06 404.32c0 4.14-2.76 7.02-6.48 7.02-3.72 0-6.48-2.88-6.48-7.02s2.76-7.02 6.48-7.02c3.72 0 6.48 2.88 6.48 7.02Zm9.12 0c0-8.52-6.96-15.48-15.6-15.48s-15.6 6.96-15.6 15.48 6.96 15.48 15.6 15.48 15.6-6.96 15.6-15.48Zm-30.06-27.6h-6.78c-.06 3.36-1.68 5.1-4.2 5.1-2.52 0-4.14-1.74-4.2-5.1h-6.78c.24 7.2 4.8 10.56 10.98 10.56 6.18 0 10.74-3.36 10.98-10.56Z" style="fill-rule:nonzero" transform="translate(-177.083 -969.667) scale(4.16667)"/><path d="M462.02 399.4c-2.7 0-6.12-1.56-6.54-5.58h21.06c.12-.9.18-1.8.18-2.64 0-9.48-6.84-14.46-14.46-14.46-9.24 0-15.48 6.66-15.48 15.48 0 9.24 7.38 15.48 15.3 15.48 5.94 0 10.8-2.88 13.56-7.2l-7.2-4.86c-1.2 2.22-3.24 3.78-6.42 3.78Zm5.76-10.86h-12.24c.84-3.6 4.02-4.56 6.18-4.56 2.94 0 5.58 1.38 6.06 4.56Z" style="fill-rule:nonzero" transform="translate(-177.083 -919.167) scale(4.16667)"/><path d="M467.6 404.14c0 8.52 6.96 15.48 15.6 15.48 5.52 0 10.38-2.82 13.14-7.08l-7.2-5.1c-1.2 2.22-3.3 3.72-5.94 3.72-3.72 0-6.48-2.88-6.48-7.02s2.76-7.02 6.48-7.02c2.64 0 4.74 1.5 5.94 3.72l7.2-5.1c-2.76-4.26-7.62-7.08-13.14-7.08-8.64 0-15.6 6.96-15.6 15.48Zm-17.88-22.62c0 2.64 2.16 4.8 4.8 4.8 2.64 0 4.8-2.16 4.8-4.8 0-2.64-2.16-4.8-4.8-4.8-2.64 0-4.8 2.16-4.8 4.8Zm14.28 0c0 2.64 2.16 4.8 4.8 4.8 2.64 0 4.8-2.16 4.8-4.8 0-2.64-2.16-4.8-4.8-4.8-2.64 0-4.8 2.16-4.8 4.8Z" style="fill-rule:nonzero" transform="translate(-177.083 -968.917) scale(4.16667)"/><path d="M521 392.2c0 4.14-2.76 7.02-6.48 7.02-3.72 0-6.48-2.88-6.48-7.02s2.76-7.02 6.48-7.02c3.72 0 6.48 2.88 6.48 7.02Zm9.12 0c0-8.52-6.96-15.48-15.6-15.48s-15.6 6.96-15.6 15.48 6.96 15.48 15.6 15.48 15.6-6.96 15.6-15.48Z" style="fill-rule:nonzero" transform="translate(-177.083 -919.167) scale(4.16667)"/><path d="M556.64 381.64c0-8.22-5.64-15.48-14.52-15.48-2.46 0-4.86.84-6.6 2.28v-1.8h-9.06v41.04h9.06V394.9c1.74 1.44 4.14 2.22 6.6 2.22 8.88 0 14.52-7.26 14.52-15.48Zm-16.02 7.2c-2.22 0-3.9-.84-5.1-2.46v-9.42c1.2-1.62 2.88-2.52 5.1-2.52 4.32 0 6.9 3.24 6.9 7.2s-2.58 7.2-6.9 7.2Z" style="fill-rule:nonzero" transform="translate(-177.083 -875.167) scale(4.16667)"/><path d="M582.44 404.26c0 4.14-2.76 7.02-6.48 7.02-3.72 0-6.48-2.88-6.48-7.02s2.76-7.02 6.48-7.02c3.72 0 6.48 2.88 6.48 7.02Zm9.12 0c0-8.52-6.96-15.48-15.6-15.48s-15.6 6.96-15.6 15.48 6.96 15.48 15.6 15.48 15.6-6.96 15.6-15.48Zm24.78-27.6h-6.78c-.06 3.36-1.68 5.1-4.2 5.1-2.52 0-4.14-1.74-4.2-5.1h-6.78c.24 7.2 4.8 10.56 10.98 10.56 6.18 0 10.74-3.36 10.98-10.56Zm-18.06 12.6h-9.06v30.54l19.98-14.52v13.98h9.06v-30.48l-19.98 14.58v-14.1Z" style="fill-rule:nonzero" transform="translate(-177.083 -969.417) scale(4.16667)"/><path d="M660.92 399.4c-2.7 0-6.12-1.56-6.54-5.58h21.06c.12-.9.18-1.8.18-2.64 0-9.48-6.84-14.46-14.46-14.46-4.62 0-8.46 1.62-11.16 4.38-2.76-2.7-6.6-4.38-10.8-4.38-8.64 0-15.6 6.96-15.6 15.48s6.96 15.48 15.6 15.48c4.26 0 8.16-1.68 10.98-4.44 2.82 2.82 6.72 4.44 10.8 4.44 5.94 0 10.8-2.88 13.56-7.2l-7.2-4.86c-1.2 2.22-3.24 3.78-6.42 3.78Zm-15.24-7.2c0 4.14-2.76 7.02-6.48 7.02-3.72 0-6.48-2.88-6.48-7.02s2.76-7.02 6.48-7.02c3.72 0 6.48 2.88 6.48 7.02Zm21-3.66h-12.24c.84-3.6 4.02-4.56 6.18-4.56 2.94 0 5.58 1.38 6.06 4.56Z" style="fill-rule:nonzero" transform="translate(-177.083 -919.167) scale(4.16667)"/><path d="M648.74 414.82c0 2.64 2.16 4.8 4.8 4.8 2.64 0 4.8-2.16 4.8-4.8 0-2.64-2.16-4.8-4.8-4.8-2.64 0-4.8 2.16-4.8 4.8Zm14.28 0c0 2.64 2.16 4.8 4.8 4.8 2.64 0 4.8-2.16 4.8-4.8 0-2.64-2.16-4.8-4.8-4.8-2.64 0-4.8 2.16-4.8 4.8Z" style="fill-rule:nonzero" transform="translate(-177.083 -1107.667) scale(4.16667)"/><path d="M709.34 377.14h-9.06v30.54l19.98-14.52v13.98h9.06v-30.48l-19.98 14.58v-14.1Z" style="fill-rule:nonzero" transform="translate(-177.083 -918.917) scale(4.16667)"/><path d="M680.9 377.2v30h9.06v-22.08h10.32l9.06-7.92H680.9Z" style="fill-rule:nonzero" transform="translate(-177.083 -919.167) scale(4.16667)"/><path d="M777.02 377.8h-9.06v30l19.98-14.28v14.28H797v-30.6l-19.98 14.4v-13.8Zm0 18.6v-18.6h-9.06v22.08h-6.72V377.8h-9.06v22.08h-6.72V377.8h-9.06v30h31.56l9.06-11.4Z" style="fill-rule:nonzero" transform="translate(-177.083 -921.667) scale(4.16667)"/><path d="M81.5 319.96v15.24h7.92v-15.24H81.5Zm3.66 7.92v-30H76.1v22.08h-6.72v-22.08h-9.06v22.08H53.6v-22.08h-9.06v30h40.62Zm0 0v-30H76.1v22.08h-6.72v-22.08h-9.06v22.08H53.6v-22.08h-9.06v30h40.62Z" style="fill-rule:nonzero" transform="translate(-177.083 -288.667) scale(4.16667)"/><path d="m106.88 305.2-29.04 21 1.38 9 18.6-13.5v13.98h9.06V305.2Z" style="fill-rule:nonzero" transform="translate(-177.083 -321.167) scale(4.16667)"/><path d="M135.98 312.58v-7.92h-24.66v7.92h8.4v22.08h9.06v-22.08h7.2Zm3.72-7.92v14.7l-18.18-10.86-1.8 1.02v25.14h9.06v-12l19.98 12.54v-30.54h-9.06Z" style="fill-rule:nonzero" transform="translate(-177.083 -316.917) scale(4.16667)"/><path d="M180.44 319.96v15.24h7.92v-15.24h-7.92Zm3.84 7.92v-30h-9.06v22.08H164.9v-22.08h-9.06v30h28.44Z" style="fill-rule:nonzero" transform="translate(-177.083 -288.667) scale(4.16667)"/><path d="m205.94 305.2-29.04 21 1.38 9 18.6-13.5v13.98h9.06V305.2Z" style="fill-rule:nonzero" transform="translate(-177.083 -321.167) scale(4.16667)"/><path d="M246.02 305.2H231.8v30h16.5c8.1 0 11.04-4.86 11.04-9.24 0-2.22-1.14-4.86-3.6-6.72 1.14-1.5 1.68-3.24 1.68-4.8 0-4.38-3.3-9.24-11.4-9.24Zm.3 12h-5.46v-4.8h5.22c1.2 0 2.22.6 2.22 2.4 0 1.68-1.02 2.28-1.98 2.4Zm1.92 10.38h-7.38v-5.1H248c1.26 0 2.22.72 2.22 2.7 0 1.38-1.02 2.28-1.98 2.4Z" style="fill-rule:nonzero" transform="translate(-177.083 -319.167) scale(4.16667)"/><path d="M237.02 320.38v14.82h7.92v-14.82h-7.92Zm3.84 7.5v-30h-9.06v22.08h-10.32v-22.08h-9.06v30h28.44Z" style="fill-rule:nonzero" transform="translate(-177.083 -288.667) scale(4.16667)"/><path d="M290.18 294.16h-9.06v7.98c0 8.1 4.62 13.38 13.08 13.38 3.66 0 5.88-.6 7.74-1.26v-7.86c-2.16.9-3.84 1.32-5.7 1.32-4.62 0-6.06-2.7-6.06-6.6v-6.96Zm18.06 0h-9.06v30h9.06v-30Zm-33.36 18.96-6.24-18.96h-9.6l11.04 30L266 335.2h9.6l13.92-37.8-8.4-3.24-6.24 18.96Z" style="fill-rule:nonzero" transform="translate(-177.083 -273.167) scale(4.16667)"/><path d="M355.46 306.52v-12.36h-9.12v12.36c-9.6 0-16.86 6.24-16.86 15.06 0 8.94 7.26 15.36 16.86 15.36v10.86h9.12v-10.86c9.6 0 16.86-6.42 16.86-15.36 0-8.82-7.26-15.06-16.86-15.06Zm-9.12 8.28v13.92c-4.68 0-7.74-2.4-7.74-7.14 0-4.62 3.06-6.78 7.74-6.78Zm9.12 13.92V314.8c4.68 0 7.74 2.16 7.74 6.78 0 4.74-3.06 7.14-7.74 7.14Z" style="fill-rule:nonzero" transform="translate(-177.083 -325.667) scale(4.16667)"/><path d="m327.32 313.12-6.24-18.96h-9.6l11.04 30-4.08 11.04h9.6l12.9-34.92-10.62 3.96-3 8.88ZM389.66 313.12l-6.24-18.96h-9.6l11.04 30-4.08 11.04h9.6l15.12-41.04h-9.6l-6.24 18.96Z" style="fill-rule:nonzero" transform="translate(-177.083 -273.167) scale(4.16667)"/><path d="M398.36 313.12h7.8v22.08h9.06v-22.08h8.4v-7.92h-25.26v7.92ZM442.28 305.2h-14.22v30h16.5c8.1 0 11.04-4.86 11.04-9.24 0-2.22-1.14-4.86-3.6-6.72 1.14-1.5 1.68-3.24 1.68-4.8 0-4.38-3.3-9.24-11.4-9.24Zm.3 12h-5.46v-4.8h5.22c1.2 0 2.22.6 2.22 2.4 0 1.68-1.02 2.28-1.98 2.4Zm1.92 10.38h-7.38v-5.1h7.14c1.26 0 2.22.72 2.22 2.7 0 1.38-1.02 2.28-1.98 2.4Z" style="fill-rule:nonzero" transform="translate(-177.083 -319.167) scale(4.16667)"/><path d="M461.36 327.4c-2.7 0-6.12-1.56-6.54-5.58h21.06c.12-.9.18-1.8.18-2.64 0-9.48-6.84-14.46-14.46-14.46-9.24 0-15.48 6.66-15.48 15.48 0 9.24 7.38 15.48 15.3 15.48 5.94 0 10.8-2.88 13.56-7.2l-7.2-4.86c-1.2 2.22-3.24 3.78-6.42 3.78Zm5.76-10.86h-12.24c.84-3.6 4.02-4.56 6.18-4.56 2.94 0 5.58 1.38 6.06 4.56ZM495.56 305.2h-14.22v30h16.5c8.1 0 11.04-4.86 11.04-9.24 0-2.22-1.14-4.86-3.6-6.72 1.14-1.5 1.68-3.24 1.68-4.8 0-4.38-3.3-9.24-11.4-9.24Zm.3 12h-5.46v-4.8h5.22c1.2 0 2.22.6 2.22 2.4 0 1.68-1.02 2.28-1.98 2.4Zm1.92 10.38h-7.38v-5.1h7.14c1.26 0 2.22.72 2.22 2.7 0 1.38-1.02 2.28-1.98 2.4Z" style="fill-rule:nonzero" transform="translate(-177.083 -319.167) scale(4.16667)"/><path d="M520.7 320.2c0 4.14-2.76 7.02-6.48 7.02-3.72 0-6.48-2.88-6.48-7.02s2.76-7.02 6.48-7.02c3.72 0 6.48 2.88 6.48 7.02Zm9.12 0c0-8.52-6.96-15.48-15.6-15.48s-15 6.96-15 15.48 6.36 15.48 15 15.48 15.6-6.96 15.6-15.48ZM535.16 305.2v30h13.98c8.1 0 11.04-6.66 11.04-11.04 0-4.38-2.94-10.5-11.04-10.5h-4.92v-8.46h-9.06Zm9.06 15.6h4.44c1.92.12 3.06 1.32 3.06 3.3 0 2.04-1.26 3.24-3.42 3.24h-4.08v-6.54Z" style="fill-rule:nonzero" transform="translate(-177.083 -319.167) scale(4.16667)"/><path d="M584.6 304.66h-6.78c-.06 3.36-1.68 5.1-4.2 5.1-2.52 0-4.14-1.74-4.2-5.1h-6.78c.24 7.2 4.8 10.56 10.98 10.56 6.18 0 10.74-3.36 10.98-10.56Zm-18.06 12.6h-9.06v30.54l19.98-14.52v13.98h9.06v-30.48l-19.98 14.58v-14.1Z" style="fill-rule:nonzero" transform="translate(-177.083 -369.417) scale(4.16667)"/><path d="M642.14 305.2h-9.06v11.04h-10.92V305.2h-9.06v30h9.06v-11.04h10.92v11.04h9.06v-30Zm-35.64-.48c-8.88 0-14.52 7.26-14.52 15.48s5.64 15.48 14.52 15.48c2.88 0 5.7-1.14 7.44-3.06v-9.06c-1.26 2.46-3.18 3.84-5.94 3.84-4.32 0-6.9-3.24-6.9-7.2s2.58-7.2 6.9-7.2c2.76 0 4.68 1.38 5.94 3.84v-9.06c-1.74-1.92-4.56-3.06-7.44-3.06ZM662.12 304.72c-8.88 0-14.52 7.26-14.52 15.48s5.64 15.48 14.52 15.48c2.88 0 5.7-1.14 7.44-3.06v-9.06c-1.26 2.46-3.18 3.84-5.94 3.84-4.32 0-6.9-3.24-6.9-7.2s2.58-7.2 6.9-7.2c2.76 0 4.68 1.38 5.94 3.84v-9.06c-1.74-1.92-4.56-3.06-7.44-3.06Zm15.72.48h-9.06v30l19.98-14.28v14.28h9.06v-30l-19.98 14.4v-14.4Z" style="fill-rule:nonzero" transform="translate(-177.083 -319.167) scale(4.16667)"/><path d="M717.8 316.84c-8.88 0-14.52 7.26-14.52 15.48s5.64 15.48 14.52 15.48c2.88 0 5.7-1.14 7.44-3.06v-9.06c-1.26 2.46-3.18 3.84-5.94 3.84-4.32 0-6.9-3.24-6.9-7.2s2.58-7.2 6.9-7.2c2.76 0 4.68 1.38 5.94 3.84v-9.06c-1.74-1.92-4.56-3.06-7.44-3.06Zm15.72.48h-9.06v30l19.98-14.28v14.28h9.06v-30l-19.98 14.4v-14.4Zm18.06-12.6h-6.78c-.06 3.36-1.68 5.1-4.2 5.1-2.52 0-4.14-1.74-4.2-5.1h-6.78c.24 7.2 4.8 10.56 10.98 10.56 6.18 0 10.74-3.36 10.98-10.56Z" style="fill-rule:nonzero" transform="translate(-177.083 -369.667) scale(4.16667)"/><path d="m72.2 247.06 12 16.14h10.68l-12-16.14H72.2Zm10.68-13.86-10.5 14.7h10.44l10.5-14.7H82.88Zm-18.84 0v30h9.06v-30h-9.06Zm-6.6-.48c-8.88 0-14.52 7.26-14.52 15.48s5.64 15.48 14.52 15.48c2.88 0 5.7-1.14 7.44-3.06v-9.06c-1.26 2.46-3.18 3.84-5.94 3.84-4.32 0-6.9-3.24-6.9-7.2s2.58-7.2 6.9-7.2c2.76 0 4.68 1.38 5.94 3.84v-9.06c-1.74-1.92-4.56-3.06-7.44-3.06ZM157.82 263.2v-30h-9.06v22.08h-6.72V233.2h-9.06v22.08h-6.72V233.2h-9.06v30h40.62Z" style="fill-rule:nonzero" transform="translate(-177.083 280.833) scale(4.16667)"/><path d="M110.6 232.72c-8.88 0-14.52 7.26-14.52 15.48s5.64 15.48 14.52 15.48c2.88 0 5.7-1.14 7.44-3.06v-9.06c-1.26 2.46-3.18 3.84-5.94 3.84-4.32 0-6.9-3.24-6.9-7.2s2.58-7.2 6.9-7.2c2.76 0 4.68 1.38 5.94 3.84v-9.06c-1.74-1.92-4.56-3.06-7.44-3.06ZM193.46 241.12h7.8v22.08h9.06v-22.08h8.4v-7.92h-25.26v7.92ZM193.46 233.2h-9.06v30h9.06v-30Zm-15.66-.48c-8.88 0-14.52 7.26-14.52 15.48s5.64 15.48 14.52 15.48c2.88 0 5.7-1.14 7.44-3.06v-9.06c-1.26 2.46-3.18 3.84-5.94 3.84-4.32 0-6.9-3.24-6.9-7.2s2.58-7.2 6.9-7.2c2.76 0 4.68 1.38 5.94 3.84v-9.06c-1.74-1.92-4.56-3.06-7.44-3.06Z" style="fill-rule:nonzero" transform="translate(-177.083 280.833) scale(4.16667)"/><path d="M252.44 260.32h-9.12c0 4.5-2.76 7.02-6.48 7.02-3.84 0-6.42-2.82-6.42-8.16l.12-9.96c.06-5.7 2.94-8.58 7.68-8.58h10.32l1.92-7.92h-12.9c-10.02 0-16.14 7.62-16.14 20.7v3.78c0 11.46 6.12 18.6 15.48 18.6 8.76 0 15.54-6.84 15.54-15.48Zm-13.8-14.82c-3.48 0-6.42 1.2-8.16 3.12l-.12 8.94c1.26-2.46 3.42-3.78 6.66-3.78 4.02 0 6.3 3.18 6.3 6.54h9.12c0-7.62-4.92-14.82-13.8-14.82Z" style="fill-rule:nonzero" transform="translate(-177.083 230.333) scale(4.16667)"/><path d="M243.32 248.2c0 8.52 6.96 15.48 15.6 15.48 5.52 0 10.38-2.82 13.14-7.08l-7.2-5.1c-1.2 2.22-3.3 3.72-5.94 3.72-3.72 0-6.48-2.88-6.48-7.02s2.76-7.02 6.48-7.02c2.64 0 4.74 1.5 5.94 3.72l7.2-5.1c-2.76-4.26-7.62-7.08-13.14-7.08-8.64 0-15.6 6.96-15.6 15.48Z" style="fill-rule:nonzero" transform="translate(-177.083 280.833) scale(4.16667)"/><path d="M305.66 260.32h-9.12c0 4.5-2.76 7.02-6.48 7.02-3.84 0-6.42-2.82-6.42-8.16l.12-9.96c.06-5.7 2.94-8.58 7.68-8.58h10.32l1.92-7.92h-12.9c-10.02 0-16.14 7.62-16.14 20.7v3.78c0 11.46 6.12 18.6 15.48 18.6 8.76 0 15.54-6.84 15.54-15.48Zm-13.8-14.82c-3.48 0-6.42 1.2-8.16 3.12l-.12 8.94c1.26-2.46 3.42-3.78 6.66-3.78 4.02 0 6.3 3.18 6.3 6.54h9.12c0-7.62-4.92-14.82-13.8-14.82Z" style="fill-rule:nonzero" transform="translate(-177.083 230.333) scale(4.16667)"/><path d="M318.62 248.2c0 4.14-2.76 7.02-6.48 7.02-3.72 0-6.48-2.88-6.48-7.02s2.76-7.02 6.48-7.02c3.72 0 6.48 2.88 6.48 7.02Zm9.12 0c0-8.52-6.96-15.48-15.6-15.48s-15.6 6.96-15.6 15.48 6.96 15.48 15.6 15.48 15.6-6.96 15.6-15.48Z" style="fill-rule:nonzero" transform="translate(-177.083 280.833) scale(4.16667)"/><path d="M362.36 260.32h-9.12c0 4.5-2.76 7.02-6.48 7.02-3.84 0-6.42-2.82-6.42-8.16l.12-9.96c.06-5.7 2.94-8.58 7.68-8.58h10.32l1.92-7.92h-12.9c-10.02 0-16.14 7.62-16.14 20.7v3.78c0 11.46 6.12 18.6 15.48 18.6 8.76 0 15.54-6.84 15.54-15.48Zm-13.8-14.82c-3.48 0-6.42 1.2-8.16 3.12l-.12 8.94c1.26-2.46 3.42-3.78 6.66-3.78 4.02 0 6.3 3.18 6.3 6.54h9.12c0-7.62-4.92-14.82-13.8-14.82Z" style="fill-rule:nonzero" transform="translate(-177.083 230.333) scale(4.16667)"/><path d="m364.58 241.12-3.06-9.3-11.46-5.94 9.72 26.28-4.08 11.04h9.6l15.12-41.04h-9.6l-6.24 18.96Z" style="fill-rule:nonzero" transform="translate(-177.083 326.833) scale(4.16667)"/><path d="m429.32 233.2-19.98 14.4v-14.4h-9.06v30l19.98-14.28v14.28h9.06v-30Zm-38.64 0h-9.06v7.98c0 8.1 4.62 13.56 13.08 13.56 3.66 0 5.88-.6 7.74-1.26v-8.76c-1.98 1.38-3.54 1.92-6.24 1.92-3.96 0-5.52-3.06-5.52-7.08v-6.36ZM451.76 248.2c0 8.52 6.96 15.48 15.6 15.48 5.52 0 10.38-2.82 13.14-7.08l-7.2-5.1c-1.2 2.22-3.3 3.72-5.94 3.72-3.72 0-6.48-2.88-6.48-7.02s2.76-7.02 6.48-7.02c2.64 0 4.74 1.5 5.94 3.72l7.2-5.1c-2.76-4.26-7.62-7.08-13.14-7.08-8.64 0-15.6 6.96-15.6 15.48Z" style="fill-rule:nonzero" transform="translate(-177.083 280.833) scale(4.16667)"/><path d="M456.38 252.16v-7.92h-10.92V233.2h-9.06v30h9.06v-11.04h10.92ZM525.02 241.12v-7.92H504.8v11.04h-10.92V233.2h-9.06v30h9.06v-11.04h10.92v11.04h9.06v-22.08h11.16Z" style="fill-rule:nonzero" transform="translate(-177.083 280.833) scale(4.16667)"/><path d="M559.4 233.14h-9.06v30.54l19.98-14.52v13.98h9.06v-30.48l-19.98 14.58v-14.1Z" style="fill-rule:nonzero" transform="translate(-177.083 281.083) scale(4.16667)"/><path d="m550.34 263.2 9.06-15.6v-14.4h-9.06v11.04h-10.92V233.2h-9.06v30h9.06v-11.04h10.92v11.04ZM586.46 233.2v30h9.06v-11.04h10.92v11.04h9.06v-30h-9.06v11.04h-10.92V233.2h-9.06ZM627.32 263.2H638l-11.7-15.78 10.14-14.22H626l-10.26 14.4 11.58 15.6ZM641.66 233.2v30h9.06v-9.84h16.92v-7.92h-16.92V233.2h-9.06Zm15.48 7.92h7.8v22.08H674v-22.08h8.4v-7.92h-25.26v7.92ZM706.82 252.16v-7.92H695.9V233.2h-9.06v30h9.06v-11.04h10.92Zm28.44-18.96v30h9.12v-30h-9.12Zm-28.92 0v30h13.38c8.1 0 11.04-5.88 11.04-10.26s-2.94-10.5-11.04-10.5h-4.32v-9.24h-9.06Zm9.06 16.38h3.84c1.92.12 3.06 1.32 3.06 3.3 0 2.04-1.26 3.24-3.42 3.24h-3.48v-6.54Z" style="fill-rule:nonzero" transform="translate(-177.083 280.833) scale(4.16667)"/><path d="M86.72 178.9v1.74h9.06v-30h-9.06v1.8c-1.74-1.44-4.14-2.28-6.6-2.28-4.08 0-7.5 1.56-9.96 4.02-2.52-2.46-5.88-4.02-9.96-4.02-2.46 0-4.86.84-6.6 2.28v-1.8h-9.06v41.04h9.06V178.9c1.74 1.44 4.14 2.22 6.6 2.22 4.08 0 7.44-1.5 9.96-3.96 2.46 2.46 5.88 3.96 9.96 3.96 2.46 0 4.86-.78 6.6-2.22Zm0-8.52c-1.26 1.62-2.88 2.46-5.1 2.46-4.32 0-6.9-3.24-6.9-7.2s2.58-7.2 6.9-7.2c2.22 0 3.84.9 5.1 2.52v9.42Zm-21.12-4.74c0 3.96-2.58 7.2-6.9 7.2-2.22 0-3.84-.84-5.1-2.46v-9.42c1.26-1.62 2.88-2.52 5.1-2.52 4.32 0 6.9 3.24 6.9 7.2Z" style="fill-rule:nonzero" transform="translate(-177.083 924.83) scale(4.16667)"/><path d="M149.9 162.52v-12.36h-9.12v12.36c-9.6 0-16.86 6.24-16.86 15.06 0 8.94 7.26 15.36 16.86 15.36v10.86h9.12v-10.86c9.6 0 16.86-6.42 16.86-15.36 0-8.82-7.26-15.06-16.86-15.06Zm-9.12 8.28v13.92c-4.68 0-7.74-2.4-7.74-7.14 0-4.62 3.06-6.78 7.74-6.78Zm9.12 13.92V170.8c4.68 0 7.74 2.16 7.74 6.78 0 4.74-3.06 7.14-7.74 7.14Z" style="fill-rule:nonzero" transform="translate(-177.083 874.33) scale(4.16667)"/><path d="M111.92 150.64h-9.06v41.04h9.06v-41.04Zm6.6-.48c-2.88 0-5.7 1.14-7.44 3.06v9.06c1.26-2.46 3.18-3.84 5.94-3.84 4.32 0 6.9 3.24 6.9 7.2s-2.58 7.2-6.9 7.2c-2.76 0-4.68-1.38-5.94-3.84v9.06c1.74 1.92 4.56 3.06 7.44 3.06 8.88 0 14.52-7.26 14.52-15.48s-5.64-15.48-14.52-15.48ZM208.64 150.16c-9.24 0-15.48 6.66-15.48 15.48 0 9.24 7.38 15.48 15.3 15.48 5.94 0 10.8-2.88 13.56-7.2l-7.2-4.86c-1.2 2.22-3.24 3.78-6.42 3.78-3 0-6.9-1.98-6.54-7.08-.9-6.78 3.48-8.34 6.24-8.34 2.94 0 5.58 1.38 6.06 4.56h-14.22l.12 5.28h22.86c.12-.9.18-1.8.18-2.64 0-9.48-6.84-14.46-14.46-14.46Zm-27.48.48h-9.06v41.04h9.06v-41.04Zm6.6-.48c-2.88 0-5.7 1.14-7.44 3.06v9.06c1.26-2.46 3.18-3.84 5.94-3.84 4.32 0 6.9 3.24 6.9 7.2s-2.58 7.2-6.9 7.2c-2.76 0-4.68-1.38-5.94-3.84v9.06c1.74 1.92 4.56 3.06 7.44 3.06 5.88 0 10.38-3.24 12.72-7.8 1.2-2.28-1.92-4.44-1.92-7.2 0-3.78 2.52-7.86.36-10.62-2.52-3.24-6.36-5.34-11.16-5.34ZM271.52 165.64c0 4.14-2.76 7.02-6.48 7.02-3.72 0-6.48-2.88-6.48-7.02s2.76-7.02 6.48-7.02c3.72 0 6.48 2.88 6.48 7.02Zm9.12 0c0-8.52-6.96-15.48-15.6-15.48s-15.6 6.96-15.6 15.48 6.96 15.48 15.6 15.48 15.6-6.96 15.6-15.48Zm-22.08 0c0-8.22-5.64-15.48-14.52-15.48-2.46 0-4.86.84-6.6 2.28v-1.8h-9.06v41.04h9.06V178.9c1.74 1.44 4.14 2.22 6.6 2.22 8.88 0 14.52-7.26 14.52-15.48Zm-16.02 7.2c-2.22 0-3.9-.84-5.1-2.46v-9.42c1.2-1.62 2.88-2.52 5.1-2.52 4.32 0 6.9 3.24 6.9 7.2s-2.58 7.2-6.9 7.2ZM318.38 169.6l-2.88-8.7c-1.98-6-6.78-10.74-13.86-10.74-2.46 0-4.86.84-6.6 2.28v-1.8h-9.06v41.04h9.06V178.9c1.74 1.44 4.14 2.22 6.6 2.22 4.38 0 7.92-1.74 10.44-4.5l1.5 4.02-4.08 11.04h9.6l15.12-41.04h-9.6l-6.24 18.96Zm-18.24 3.24c-2.22 0-3.9-.84-5.1-2.46v-9.42c1.2-1.62 2.88-2.52 5.1-2.52 4.32 0 6.9 3.24 6.9 7.2s-2.58 7.2-6.9 7.2Z" style="fill-rule:nonzero" transform="translate(-177.083 924.83) scale(4.16667)"/><path d="M346.52 161.14h-9.06v30.54l19.98-14.52v13.98h9.06v-30.48l-19.98 14.58v-14.1Z" style="fill-rule:nonzero" transform="translate(-177.083 881.08) scale(4.16667)"/><path d="M357.44 169v22.2h9.06v-11.04h10.92v11.04h9.06v-30h-9.06v11.04H366.5V161.2l-9.06 7.8Z" style="fill-rule:nonzero" transform="translate(-177.083 880.83) scale(4.16667)"/><path d="M454.16 191.14v-30h-9.06v22.08h-6.72v-22.08h-9.06v22.08h-6.72V160.9l-9.06 7.44v22.8h40.62Zm-51.54-30h-9.06v30.54l19.98-14.52v13.98h9.06v-30.48l-19.98 14.58v-14.1Z" style="fill-rule:nonzero" transform="translate(-177.083 881.08) scale(4.16667)"/><path d="M470.3 153.88h-9.06v30l19.98-14.28v14.28h9.06v-30l-19.98 14.4v-14.4Zm47.88 22.08v15.24h7.92v-15.24h-7.92Zm3.66 7.92v-30h-9.06v22.08h-6.72v-22.08H497v22.08h-6.72v-22.08l-9.06 7.2v22.8h40.62Z" style="fill-rule:nonzero" transform="translate(-177.083 911.33) scale(4.16667)"/><path d="M540.8 161.2h-9.06v30l19.98-14.28v14.28h9.06v-30l-19.98 14.4v-14.4Zm25.14 0h-5.16l-9.06 7.2v22.8h16.5c8.1 0 11.04-4.86 11.04-9.24 0-2.22-1.14-4.86-3.6-6.72 1.14-1.5 1.68-3.24 1.68-4.8 0-4.38-3.3-9.24-11.4-9.24Zm-5.16 7.2H566c1.2 0 2.22.6 2.22 2.4 0 1.68-1.02 2.28-1.98 2.4h-5.46v-4.8Zm7.38 15.18h-7.38v-5.1h7.14c1.26 0 2.22.72 2.22 2.7 0 1.38-1.02 2.28-1.98 2.4ZM620.06 183.4c-2.7 0-6.12-1.56-6.54-5.58h21.06c.12-.9.18-1.8.18-2.64 0-9.48-6.84-14.46-14.46-14.46-4.74 0-8.64 1.74-11.34 4.62-2.82-2.88-6.78-4.62-11.1-4.62-8.64 0-15.6 6.96-15.6 15.48s6.96 15.48 15.6 15.48c4.38 0 8.34-1.8 11.16-4.68 2.88 3 6.9 4.68 11.1 4.68 5.94 0 10.8-2.88 13.56-7.2l-7.2-4.86c-1.2 2.22-3.24 3.78-6.42 3.78Zm-15.72-7.2c0 4.14-2.76 7.02-6.48 7.02-3.72 0-6.48-2.88-6.48-7.02s2.76-7.02 6.48-7.02c3.72 0 6.48 2.88 6.48 7.02Zm21.48-3.66h-12.24c.84-3.6 4.02-4.56 6.18-4.56 2.94 0 5.58 1.38 6.06 4.56ZM660.38 176.2c0 4.14-2.76 7.02-6.48 7.02-3.72 0-6.48-2.88-6.48-7.02s2.76-7.02 6.48-7.02c3.72 0 6.48 2.88 6.48 7.02Zm9.12 0c0-8.52-6.96-15.48-15.6-15.48s-15.6 6.96-15.6 15.48 6.96 15.48 15.6 15.48 15.6-6.96 15.6-15.48Zm6.78-15h-9.06v30l19.98-14.28v14.28h9.06v-30l-19.98 14.4v-14.4ZM714.92 160.72c-8.64 0-15.6 6.96-15.6 15.48s6.96 15.48 15.6 15.48 15.6-6.96 15.6-15.48-6.96-15.48-15.6-15.48Zm27.72 30.48h10.68l-11.7-15.78 10.14-14.22h-10.44l-10.26 14.4 11.58 15.6Zm-27.72-7.98c-3.72 0-6.48-2.88-6.48-7.02s2.76-7.02 6.48-7.02c3.72 0 6.48 2.88 6.48 7.02s-2.76 7.02-6.48 7.02Z" style="fill-rule:nonzero" transform="translate(-177.083 880.83) scale(4.16667)"/><path d="m76.1 97.6-2.58-7.74c-2.22-6.6-7.8-11.7-15.12-11.7-8.64 0-15.6 6.96-15.6 15.48s6.96 15.48 15.6 15.48c4.44 0 8.46-1.86 11.28-4.8l1.62 4.32-4.08 11.04h9.6l15.12-41.04h-9.6L76.1 97.6Zm-11.22-3.96c0 4.14-2.76 7.02-6.48 7.02-3.72 0-6.48-2.88-6.48-7.02s2.76-7.02 6.48-7.02c3.72 0 6.48 2.88 6.48 7.02Z" style="fill-rule:nonzero" transform="translate(-177.083 1524.83) scale(4.16667)"/><path d="M130.52 106.9v1.74h9.06v-30h-9.06v1.8c-1.74-1.44-4.14-2.28-6.6-2.28-6.6 0-11.64 3.96-13.44 9.42l-3.3 10.02-6.24-18.96h-9.6l11.04 30-4.08 11.04h9.6l5.52-15.06c2.52 2.76 6.12 4.5 10.5 4.5 2.46 0 4.86-.78 6.6-2.22Zm-5.1-6.06c-4.32 0-6.9-3.24-6.9-7.2s2.58-7.2 6.9-7.2c2.22 0 3.84.9 5.1 2.52v9.42c-1.26 1.62-2.88 2.46-5.1 2.46Z" style="fill-rule:nonzero" transform="translate(-177.083 1524.83) scale(4.16667)"/><path d="M191.84 105.76h-9.12c0 4.5-2.76 7.02-6.48 7.02-3.84 0-6.42-2.82-6.42-8.16l.12-9.96c.06-5.94 3.24-8.58 8.52-8.58h9.48l1.92-7.92h-11.4c-11.4 0-17.64 7.62-17.64 20.7v3.78c0 11.46 6.12 18.6 15.48 18.6 8.76 0 15.54-6.84 15.54-15.48Zm-13.8-15.42c-3.48 0-6.42 1.2-8.16 3.12l-.12 8.94c1.26-2.46 3.42-3.78 6.66-3.78 4.02 0 6.3 3.18 6.3 7.14h9.12c0-8.22-4.92-15.42-13.8-15.42Zm-19.38 19.38-6.24-18.96h-9.6l11.04 30-4.08 11.04h9.6l10.38-28.26-6.24-8.04-4.86 14.22Z" style="fill-rule:nonzero" transform="translate(-177.083 1474.33) scale(4.16667)"/><path d="m208.88 97.6-6.24-18.96h-9.6l11.04 30-4.08 11.04h9.6l5.7-15.42c2.82 3 6.84 4.86 11.34 4.86 5.52 0 10.38-2.82 13.14-7.08l-7.2-5.1c-1.2 2.22-3.3 3.72-5.94 3.72-3.72 0-6.48-2.88-6.48-7.02s2.76-7.02 6.48-7.02c2.64 0 4.74 1.5 5.94 3.72l7.2-5.1c-2.76-4.26-7.62-7.08-13.14-7.08-6.78 0-12.72 4.26-14.7 10.26l-3.06 9.18ZM256.1 97.6l-6.24-18.96h-9.6l11.04 30-4.08 11.04h9.6l5.64-15.36c2.88 3.06 6.96 4.8 11.16 4.8 5.94 0 10.8-2.88 13.56-7.2l-7.2-4.86c-1.2 2.22-3.24 3.78-6.42 3.78-2.7 0-6.12-1.56-6.54-5.58h21.06c.12-.9.18-1.8.18-2.64 0-9.48-6.84-14.46-14.46-14.46-7.56 0-12.78 4.5-14.88 10.86l-2.82 8.58Zm23.22-7.62h-12.24c.84-3.6 4.02-4.56 6.18-4.56 2.94 0 5.58 1.38 6.06 4.56ZM305.54 97.6l-6.24-18.96h-9.6l11.04 30-4.08 11.04h9.6l5.64-15.36c2.88 2.94 6.84 4.8 11.34 4.8 8.64 0 15.6-6.96 15.6-15.48s-6.96-15.48-15.6-15.48c-7.32 0-12.96 5.1-15.12 11.64l-2.58 7.8Zm24.18-3.96c0 4.14-2.76 7.02-6.48 7.02-3.72 0-6.48-2.88-6.48-7.02s2.76-7.02 6.48-7.02c3.72 0 6.48 2.88 6.48 7.02Z" style="fill-rule:nonzero" transform="translate(-177.083 1524.83) scale(4.16667)"/></svg>