<svg viewBox="0 0 1182 357" xmlns="http://www.w3.org/2000/svg" xml:space="preserve" style="fill-rule:evenodd;clip-rule:evenodd;stroke-linejoin:round;stroke-miterlimit:10"><path style="fill:none" d="M0 0h595.44v841.92H0z" transform="translate(-892.876 -614.1) scale(4.16667)"/><path d="m298.879 608.929-21.514 43.273-47.525 8.753 43.64-20.755 6.101-30.162s6.286-.578 9.43-.759c3.216-.185 9.868-.35 9.868-.35Z" style="fill:#be6ea1" transform="translate(-892.876 -2397.285) scale(4.16667)"/><path d="m283.061 657.671-3.479 17.205c-4.612.483-9.511 1.178-14.045 2.175l-.829-13.314c.094-.037 4.408-1.679 8.83-3.139 4.701-1.553 9.523-2.927 9.523-2.927Z" style="fill:#8c6fb1" transform="translate(-892.876 -2667.443) scale(4.16667)"/><path d="m251.705 621.576-.314.164-.312.164-.31.165-.309.166-.306.166-.305.168-.302.168-.15.084-.3.169-.148.085-.149.085-.294.17-.389.228-.193.115-.288.173-.214.129-.212.13-.281.175c-.186.116-.371.233-.554.35l-.272.176-.27.176-.443.296-.218.149-.259.178c-2.273 1.582-4.172 3.232-5.494 4.924-6.683 8.554-8.734 31.102-9.34 41.705l-.036.647-.032.614-.036.712-.015.335-.037.826-.035.884-.016.446-.012.38-.009.311-.009.331-.004.176-.064-.261-.089-.375-.079-.337-.093-.403-.107-.466-.105-.467-.115-.514-.06-.273-.127-.581c-2.023-9.327-6.681-33.92-2.166-44.555 2.828-6.664 12.099-14.543 20.625-20.735l4.247 12.647Z" style="fill:#5a6d5f" transform="translate(-892.876 -2467.872) scale(4.16667)"/><path d="m266.621 626.327-36.783 31.344.133-.451.148-.491.163-.535.199-.643.184-.588.152-.481.165-.515.176-.547.124-.381.13-.395.134-.408.211-.635.222-.662.232-.688.162-.471.166-.482.17-.492.175-.501.18-.511.092-.259.186-.523.191-.531.195-.54.2-.546.204-.554.103-.279.21-.563.214-.569.219-.575.222-.58c.299-.776.608-1.566.928-2.363l.241-.6c.365-.902.742-1.813 1.131-2.727 1.953-4.589 4.194-9.261 6.619-13.256l.175-.289.176-.286.177-.283.089-.141.177-.28.089-.138.179-.276.179-.273.18-.27.18-.267.181-.264c1.782-2.583 3.646-4.729 5.551-6.165.417-.314.867-.617 1.345-.909a23.088 23.088 0 0 1 2.147-1.149l.178-.083.3-.139-.001-.002c2.841-1.285 6.295-2.314 10.002-3.14l.214-.047 1.084 17.399Z" style="fill:#50398c" transform="translate(-892.876 -2383.597) scale(4.16667)"/><path d="M247.458 675.858c.083-.06 3.939-2.773 7.864-5.348a363.644 363.644 0 0 1 8.294-5.261l1.092 17.52c-4.209 1.614-8.629 3.492-12.658 5.558l-.345.178-4.247-12.647Z" style="fill:#717abb" transform="translate(-892.876 -2746.743) scale(4.16667)"/><path d="m251.705 608.928 3.617 10.767-.3.139c-.834.387-1.611.797-2.325 1.232-.478.292-.928.595-1.345.909-1.905 1.436-3.769 3.582-5.551 6.165l-.181.264-.18.267-.18.27-.179.273-.179.276-.089.138-.177.28-.089.141-.177.283-.176.286-.175.289c-2.425 3.995-4.666 8.667-6.619 13.256-.389.914-.766 1.825-1.131 2.727l-.241.6c-.32.797-.629 1.587-.928 2.363l-.222.58-.219.575-.214.569-.21.563-.206.557-.101.276-.2.546-.195.54-.191.531-.186.523-.182.515-.178.506-.173.497-.168.487-.164.477-.158.466-.154.456-.222.662-.211.635-.134.408-.192.587-.122.375-.172.537-.161.503-.195.619-.173.556-.151.488-.156.513-.201.674-.051.175.004-.177.009-.331.009-.311.012-.38.016-.446.01-.247.021-.541.013-.293.028-.629.015-.335.036-.712c.511-9.961 2.447-34.056 9.408-42.966 1.322-1.692 3.221-3.342 5.494-4.924l.259-.178c.217-.149.438-.297.661-.445l.27-.176c.271-.177.546-.352.826-.526l.281-.175.426-.259.288-.173c.192-.115.386-.229.582-.343l.294-.17.297-.17.3-.169.15-.084.302-.168.305-.168.306-.166.309-.166.31-.165.312-.164.314-.164Z" style="fill:#3e534b" transform="translate(-892.876 -2415.172) scale(4.16667)"/><path d="m241.869 608.928 5.589 16.64c-8.526 6.192-17.797 14.071-20.625 20.735-4.8 11.307.769 38.392 2.515 46.133l.113.498.052.225.093.403.079.337.128.536.025.101-.182-.333-.208-.388-.18-.335-.209-.394-.238-.451-.265-.507-.29-.558c-4.233-8.183-15.446-31.235-13.815-42.846 1.665-11.842 19.454-31.442 25.455-37.764l1.963-2.032Z" style="fill:#a2bc6d" transform="translate(-892.876 -2537.202) scale(4.16667)"/><path d="M250.765 669.322h13.34c.596-3.831 1.419-7.422 2.545-10.394l-10.968-2.94c-1.877 4.246-3.53 8.911-4.917 13.334Z" style="fill:#534b9f" transform="scale(4.16667 -4.16667) rotate(-86.437 -218.088 429.49)"/><path d="m279.582 608.929-6.102 30.162-43.64 20.755h-.001l36.782-31.343-1.084-17.399c4.534-.997 9.433-1.692 14.045-2.175Z" style="fill:#7c438f" transform="translate(-892.876 -2392.664) scale(4.16667)"/><path d="M333.995 674.388c10.459 0 17.996-7.306 17.996-17.535 0-9.459-7.076-16.38-16.689-16.38-10.382 0-18.072 7.306-18.072 17.457 0 9.536 7.075 16.458 16.765 16.458Zm-8.69-17.304c0-6.075 3.076-11.074 8.921-11.074 5.46 0 9.69 4.383 9.69 11.689 0 5.922-2.846 11.228-8.844 11.228-5.384 0-9.767-4.46-9.767-11.843Zm32.684 16.458h4.999c1.461 0 2.538-1.077 2.538-2.384v-47.527l-4.999.845c-1.461.308-2.538 1.539-2.538 2.846v46.22Zm16.612 0h4.998c1.462 0 2.538-1.077 2.538-2.384v-47.527l-4.998.845c-1.462.308-2.538 1.539-2.538 2.846v46.22Zm16.303-44.836c0 2.538 2.154 4.691 4.692 4.691 2.538 0 4.691-2.153 4.691-4.691s-2.153-4.691-4.691-4.691-4.692 2.153-4.692 4.691Zm.77 44.836h5.075c1.461 0 2.538-1.077 2.538-2.384v-30.532l-5.153.923c-1.384.231-2.46 1.538-2.46 2.846v29.147Zm16.303 0h5.076c1.461 0 2.538-1.077 2.538-2.384v-21.303c2.153-2.23 5.076-3.384 7.537-3.384 3.999 0 6.229 3.153 6.229 8.306v18.765h5.076c1.461 0 2.537-1.077 2.537-2.384v-18.457c0-1-.076-1.923-.23-2.769 2.153-2.307 4.999-3.461 7.383-3.461 4.076 0 6.229 3.153 6.229 8.306v18.765h4.999c1.461 0 2.538-1.077 2.538-2.384v-18.457c0-7.46-4.461-11.844-10.383-11.844-4.306 0-8.459 1.846-11.92 5.537-1.769-3.537-5.076-5.537-9.075-5.537-3.999 0-7.998 1.538-11.305 4.691l-.999-4.922-3.769.846c-1.384.308-2.461 1.615-2.461 2.923v29.147Zm54.987-15.612c0 9.536 7.076 16.458 16.766 16.458 10.459 0 17.995-7.306 17.995-17.535 0-9.459-7.075-16.38-16.688-16.38-10.382 0-18.073 7.306-18.073 17.457Zm8.075-.846c0-6.075 3.077-11.074 8.921-11.074 5.461 0 9.69 4.383 9.69 11.689 0 5.922-2.845 11.228-8.844 11.228-5.383 0-9.767-4.46-9.767-11.843Z" style="fill:#231f20;fill-rule:nonzero;stroke:#fff;stroke-width:.24px" transform="translate(-892.876 -2514.514) scale(4.16667)"/></svg>