<svg viewBox="0 0 2266 800" xmlns="http://www.w3.org/2000/svg" xml:space="preserve" style="fill-rule:evenodd;clip-rule:evenodd;stroke-linejoin:round;stroke-miterlimit:2"><path style="fill:#ebebeb;fill-opacity:0" fill="none" d="M359.154 2350h2265.85v800H359.154z" transform="translate(-359.154 -2350)"/><path d="M343.078 209.621c11.23 0 19.324-7.846 19.324-18.83 0-10.154-7.6-17.591-17.919-17.591-11.151 0-19.408 7.849-19.408 18.747 0 10.24 7.596 17.674 18.003 17.674Zm-9.334-18.585c0-6.523 3.305-11.891 9.583-11.891 5.862 0 10.403 4.707 10.403 12.552 0 6.361-3.056 12.058-9.497 12.058-5.779 0-10.489-4.79-10.489-12.719Zm38.404 17.675h5.368c1.567 0 2.723-1.156 2.723-2.561v-51.036l-5.368.91c-1.567.329-2.723 1.651-2.723 3.052v49.635Zm21.142 0h5.367c1.568 0 2.724-1.156 2.724-2.561v-51.036l-5.368.91c-1.568.329-2.723 1.651-2.723 3.052v49.635Zm20.809-48.146c0 2.723 2.312 5.038 5.039 5.038 2.723 0 5.035-2.315 5.035-5.038 0-2.724-2.312-5.039-5.035-5.039-2.727 0-5.039 2.315-5.039 5.039Zm.827 48.146h5.447c1.572 0 2.727-1.156 2.727-2.561v-32.784l-5.533.99c-1.485.249-2.641 1.65-2.641 3.056v31.299Zm20.81 0h5.45c1.568 0 2.724-1.156 2.724-2.561v-22.876c2.315-2.395 5.451-3.634 8.095-3.634 4.294 0 6.689 3.388 6.689 8.918v20.153h5.451c1.568 0 2.723-1.156 2.723-2.561v-19.82c0-1.073-.083-2.063-.245-2.973 2.312-2.478 5.367-3.717 7.928-3.717 4.375 0 6.686 3.388 6.686 8.918v20.153h5.372c1.567 0 2.723-1.156 2.723-2.561v-19.82c0-8.012-4.789-12.718-11.147-12.718-4.627 0-9.084 1.983-12.801 5.945-1.9-3.796-5.451-5.945-9.746-5.945-4.294 0-8.589 1.654-12.14 5.038l-1.073-5.284-4.045.907c-1.489.332-2.644 1.733-2.644 3.139v31.299Zm62.348-16.764c0 10.24 7.6 17.674 18.007 17.674 11.23 0 19.325-7.846 19.325-18.83 0-10.154-7.6-17.591-17.924-17.591-11.147 0-19.408 7.849-19.408 18.747Zm8.673-.911c0-6.523 3.305-11.891 9.579-11.891 5.863 0 10.407 4.707 10.407 12.552 0 6.361-3.056 12.058-9.496 12.058-5.783 0-10.49-4.79-10.49-12.719Z" style="fill:#466830;fill-rule:nonzero" transform="translate(559.952 119.337) scale(1.52852)"/><path d="m245.641 157.539.299-.221-4.479-13.325c-4.052 4.291-12.259 13.325-18.642 22.601-4.215 6.13-7.672 12.335-8.365 17.28-.683 4.844.856 11.585 3.139 18.491 1.773 5.368 4.023 10.822 6.176 15.604a216.771 216.771 0 0 1-.769-5.104l-.072-.509-.029-.209c-.444-3.32-.824-6.777-1.055-10.179l-.025-.362-.007-.151c-.026-.369-.047-.737-.069-1.106-.401-7.379-.025-14.39 1.723-19.281l.065-.184.09-.242.094-.239.094-.231.101-.235.105-.238.126-.271.152-.314.13-.26.134-.26.141-.261.097-.173.155-.274.159-.275.224-.372.195-.314.174-.264.173-.267.119-.181.192-.274.195-.282.271-.376.235-.325.27-.361.21-.271.141-.181.224-.285.307-.379.285-.347.152-.184.155-.184.311-.362.227-.263.253-.286.17-.191.173-.192.17-.195.354-.382.296-.315.246-.263.278-.289.275-.286.26-.267.361-.365.553-.553.187-.184.188-.18.188-.185.267-.256.329-.318.202-.191.409-.38.411-.382.329-.3.3-.271.3-.275.404-.361.412-.361.408-.361.416-.362.209-.177.311-.267.339-.289.441-.372.444-.372.444-.368.448-.369.452-.368.451-.361.506-.409.434-.343.466-.365.184-.148c.079-.057.155-.119.231-.177l.227-.177.459-.354.455-.35.459-.35.455-.347.463-.343.455-.343Zm4.88 13.426-3.114-9.273-.372.279-.206.155-.477.361-.426.325-.415.318-.412.318-.405.318-.206.162-.408.318-.285.228-.412.325-.404.325-.401.325-.203.163-.253.209-.346.285-.282.232-.318.263-.278.235-.394.329-.195.166-.235.202-.224.192-.317.274-.275.239-.303.267-.268.235-.191.169-.188.167-.199.18-.234.213-.311.282-.26.238-.289.271-.257.239-.18.17-.354.339-.228.217-.187.184-.181.177-.173.17-.683.683-.332.339-.199.21-.184.191-.167.177-.162.17-.163.173-.31.34-.156.169-.303.34-.17.188-.13.148-.137.162-.141.163-.137.163-.13.151-.13.156-.138.166-.133.162-.13.163-.127.159-.119.148-.379.487-.159.217-.126.166-.206.282-.181.253-.173.249-.12.177-.184.271-.162.249-.159.25-.17.274-.152.249-.141.246-.094.163-.151.278-.134.245-.123.242-.086.174-.127.26-.112.242-.105.238-.079.188-.173.433-.08.217-.076.21c-1.542 4.417-1.759 10.735-1.398 17.374.015.264.029.527.047.795l.015.267.025.35c.217 3.251.571 6.556.993 9.742l.069.506.069.491c.227 1.662.476 3.284.729 4.848.539-5.372 1.337-11.411 2.518-17.129l.079-.383.047-.217a7.4 7.4 0 0 0 .062-.296l.079-.354.036-.17c.026-.119.051-.234.08-.354 1.481-6.628 3.54-12.671 6.26-16.677l.101-.148.137-.199.145-.195.14-.195.217-.281c1.568-2.009 3.811-3.981 6.509-5.859l.293-.206.256-.17.119-.083.261-.17.126-.083.303-.202.333-.213.375-.239.239-.148.321-.198.239-.149.245-.148.325-.195.329-.195.332-.195.329-.188.34-.195.332-.187.173-.102.34-.184.343-.191.087-.047Zm1.419 4.226-.209.116-.322.18-.314.181-.314.184-.242.141-.188.112-.188.108-.307.184-.271.167-.18.108-.3.188-.304.191-.285.181-.289.188-.278.18-.192.13-.155.105-.134.09-.209.141-.275.192a6.926 6.926 0 0 0-.216.148c-2.2 1.549-4.046 3.149-5.339 4.804l-.134.173-.13.174-.253.354-.122.18c-2.442 3.609-4.201 9.096-5.538 15.074l-.195.877-.054.257-.051.253c-1.177 5.602-1.968 11.548-2.503 16.839l.213-.563.25-.643c.332-.863.675-1.738 1.029-2.623l.267-.668c.405-1 .824-2.012 1.257-3.03 2.128-5.003 4.566-10.089 7.199-14.481.069-.12.141-.239.213-.354l.192-.322.206-.328.195-.315.105-.166.198-.314.105-.163.199-.307.206-.31.202-.307.213-.315.202-.299c2.11-3.056 4.331-5.581 6.585-7.279a21.483 21.483 0 0 1 1.654-1.12l.326-.191.357-.21.235-.13.253-.137.162-.087-2.532-7.538Zm14.416 7.889c-2.781.708-5.537 1.546-8.16 2.709l-.043.022-.069.032-.325.152-.173.083-.148.068-.148.073-.203.097-.231.119-.213.109-.191.097-.127.073-.133.072-.138.076-.13.072-.26.152-.122.072-.206.126-.253.159-.333.217-.317.224-.156.112-.151.112c-1.933 1.456-3.804 3.645-5.61 6.26l-.195.285c-.062.09-.123.184-.184.275l-.383.577-.192.293c-.029.047-.057.094-.09.141l-.191.303c-.029.047-.062.094-.091.145l-.191.303-.184.3-.188.314a69.54 69.54 0 0 0-.907 1.532c-2.265 3.944-4.36 8.38-6.22 12.743-.423.994-.831 1.98-1.224 2.959l-.271.672c-.343.859-.679 1.712-1.001 2.546l-.242.632-.238.625-.231.621-.232.611-.166.451-.166.456-.217.596-.213.585-.209.578-.203.57-.148.419-.101.286-.188.542-.097.278-.09.256-.094.271-.181.527-.155.459-.224.668-.018.051 33.726-28.738-.961-15.42Zm14.702-2.601-.329.04-.376.047-.3.036-.325.043-.347.044-.296.039-.346.047-.329.047-.296.04-.362.051-.314.046-.292.04-.372.054-.307.047-.293.047-.376.058-.3.047-.325.051-.346.057-.297.047-.343.058-.328.054-.293.051-.358.065-.314.054-.289.054-.365.065-.303.058-.293.054-.361.069-.296.058-.3.061 1.073 17.212.007.162-.011.159-.018.159-.029.156-.043.151-.051.148-.061.145-.076.141-.083.133-.09.13-.101.12-.112.115-.098.087-27.716 23.62 31.895-15.171 5.885-29.096Zm-35.894 48.225 34.73-6.397 21.514-43.269c-2.333.072-5.255.173-7.123.282-2.38.133-6.415.48-8.655.679l-6.375 31.523-.04.155-.047.152-.061.148-.069.141-.079.137-.087.13-.097.123-.109.115-.115.109-.123.101-.13.09-.08.051-.144.079-.029.011-32.881 15.64Zm20.018-64.44-.87-13.971a356.095 356.095 0 0 0-5.946 3.807 351.738 351.738 0 0 0-7.235 4.898l3.334 9.937c3.475-1.694 7.141-3.262 10.717-4.671Zm.896 14.369-.607-9.76c-.863.347-1.73.701-2.597 1.07l-.448.187-.469.203-.398.169-.498.217-.379.166-.409.185-.48.213-.39.177-.365.166-.26.119-.343.159-.267.123-.271.126-.336.159-.26.127-.325.155-.279.133-.256.123-.336.166-.231.112 2.619 7.799.321-.123.13-.047c.137-.05.275-.101.416-.148l.249-.09c.144-.051.285-.101.43-.148l.314-.109.148-.05c.148-.047.296-.098.448-.145l.245-.079c.152-.051.307-.098.459-.145l.246-.076c.235-.072.469-.14.708-.213h.003c.242-.072.484-.14.726-.206l.004-.003c.242-.069.488-.134.733-.202a71.63 71.63 0 0 1 1.745-.448l.26-.062Zm15.872-2.676h.025l2.781-13.759a268.657 268.657 0 0 0-6.899 2.167 259.305 259.305 0 0 0-8.095 2.847l.651 10.479.368-.069.498-.094.221-.043.513-.094.213-.036.524-.094.202-.033.376-.065.35-.058.73-.122.339-.055.47-.072.242-.036.498-.076.235-.036.509-.076.224-.032.52-.073.21-.028.534-.073.199-.029.542-.072.542-.068.372-.047c.22-.029.441-.055.661-.084l.061-.007c.221-.025.445-.05.661-.076l.062-.007c.22-.029.44-.054.661-.079Z" style="fill:#466830" transform="translate(559.952 107.167) scale(1.52852)"/></svg>