<svg viewBox="0 0 1177 357" xmlns="http://www.w3.org/2000/svg" xml:space="preserve" style="fill-rule:evenodd;clip-rule:evenodd;stroke-linejoin:round;stroke-miterlimit:2"><path style="fill:none" d="M0 0h595.44v841.92H0z" transform="translate(-892.877 -1906.8) scale(4.16667)"/><path d="M334.489 363.167c10.351 0 17.81-7.231 17.81-17.354 0-9.362-7.002-16.213-16.517-16.213-10.275 0-17.886 7.231-17.886 17.278 0 9.439 7.002 16.289 16.593 16.289Zm-8.601-17.126c0-6.013 3.044-10.96 8.829-10.96 5.404 0 9.59 4.338 9.59 11.569 0 5.861-2.816 11.113-8.753 11.113-5.328 0-9.666-4.415-9.666-11.722Zm32.348 16.289h4.948c1.446 0 2.512-1.066 2.512-2.36v-47.039l-4.948.838c-1.446.304-2.512 1.522-2.512 2.816v45.745Zm16.441 0h4.948c1.446 0 2.511-1.066 2.511-2.36v-47.039l-4.947.838c-1.446.304-2.512 1.522-2.512 2.816v45.745Zm16.136-44.375c0 2.512 2.132 4.643 4.643 4.643 2.512 0 4.643-2.131 4.643-4.643s-2.131-4.643-4.643-4.643c-2.511 0-4.643 2.131-4.643 4.643Zm.762 44.375h5.023c1.446 0 2.512-1.066 2.512-2.36v-30.217l-5.1.913c-1.37.228-2.435 1.522-2.435 2.816v28.848Zm16.136 0h5.024c1.446 0 2.511-1.066 2.511-2.36v-21.084c2.132-2.207 5.024-3.349 7.46-3.349 3.958 0 6.165 3.121 6.165 8.221v18.572h5.023c1.447 0 2.512-1.066 2.512-2.36v-18.267c0-.99-.076-1.903-.228-2.74 2.131-2.284 4.947-3.426 7.307-3.426 4.034 0 6.165 3.121 6.165 8.221v18.572h4.948c1.446 0 2.511-1.066 2.511-2.36v-18.267c0-7.383-4.414-11.722-10.275-11.722-4.262 0-8.373 1.827-11.798 5.48-1.75-3.501-5.023-5.48-8.981-5.48s-7.916 1.522-11.189 4.643l-.99-4.871-3.729.837c-1.37.304-2.436 1.598-2.436 2.892v28.848Zm54.422-15.452c0 9.439 7.003 16.289 16.593 16.289 10.352 0 17.811-7.231 17.811-17.354 0-9.362-7.003-16.213-16.517-16.213-10.275 0-17.887 7.231-17.887 17.278Zm7.992-.837c0-6.013 3.045-10.96 8.829-10.96 5.405 0 9.591 4.338 9.591 11.569 0 5.861-2.816 11.113-8.753 11.113-5.328 0-9.667-4.415-9.667-11.722Z" style="fill:#4e4d4c;fill-rule:nonzero" transform="translate(-892.877 -1215.874) scale(4.16667)"/><g opacity=".7"><path d="m299.609 298.669-21.569 43.384-44.936 8.276 41.68-19.823 6.22-30.748.612-.062.939-.091.622-.058.307-.028.614-.054.758-.064.75-.061.296-.024.88-.067.721-.052.71-.049.559-.037.275-.018.546-.034.536-.032.527-.031.517-.028.507-.028.497-.025.486-.024.474-.022.69-.031.444-.018.643-.026.614-.022.771-.026.713-.022.806-.021.706-.016.6-.011.485-.007Z" style="fill:#8e8d8c;fill-rule:nonzero" transform="translate(-892.877 -1102.958) scale(4.16667)"/><path d="m283.575 348.004-3.342 16.528-.279.03-.96.107-.634.073c-4.111.483-7.953 1.087-11.443 1.823l-.237.051-.794-12.744.278-.106.593-.224.588-.22.585-.217.29-.106.579-.211.573-.208.568-.203.563-.2.557-.196.551-.192.544-.189.537-.184.66-.224.649-.219.51-.17.501-.166.492-.161.483-.158.473-.153.691-.221.447-.142.65-.205.623-.194.597-.184.568-.174.538-.163.507-.152.475-.141.848-.249.597-.173.574-.163Z" style="fill:#8e8d8c;fill-rule:nonzero" transform="translate(-892.877 -1376.383) scale(4.16667)"/><path d="m247.521 301.104 4.018 11.964-.292.154-.319.17-.317.17-.316.172-.313.172-.311.173-.156.087-.307.174-.306.175-.303.175-.135.079-.267.157-.199.117-.295.178-.221.134-.219.134-.289.179c-.194.122-.385.242-.573.362l-.28.181-.278.183c-.156.102-.308.204-.459.306l-.224.153-.267.184c-2.464 1.714-4.388 3.425-5.723 5.133-3.155 4.039-5.51 11.221-7.198 20.748-1.241 6.995-2.024 14.661-2.453 22.171l-.036.662-.034.63-.036.729-.013.272-.073-.335c-1.554-7.167-2.882-14.891-3.607-22.233-1.011-10.249-.673-18.262 1.365-23.065 2.436-5.739 9.787-12.842 20.297-20.544l.139-.101Z" style="fill:#676666;fill-rule:nonzero" transform="translate(-892.877 -1184.158) scale(4.16667)"/><path d="m265.825 298.947 1.06 17.027-36.257 30.896.205-.663.188-.599.156-.492.167-.525.18-.558.127-.39.132-.403.137-.416.215-.649.227-.676.238-.701.164-.482.169-.492.175-.502.179-.512.23-.652.237-.667.195-.543.199-.55.204-.558.208-.565.105-.285.215-.575.219-.581.222-.587.227-.592c.312-.81.628-1.614.947-2.411l.246-.612c.381-.941.765-1.869 1.153-2.782l.111-.259.221-.514.11-.255.222-.508.11-.252.222-.501c.148-.333.296-.663.445-.99l.223-.488c.185-.405.371-.805.558-1.201l.223-.472.224-.468.224-.464c1.272-2.612 2.556-4.999 3.848-7.129l.179-.295.178-.289.18-.289.09-.142.181-.285.089-.139.182-.281.182-.277.182-.274.182-.269.184-.269c.358-.518.715-1.013 1.071-1.485l.194-.255c1.455-1.894 2.895-3.391 4.31-4.458.411-.309.857-.611 1.339-.905a22.81 22.81 0 0 1 2.153-1.151l.18-.084.47-.218.121-.054c1.996-.878 4.345-1.665 7.011-2.365l.393-.102.397-.101.401-.099.406-.098.41-.097.207-.048.318-.073Z" style="fill:#41403f;fill-rule:nonzero" transform="translate(-892.877 -1089.704) scale(4.16667)"/><path d="m263.873 355.847 1.048 16.831-.279.108-.591.231-.588.231c-1.072.425-2.123.853-3.15 1.285l-.557.236-.553.236a115.825 115.825 0 0 0-6.719 3.135l-.114.059-4.066-12.105.242-.175.514-.369.256-.183.511-.363.506-.358.505-.354.5-.348.248-.173.617-.425.61-.418.482-.329.477-.322.471-.317.465-.311.459-.306.451-.299.445-.293.438-.286.429-.281.422-.273.413-.267.404-.26.395-.253.575-.366.37-.235.537-.338.344-.215.495-.309.469-.291.582-.358.654-.4.568-.344.561-.337.154-.091Z" style="fill:#8e8d8c;fill-rule:nonzero" transform="translate(-892.877 -1457.325) scale(4.16667)"/><path d="m251.837 301.068 3.396 10.109.068-.032c-.878.407-1.687.835-2.424 1.284-.507.31-.979.628-1.414.956-1.914 1.442-3.843 3.604-5.78 6.413l-.186.271-.187.277-.185.278-.185.281-.184.284-.092.145-.183.287-.092.146-.181.291-.183.296-.18.296a72.777 72.777 0 0 0-.92 1.563l-.23.403a92.191 92.191 0 0 0-1.941 3.634l-.228.451-.226.455-.227.46c-.151.309-.302.62-.452.935l-.226.474c-.338.714-.676 1.444-1.012 2.189l-.224.498-.223.503-.224.507-.223.512-.222.515-.223.52c-.39.919-.777 1.852-1.16 2.798l-.247.614c-.321.802-.638 1.61-.951 2.424l-.228.594-.224.589-.219.583-.216.578-.211.571-.104.283-.204.56-.2.553-.196.545-.191.536-.187.528-.182.518-.177.51-.173.499-.167.488-.163.478-.158.467-.227.678-.216.652-.138.418-.197.602-.124.385-.177.549-.083.261.012-.263.036-.727c.38-7.399 1.119-15.154 2.332-22.324 1.673-9.888 4.044-17.333 7.195-21.365 1.27-1.627 3.128-3.278 5.52-4.942l.263-.182c.218-.149.441-.299.669-.449l.274-.18c.272-.177.552-.355.837-.533l.286-.177.142-.088.289-.175.293-.176c.194-.116.391-.232.59-.348l.301-.174.3-.171.457-.258.309-.171.309-.17.312-.17.314-.168.315-.168.158-.083Z" style="fill:#4e4d4c;fill-rule:nonzero" transform="translate(-892.877 -1130.458) scale(4.16667)"/><path d="m241.843 300.825 5.37 15.987-.381.278c-10.641 7.797-18.075 14.983-20.597 20.925-2.234 5.262-2.493 14.019-1.259 25.195l.044.389c.775 6.867 2.008 13.846 3.372 20.125l.107.491.037.073c-3.34-6.456-6.649-13.588-9.293-20.55-3.723-9.803-5.526-17.766-4.791-23.001.749-5.328 4.802-12.643 11.267-21.219 4.537-6.018 9.718-11.962 14.649-17.157l.422-.443.377-.393.33-.343.346-.357Z" style="fill:#8e8d8c;fill-rule:nonzero" transform="translate(-892.877 -1253.437) scale(4.16667)"/><path d="m264.982 344.806.784 12.597-.041.009-.632.145-.417.099c-.207.049-.413.099-.616.15l-.406.101c-2.822.715-5.315 1.526-7.445 2.437l-.131.057-3.411-10.156.107-.054c2.672-1.367 5.62-2.708 8.79-4.017l.562-.231.566-.23.57-.23.865-.343.581-.227.274-.107Z" style="fill:#676666;fill-rule:nonzero" transform="translate(-892.877 -1337.162) scale(4.16667)"/><path d="m280.04 299.503-6.07 30.01-41.265 19.625 35.131-29.936-1.098-17.632.117-.026c3.28-.702 6.885-1.284 10.739-1.758l.61-.074.615-.072.619-.07.311-.035.291-.032Z" style="fill:#676666;fill-rule:nonzero" transform="translate(-892.877 -1101.47) scale(4.16667)"/></g></svg>