<svg viewBox="0 0 1181 353" xmlns="http://www.w3.org/2000/svg" xml:space="preserve" style="fill-rule:evenodd;clip-rule:evenodd;stroke-linejoin:round;stroke-miterlimit:10"><path style="fill:none" d="M0 0h595.44v841.92H0z" transform="translate(-892.879 -1262.32) scale(4.16667)"/><path d="m298.703 454.253-21.34 42.923-44.458 8.188 41.237-19.612 6.153-30.421.606-.062c.309-.031.619-.061.929-.09l.615-.057.305-.028.607-.054.75-.064.742-.06.293-.023.871-.066.713-.052.702-.049.553-.036.272-.018.541-.033.53-.032.522-.031.511-.028.502-.027.491-.025.48-.024.47-.021.682-.031.44-.018.636-.025.608-.023.762-.025.706-.022.797-.021.698-.015.594-.012.48-.006Z" style="fill:#466830;fill-rule:nonzero" transform="translate(-892.879 -1752.725) scale(4.16667)"/><path d="m282.84 503.065-3.308 16.352-.276.03-.949.105-.628.073c-4.066.478-7.868 1.075-11.32 1.804l-.236.05-.785-12.609.275-.105.587-.221.582-.218.579-.214.286-.106.573-.209.567-.205.563-.201.556-.198.551-.194.545-.19.538-.186.532-.183.653-.222.643-.216.504-.168.496-.164.486-.16.478-.156.468-.151.683-.219.442-.141.644-.202.617-.193.59-.182.562-.172.532-.161.502-.151.47-.139.839-.247.591-.17.568-.162v.001Z" style="fill:#466830;fill-rule:nonzero" transform="translate(-892.879 -2023.25) scale(4.16667)"/><path d="m247.168 456.662 3.976 11.838-.289.152-.316.168-.314.169-.312.169-.31.171-.308.171-.153.086-.305.172-.303.173-.3.173-.133.078-.264.156-.196.116-.293.176-.218.132-.217.133-.286.178c-.192.119-.381.239-.566.358l-.278.179-.275.18c-.154.102-.305.202-.454.303l-.222.151-.264.183c-2.438 1.695-4.341 3.388-5.662 5.078-3.122 3.996-5.451 11.102-7.122 20.527-1.227 6.921-2.002 14.505-2.426 21.936l-.037.655-.032.623-.036.722-.013.269-.072-.331c-1.538-7.092-2.852-14.734-3.569-21.998-1.001-10.139-.666-18.068 1.35-22.819 2.411-5.679 9.683-12.706 20.082-20.327l.137-.1Z" style="fill:#466830;fill-rule:nonzero" transform="translate(-892.879 -1833.066) scale(4.16667)"/><path d="m265.277 454.528 1.05 16.846-35.872 30.568.203-.656.185-.593.154-.486.166-.52.178-.552.126-.385.13-.399.136-.412.213-.642.224-.669.235-.694.163-.476.168-.487.172-.497.177-.506.227-.646.235-.66.193-.536.197-.545.202-.552.206-.559.104-.282.212-.569.217-.575.22-.58.225-.586c.308-.801.62-1.597.936-2.385l.244-.606c.376-.931.757-1.849 1.141-2.752l.109-.256.219-.509.109-.252.219-.503.11-.249.219-.496c.146-.329.293-.656.44-.979l.22-.483c.184-.401.368-.797.552-1.189l.222-.467.221-.463.222-.459c1.258-2.584 2.528-4.946 3.807-7.053l.177-.292.177-.286.178-.286.088-.14.179-.282.089-.138.18-.278.179-.274.181-.271.18-.266.182-.266c.354-.513.707-1.003 1.059-1.469l.192-.252c1.439-1.874 2.864-3.356 4.265-4.411.406-.306.847-.605 1.325-.896a22.89 22.89 0 0 1 2.129-1.139l.179-.083.464-.216.12-.052c1.975-.87 4.3-1.649 6.937-2.341l.388-.101.393-.1.397-.098.402-.097.405-.096.205-.047.314-.072Z" style="fill:#466830;fill-rule:nonzero" transform="translate(-892.879 -1739.612) scale(4.16667)"/><path d="m263.346 510.824 1.038 16.652-.276.107-.586.228-.581.229c-1.061.42-2.1.844-3.116 1.271l-.552.233-.547.234a113.959 113.959 0 0 0-6.647 3.102l-.114.058-4.022-11.977.239-.172.509-.366.253-.181.505-.359.502-.354.499-.35.494-.345.246-.17.61-.421.604-.414.477-.325.472-.319.466-.313.46-.308.454-.302.447-.297.44-.289.432-.284.425-.277.418-.271.408-.264.4-.257.391-.25.568-.363.367-.232.531-.334.34-.214.49-.305.464-.288.576-.354.647-.396.563-.34.554-.333.152-.09Z" style="fill:#466830;fill-rule:nonzero" transform="translate(-892.879 -2103.329) scale(4.16667)"/><path d="m251.439 456.626 3.359 10.002.068-.032c-.869.403-1.67.826-2.398 1.271-.503.306-.969.621-1.399.945-1.894 1.428-3.802 3.566-5.719 6.345l-.184.269c-.063.091-.124.182-.185.274l-.183.274-.183.279-.182.281-.092.143-.181.284-.09.145-.18.288c-.061.097-.12.195-.18.292l-.178.293a69.557 69.557 0 0 0-.911 1.546l-.228.4a90.225 90.225 0 0 0-1.92 3.595l-.225.446-.225.45-.224.456c-.149.305-.298.613-.447.924l-.223.469c-.335.707-.669 1.429-1.002 2.166l-.221.493c-.074.165-.148.331-.221.498l-.222.501-.22.506-.22.51-.22.515c-.387.908-.769 1.831-1.148 2.768l-.244.607c-.318.793-.632 1.593-.942 2.398l-.225.588-.221.583-.218.577-.213.571-.209.565-.103.28-.202.554-.198.547-.194.539-.189.531-.184.522-.18.513-.175.504-.171.494-.166.484-.161.472-.156.462-.225.671-.214.644-.136.414-.195.596-.123.381-.175.543-.082.259.012-.261.036-.719c.375-7.32 1.107-14.993 2.307-22.088 1.654-9.782 4.001-17.148 7.118-21.137 1.257-1.61 3.095-3.244 5.461-4.89l.261-.18c.216-.147.436-.296.661-.444l.272-.178c.269-.175.545-.351.828-.527l.283-.176.141-.086.285-.174.29-.174.584-.344.297-.172.298-.17.452-.255.305-.169.307-.169.308-.167.31-.167.312-.166.157-.082Z" style="fill:#466830;fill-rule:nonzero" transform="translate(-892.879 -1779.933) scale(4.16667)"/><path d="m241.551 456.386 5.312 15.817-.377.275c-10.527 7.715-17.882 14.824-20.378 20.704-2.21 5.206-2.466 13.869-1.245 24.927l.043.384c.767 6.795 1.987 13.699 3.336 19.912l.106.486.037.072c-3.304-6.388-6.579-13.444-9.195-20.332-3.683-9.698-5.467-17.578-4.739-22.757.74-5.271 4.751-12.508 11.147-20.993 4.489-5.954 9.614-11.835 14.493-16.975l.417-.438.373-.39.327-.338.343-.354Z" style="fill:#466830;fill-rule:nonzero" transform="translate(-892.879 -1901.608) scale(4.16667)"/><path d="m264.444 499.9.776 12.463-.041.009c-.21.047-.419.095-.626.144l-.412.097-.61.148-.401.1c-2.792.708-5.259 1.51-7.366 2.412l-.13.056-3.374-10.048.105-.054c2.644-1.352 5.561-2.679 8.697-3.974l.556-.229.56-.227.564-.227c.284-.114.569-.227.856-.34l.575-.225.271-.105Z" style="fill:#466830;fill-rule:nonzero" transform="translate(-892.879 -1984.441) scale(4.16667)"/><path d="m279.342 455.078-6.006 29.691-40.827 19.417 34.759-29.618-1.087-17.445.116-.025c3.246-.695 6.812-1.271 10.625-1.74l.604-.073.608-.072.612-.069.308-.034.288-.032Z" style="fill:#466830;fill-rule:nonzero" transform="translate(-892.879 -1751.254) scale(4.16667)"/><path d="M333.716 518.814c10.459 0 17.995-7.306 17.995-17.534 0-9.459-7.075-16.381-16.688-16.381-10.382 0-18.073 7.306-18.073 17.458 0 9.536 7.076 16.457 16.766 16.457Zm-8.691-17.303c0-6.076 3.077-11.074 8.921-11.074 5.461 0 9.69 4.383 9.69 11.689 0 5.922-2.845 11.228-8.844 11.228-5.383 0-9.767-4.46-9.767-11.843Zm32.685 16.457h4.999c1.461 0 2.538-1.076 2.538-2.384v-47.527l-4.999.846c-1.461.308-2.538 1.538-2.538 2.846v46.219Zm16.611 0h4.999c1.461 0 2.538-1.076 2.538-2.384v-47.527l-4.999.846c-1.461.308-2.538 1.538-2.538 2.846v46.219Zm16.304-44.835c0 2.538 2.154 4.691 4.691 4.691 2.538 0 4.692-2.153 4.692-4.691s-2.154-4.691-4.692-4.691c-2.537 0-4.691 2.153-4.691 4.691Zm.769 44.835h5.076c1.461 0 2.538-1.076 2.538-2.384v-30.531l-5.153.923c-1.384.231-2.461 1.538-2.461 2.846v29.146Zm16.304 0h5.076c1.461 0 2.538-1.076 2.538-2.384v-21.302c2.153-2.23 5.075-3.384 7.536-3.384 3.999 0 6.23 3.153 6.23 8.306v18.764h5.075c1.462 0 2.538-1.076 2.538-2.384v-18.457c0-1-.077-1.922-.23-2.768 2.153-2.307 4.998-3.461 7.382-3.461 4.076 0 6.23 3.153 6.23 8.306v18.764h4.999c1.461 0 2.537-1.076 2.537-2.384v-18.457c0-7.46-4.46-11.843-10.382-11.843-4.306 0-8.459 1.846-11.92 5.537-1.769-3.538-5.076-5.537-9.075-5.537-3.999 0-7.998 1.538-11.305 4.691l-1-4.922-3.768.846c-1.384.308-2.461 1.615-2.461 2.923v29.146Zm54.987-15.611c0 9.536 7.075 16.457 16.765 16.457 10.459 0 17.996-7.306 17.996-17.534 0-9.459-7.075-16.381-16.688-16.381-10.382 0-18.073 7.306-18.073 17.458Zm8.075-.846c0-6.076 3.076-11.074 8.921-11.074 5.46 0 9.69 4.383 9.69 11.689 0 5.922-2.845 11.228-8.844 11.228-5.383 0-9.767-4.46-9.767-11.843Z" style="fill:#466830;fill-rule:nonzero;stroke:#fff;stroke-width:.24px" transform="translate(-892.879 -1866.283) scale(4.16667)"/></svg>