<svg viewBox="0 0 1256 243" xmlns="http://www.w3.org/2000/svg" xml:space="preserve" style="fill-rule:evenodd;clip-rule:evenodd;stroke-linejoin:round;stroke-miterlimit:2"><path d="M1053.1 1402.03c-1.25-.42-1.66-1.25-1.66-2.92V1286.2h20.41c37.92 0 67.92-23.34 67.92-85.42 0-58.33-23.33-82.5-72.08-82.5h-16.25c-10.42 0-22.09-.42-30.84-.83-1.25 0-1.66.41-1.66 1.66s1.25 2.5 2.91 2.92l16.25 4.17c1.25.41 1.67 1.25 1.67 2.91v270c0 1.67-.42 2.5-1.67 2.92l-16.25 4.58c-1.66.42-2.5 1.25-2.5 2.5s.42 1.67 1.25 1.67c2.09 0 10-.83 28.34-.83.83 0 20.41 0 30 .83.83 0 1.25-.42 1.25-1.67s-.84-2.08-2.5-2.5l-24.59-4.58Zm-1.66-123.33v-152.92h16.25c43.75 0 60.41 18.75 60.41 77.08 0 53.75-16.25 75.84-56.25 75.84h-20.41Z" style="fill:#231f20;fill-rule:nonzero" transform="matrix(.81821 0 0 .81821 -833.706 -914.306)"/><path d="M1254.77 1342.86c-.83-.41-1.67-.83-1.67-1.66l-41.66-216.67 8.33-2.08c2.5-.84 2.92-1.25 2.92-2.92 0-1.25-.42-2.08-1.25-2.08-5.42 0-7.92.41-15.42.41-7.08 0-10.42-.41-16.25-.41-1.25 0-2.08.83-2.08 2.08 0 1.67.41 2.5 2.08 2.92l10.83 2.5-43.75 216.25c-.41 1.25-1.25 1.25-2.91 1.66l-15.84 3.75c-1.66.42-2.5.84-2.5 2.92 0 1.67.84 2.5 2.09 2.5 2.5 0 8.75-.83 22.91-.83 12.92 0 17.09.41 24.59.83 1.25 0 2.08-.83 2.08-2.5s-.42-2.5-2.08-2.92l-15.84-3.75c-1.25-.41-2.08-.83-2.08-1.66l10.83-53.75h52.5l10.84 54.16c0 .84-.42.84-1.67 1.25l-16.67 3.75c-2.5.42-2.91 2.09-2.91 3.34 0 .83 0 2.08 1.66 2.08 2.09 0 8.75-.83 31.25-.83.84 0 5 0 20 .83.84 0 1.25-.42 1.25-2.08 0-1.67-.83-2.92-2.91-3.34l-16.67-3.75Zm-49.58-202.91h.41l1.67 15.83 22.08 123.75h-50l23.75-123.75 2.09-15.83Z" style="fill:#231f20;fill-rule:nonzero" transform="matrix(.81821 0 0 .81821 -833.706 -866.235)"/><path d="M1406.44 1343.7c-1.67-.42-2.92-1.67-3.75-3.33l-45.42-105.42c29.58-4.58 44.58-25.42 44.58-59.58 0-42.5-21.66-57.09-57.91-57.09h-21.25c-17.09 0-23.34-.83-32.09-.83-1.25 0-1.66.83-1.66 2.08s1.25 2.5 2.91 2.92l16.67 3.75c1.25.42 2.08 1.25 2.08 2.5v211.67c0 1.66-.83 2.5-2.08 2.91l-16.67 3.75c-1.66.42-2.91 1.67-2.91 2.92 0 1.67.83 2.5 2.08 2.5 7.08 0 16.67-.83 24.58-.83 19.17 0 21.67.83 31.67.83 1.25 0 2.08-.83 2.08-2.5s-1.25-2.92-3.75-3.33l-21.66-3.75c-1.25-.42-1.67-1.25-1.67-2.5V1236.2h25l44.58 104.58c.42 1.25 0 2.5-1.66 2.92l-12.5 3.33c-1.67.42-2.5 1.67-2.5 3.34 0 1.25.83 2.08 2.08 2.08 7.08 0 12.08-.83 20-.83 14.58 0 17.92.83 25.42.83 1.25 0 1.66-.83 1.66-2.08 0-1.67-1.25-2.92-3.33-3.34l-14.58-3.33Zm-84.17-217.92h17.5c32.08 0 50 12.09 50 49.59 0 38.75-15.42 53.33-45.42 53.33h-22.08v-102.92Z" style="fill:#231f20;fill-rule:nonzero" transform="matrix(.81821 0 0 .81821 -833.706 -866.58)"/><path d="M1543.52 1342.86c-.83-.41-1.67-.83-1.67-1.66l-41.66-216.67 8.33-2.08c2.5-.84 2.92-1.25 2.92-2.92 0-1.25-.42-2.08-1.25-2.08-5.42 0-7.92.41-15.42.41-7.08 0-10.42-.41-16.25-.41-1.25 0-2.08.83-2.08 2.08 0 1.67.41 2.5 2.08 2.92l10.83 2.5-43.75 216.25c-.41 1.25-1.25 1.25-2.91 1.66l-15.84 3.75c-1.66.42-2.5.84-2.5 2.92 0 1.67.84 2.5 2.09 2.5 2.5 0 8.75-.83 22.91-.83 12.92 0 17.09.41 24.59.83 1.25 0 2.08-.83 2.08-2.5s-.42-2.5-2.08-2.92l-15.84-3.75c-1.25-.41-2.08-.83-2.08-1.66l10.83-53.75h52.5l10.84 54.16c0 .84-.42.84-1.67 1.25l-16.67 3.75c-2.5.42-2.91 2.09-2.91 3.34 0 .83 0 2.08 1.66 2.08 2.09 0 8.75-.83 31.25-.83.84 0 5 0 20 .83.84 0 1.25-.42 1.25-2.08 0-1.67-.83-2.92-2.91-3.34l-16.67-3.75Zm-49.58-202.91h.41l1.67 15.83 22.08 123.75h-50l23.75-123.75 2.09-15.83Z" style="fill:#231f20;fill-rule:nonzero" transform="matrix(.81821 0 0 .81821 -833.706 -866.235)"/><path d="M1588.94 1351.62c7.5 0 21.25-.83 33.75-.83 24.16 0 20.83 0 35 .83 1.25 0 2.08-.83 2.08-2.5s-1.25-2.5-2.92-2.92l-25.83-4.16c-.83 0-1.67-1.25-1.67-2.92v-213.33h40.42c1.67 0 2.92.83 3.33 2.08l10 50.42c.42 1.66 1.25 2.91 2.09 2.91 1.25 0 1.66-1.25 1.66-2.91l-1.66-57.5c0-2.09-1.25-3.34-2.92-3.34h-118.75c-1.67 0-2.5 1.25-2.5 3.34l-2.08 57.5c0 2.08.41 2.91 1.66 2.91 1.67 0 2.09-1.25 2.5-2.91l10-50.42c.42-1.25 1.67-2.08 3.34-2.08h41.66v213.33c0 1.67-.83 2.5-2.08 2.92l-25.42 4.16c-2.08.42-3.33 1.25-3.33 2.92s.83 2.5 1.67 2.5Z" style="fill:#231f20;fill-rule:nonzero" transform="matrix(.81821 0 0 .81821 -833.706 -865.901)"/><path d="M1707.27 1352.45c7.08 0 17.08-.83 25-.83 14.17 0 12.5 0 27.08.83 1.25 0 1.67-.83 1.67-2.08 0-1.67-1.25-2.92-3.33-3.34l-16.67-3.75c-1.25-.41-2.08-1.25-2.08-2.08v-109.17h75.83v109.17c0 1.25-.42 1.67-2.08 2.08l-17.09 3.75c-2.5.42-2.91 1.67-2.91 2.92s.41 2.5 1.66 2.5c7.09 0 17.92-.83 26.25-.83 15 0 13.75 0 25.84.83 1.25 0 1.25-1.25 1.25-2.5 0-1.67-.84-2.5-2.92-2.92l-16.67-3.75c-1.25-.41-1.66-.83-1.66-2.08v-212.92c0-.83.41-1.25 1.66-1.66l16.67-3.75c2.08-.42 3.33-1.67 3.33-3.34 0-1.25-.41-2.08-1.25-2.08-12.91.83-13.75.83-26.25.83-10 0-18.75-.83-25.83-.83-.83 0-1.67.83-1.67 2.08 0 1.67.84 2.92 2.5 3.34l17.09 3.75c1.25.41 2.08.83 2.08 1.66v95.42h-75.83v-95c0-1.25.83-1.67 2.08-2.08l16.67-3.75c2.08-.42 3.33-1.67 3.33-2.92 0-1.67-.42-2.5-1.67-2.5-12.08 0-13.75.83-27.08.83-7.92 0-17.92-.83-25-.83-1.25 0-1.67.83-1.67 2.5s1.25 2.5 2.92 2.92l17.08 3.75c1.25.41 2.09.83 2.09 2.08v212.5c0 .83-.84 1.67-2.09 2.08l-17.08 3.75c-1.67.42-2.92 1.67-2.92 2.92 0 1.67.42 2.5 1.67 2.5ZM1871.85 1352.45c7.5 0 16.67-.83 25-.83h81.67c1.67 0 2.92-1.25 2.92-3.34l1.66-56.25c0-2.08-.83-2.5-1.66-2.5-1.25 0-1.67.42-2.09 2.09l-10 49.58c-.41 1.67-1.66 2.08-3.33 2.08h-62.08v-105.41h37.08l9.17 35.41c.41 1.25 1.25 2.09 2.5 2.09s1.66-.84 1.66-2.09l-1.66-39.58 1.66-39.58c0-1.25-.41-2.09-1.66-2.09-1.67 0-2.09.42-2.5 1.67l-9.17 35.83h-37.08v-102.91h60c1.66 0 2.91.41 3.33 2.08l9.58 49.58c.42 1.25 1.25 1.67 2.09 1.67 1.25 0 1.66-.83 1.66-2.08l-1.25-56.25c0-2.09-1.25-3.34-3.33-3.34h-79.17c-8.33 0-17.08-.83-24.58-.83-.83 0-1.67.83-1.67 2.5 0 2.08.84 2.5 2.5 2.92l17.09 3.75c1.66.41 2.08.41 2.08 1.25v213.75c0 .83-.42 1.25-2.08 1.66l-17.09 3.75c-2.08.42-2.91 1.67-2.91 3.34 0 1.25.41 2.08 1.66 2.08Z" style="fill:#231f20;fill-rule:nonzero" transform="matrix(.81821 0 0 .81821 -833.706 -866.58)"/><path d="M2036.85 1351.62c7.5 0 21.25-.83 33.75-.83 24.17 0 20.84 0 35 .83 1.25 0 2.09-.83 2.09-2.5s-1.25-2.5-2.92-2.92l-25.83-4.16c-.84 0-1.67-1.25-1.67-2.92v-213.33h40.42c1.66 0 2.91.83 3.33 2.08l10 50.42c.42 1.66 1.25 2.91 2.08 2.91 1.25 0 1.67-1.25 1.67-2.91l-1.67-57.5c0-2.09-1.25-3.34-2.91-3.34h-118.75c-1.67 0-2.5 1.25-2.5 3.34l-2.09 57.5c0 2.08.42 2.91 1.67 2.91 1.67 0 2.08-1.25 2.5-2.91l10-50.42c.42-1.25 1.67-2.08 3.33-2.08h41.67v213.33c0 1.67-.83 2.5-2.08 2.92l-25.42 4.16c-2.08.42-3.33 1.25-3.33 2.92s.83 2.5 1.66 2.5Z" style="fill:#231f20;fill-rule:nonzero" transform="matrix(.81821 0 0 .81821 -833.706 -865.901)"/><path d="M2155.19 1352.45c7.08 0 17.08-.83 25-.83 14.16 0 12.5 0 27.08.83 1.25 0 1.67-.83 1.67-2.08 0-1.67-1.25-2.92-3.34-3.34l-16.66-3.75c-1.25-.41-2.09-1.25-2.09-2.08v-109.17h75.84v109.17c0 1.25-.42 1.67-2.09 2.08l-17.08 3.75c-2.5.42-2.92 1.67-2.92 2.92s.42 2.5 1.67 2.5c7.08 0 17.92-.83 26.25-.83 15 0 13.75 0 25.83.83 1.25 0 1.25-1.25 1.25-2.5 0-1.67-.83-2.5-2.91-2.92l-16.67-3.75c-1.25-.41-1.67-.83-1.67-2.08v-212.92c0-.83.42-1.25 1.67-1.66l16.67-3.75c2.08-.42 3.33-1.67 3.33-3.34 0-1.25-.42-2.08-1.25-2.08-12.92.83-13.75.83-26.25.83-10 0-18.75-.83-25.83-.83-.84 0-1.67.83-1.67 2.08 0 1.67.83 2.92 2.5 3.34l17.08 3.75c1.25.41 2.09.83 2.09 1.66v95.42h-75.84v-95c0-1.25.84-1.67 2.09-2.08l16.66-3.75c2.09-.42 3.34-1.67 3.34-2.92 0-1.67-.42-2.5-1.67-2.5-12.08 0-13.75.83-27.08.83-7.92 0-17.92-.83-25-.83-1.25 0-1.67.83-1.67 2.5s1.25 2.5 2.92 2.92l17.08 3.75c1.25.41 2.08.83 2.08 2.08v212.5c0 .83-.83 1.67-2.08 2.08l-17.08 3.75c-1.67.42-2.92 1.67-2.92 2.92.01 1.67.42 2.5 1.67 2.5ZM2392.27 1343.28c-2.08-.41-2.92-1.25-2.92-2.08v-75.83l39.17-137.5c.42-1.25 1.67-1.67 3.75-2.5l12.08-2.92c1.67-.42 2.92-1.67 2.92-2.92 0-1.66-.83-2.08-1.25-2.08-6.67 0-10.83.83-23.33.83-16.25 0-19.59-.83-24.59-.83-1.25 0-2.08.83-2.08 2.08s1.25 2.09 2.92 2.5l18.33 3.75c1.67.42 1.67.84 1.67 2.09l-28.75 108.75-4.59 17.5h-2.08l-3.75-17.09-34.17-109.16c-.41-1.25.84-1.67 1.67-2.09l22.5-3.75c2.08-.41 3.33-1.66 3.33-2.91 0-1.25-.41-1.67-1.66-1.67-2.5 0-12.92.83-26.67.83-15.42 0-17.92-.83-28.33-.83-.84 0-1.25.83-1.25 2.08s1.66 2.09 2.91 2.5l11.25 3.75c2.5.84 4.59 1.25 5 2.92l43.34 135.83v76.67c0 .83-.42 1.67-2.5 2.08l-17.92 3.75c-1.25.42-2.5 1.25-2.5 2.92s0 2.5 1.25 2.5c7.92 0 14.17-.83 27.92-.83 16.25 0 20.42.83 27.08.83.84 0 1.67-.83 1.67-2.5 0-.83-.42-2.5-2.5-2.92l-17.92-3.75ZM2459.35 1350.37c0 1.66 1.25 2.5 2.09 2.5 1.66 0 3.33-.84 3.75-2.5l1.66-15.84c10.84 14.17 23.34 21.25 41.67 21.25 25.42 0 45-12.5 45-45.41 0-46.25-41.25-82.92-67.08-123.75-5.84-9.17-12.09-21.25-12.09-34.17 0-21.67 16.25-31.25 31.67-31.25 22.5 0 34.17 20.83 34.17 45 0 1.25 1.66 2.08 3.75 2.08 1.25 0 2.91-.83 2.91-2.08v-47.5c0-1.25-1.25-1.67-2.5-1.67s-2.91.42-2.91 1.67l-1.25 12.5c-6.25-7.92-14.17-17.08-34.59-17.08-26.66 0-42.91 15.83-42.08 42.08.42 12.92 6.67 25.42 15 37.92 30.83 45.83 63.33 78.33 63.33 116.25 0 29.58-17.5 38.33-33.75 38.33-25.83 0-42.5-22.92-42.5-48.33 0-1.25-1.66-2.09-3.33-2.09-1.67 0-2.92.84-2.92 2.09v50Z" style="fill:#231f20;fill-rule:nonzero" transform="matrix(.81821 0 0 .81821 -833.706 -866.58)"/></svg>