<svg viewBox="0 0 1365 271" xmlns="http://www.w3.org/2000/svg" xml:space="preserve" style="fill-rule:evenodd;clip-rule:evenodd;stroke-linejoin:round;stroke-miterlimit:2"><path d="M137.36 766.064v.272h-14.406v-.272c2.5 0 3.152-1.524 3.097-4.902v-28.226c-2.01.545-4.131.545-6.141.545h-5.275v27.681c0 3.703 1.141 4.902 3.153 4.902v.272H103.38v-.272c2.502 0 3.154-1.524 3.099-4.902v-27.136c0-3.704-1.142-4.903-3.154-4.903v-.273h33.981v.273c-2.5 0-3.152 1.525-3.099 4.903v27.136c0 3.703 1.144 4.902 3.153 4.902M182.273 766.064v.272h-14.406v-.272c2.5 0 3.154-1.524 3.097-4.902v-15.094l-11.961 11.333v3.761c0 3.703 1.144 4.902 3.154 4.902v.272h-14.406v-.272c2.499 0 3.153-1.524 3.096-4.902v-27.136c0-3.704-1.139-4.903-3.154-4.903v-.273h14.411v.273c-2.502 0-3.153 1.525-3.101 4.903v17.544c.761-1.254 1.631-2.286 3.644-4.358l8.317-7.791v-5.395c0-3.704-1.139-4.903-3.154-4.903v-.273h14.408v.273c-2.499 0-3.151 1.525-3.099 4.903v27.136c0 3.703 1.145 4.902 3.154 4.902M226.644 766.064v.272h-14.406v-.272c2.5 0 3.151-1.524 3.097-4.902v-8.174h-11.417v8.174c0 3.703 1.142 4.902 3.154 4.902v.272h-14.408v-.272c2.502 0 3.154-1.524 3.099-4.902v-27.136c0-3.704-1.142-4.903-3.154-4.903v-.273h14.408v.273c-2.499 0-3.153 1.525-3.099 4.903v14.33c2.013-.545 4.132-.545 6.144-.545h5.273v-13.785c0-3.704-1.139-4.903-3.154-4.903v-.273h14.408v.273c-2.499 0-3.151 1.525-3.099 4.903v27.136c0 3.703 1.144 4.902 3.154 4.902" style="fill:#080605;fill-rule:nonzero" transform="translate(-429.571 -2991.723) scale(4.16667)"/><path d="M255.735 753.694v-12.967c0-6.211-1.413-8.719-5.163-8.719-3.754 0-5.166 2.508-5.166 8.719v12.967c0 6.211 1.412 8.719 5.166 8.719 3.75 0 5.163-2.508 5.163-8.719m-18.756-2.724v-7.519c0-9.915 3.808-15.801 13.593-15.801 9.784 0 13.59 5.886 13.59 15.801v7.519c0 9.915-3.806 15.801-13.59 15.801-9.785 0-13.593-5.886-13.593-15.801" style="fill:#080605;fill-rule:nonzero" transform="translate(-429.571 -2988.533) scale(4.16667)"/><path d="M322.126 766.064v.272H307.72v-.272c2.499 0 3.151-1.524 3.096-4.902v-8.174H299.4v8.174c0 3.703 1.142 4.902 3.154 4.902v.272h-14.409v-.272c2.503 0 3.154-1.524 3.099-4.902v-27.136c0-3.704-1.141-4.903-3.153-4.903v-.273h14.408v.273c-2.5 0-3.154 1.525-3.099 4.903v14.33c2.012-.545 4.131-.545 6.143-.545h5.273v-13.785c0-3.704-1.139-4.903-3.154-4.903v-.273h14.409v.273c-2.5 0-3.151 1.525-3.099 4.903v27.136c0 3.703 1.144 4.902 3.154 4.902" style="fill:#080605;fill-rule:nonzero" transform="translate(-429.571 -2991.723) scale(4.16667)"/><path d="M361.711 728.085c-2.499 0-3.696 1.416-4.728 4.632l-7.504 22.34c-2.773 8.335-6.305 11.278-11.2 11.278-2.39 0-4.186-.709-5.763-1.579v-9.48h.271c0 3.104 2.122 4.848 4.676 4.848 2.719 0 4.515-2.124 5.927-6.102l-11.799-21.685c-1.793-3.217-3.641-4.252-5.653-4.252v-.271h15.005v.271c-2.502 0-2.335 1.364-.871 4.413l6.037 12.587 3.641-12.313c1.035-3.542.326-4.687-1.684-4.687v-.271h13.645v.271Z" style="fill:#080605;fill-rule:nonzero" transform="translate(-429.571 -2987.403) scale(4.16667)"/><path d="m382.593 753.803-4.512-20.323h-.49l-4.947 21.086.219-.219c2.01-.544 4.022-.544 6.032-.544h3.698Zm13.864 12.26v.272h-14.244v-.272c2.499 0 2.773-1.472 2.012-4.795l-.493-2.289H371.61l-.543 2.343c-.87 3.597-.054 4.741 1.958 4.741v.272h-13.812v-.272c2.503 0 3.589-1.472 4.46-4.741l7.34-27.461c.98-3.597.219-4.741-1.796-4.741v-.271h17.669v.271c-2.5 0-2.661 1.472-1.848 4.741l7.014 27.461c.871 3.597 2.393 4.741 4.405 4.741M411.305 751.406c.651-.925 1.629-1.908 3.586-3.323 3.751-2.726 5.982-6.975 5.982-9.972 0-2.343-1.47-4.087-4.731-4.087h-4.837v17.382Zm0 4.684v5.07c0 3.703 1.139 4.902 3.154 4.902v.274H400.05v-.274c2.502 0 3.154-1.524 3.099-4.902v-27.136c0-3.704-1.141-4.903-3.154-4.903v-.273h17.451c7.451 0 10.874 2.887 10.874 7.519 0 7.9-7.231 14.114-17.015 19.723" style="fill:#080605;fill-rule:nonzero" transform="translate(-429.571 -2991.713) scale(4.16667)"/><path d="M430.556 714.647H283.922c-.206-.829-.978-1.449-1.911-1.449-.93 0-1.652.62-1.858 1.449h-6.352c-1.134 0-4.645-.209-6.97-2.33-2.327 2.121-5.838 2.33-6.972 2.33h-6.36a1.89 1.89 0 0 0-1.858-1.449c-.928 0-1.702.62-1.911 1.449H103.097v1.032H249.73c.209.831.983 1.449 1.911 1.449.93 0 1.652-.618 1.858-1.449h6.36c1.134 0 4.645.211 6.972 2.33 2.325-2.119 5.836-2.33 6.97-2.33h6.352a1.887 1.887 0 0 0 1.858 1.449c.933 0 1.705-.618 1.911-1.449h146.634v-1.032Z" style="fill:#080605;fill-rule:nonzero" transform="translate(-429.571 -2721.473) scale(4.16667)"/><path style="fill:#080605" d="M103.097 776.14h327.488v1.032H103.097z" transform="translate(-429.571 -3233.913) scale(4.16667)"/></svg>