<svg viewBox="0 0 1420 206" xmlns="http://www.w3.org/2000/svg" xml:space="preserve" style="fill-rule:evenodd;clip-rule:evenodd;stroke-linejoin:round;stroke-miterlimit:2"><path d="M.526-.511C.525-.643.428-.7.295-.7H.108c-.173 0-.253.066-.253.173 0 .067.031.104.06.104.024 0 .041-.018.029-.055-.034.013-.077-.004-.077-.064 0-.066.051-.148.221-.148h.038c.009.209.01.42.002.629C.125-.019.103-.009.051 0h.261C.26-.009.238-.019.235-.061A7.761 7.761 0 0 1 .237-.69h.019c.082 0 .153.04.153.186 0 .114-.04.183-.161.18a.2.2 0 0 0 .278-.187ZM.138-.665V-.68h.087v.015H.138ZM.4-.677a.175.175 0 0 1 .034.015H.378a.177.177 0 0 0-.031-.015H.4Zm-.261.042V-.65h.085v.015H.139Zm.318-.012.017.015H.393L.381-.647h.076ZM.14-.605V-.62h.083v.015H.14Zm.264.003L.397-.617h.089l.009.015H.404Zm-.263.027V-.59h.081v.015H.141Zm.367.003H.413L.409-.587h.093l.006.015ZM.222-.56l-.001.015H.142L.141-.56h.081Zm.292.018H.417L.415-.557h.096l.003.015Zm-.372.027V-.53h.079v.015H.142Zm.277.003L.418-.527h.097l.001.015H.419Zm-.276.027V-.5H.22v.015H.143Zm.371.003H.418l.001-.015h.097l-.002.015ZM.22-.47v.015H.143V-.47H.22Zm.288.018H.415l.002-.015h.095l-.004.015ZM.22-.44v.015H.143V-.44H.22Zm.277.018H.409l.004-.015h.09l-.006.015Zm-.353.027V-.41h.075v.015H.144Zm.335.003H.398l.006-.015h.085l-.01.015Zm-.335.027V-.38h.075v.015H.144Zm.235.003A.143.143 0 0 0 .39-.377h.077l-.015.015H.379Zm-.235.027V-.35h.075v.015H.144Zm.197.003a.114.114 0 0 0 .023-.015h.068a.15.15 0 0 1-.028.015H.341ZM.219-.32v.015H.144V-.32h.075Zm-.075.03h.075l.001.015H.143L.144-.29Zm.076.03v.015H.143V-.26H.22Zm0 .03v.015H.143V-.23H.22Zm-.078.045L.143-.2H.22l.001.015H.142Zm.079.015v.015H.142V-.17h.079Zm.001.03v.015H.141V-.14h.081Zm0 .03.001.015H.14L.141-.11h.081ZM.14-.08h.083l.001.015H.139L.14-.08Zm.084.03.001.015H.138L.139-.05h.085Zm.002.04H.137v-.01h.089v.01Z" style="fill:#080605;fill-rule:nonzero" transform="translate(40.481 200.163) scale(279.167)"/><path d="M.555-.061a7.957 7.957 0 0 1 0-.578C.558-.681.58-.691.632-.7H.371c.052.009.074.019.077.061l.004.11-.248.303c-.002-.138 0-.276.005-.413C.212-.681.234-.691.286-.7H.025c.052.009.074.019.077.061.007.192.007.386 0 .578C.099-.019.077-.009.025 0h.261C.234-.009.212-.019.209-.061L.205-.199l.247-.304c.003.148.002.295-.004.442C.445-.019.423-.009.371 0h.261C.58-.009.558-.019.555-.061ZM.112-.68h.087v.015H.112V-.68Zm.346 0h.087v.015H.458V-.68Zm-.345.045V-.65h.085v.015H.113Zm.346 0V-.65h.085v.015H.459Zm-.345.03V-.62h.083v.015H.114Zm.346 0V-.62h.083v.015H.46Zm-.345.03V-.59h.081v.015H.115Zm.346 0V-.59h.081v.015H.461Zm-.266.03H.116L.115-.56h.081l-.001.015Zm.346 0H.462L.461-.56h.081l-.001.015Zm-.425.03V-.53h.079v.015H.116Zm.346 0V-.53h.079v.015H.462Zm-.345.03V-.5h.077v.015H.117Zm.346 0V-.5H.54v.015H.463Zm-.346.03V-.47h.077v.015H.117Zm.346 0V-.47H.54v.015H.463Zm-.346.03V-.44h.077v.015H.117Zm.346 0V-.44H.54v.015H.463Zm-.345.03V-.41h.075v.015H.118Zm.346 0V-.41h.075v.015H.464ZM.193-.38v.015H.118V-.38h.075Zm.346 0v.015H.464V-.38h.075Zm-.346.03v.015H.118V-.35h.075Zm.346 0v.015H.464V-.35h.075Zm-.346.03v.015H.118V-.32h.075Zm.346 0v.015H.464V-.32h.075Zm-.422.045L.118-.29h.075l.001.015H.117Zm.346 0L.464-.29h.075l.001.015H.463Zm-.346.03V-.26h.077v.015H.117Zm.346 0V-.26H.54v.015H.463ZM.194-.23v.015H.117V-.23h.077Zm.346 0v.015H.463V-.23H.54ZM.117-.2h.077l.001.015H.116L.117-.2Zm.346 0H.54l.001.015H.462L.463-.2Zm-.268.03v.015H.116V-.17h.079Zm.346 0v.015H.462V-.17h.079Zm-.345.03v.015H.115V-.14h.081Zm.346 0v.015H.461V-.14h.081Zm-.427.03h.081l.001.015H.114L.115-.11Zm.346 0h.081l.001.015H.46L.461-.11Zm-.264.03.001.015H.113L.114-.08h.083Zm.346 0 .001.015H.459L.46-.08h.083Zm-.43.03h.085l.001.015H.112L.113-.05Zm.346 0h.085l.001.015H.458L.459-.05ZM.2-.01H.111v-.01H.2v.01Zm.346 0H.457v-.01h.089v.01Z" style="fill:#080605;fill-rule:nonzero" transform="translate(229.309 200.163) scale(279.167)"/><path d="M.366-.255C.415-.159.38.008.299.008.205.008.148-.141.148-.35c0-.208.041-.356.139-.356.064 0 .143.062.146.269h.011v-.278H.44L.412-.68a.212.212 0 0 0-.129-.037C.125-.717.03-.558.03-.35c0 .209.104.37.26.37a.183.183 0 0 0 .19-.172C.486-.239.426-.269.366-.255ZM.369-.68a.128.128 0 0 0-.028-.021c.02.005.036.012.05.021H.369ZM.223-.692a.106.106 0 0 0-.015.015H.176a.16.16 0 0 1 .029-.015h.018Zm.187.027a.099.099 0 0 1 .009.015H.393L.382-.665H.41Zm-.213.003-.009.015h-.05a.259.259 0 0 1 .017-.015h.042Zm.205.027h.022l.004.015H.409L.402-.635Zm-.278.003h.057l-.006.015H.112l.012-.015Zm.292.027h.016l.002.015H.421L.416-.605Zm-.314.003h.067l-.004.015H.093l.009-.015Zm.332.042H.43L.426-.575h.008v.015ZM.085-.572h.076l-.004.015H.078l.007-.015Zm-.013.03h.082l-.003.015H.067l.005-.015Zm-.01.03h.087l-.002.015H.058l.004-.015Zm-.008.03h.091l-.002.015H.051l.003-.015Zm-.006.03h.094l-.001.015H.046l.002-.015Zm-.004.03H.14l-.001.015H.042l.002-.015Zm-.003.03h.098l-.001.015H.041v-.015Zm-.001.03h.098v.015H.04v-.015Zm0 .03h.098l.001.015H.041L.04-.332Zm.002.03h.097l.001.015H.043L.042-.302Zm.003.03h.096l.001.015H.047L.045-.272Zm.005.03h.094l.002.015H.053L.05-.242Zm.337.015L.382-.242h.047a.051.051 0 0 1 .021.015H.387Zm-.33.015h.091l.002.015H.061L.057-.212Zm.404 0 .006.015H.394L.391-.212h.07Zm-.396.03h.088l.003.015H.071L.065-.182Zm.332.015L.396-.182H.47l.001.015H.397Zm-.32.015H.16l.004.015H.083L.077-.152Zm.391.015H.397l.001-.015H.47l-.002.015Zm-.377.015h.077l.005.015H.099L.091-.122Zm.37.015H.394l.002-.015h.069l-.004.015Zm-.352.015h.07l.006.015H.12L.109-.092Zm.338.015H.388l.003-.015h.064l-.008.015Zm-.314.015h.06l.008.015H.147L.133-.062Zm.293.015H.377l.006-.015h.055l-.012.015Zm-.214.015.012.015H.188a.15.15 0 0 1-.023-.015h.047Zm.148.015.009-.015h.042a.347.347 0 0 1-.02.015H.36Zm-.119.015a.06.06 0 0 0 .015.009.21.21 0 0 1-.036-.009h.021Zm.105 0H.36L.339.005l.007-.007Z" style="fill:#080605;fill-rule:nonzero" transform="translate(458.06 200.163) scale(279.167)"/><path d="M.445-.061a7.957 7.957 0 0 1 0-.578C.448-.681.47-.691.522-.7H.12c.05.009.071.018.071.059L.15-.236C.139-.11.071-.063.003-.115-.008-.032.017.01.066.01c.093 0 .087-.1.104-.265L.213-.68h.124c.008.204.009.409.002.613C.334-.02.296-.009.241 0h.281C.47-.009.448-.019.445-.061ZM.348-.68h.087v.015H.348V-.68Zm.001.045V-.65h.085v.015H.349Zm.001.03V-.62h.083v.015H.35Zm.001.03V-.59h.081v.015H.351Zm.08.03H.352L.351-.56h.081l-.001.015Zm-.079.03V-.53h.079v.015H.352Zm.001.03V-.5H.43v.015H.353Zm0 .03V-.47H.43v.015H.353Zm0 .03V-.44H.43v.015H.353Zm.001.03V-.41h.075v.015H.354Zm.075.015v.015H.354V-.38h.075Zm0 .03v.015H.354V-.35h.075Zm0 .03v.015H.354V-.32h.075Zm-.076.045L.354-.29h.075l.001.015H.353Zm0 .03V-.26H.43v.015H.353ZM.43-.23v.015H.353V-.23H.43ZM.353-.2H.43l.001.015H.352L.353-.2Zm-.201.027H.148l.006-.021-.002.021Zm.279.003v.015H.352V-.17h.079Zm-.282.027H.137l.006-.015h.008l-.002.015Zm.283.003v.015H.351V-.14h.081Zm-.286.027H.118l.011-.015h.019l-.002.015Zm.205.003h.081l.001.015H.35L.351-.11Zm-.21.027H.067a.082.082 0 0 0 .036-.015h.041l-.003.015Zm-.13-.014a.092.092 0 0 0 .039.014H.01l.001-.014Zm.422.017.001.015H.349L.35-.08h.083Zm-.299.027H.012L.011-.068h.127l-.004.015Zm.215.003h.085l.001.015H.348L.349-.05Zm-.327.027a.052.052 0 0 1-.007-.015h.113a.099.099 0 0 1-.009.015H.022Zm.414.013H.347v-.01h.089v.01ZM.066 0a.056.056 0 0 1-.03-.008h.066A.08.08 0 0 1 .066 0Z" style="fill:#080605;fill-rule:nonzero" transform="translate(644.37 200.163) scale(279.167)"/><path d="M.555-.061a7.957 7.957 0 0 1 0-.578C.558-.681.58-.691.632-.7H.371c.052.009.074.019.077.061l.004.11-.248.303c-.002-.138 0-.276.005-.413C.212-.681.234-.691.286-.7H.025c.052.009.074.019.077.061.007.192.007.386 0 .578C.099-.019.077-.009.025 0h.261C.234-.009.212-.019.209-.061L.205-.199l.247-.304c.003.148.002.295-.004.442C.445-.019.423-.009.371 0h.261C.58-.009.558-.019.555-.061ZM.112-.68h.087v.015H.112V-.68Zm.346 0h.087v.015H.458V-.68Zm-.345.045V-.65h.085v.015H.113Zm.346 0V-.65h.085v.015H.459Zm-.345.03V-.62h.083v.015H.114Zm.346 0V-.62h.083v.015H.46Zm-.345.03V-.59h.081v.015H.115Zm.346 0V-.59h.081v.015H.461Zm-.266.03H.116L.115-.56h.081l-.001.015Zm.346 0H.462L.461-.56h.081l-.001.015Zm-.425.03V-.53h.079v.015H.116Zm.346 0V-.53h.079v.015H.462Zm-.345.03V-.5h.077v.015H.117Zm.346 0V-.5H.54v.015H.463Zm-.346.03V-.47h.077v.015H.117Zm.346 0V-.47H.54v.015H.463Zm-.346.03V-.44h.077v.015H.117Zm.346 0V-.44H.54v.015H.463Zm-.345.03V-.41h.075v.015H.118Zm.346 0V-.41h.075v.015H.464ZM.193-.38v.015H.118V-.38h.075Zm.346 0v.015H.464V-.38h.075Zm-.346.03v.015H.118V-.35h.075Zm.346 0v.015H.464V-.35h.075Zm-.346.03v.015H.118V-.32h.075Zm.346 0v.015H.464V-.32h.075Zm-.422.045L.118-.29h.075l.001.015H.117Zm.346 0L.464-.29h.075l.001.015H.463Zm-.346.03V-.26h.077v.015H.117Zm.346 0V-.26H.54v.015H.463ZM.194-.23v.015H.117V-.23h.077Zm.346 0v.015H.463V-.23H.54ZM.117-.2h.077l.001.015H.116L.117-.2Zm.346 0H.54l.001.015H.462L.463-.2Zm-.268.03v.015H.116V-.17h.079Zm.346 0v.015H.462V-.17h.079Zm-.345.03v.015H.115V-.14h.081Zm.346 0v.015H.461V-.14h.081Zm-.427.03h.081l.001.015H.114L.115-.11Zm.346 0h.081l.001.015H.46L.461-.11Zm-.264.03.001.015H.113L.114-.08h.083Zm.346 0 .001.015H.459L.46-.08h.083Zm-.43.03h.085l.001.015H.112L.113-.05Zm.346 0h.085l.001.015H.458L.459-.05ZM.2-.01H.111v-.01H.2v.01Zm.346 0H.457v-.01h.089v.01Z" style="fill:#080605;fill-rule:nonzero" transform="translate(842.42 200.163) scale(279.167)"/><path d="M.535-.061a7.957 7.957 0 0 1 0-.578C.538-.681.56-.691.612-.7H.351c.052.009.074.019.077.061.003.085.005.171.005.257H.204c0-.086.002-.172.005-.257C.212-.681.234-.691.286-.7H.025c.052.009.074.019.077.061.007.192.007.386 0 .578C.099-.019.077-.009.025 0h.261C.234-.009.212-.019.209-.061a6.43 6.43 0 0 1-.005-.311h.229a6.43 6.43 0 0 1-.005.311C.425-.019.403-.009.351 0h.261C.56-.009.538-.019.535-.061ZM.112-.68h.087v.015H.112V-.68Zm.326 0h.087v.015H.438V-.68Zm-.325.045V-.65h.085v.015H.113Zm.326 0V-.65h.085v.015H.439Zm-.325.03V-.62h.083v.015H.114Zm.326 0V-.62h.083v.015H.44Zm-.325.03V-.59h.081v.015H.115Zm.326 0V-.59h.081v.015H.441Zm-.246.03H.116L.115-.56h.081l-.001.015Zm.326 0H.442L.441-.56h.081l-.001.015Zm-.405.03V-.53h.079v.015H.116Zm.326 0V-.53h.079v.015H.442Zm-.325.03V-.5h.077v.015H.117Zm.326 0V-.5H.52v.015H.443Zm-.326.03V-.47h.077v.015H.117Zm.326 0V-.47H.52v.015H.443Zm-.326.03V-.44h.077v.015H.117Zm.326 0V-.44H.52v.015H.443Zm-.325.03V-.41h.075v.015H.118Zm.326 0V-.41h.075v.015H.444ZM.193-.38v.015H.118V-.38h.075Zm.326 0v.015H.444V-.38h.075Zm-.326.03v.015H.118V-.35h.075Zm.326 0v.015H.444V-.35h.075Zm-.326.03v.015H.118V-.32h.075Zm.326 0v.015H.444V-.32h.075Zm-.402.045L.118-.29h.075l.001.015H.117Zm.326 0L.444-.29h.075l.001.015H.443Zm-.326.03V-.26h.077v.015H.117Zm.326 0V-.26H.52v.015H.443ZM.194-.23v.015H.117V-.23h.077Zm.326 0v.015H.443V-.23H.52ZM.117-.2h.077l.001.015H.116L.117-.2Zm.326 0H.52l.001.015H.442L.443-.2Zm-.248.03v.015H.116V-.17h.079Zm.326 0v.015H.442V-.17h.079Zm-.325.03v.015H.115V-.14h.081Zm.326 0v.015H.441V-.14h.081Zm-.407.03h.081l.001.015H.114L.115-.11Zm.326 0h.081l.001.015H.44L.441-.11Zm-.244.03.001.015H.113L.114-.08h.083Zm.326 0 .001.015H.439L.44-.08h.083Zm-.41.03h.085l.001.015H.112L.113-.05Zm.326 0h.085l.001.015H.438L.439-.05ZM.2-.01H.111v-.01H.2v.01Zm.326 0H.437v-.01h.089v.01Z" style="fill:#080605;fill-rule:nonzero" transform="translate(1071.16 200.163) scale(279.167)"/><path d="M.437-.708A.327.327 0 0 1 .368-.7H.025c.052.009.074.019.077.061.007.192.007.386 0 .578C.099-.019.077-.009.025 0h.261C.234-.009.212-.019.209-.061a7.736 7.736 0 0 1 .002-.628c.149-.002.208.053.225.179h.011l-.01-.198ZM.368-.69a.243.243 0 0 0 .059-.006l.001.016H.341a.23.23 0 0 0-.028-.01h.055Zm-.256.01h.087v.015H.112V-.68Zm.317.015L.43-.65H.386L.368-.665h.061Zm-.316.03V-.65h.085v.015H.113Zm.318 0 .001.015H.41a.143.143 0 0 0-.011-.015h.032Zm-.317.03V-.62h.083v.015H.114Zm.305 0h.013l.001.015H.425L.419-.605Zm-.304.03V-.59h.081v.015H.115Zm.316 0h.003l.001.012-.004-.012Zm-.236.03H.116L.115-.56h.081l-.001.015Zm-.079.03V-.53h.079v.015H.116Zm.001.03V-.5h.077v.015H.117Zm0 .03V-.47h.077v.015H.117Zm0 .03V-.44h.077v.015H.117Zm.001.03V-.41h.075v.015H.118Zm.075.015v.015H.118V-.38h.075Zm0 .03v.015H.118V-.35h.075Zm0 .03v.015H.118V-.32h.075Zm-.076.045L.118-.29h.075l.001.015H.117Zm0 .03V-.26h.077v.015H.117Zm.077.015v.015H.117V-.23h.077ZM.117-.2h.077l.001.015H.116L.117-.2Zm.078.03v.015H.116V-.17h.079Zm.001.03v.015H.115V-.14h.081Zm-.081.03h.081l.001.015H.114L.115-.11Zm.082.03.001.015H.113L.114-.08h.083Zm-.084.03h.085l.001.015H.112L.113-.05ZM.2-.01H.111v-.01H.2v.01Z" style="fill:#080605;fill-rule:nonzero" transform="translate(1294.33 200.163) scale(279.167)"/></svg>