<svg xmlns="http://www.w3.org/2000/svg" xml:space="preserve" style="fill-rule:evenodd;clip-rule:evenodd;stroke-linejoin:round;stroke-miterlimit:2" viewBox="0 0 760 132"><path d="M206.049 647.848h27.343l1.125-6.133c.676-3.77-.787-6.133-4.894-6.133h-21.155l-1.857-6.47h23.63c7.483 0 11.59 3.207 11.59 10.127 0 7.146-4.275 14.122-12.546 14.854l8.777 14.403h-8.439l-8.552-14.347h-8.721l-2.532 14.347h-7.426zm45.194 4.05-.9 5.064c-.675 3.826 1.294 6.133 5.233 6.133h1.8c3.713 0 6.302-2.307 6.977-6.133l.9-5.064c.675-3.825-1.294-6.132-5.233-6.132h-1.912c-3.601 0-6.189 2.307-6.865 6.132m-7.651 5.064.9-5.064c1.35-7.595 6.808-12.096 14.628-12.096h1.576c8.439 0 12.659 4.501 11.308 12.096l-.9 5.064c-1.35 7.595-6.808 12.096-14.684 12.096h-1.576c-8.383 0-12.603-4.501-11.252-12.096m58.808-5.795h-6.921c.676-3.938-.45-5.401-3.375-5.401h-2.307c-3.263 0-5.626 2.307-6.302 6.132l-.9 5.064c-.675 3.826 1.351 6.133 5.233 6.133h1.125c2.363 0 4.557-1.407 5.176-4.558h7.089c-1.125 6.752-6.245 10.521-12.659 10.521h-1.463c-8.27 0-12.603-4.444-11.252-12.096l.9-5.064c1.35-7.708 6.301-12.096 14.066-12.096h1.912c6.921 0 10.972 4.782 9.678 11.365m1.779 17.329 6.92-39.384h6.752l-3.883 22.111h3.995l8.721-10.858h7.539l-11.253 13.671 8.327 14.46h-7.483l-6.357-11.478h-4.501l-2.026 11.478zm40.993.562c-8.271 0-12.603-4.444-11.253-12.096l.9-5.064c1.351-7.708 5.908-12.096 14.629-12.096h.787c10.915 0 10.521 8.664 8.777 16.766h-18.566l-.057.394c-.619 4.332 1.857 6.02 4.952 6.02l11.815-.056-.901 5.176c-3.825.619-7.145.956-11.083.956m-3.826-17.61h12.434c.619-4.107-.507-5.795-3.601-5.795h-2.307c-3.769 0-5.739 2.082-6.526 5.795m40.975 17.048h-4.838c-7.202 0-10.577-3.714-9.396-10.409l2.138-11.646h-6.695l1.069-6.076h6.751l1.294-7.202h6.752l-1.294 7.202h8.495l-1.069 6.076h-8.551l-2.926 15.922h9.339zm94.155 0 5.795-32.914h-14.178l1.126-6.47h35.782l-1.125 6.47h-14.178l-5.795 32.914zm29.9.562c-8.27 0-12.602-4.444-11.252-12.096l.9-5.064c1.351-7.708 5.908-12.096 14.628-12.096h.788c10.915 0 10.521 8.664 8.777 16.766H501.65l-.056.394c-.619 4.332 1.857 6.02 4.951 6.02l11.815-.056-.9 5.176c-3.826.619-7.145.956-11.084.956m-3.825-17.61h12.434c.619-4.107-.507-5.795-3.601-5.795h-2.307c-3.769 0-5.739 2.082-6.526 5.795m48.908-.281h-6.92c.675-3.938-.45-5.401-3.376-5.401h-2.307c-3.263 0-5.626 2.307-6.301 6.132l-.9 5.064c-.675 3.826 1.35 6.133 5.232 6.133h1.126c2.363 0 4.557-1.407 5.176-4.558h7.089c-1.126 6.752-6.245 10.521-12.659 10.521h-1.463c-8.271 0-12.603-4.444-11.252-12.096l.9-5.064c1.35-7.708 6.301-12.096 14.065-12.096h1.913c6.921 0 10.971 4.782 9.677 11.365m20.459-10.802h.056c7.652 0 11.14 4.557 9.677 12.659l-2.757 15.472h-6.751l2.869-15.979c.675-3.826-.844-6.076-4.051-6.076h-6.976l-3.995 22.055h-6.751l6.92-39.384h6.751l-2.363 13.728h.113c1.575-1.575 4.22-2.475 7.258-2.475" style="fill-rule:nonzero" transform="matrix(2 0 0 2 -404.8 -1229.194)"/><path d="m418.534 645.147 9.621.45c3.713.169 5.795 3.657 5.514 9.396l-.338 6.808h1.632l1.744-9.79c.675-3.882 4.388-6.358 9.958-6.583l6.639-.281.282-1.744-9.621-.45c-3.882 0-5.964-3.545-5.626-9.452l.45-6.808h-1.688l-1.688 9.677c-.675 3.995-4.445 6.527-10.015 6.752l-6.582.281zm-12.49 18.904 4.276.225c2.419.113 3.713 2.363 3.488 5.964l-.112 2.363h1.125l.731-4.276c.451-2.419 2.814-3.995 6.358-4.163l2.363-.113.225-1.125-4.332-.225c-2.419-.113-3.713-2.307-3.545-5.964l.113-2.363h-1.125l-.732 4.22c-.45 2.475-2.813 4.051-6.357 4.219l-2.307.113zm-11.252-13.334c0-18.398 14.515-32.913 32.913-32.913s32.857 14.515 32.857 32.913-14.459 32.857-32.857 32.857-32.913-14.459-32.913-32.857" style="fill:#ff4345;fill-rule:nonzero" transform="matrix(2 0 0 2 -404.8 -1235.608)"/></svg>