<svg xmlns="http://www.w3.org/2000/svg" width="1723" height="313" fill="none"><path fill="#fff" d="M994.217 312.542c83.723 0 151.593-69.964 151.593-156.271S1077.94 0 994.217 0c-83.724 0-151.596 69.965-151.596 156.271 0 86.307 67.872 156.271 151.596 156.271"/><path fill="#000" d="M169.288 87.354c6.36 0 12.373 1.43 18.039 4.172s10.523 6.794 14.685 11.92c4.164 5.125 6.938 10.847 8.443 17.045 1.502 6.199 1.619 12.636.576 19.072l-2.774 13.708c-1.04 5.126-2.659 10.013-4.971 14.543-2.314 4.529-5.089 8.701-8.327 12.397s-6.938 7.032-11.101 9.655c-4.163 2.742-8.557 4.767-13.298 6.318l26.48 45.176h-32.955l-24.977-42.555H40.01l-7.748 42.674H3.7l13.298-71.758h137.605c3.122 0 6.128-.596 9.135-1.669s5.55-2.622 7.747-4.649c2.313-2.026 4.279-4.291 5.898-7.032 1.619-2.742 2.775-5.722 3.353-8.94l2.544-13.47c.81-4.53-.115-8.702-2.775-12.278-3.007-3.576-6.707-5.244-11.101-5.244H26.943L0 87.354zm158.527 61.029c4.278 5.483 7.285 11.443 8.904 18.118q2.428 10.013.346 20.384l-1.965 11.442c-1.157 6.318-3.238 12.16-6.36 17.405-3.123 5.244-6.938 9.893-11.564 13.706q-6.764 5.722-15.264 8.941c-5.665 2.146-11.563 3.219-17.808 3.219H266.76c-6.823 0-13.297-1.432-19.312-4.41-6.012-2.98-11.216-7.152-15.493-12.517-4.395-5.484-7.402-11.442-9.136-18.119q-2.429-10.013-.347-20.383l1.966-11.443c1.272-6.317 3.469-12.158 6.591-17.403 3.121-5.245 6.938-9.893 11.448-13.708q6.764-5.721 15.264-8.94 8.498-3.218 17.691-3.218h18.386c6.708.119 12.951 1.668 18.965 4.649 5.896 2.86 10.869 6.913 15.032 12.277m-15.148 31.23c1.271-6.317-.117-12.039-4.048-17.164-3.815-4.887-8.903-7.271-15.148-7.271h-17.46c-6.36 0-12.141 2.026-17.115 6.198-4.971 4.053-8.093 9.417-9.134 16.092l-2.545 16.569c-.578 2.98-.578 5.84.117 8.821.693 2.98 1.964 5.601 3.931 7.868a21.55 21.55 0 0 0 6.822 5.481 17.94 17.94 0 0 0 8.326 2.028h17.577c6.359 0 12.141-2.146 17.114-6.318 4.972-4.172 8.093-9.537 9.134-15.973zm146.993 35.88-4.857 26.224H396.87c-6.822 0-13.298-1.43-19.312-4.411-6.012-2.98-11.215-7.152-15.493-12.515-4.279-5.483-7.286-11.444-8.905-18.119-1.619-6.556-1.734-13.351-.346-20.264l1.965-11.443q1.907-9.298 6.591-17.165c3.123-5.245 6.938-9.894 11.447-13.708 4.51-3.814 9.598-6.794 15.148-8.94a48.9 48.9 0 0 1 17.577-3.218l63.021-.477-4.856 26.224-40.588.238h-17.577c-6.36 0-12.026 2.026-16.882 6.199-4.857 4.171-7.864 9.416-9.135 15.853l-1.967 11.443c-1.271 6.199.117 11.801 4.048 16.927 3.816 4.888 8.905 7.27 15.148 7.27zM524.752 96.78l-14.8 79.267h19.657l31.801-45.415h27.751l-39.547 56.381 37.582 53.998h-31.222l-31.453-45.177-18.386-.239-8.555 45.416-25.903.477L498.62 96.779z"/><path fill="#000" d="M639.695 154.104c-2.891 0-5.667.715-8.441 2.027a32.8 32.8 0 0 0-7.633 5.006c-2.312 2.026-4.279 4.41-6.129 7.152-1.734 2.742-3.122 5.483-3.931 8.225h62.789l-3.583 19.548h-62.559c0 3.696.579 6.913 1.85 9.655 1.155 2.742 2.774 5.126 4.741 7.034s3.931 3.337 6.243 4.292c2.198.952 4.279 1.43 6.362 1.43h60.475l-4.509 22.886h-55.39c-6.821 0-13.297-1.43-19.31-4.411s-11.217-7.152-15.495-12.517c-4.279-5.483-7.284-11.442-8.903-18.116-1.619-6.677-1.736-13.352-.348-20.146l2.313-11.92c1.157-6.198 3.238-11.92 6.359-17.165 3.124-5.245 6.939-9.893 11.448-13.708q6.765-5.721 15.265-8.94T639 131.218h60.708l-23.241 22.648h-36.772zm122.934 61.036-4.855 26.462h-3.007c-6.939 0-13.529-1.43-19.658-4.411s-11.448-7.152-15.843-12.753c-4.279-5.484-7.284-11.563-8.903-18.239q-2.429-10.19-.347-20.741l16.188-88.327h26.018l-6.36 34.091h18.85l-5.088 26.224h-18.617l-6.245 33.257c-.693 4.292-.462 7.986.809 10.967a20.6 20.6 0 0 0 4.972 7.629c2.083 2.026 4.626 3.456 7.402 4.411q4.162 1.429 7.631 1.43z"/><path fill="#FF4345" d="M992.043 1.271c-84.397 0-152.82 68.426-152.82 152.821 0 84.396 68.423 152.821 152.82 152.821s152.817-68.425 152.817-152.821c0-84.395-68.42-152.82-152.817-152.82m-12.124 211.921h-18.418c-11.19 0-20.282 9.092-20.282 20.282v18.535h-3.498v-18.42c0-11.19-9.092-20.282-20.282-20.282H899.02v-3.497h18.419c11.19 0 20.282-9.092 20.282-20.282v-18.418h3.498v18.418c0 11.19 9.092 20.282 20.282 20.282h18.418v1.748c.117.466.117 1.051 0 1.633m93.951-92.788c-20.86 0-37.88 17.019-37.88 37.884v34.387c-1.05 0-2.22.118-3.26.118-1.17 0-2.22 0-3.27-.118v-34.387c0-20.865-17.02-37.884-37.885-37.884h-34.387c0-1.049-.117-2.215-.117-3.264 0-1.166 0-2.215.117-3.264h34.387c20.865 0 37.885-17.019 37.885-37.885V41.604c1.05 0 2.22-.117 3.27-.117 1.16 0 2.21 0 3.26.117V75.99c0 20.866 17.02 37.885 37.88 37.885h34.39c0 1.049.12 2.215.12 3.264 0 1.166 0 2.215-.12 3.264z"/><path fill="#000" d="M1406.37 154.063c-2.85 0-5.69.661-8.54 1.982a32.2 32.2 0 0 0-7.48 5.065c-2.28 2.055-4.34 4.477-6.19 7.267-1.71 2.642-3 5.358-3.85 8.148h62.81l-3.64 19.599h-62.59q0 5.505 1.71 9.689c1.28 2.789 2.85 5.138 4.7 7.047 2 1.909 4.06 3.378 6.2 4.405 2.27.88 4.41 1.321 6.4 1.321h60.46l-4.49 22.901h-55.32c-6.84 0-13.32-1.468-19.45-4.402-5.98-2.937-11.1-7.122-15.38-12.554q-6.405-8.148-8.97-18.057-2.355-10.13-.21-20.26l2.35-11.891c1.14-6.166 3.27-11.892 6.41-17.177 3.13-5.285 6.9-9.836 11.32-13.653 4.56-3.817 9.68-6.754 15.38-8.809a48.8 48.8 0 0 1 17.73-3.303h60.67l-4.48 22.682zm178.36 61.44-4.91 26.206h-57.89q-10.26 0-19.44-4.404c-5.99-2.937-11.11-7.12-15.39-12.554q-6.405-8.146-8.97-18.057-2.355-9.909-.21-20.259l1.92-11.451c1.28-6.166 3.49-11.892 6.62-17.177 3.14-5.285 6.91-9.836 11.33-13.653a51 51 0 0 1 15.16-8.809 48.8 48.8 0 0 1 17.73-3.303l63.02-.44-4.91 26.205-40.59.22h-17.52c-6.41 0-12.03 2.056-16.87 6.166s-7.91 9.396-9.19 15.856l-1.92 11.451c-1.28 6.167.07 11.818 4.06 16.956 3.84 4.846 8.9 7.267 15.17 7.267zm127.04-67.164q6.63 8.148 8.97 18.277c1.71 6.607 1.85 13.433.43 20.48l-1.92 11.232-8.12 43.161h-26.28l11.33-59.678c.71-2.936.64-5.872-.22-8.808q-1.065-4.406-3.84-8.148c-3.99-4.992-9.12-7.488-15.38-7.488H1637l-15.59 84.122h-26.49l6.41-33.032 20.93-111.869h26.06l-6.4 34.574h34.82q10.245 0 19.44 4.404c6.12 2.936 11.32 7.194 15.59 12.773m-405.1-61.213-28.52 154.959h-28.53l28.53-154.96z"/><path fill="#000" d="m1383.25 115.734 4.62-28.608h-207.38l26.97 28.608z"/></svg>