<svg viewBox="0 0 1563 203" xmlns="http://www.w3.org/2000/svg" xml:space="preserve" style="fill-rule:evenodd;clip-rule:evenodd;stroke-linejoin:round;stroke-miterlimit:2"><path d="M752.393 502.004c-5.603 0-8.768-3.494-8.768-13.25V467.79c0-10.351 2.967-13.844 7.977-13.844 3.164 0 5.208 1.515 6.197 5.01.066-1.846.132-3.758.132-5.67h1.648v13.185h-2.637c0-7.515-1.516-10.548-5.34-10.548-3.362 0-4.68 3.56-4.68 12.526v18.986c0 9.032.923 12.658 5.603 12.658 5.406 0 6.526-6.461 3.956-11.669l.461-.263c1.977 1.252 3.56 2.703 3.626 6.064.066 4.681-2.769 7.779-8.175 7.779" style="fill:#403f41;fill-rule:nonzero" transform="translate(-3098.44 -1888.695) scale(4.16667)"/><path d="M788.98 467.065v20.568c0 8.966-2.703 13.778-9.427 13.778-6.725 0-9.427-4.812-9.427-13.778v-20.568c0-8.966 2.702-13.779 9.427-13.779 6.724 0 9.427 4.813 9.427 13.779m-9.427-11.801c-4.681 0-6.131 2.901-6.131 12.526v19.118c0 9.625 1.45 12.526 6.131 12.526 4.68 0 6.131-2.901 6.131-12.526V467.79c0-9.625-1.451-12.526-6.131-12.526M817.127 484.469v5.208c0 7.12-2.967 10.745-9.362 10.745h-8.569c-.198-.658-.198-1.12 0-1.977.857.198 1.911.198 2.966 0v-42.191a7.442 7.442 0 0 0-2.966 0c-.198-.858-.198-1.32 0-1.979h8.569c5.868 0 8.703 3.626 8.703 10.285v.989c0 4.68-1.253 7.515-4.285 8.9v.131c3.626 1.45 4.944 4.483 4.944 9.889m-11.669-28.215v17.47h2.307c4.154 0 5.67-2.44 5.67-8.175v-.989c0-5.934-1.516-8.306-5.67-8.306h-2.307Zm8.636 28.215c0-6.394-1.714-8.768-6.329-8.768h-2.307v22.744h2.307c4.615 0 6.329-2.374 6.329-8.768v-5.208Z" style="fill:#403f41;fill-rule:nonzero" transform="translate(-3098.44 -1886.224) scale(4.16667)"/><path d="M849.955 498.378c.198.857.198 1.318 0 1.978h-9.229c-.198-.66-.198-1.121 0-1.978.857.198 1.911.198 2.966 0v-18.591l-10.679 7.647v10.944a7.48 7.48 0 0 0 2.966 0c.198.857.198 1.318 0 1.978h-9.229c-.198-.66-.198-1.121 0-1.978.857.198 1.912.198 2.966 0v-42.126a7.48 7.48 0 0 0-2.966 0c-.198-.857-.198-1.319 0-1.978h9.229c.198.659.198 1.121 0 1.978-.856-.198-1.912-.198-2.966 0v28.479c3.691-1.912 7.251-4.416 10.679-7.647v-20.832a7.48 7.48 0 0 0-2.966 0c-.198-.857-.198-1.319 0-1.978h9.229c.198.659.198 1.121 0 1.978-.857-.198-1.912-.198-2.967 0v42.126a7.484 7.484 0 0 0 2.967 0M883.046 498.378c.198.857.198 1.318 0 1.978h-9.229c-.198-.66-.198-1.121 0-1.978.857.198 1.912.198 2.967 0v-15.954h-10.68v15.954a7.484 7.484 0 0 0 2.967 0c.197.857.197 1.318 0 1.978h-9.23c-.197-.66-.197-1.121 0-1.978.857.198 1.912.198 2.966 0v-42.126a7.48 7.48 0 0 0-2.966 0c-.197-.857-.197-1.319 0-1.978h9.23c.197.659.197 1.121 0 1.978-.857-.198-1.913-.198-2.967 0v23.864c3.56.66 7.12.66 10.68 0v-23.864a7.484 7.484 0 0 0-2.967 0c-.198-.857-.198-1.319 0-1.978h9.229c.198.659.198 1.121 0 1.978-.856-.198-1.911-.198-2.966 0v42.126a7.48 7.48 0 0 0 2.966 0" style="fill:#403f41;fill-rule:nonzero" transform="translate(-3098.44 -1885.945) scale(4.16667)"/><path d="M910.865 482.425v7.186c0 7.12-2.967 10.745-9.362 10.745h-8.57c-.198-.658-.198-1.12 0-1.977.857.198 1.912.198 2.967 0v-42.126a7.521 7.521 0 0 0-2.967 0c-.198-.857-.198-1.318 0-1.978h9.229c.199.66.199 1.121 0 1.978-.856-.197-1.911-.197-2.966 0v15.426h2.307c6.395 0 9.362 3.626 9.362 10.746m-3.033 0c0-6.394-1.714-8.768-6.329-8.768h-2.307v24.722h2.307c4.615 0 6.329-2.374 6.329-8.768v-7.186Z" style="fill:#403f41;fill-rule:nonzero" transform="translate(-3098.44 -1885.949) scale(4.16667)"/><path d="M939.606 467.065v20.568c0 8.966-2.702 13.778-9.427 13.778s-9.427-4.812-9.427-13.778v-20.568c0-8.966 2.702-13.779 9.427-13.779s9.427 4.813 9.427 13.779m-9.427-11.801c-4.68 0-6.131 2.901-6.131 12.526v19.118c0 9.625 1.451 12.526 6.131 12.526s6.131-2.901 6.131-12.526V467.79c0-9.625-1.451-12.526-6.131-12.526" style="fill:#403f41;fill-rule:nonzero" transform="translate(-3098.44 -1886.224) scale(4.16667)"/><path d="M973.027 498.378c.197.857.197 1.318 0 1.978h-9.23c-.197-.66-.197-1.121 0-1.978.858.198 1.912.198 2.967 0v-15.954h-10.68v15.954a7.484 7.484 0 0 0 2.967 0c.198.857.198 1.318 0 1.978h-9.229c-.198-.66-.198-1.121 0-1.978.856.198 1.911.198 2.966 0v-42.126a7.48 7.48 0 0 0-2.966 0c-.198-.857-.198-1.319 0-1.978h9.229c.198.659.198 1.121 0 1.978-.857-.198-1.912-.198-2.967 0v23.864c3.56.66 7.12.66 10.68 0v-23.864a7.484 7.484 0 0 0-2.967 0c-.197-.857-.197-1.319 0-1.978h9.23c.197.659.197 1.121 0 1.978-.857-.198-1.912-.198-2.966 0v42.126a7.48 7.48 0 0 0 2.966 0" style="fill:#403f41;fill-rule:nonzero" transform="translate(-3098.44 -1885.945) scale(4.16667)"/><path d="M1021.28 482.49v7.186c0 7.12-2.97 10.745-9.36 10.745h-8.57c-.2-.658-.2-1.12 0-1.977.86.198 1.91.198 2.97 0v-42.191a7.462 7.462 0 0 0-2.97 0c-.2-.858-.2-1.32 0-1.978h17.14v13.184h-1.65c0-3.757-.46-7.45-.86-11.206h-8.37v15.491h2.31c6.39 0 9.36 3.626 9.36 10.746m-3.03 0c0-6.394-1.72-8.768-6.33-8.768h-2.31v24.722h2.31c4.61 0 6.33-2.374 6.33-8.768v-7.186Z" style="fill:#403f41;fill-rule:nonzero" transform="translate(-3098.44 -1886.22) scale(4.16667)"/><path d="M1056.94 498.115c.2.857.2 1.318 0 1.978h-9.23c-.19-.66-.19-1.121 0-1.978.86.198 1.92.198 2.97 0v-42.192h-5.21c-.06 25.25-2.3 44.499-13.64 44.499-2.77 0-4.22-1.121-4.22-3.164 0-1.516.79-2.373 2.17-3.033l.33.33c-.46 1.912.4 2.637 1.78 2.637 8.05 0 11.54-15.36 11.61-41.269a23.54 23.54 0 0 0-5.28 0c-.2-.857-.2-1.318 0-1.978h18.72c.2.66.2 1.121 0 1.978-.85-.198-1.91-.198-2.96 0v42.192a7.45 7.45 0 0 0 2.96 0" style="fill:#403f41;fill-rule:nonzero" transform="translate(-3098.44 -1884.849) scale(4.16667)"/><path d="M1087.14 500.422h-8.97c-.2-.66-.2-1.121 0-1.978.86.198 2.04.198 3.16 0l-1.31-13.317h-8.44l-1.32 13.317c1.12.198 2.11.198 3.16 0 .2.857.2 1.318 0 1.978h-8.9c-.19-.66-.19-1.121 0-1.978.86.198 1.72.198 2.77 0l4.55-42.192a7.5 7.5 0 0 0-2.97 0c-.19-.857-.19-1.318 0-1.978h14.38c.19.66.19 1.121 0 1.978-.86-.198-2.05-.198-3.1 0l4.15 42.192c1.06.198 1.78.198 2.84 0 .19.857.19 1.318 0 1.978m-7.32-17.405-2.57-26.765h-2.9l-2.57 26.832c2.7.329 5.34.329 8.04-.067" style="fill:#403f41;fill-rule:nonzero" transform="translate(-3098.44 -1886.22) scale(4.16667)"/><path d="M1118.58 498.378c.2.857.2 1.318 0 1.978h-9.23c-.2-.66-.2-1.121 0-1.978.86.198 1.91.198 2.97 0v-15.954h-10.68v15.954a7.45 7.45 0 0 0 2.96 0c.2.857.2 1.318 0 1.978h-9.23c-.19-.66-.19-1.121 0-1.978.86.198 1.92.198 2.97 0v-42.126a7.5 7.5 0 0 0-2.97 0c-.19-.857-.19-1.319 0-1.978h9.23c.2.659.2 1.121 0 1.978-.85-.198-1.91-.198-2.96 0v23.864c3.56.66 7.12.66 10.68 0v-23.864a7.5 7.5 0 0 0-2.97 0c-.2-.857-.2-1.319 0-1.978h9.23c.2.659.2 1.121 0 1.978-.86-.198-1.91-.198-2.97 0v42.126a7.5 7.5 0 0 0 2.97 0" style="fill:#403f41;fill-rule:nonzero" transform="translate(-3098.44 -1885.945) scale(4.16667)"/></svg>