<svg viewBox="0 0 681 158" xmlns="http://www.w3.org/2000/svg" xml:space="preserve" style="fill-rule:evenodd;clip-rule:evenodd;stroke-linejoin:round;stroke-miterlimit:2"><path d="M567.563 676.993c-3.524 3.834-7.825 5.543-12.643 5.543-8.654 0-17.515-7.202-17.515-18.964 0-11.762 8.602-18.758 17.256-18.758 5.077 0 9.119 1.503 12.85 5.182l-1.813 2.124c-3.213-3.264-6.115-4.56-10.778-4.56-6.789 0-14.509 5.39-14.509 16.012 0 10.623 7.514 16.218 14.457 16.218 3.834 0 7.98-1.347 10.726-4.663l1.969 1.866Z" style="fill:#231f20;fill-rule:nonzero" transform="translate(-2239.19 -2686.72) scale(4.16667)"/><path d="M591.137 644.969v36.272h-3.109v-26.686l-11.918 13.887v12.799h-3.108v-36.272h3.108v19.121l11.918-13.887v-5.234h3.109Zm18.084 29.224c0 4.457 1.762 4.819 4.819 4.353v2.695c-5.648.673-7.928-1.71-7.928-6.84v-9.845c0-3.627-2.072-5.648-4.974-5.648-3.161 0-4.819 2.176-4.819 4.508 0 1.658.829 2.746 1.917 3.42l2.902-5.752c.984.104 1.762.518 2.435 1.088l-4.093 8.239c-3.472-1.088-5.96-3.575-5.96-7.202 0-3.732 3.058-6.995 7.669-6.995.622 0 1.296.051 1.866.206l5.648-11.451h3.265l-6.167 12.591c2.021 1.348 3.42 3.679 3.42 6.996v9.637Z" style="fill:#231f20;fill-rule:nonzero" transform="translate(-2239.19 -2684.78) scale(4.16667)"/><path d="M641.81 659.114c0 8.032-6.011 13.525-13.524 13.525-7.461 0-13.472-5.493-13.472-13.525 0-7.98 6.011-13.472 13.472-13.472 7.513 0 13.524 5.492 13.524 13.472m-2.695 0c0-6.373-4.87-10.777-10.829-10.777-5.907 0-10.778 4.404-10.778 10.777 0 6.477 4.82 10.83 10.778 10.83 5.907 0 10.829-4.353 10.829-10.83m-2.642 23.318h-16.374v-2.85h16.374v2.85Zm-5.699-23.318-2.436 2.384-2.383-2.384 2.383-2.435 2.436 2.435Z" style="fill:#231f20;fill-rule:nonzero" transform="translate(-2239.19 -2689.74) scale(4.16667)"/><path d="M650.617 682.484h-3.109v-36.272h3.109v36.272Zm6.84-34.148c-1.347 0-2.539.208-3.886.622v-2.746c1.347-.363 2.539-.57 3.99-.57 7.513 0 10.985 5.959 10.985 12.021 0 6.012-3.472 11.141-9.068 11.141-4.094 0-6.27-2.694-6.27-5.7 0-3.575 3.109-5.492 6.218-5.492 1.71 0 3.42.57 4.612 1.71-.208.725-.674 1.606-1.192 2.279-.829-.88-2.073-1.295-3.264-1.295-1.814 0-3.576.933-3.576 2.798 0 1.555 1.14 3.006 3.42 3.006 3.575 0 6.322-2.85 6.322-8.394 0-6.219-3.368-9.38-8.291-9.38" style="fill:#231f20;fill-rule:nonzero" transform="translate(-2239.19 -2689.96) scale(4.16667)"/><path d="M675.798 681.396h-3.109v-36.272h3.109v36.272Zm24.924 0h-3.109v-25.65l-4.093 7.203c-.311.518-.623 1.037-.985 1.503.726 1.606 1.088 3.471 1.088 5.441 0 6.062-3.471 12.021-10.985 12.021-1.45 0-2.642-.208-3.989-.57v-2.746c1.347.414 2.539.621 3.834.621 4.974 0 8.342-3.161 8.342-9.326 0-5.597-2.745-8.446-6.321-8.446-2.28 0-3.421 1.45-3.421 3.005 0 1.865 1.762 2.798 3.576 2.798 1.192 0 2.436-.415 3.265-1.296.517.674.984 1.555 1.191 2.28-1.191 1.14-2.902 1.71-4.611 1.71-3.11 0-6.219-1.916-6.219-5.492 0-3.005 2.177-5.7 6.271-5.7 2.746 0 4.973 1.243 6.528 3.213l.053-.104 6.476-11.4v-5.337h3.109v36.272Z" style="fill:#231f20;fill-rule:nonzero" transform="translate(-2239.19 -2685.43) scale(4.16667)"/></svg>