<svg viewBox="0 0 663 152" xmlns="http://www.w3.org/2000/svg" xml:space="preserve" style="fill-rule:evenodd;clip-rule:evenodd;stroke-linejoin:round;stroke-miterlimit:2"><path d="M.025-.148c.04.105.125.163.241.163.115 0 .227-.058.227-.198 0-.13-.098-.174-.204-.216C.186-.441.137-.473.137-.544c0-.076.056-.117.134-.117.049 0 .098.016.142.061l.035-.038a.245.245 0 0 0-.177-.075c-.106 0-.189.063-.189.166 0 .103.08.154.189.196.109.042.164.082.164.168 0 .094-.066.147-.172.147-.098 0-.157-.047-.191-.134l-.047.022Z" style="fill:#080605;fill-rule:nonzero" transform="translate(-5.206 148.542) scale(208.333)"/><path style="fill:#080605;fill-rule:nonzero" d="M.08-.7h.06V0H.08z" transform="translate(113.627 148.542) scale(208.333)"/><path d="M.08-.7V0h.06v-.7H.08Zm.409.378a.154.154 0 0 0-.066-.135L.542-.7H.479L.37-.479a.142.142 0 0 0-.036-.004c-.089 0-.148.063-.148.135 0 .07.048.118.115.139L.38-.368a.085.085 0 0 0-.047-.021l-.056.111A.074.074 0 0 1 .24-.344c0-.045.032-.087.093-.087.056 0 .096.039.096.109v.19c0 .099.044.145.153.132v-.052C.523-.043.489-.05.489-.136v-.186Z" style="fill:#080605;fill-rule:nonzero" transform="translate(168.294 148.542) scale(208.333)"/><path d="M.315-.71a.253.253 0 0 0-.26.26c0 .155.116.261.26.261A.254.254 0 0 0 .576-.45a.254.254 0 0 0-.261-.26Zm0 .469A.203.203 0 0 1 .107-.45c0-.123.094-.208.208-.208.115 0 .209.085.209.208a.204.204 0 0 1-.209.209Zm.001-.256L.27-.45l.046.046.047-.046-.047-.047Zm.157.442H.157V0h.316v-.055Z" style="fill:#080605;fill-rule:nonzero" transform="translate(292.127 148.542) scale(208.333)"/><path d="M.508-.296A.18.18 0 0 0 .471-.41a.24.24 0 0 0 .015-.082C.486-.633.387-.71.27-.71a.278.278 0 0 0-.075.011v.053a.243.243 0 0 1 .074-.012c.096 0 .163.055.163.164a.18.18 0 0 1-.005.045.213.213 0 0 0-.109-.031c-.082 0-.13.05-.13.111 0 .068.059.107.118.107.044 0 .089-.02.109-.054a.091.091 0 0 0-.027-.039c-.015.026-.049.041-.08.041-.045 0-.066-.027-.066-.054 0-.03.024-.06.074-.06.063 0 .132.035.132.133v.163c0 .099.044.145.153.132v-.052C.542-.043.508-.049.508-.136v-.16ZM.08-.7V0h.06v-.7H.08Z" style="fill:#080605;fill-rule:nonzero" transform="translate(429.294 148.542) scale(208.333)"/><path d="m-.09-.7.211.392.035-.047-.18-.345H-.09Zm.233.435V0h.06v-.251L.362-.47C.439-.577.419-.634.397-.7h-.06c.023.062.037.118-.016.19l-.178.245Z" style="fill:#080605;fill-rule:nonzero" transform="translate(575.21 148.542) scale(208.333)"/></svg>